<?xml version="1.0" standalone="no"?> <!DOCTYPE svg PUBLIC "-//W3C//DTD SVG 1.0//EN" "http://www.w3.org/TR/2001/REC-SVG-20010904/DTD/svg10.dtd" > <svg xmlns="http://www.w3.org/2000/svg" width="100%" height="100%">
<defs >
<font horiz-adv-x="585" ><font-face
    font-family=""
    units-per-em="1000"
    panose-1="2 4 8 2 6 5 4 6 2 3"
    ascent="781"
    descent="-219"
    alphabetic="0" />
<missing-glyph horiz-adv-x="516" />
<glyph unicode=" " glyph-name="space" horiz-adv-x="273" />
<glyph unicode="!" glyph-name="exclam" horiz-adv-x="317" d="M68 573Q59 606 63 630T80 671T113 695T159 703Q183 703 203 695T237 671T254 631T249 573L180 241H137L68 573ZM158 -8Q138 -8 121 -1T91 18T71 48T64 84Q64 103 71 120T91 150T121 170T158 178Q178
178 195 171T226 150T246 120T254 84Q254 65 247 48T226 19T196 -1T158 -8Z" />
<glyph unicode="&quot;" glyph-name="quotedbl" horiz-adv-x="432" d="M44 605Q37 633 41 652T56 684T83 702T116 708Q132 708 148 703T175 685T190 653T188 605L134 387H98L44 605ZM244 605Q237 633 241 652T256 684T283 702T316 708Q332 708 348 703T375 685T390
653T388 605L334 387H298L244 605Z" />
<glyph unicode="#" glyph-name="numbersign" horiz-adv-x="555" d="M128 181H40L59 285H148L172 411H87L105 515H195L230 693H295L260 515H368L403 693H469L434 515H521L503 411H413L387 285H476L457 181H367L331 0H265L301 181H192L158 0H92L128 181ZM321 285L347
411H238L214 285H321Z" />
<glyph unicode="$" glyph-name="dollar" horiz-adv-x="553" d="M237 -11Q123 -7 70 29T17 121Q17 155 37 169T86 184Q103 184 116 182T139 170T155 143T165 91Q167 77 170 67T182 51T203 42T237 37V282Q180 304 141 327T79 378T46 435T36 500Q36 540 51 574T94
635T161 679T247 701V799H303V703Q359 701 398 690T463 661T499 623T511 579Q511 550 490 531T440 512Q417 512 403 517T381 533T368 563T361 609Q358 634 345 643T303 655V429Q364 405 406 381T473 329T509 269T520 198Q520 158 504 122T459 58T387 12T294 -11V-158H237V-11ZM384
141Q384 179 365 208T294 260V38Q339 44 361 70T384 141ZM160 564Q160 526 178 501T247 452V654Q205 648 183 625T160 564Z" />
<glyph unicode="%" glyph-name="percent" horiz-adv-x="870" d="M214 344Q179 344 147 354T89 387T48 442T32 520Q32 569 50 604T96 661T156 694T217 704Q250 704 282 693T341 660T383 605T400 527Q400 479 383 445T338 388T278 355T214 344ZM652 714H727L197
-50H124L652 714ZM652 -13Q617 -13 585 -3T527 30T486 84T471 162Q471 211 489 246T534 304T594 336T655 347Q688 347 720 336T779 303T821 248T838 169Q838 121 821 87T776 31T716 -2T652 -13ZM216 387Q252 387 267 417T283 519Q283 560 279 587T267 630T246 654T216
661Q184 661 167 633T149 528Q149 449 165 418T216 387ZM654 30Q691 30 705 60T720 162Q720 203 716 230T704 273T684 297T654 304Q623 304 606 275T588 170Q588 92 603 61T654 30Z" />
<glyph unicode="&amp;" glyph-name="ampersand" horiz-adv-x="762" d="M283 -12Q214 -12 165 3T84 45T38 105T23 177Q23 214 37 244T75 299T131 342T199 375Q176 408 165 441T153 514Q153 555 169 590T214 650T281 690T362 705Q403 705 437 696T495 668T533 625T547
570Q547 540 533 514T495 466T440 427T375 396Q415 342 454 292T536 192Q576 256 576 299Q576 319 568 327T543 341L513 348V387H741V348L715 341Q688 333 669 312T622 246Q611 226 600 203T571 154Q590 132 603 119T634 87Q647 74 661 64T695 50L734 40V0H505Q494
9 485 19T465 41Q432 17 388 3T283 -12ZM350 430Q388 454 412 485T436 567Q436 617 416 636T363 655Q328 655 309 635T289 573Q289 531 306 498T350 430ZM327 48Q360 48 385 56T428 79Q373 140 322 204T224 337Q203 314 191 284T179 210Q179 130 220 89T327 48Z"
/>
<glyph unicode="&apos;" glyph-name="quotesingle" horiz-adv-x="227" d="M42 605Q35 633 39 652T54 684T81 702T114 708Q130 708 146 703T173 685T188 653T186 605L132 387H96L42 605Z" />
<glyph unicode="(" glyph-name="parenleft" horiz-adv-x="345" d="M306 -141Q263 -113 216 -71T130 26T65 151T39 305Q39 382 64 449T129 573T216 673T306 745L333 716Q262 650 221 549T180 322Q180 240 190 176T221 61T269 -33T333 -112L306 -141V-141Z" />
<glyph unicode=")" glyph-name="parenright" horiz-adv-x="345" d="M39 745Q82 716 129 673T215 574T280 448T306 300Q306 219 281 151T216 27T129 -71T39 -141L12 -112Q47 -75 75 -33T124 59T155 171T166 306Q166 447 125 548T12 716L39 745V745Z" />
<glyph unicode="*" glyph-name="asterisk" horiz-adv-x="450" d="M104 346Q94 353 88 363T81 386T88 412T115 439L204 501L94 506Q72 506 58 512T37 528T29 550T33 574Q36 585 44 593T64 604T91 603T124 586L209 530L180 629Q173 650 174 665T183 689T201 703T226
708Q251 708 267 690T269 629L240 530L327 586Q345 599 360 603T386 604T406 592T418 571Q422 559 421 548T413 527T391 512T356 506L245 501L335 438Q354 426 361 413T369 387T361 364T344 346Q334 339 322 337T299 338T278 353T262 385L227 483L188 386Q181 365
171 354T149 338T126 336T104 346Z" />
<glyph unicode="+" glyph-name="plus" horiz-adv-x="502" d="M213 303H46V371H213V545H290V371H456V303H290V129H213V303Z" />
<glyph unicode="," glyph-name="comma" horiz-adv-x="322" d="M21 -137Q67 -118 96 -98T143 -58T166 -17T172 25Q166 19 155 15T129 11Q94 11 74 33T54 94Q54 113 61 129T82 158T114 177T154 184Q203 184 236 151T270 54Q270 20 257 -14T216 -79T142 -134T32 -171L21
-137Z" />
<glyph unicode="-" glyph-name="hyphen" horiz-adv-x="299" d="M43 338H269L257 240H31L43 338Z" />
<glyph unicode="." glyph-name="period" horiz-adv-x="307" d="M153 -8Q133 -8 115 -1T84 20T63 50T55 87Q55 128 83 156T153 184Q195 184 223 156T252 87Q252 67 245 50T224 20T192 0T153 -8Z" />
<glyph unicode="/" glyph-name="slash" horiz-adv-x="411" d="M318 734H388L75 -130H6L318 734Z" />
<glyph unicode="0" glyph-name="zero" horiz-adv-x="706" d="M348 -12Q288 -12 232 8T133 71T63 180T37 337Q37 437 68 507T146 621T249 685T355 705Q412 705 468 684T569 620T641 509T669 351Q669 255 640 187T565 74T461 9T348 -12ZM352 39Q387 39 412 55T452
106T475 198T483 336Q483 428 475 489T451 587T410 639T352 654Q321 654 297 640T256 591T231 498T222 353Q222 266 229 206T253 109T293 56T352 39Z" />
<glyph unicode="1" glyph-name="one" horiz-adv-x="418" d="M32 40L77 47Q90 50 98 53T111 63T118 83T120 119V525L33 531V573Q108 588 165 621T264 701L301 695V119Q301 96 303 83T309 63T322 53T344 47L386 40V0H32V40Z" />
<glyph unicode="2" glyph-name="two" horiz-adv-x="561" d="M22 79Q92 133 143 179T240 275Q267 304 287 331T321 387T342 449T349 524Q349 596 322 627T252 659Q220 659 209 648T196 610Q194 552 173 531T109 510Q74 510 55 527T35 580Q35 604 49 626T91 666T164
694T268 705Q325 705 372 693T454 655T508 593T527 504Q527 451 499 402T420 306T303 216T158 130V125H395Q414 125 426 127T448 138T466 162T487 204H525L510 0H22V79Z" />
<glyph unicode="3" glyph-name="three" horiz-adv-x="575" d="M240 -12Q131 -12 76 19T20 105Q20 135 38 154T91 174Q109 174 122 171T146 158T163 133T174 91Q177 73 180 62T189 45T207 37T238 34Q301 34 325 78T350 196Q350 236 342 262T318 304T278 326T219
333H168V388H210Q278 388 307 419T336 527Q336 596 311 627T242 659Q219 659 209 652T196 620Q193 593 188 576T174 548T151 533T116 529Q80 529 63 547T46 593Q46 620 62 640T108 675T176 697T262 705Q375 705 440 661T506 539Q506 511 495 485T462 436T403 397T318
371V367Q365 364 404 352T472 318T517 265T533 191Q533 149 515 112T461 48T370 4T240 -12Z" />
<glyph unicode="4" glyph-name="four" horiz-adv-x="618" d="M236 40L273 47Q285 50 293 53T306 63T313 83T315 119V189H21V248L379 693H487V265H593L582 189H487V119Q487 96 488 83T495 63T508 53T530 47L570 40V0H236V40ZM315 265V523H312L105 269V265H315Z" />
<glyph unicode="5" glyph-name="five" horiz-adv-x="560" d="M233 -12Q135 -12 83 20T30 104Q30 131 48 150T102 170Q121 170 135 167T159 153T176 126T184 80Q187 52 197 43T242 34Q307 34 341 69T375 173Q375 212 363 239T327 284T273 309T203 317Q161 317 133
313T88 301L77 309L119 693H403Q415 693 422 695T436 702T449 718T465 746H504L485 570H167L151 438Q159 440 168 442T190 447T219 450T259 451Q316 451 365 437T449 396T504 326T524 228Q524 177 504 133T445 57T353 7T233 -12Z" />
<glyph unicode="6" glyph-name="six" horiz-adv-x="630" d="M322 -12Q265 -12 213 7T122 65T59 166T35 311Q35 417 67 492T151 614T267 683T398 705Q480 705 528 680T577 608Q577 579 558 562T502 544Q463 544 445 561T422 624Q420 641 411 650T372 659Q344 659
318 644T270 595T234 506T218 371Q244 389 281 404T373 420Q423 420 464 407T534 368T580 304T596 215Q596 165 577 123T523 51T437 5T322 -12ZM325 39Q354 39 372 47T400 75T414 126T418 205Q418 248 412 277T392 323T358 348T310 355Q281 355 259 347T217 326V308Q217
234 221 183T236 100T269 54T325 39Z" />
<glyph unicode="7" glyph-name="seven" horiz-adv-x="540" d="M115 0Q135 91 166 170T239 318T330 450T434 569H143Q126 569 116 567T99 556T84 532T66 489H26L45 693H520V614Q467 543 430 472T367 326T327 171T304 0H115V0Z" />
<glyph unicode="8" glyph-name="eight" horiz-adv-x="599" d="M294 -12Q238 -12 190 -1T106 32T51 86T31 160Q31 188 42 213T75 259T124 298T185 330V333Q122 365 91 406T60 504Q60 550 80 587T135 650T214 690T307 705Q351 705 392 696T466 667T518 617T538 545Q538
521 527 500T498 459T456 423T404 395V391Q444 371 474 352T525 309T556 259T567 198Q567 155 547 117T489 51T402 5T294 -12ZM359 417Q379 439 398 471T417 542Q417 600 387 626T299 652Q248 652 217 627T185 563Q185 540 196 521T229 485T283 452T359 417ZM303
41Q361 41 398 66T436 140Q436 167 424 187T385 226T319 264T223 309Q201 286 180 254T159 172Q159 41 303 41Z" />
<glyph unicode="9" glyph-name="nine" horiz-adv-x="630" d="M307 703Q367 703 419 684T511 626T572 525T595 380Q595 277 567 203T491 80T378 9T240 -14Q155 -14 106 11T56 85Q56 115 74 132T133 150Q169 150 187 132T213 68Q215 51 224 42T264 32Q298 32 324
47T368 97T398 186T412 318Q386 301 347 285T250 268Q150 268 92 322T34 483Q34 531 53 571T107 641T193 687T307 703ZM304 652Q277 652 259 644T231 618T216 569T212 493Q212 448 218 418T238 369T271 343T317 335Q346 335 369 344T413 364V384Q413 458 409 509T393
592T360 638T304 652Z" />
<glyph unicode=":" glyph-name="colon" horiz-adv-x="319" d="M160 305Q139 305 121 312T90 333T69 363T61 400Q61 441 89 468T160 496Q201 496 229 469T258 400Q258 380 251 363T230 333T198 313T160 305ZM160 -8Q139 -8 121 -1T90 20T69 50T61 87Q61 128 89
156T160 184Q201 184 229 156T258 87Q258 67 251 50T230 20T198 0T160 -8Z" />
<glyph unicode=";" glyph-name="semicolon" horiz-adv-x="325" d="M160 305Q139 305 121 312T90 333T69 363T61 400Q61 441 89 468T160 496Q201 496 229 469T258 400Q258 380 251 363T230 333T198 313T160 305ZM26 -137Q72 -118 101 -98T148 -58T171 -17T177 25Q171
19 160 15T134 11Q99 11 79 33T59 94Q59 113 66 129T87 158T119 177T159 184Q208 184 241 151T275 54Q275 20 262 -14T221 -79T147 -134T37 -171L26 -137Z" />
<glyph unicode="&lt;" glyph-name="less" horiz-adv-x="503" d="M50 288V367L452 543V467L120 328L452 189V112L50 288Z" />
<glyph unicode="=" glyph-name="equal" horiz-adv-x="552" d="M46 458H506V390H46V458ZM46 284H506V216H46V284Z" />
<glyph unicode="&gt;" glyph-name="greater" horiz-adv-x="503" d="M50 112V189L382 328L50 467V543L452 367V288L50 112Z" />
<glyph unicode="?" glyph-name="question" horiz-adv-x="502" d="M156 400Q184 407 211 418T261 447T297 491T311 555Q311 578 304 597T284 629T255 650T221 657Q199 657 192 649T181 615Q175 572 156 553T99 533Q64 533 48 552T31 596Q31 648 85 676T227 705Q339
705 399 658T459 524Q459 478 440 441T387 376T311 330T219 304V238H156V400ZM192 -8Q172 -8 155 -1T125 18T105 48T97 84Q97 103 104 120T124 150T154 170T192 178Q212 178 229 171T259 150T279 120T287 84Q287 65 280 48T260 19T230 -1T192 -8Z" />
<glyph unicode="@" glyph-name="at" horiz-adv-x="996" d="M477 -190Q379 -190 299 -163T161 -83T72 42T40 207Q40 311 82 401T195 558T360 663T555 701Q649 701 723 678T850 613T929 509T957 371Q957 280 928 216T855 112T758 53T658 34Q620 34 597 41T561 61T543
90T537 126H533Q504 78 466 57T381 35Q330 35 300 70T269 174Q269 243 294 302T358 404T447 471T546 496Q588 496 618 485T669 459H673L722 492L743 481Q738 473 733 458Q728 445 723 424T711 372L674 179Q664 130 671 112T711 93Q742 93 770 110T821 159T856 237T870
340Q870 412 852 470T794 568T696 630T554 652Q470 652 395 620T264 532T175 399T142 231Q142 146 162 78T226 -39T336 -112T498 -138Q578 -138 645 -122T767 -81V-126Q745 -137 718 -148T655 -169T575 -184T477 -190ZM451 117Q477 117 496 138T535 190L579 419Q577
421 574 426T567 436T555 444T538 448Q514 448 491 426T449 366T419 282T407 184Q407 144 418 131T451 117Z" />
<glyph unicode="A" glyph-name="A" horiz-adv-x="726" d="M5 40L32 47Q43 50 51 54T67 67T83 92T102 135L308 693H410L624 131Q634 105 642 90T657 66T673 53T692 45L716 40V0H389V40L417 47Q437 52 445 59T454 81Q454 94 449 109T436 146L413 209H196L174 146Q167
125 163 112T158 85Q158 67 168 60T202 47L231 40V0H5V40ZM215 264H394L306 511H301L215 264Z" />
<glyph unicode="B" glyph-name="B" horiz-adv-x="689" d="M27 40L62 47Q74 50 81 53T93 63T100 83T102 119V574Q102 597 100 610T94 630T82 640T62 646L27 654V693H351Q490 693 557 654T625 529Q625 461 577 424T437 373V368Q545 356 601 317T658 195Q658 99 587
50T380 0H27V40ZM337 389Q400 389 425 416T451 512Q451 553 445 578T425 617T390 635T341 640Q321 640 305 638T279 633V389H337ZM360 53Q387 53 408 58T443 79T464 122T472 193Q472 235 465 262T443 306T403 329T345 336H279V119Q279 98 282 85T293 65T318 56T360
53Z" />
<glyph unicode="C" glyph-name="C" horiz-adv-x="657" d="M396 -12Q316 -12 250 9T137 75T63 185T36 341Q36 438 66 507T148 620T267 684T410 705Q469 705 520 698T604 682L615 475H573Q550 522 532 556T493 616Q482 629 473 636T454 648T430 653T397 654Q350
654 318 639T265 590T235 499T225 361Q225 264 235 202T267 103T320 53T396 39Q420 39 437 42T467 53T490 72T512 98Q522 113 530 126T547 155T563 187T581 228H622L611 29Q574 14 519 1T396 -12Z" />
<glyph unicode="D" glyph-name="D" horiz-adv-x="763" d="M27 40L62 47Q74 50 81 53T93 63T100 83T102 119V574Q102 597 100 610T94 630T82 640T62 646L27 654V693H371Q451 693 516 674T629 615T702 511T728 358Q728 272 703 206T630 94T516 24T366 0H27V40ZM356
53Q456 53 498 121T541 335Q541 423 530 481T495 575T437 625T354 640Q328 640 309 638T281 631V147Q281 117 284 99T295 71T317 57T356 53Z" />
<glyph unicode="E" glyph-name="E" horiz-adv-x="663" d="M27 40L62 47Q74 50 81 53T93 63T100 83T102 119V574Q102 597 100 610T94 630T82 640T62 646L27 654V693H599L610 493H566Q548 535 535 558T509 599Q497 614 486 622T460 634T427 638T381 639Q338 639
317 636T281 630V387H300Q328 387 346 388T375 393T393 401T405 416Q416 434 422 447T435 484H479V231H435Q429 255 423 268T405 303Q400 313 394 318T377 327T347 331T300 332H281V144Q281 110 283 92T295 65T328 56T390 54Q422 54 442 55T476 62T500 76T524 103Q538
123 554 155T591 236H635L620 0H27V40Z" />
<glyph unicode="F" glyph-name="F" horiz-adv-x="634" d="M27 40L62 47Q74 50 81 53T93 63T100 83T102 119V574Q102 597 100 610T94 630T82 640T62 646L27 654V693H593L603 487H560Q542 530 530 553T501 598Q489 613 479 621T456 633T423 639T375 640Q339 640
317 637T281 631V376H290Q320 376 339 377T369 382T387 391T398 405Q410 422 417 438T432 481H473V211H432Q424 237 417 254T398 291Q392 301 386 307T369 316T340 320T290 321H281V119Q281 96 282 84T288 64T301 54T323 48L370 40V0H27V40Z" />
<glyph unicode="G" glyph-name="G" horiz-adv-x="725" d="M403 -12Q223 -12 130 78T36 343Q36 441 67 509T151 621T275 685T425 705Q489 705 537 699T620 682L633 473H588Q567 521 548 551T511 606Q502 619 494 628T475 642T448 649T407 651Q359 651 324 636T267
586T234 496T223 361Q223 270 232 209T261 111T314 58T398 42Q426 42 446 47T482 61V200Q482 223 480 236T474 256T462 265T442 271L405 280V319H713V280L686 273Q675 270 669 267T659 257T654 236T653 200V29Q631 21 601 14T538 1T470 -8T403 -12Z" />
<glyph unicode="H" glyph-name="H" horiz-adv-x="804" d="M27 40L62 47Q74 50 81 53T93 63T100 83T102 119V574Q102 597 100 610T94 630T82 640T62 646L27 654V693H357V654L322 646Q310 643 302 640T290 630T283 610T281 574V383H521V574Q521 597 520 610T514
629T502 639T482 646L447 654V693H777V654L741 646Q729 643 721 640T709 630T702 610T700 574V119Q700 96 702 84T708 64T721 53T741 47L777 40V0H447V40L482 47Q494 50 501 53T513 63T519 83T521 119V326H281V119Q281 96 282 84T288 64T301 53T322 47L357 40V0H27V40Z"
/>
<glyph unicode="I" glyph-name="I" horiz-adv-x="390" d="M27 40L65 47Q77 50 84 53T96 63T103 83T105 119V574Q105 597 103 610T97 630T85 640T65 646L27 654V693H365V654L325 646Q313 643 305 640T293 630T287 610T285 574V119Q285 96 286 83T292 63T305 53T325
47L365 40V0H27V40Z" />
<glyph unicode="J" glyph-name="J" horiz-adv-x="378" d="M31 -195Q-47 -195 -85 -165T-123 -93Q-123 -61 -104 -43T-50 -24Q-10 -24 8 -45T37 -121Q40 -137 44 -142T59 -148Q82 -148 92 -133T102 -72V574Q102 597 100 610T94 630T82 640T62 646L24 654V693H358V654L322
646Q310 643 302 640T290 630T283 610T281 574V52Q281 -2 265 -47T217 -126T138 -177T31 -195Z" />
<glyph unicode="K" glyph-name="K" horiz-adv-x="749" d="M513 0Q455 75 403 159T308 330V347L464 523Q494 555 505 577T516 612Q516 624 505 633T480 646L449 654V693H707V654L695 650Q680 646 668 641T644 625T618 600T582 563L445 416Q467 374 493 329T548
238T606 151T662 73Q673 61 679 57T696 49L739 40V0H513ZM27 40L62 47Q74 50 81 53T93 63T100 83T102 119V574Q102 597 100 610T94 630T82 640T62 646L27 654V693H357V654L322 646Q309 643 301 640T289 630T283 610T281 574V119Q281 96 282 84T288 64T301 53T322
47L357 40V0H27V40Z" />
<glyph unicode="L" glyph-name="L" horiz-adv-x="640" d="M27 40L62 47Q74 50 81 53T93 63T100 83T102 119V574Q102 597 100 610T94 630T82 640T62 646L27 654V693H364V654L322 645Q309 643 301 640T289 630T283 610T281 574V145Q281 113 283 95T294 67T322 56T374
53Q405 53 425 55T460 65T485 83T507 112Q522 136 539 164T577 247H622L605 0H27V40Z" />
<glyph unicode="M" glyph-name="M" horiz-adv-x="915" d="M27 40L58 47Q70 50 78 53T92 64T100 88T102 129V574Q102 597 100 610T94 630T82 640T62 646L27 654V693H319L462 256H465L609 693H888V654L852 646Q841 643 834 640T822 630T815 610T813 574V119Q813
96 814 84T820 64T832 53T852 47L888 40V0H566V40L601 47Q613 50 620 53T632 63T638 83T640 119V613H636L448 15H374L171 613H167V134Q167 106 168 90T175 66T190 54T214 47L245 40V0H27V40Z" />
<glyph unicode="N" glyph-name="N" horiz-adv-x="740" d="M171 575H167V134Q167 106 168 90T175 66T190 54T216 47L252 40V0H27V40L58 47Q70 50 78 53T92 64T100 88T102 129V574Q102 597 100 610T94 630T82 640T62 646L27 654V693H301L571 286H575V560Q575 587
574 603T567 627T553 639T527 646L486 654V693H715V654L685 647Q672 644 664 641T650 629T642 606T640 564V-2H558L171 575Z" />
<glyph unicode="O" glyph-name="O" horiz-adv-x="763" d="M378 -12Q311 -12 249 9T140 73T65 182T36 338Q36 437 67 506T149 620T261 684T385 705Q452 705 513 685T622 622T698 513T727 353Q727 254 696 185T614 72T502 8T378 -12ZM383 42Q423 42 453 54T502 99T530
188T540 332Q540 418 532 478T504 577T455 633T379 651Q340 651 311 639T262 593T233 504T223 359Q223 274 231 214T258 116T307 60T383 42Z" />
<glyph unicode="P" glyph-name="P" horiz-adv-x="673" d="M27 40L62 47Q74 50 81 53T93 63T100 83T102 119V574Q102 597 101 610T95 630T84 640T67 645L27 654V693H360Q500 693 572 641T645 483Q645 440 630 400T586 330T517 281T428 262Q393 262 372 268T343
279V317Q374 317 397 323T434 347T455 396T462 476Q462 522 456 553T437 604T402 631T349 640Q328 640 309 638T281 632V119Q281 97 282 84T288 65T301 55T323 49L369 40V0H27V40Z" />
<glyph unicode="Q" glyph-name="Q" horiz-adv-x="763" d="M618 -173Q588 -173 563 -169T514 -158T468 -138T420 -110Q388 -89 352 -60T276 5Q224 18 180 45T104 113T54 211T36 338Q36 437 67 506T149 620T261 684T385 705Q452 705 513 685T622 622T698 513T727
353Q727 277 708 220T657 122T582 55T489 16V13Q510 -5 534 -23T584 -58Q622 -81 652 -89T710 -98Q734 -98 757 -91T795 -77V-110Q773 -131 730 -152T618 -173ZM383 40Q423 40 453 52T502 98T530 187T540 332Q540 418 532 478T504 577T455 634T379 652Q340 652
311 639T262 593T233 504T223 359Q223 274 231 214T258 115T307 58T383 40Z" />
<glyph unicode="R" glyph-name="R" horiz-adv-x="735" d="M27 40L62 47Q74 50 81 53T93 63T100 83T102 119V574Q102 597 100 610T94 630T82 640T62 646L27 654V693H360Q510 693 577 647T644 510Q644 447 610 404T504 340V336Q520 303 539 268T579 199T621 131T662
70Q670 59 679 56T712 45L731 40V0H513Q490 29 468 65T423 141T382 220T348 295Q345 295 335 295T312 295T290 296T278 296V119Q278 96 280 83T287 63T299 53T319 47L356 40V0H27V40ZM330 348Q399 348 430 381T462 497Q462 540 457 568T438 612T404 634T352 640Q326
640 307 638T278 633V352Q282 351 296 350T330 348Z" />
<glyph unicode="S" glyph-name="S" horiz-adv-x="558" d="M256 -12Q184 -12 132 -3T46 18L34 212H77Q98 172 114 145T151 92Q171 68 195 55T262 41Q289 41 312 49T351 71T377 103T386 141Q386 162 379 179T355 213T307 245T231 279Q176 300 140 322T81 371T50
429T40 498Q40 543 58 581T109 646T188 689T292 705Q356 705 398 700T471 685L483 511H440Q430 530 422 545T407 572T391 595T372 618Q357 635 337 643T281 652Q230 652 198 625T166 557Q166 539 171 525T192 498T234 470T306 439Q366 416 407 393T475 344T512
288T524 220Q524 172 507 130T455 56T371 6T256 -12Z" />
<glyph unicode="T" glyph-name="T" horiz-adv-x="668" d="M163 40L202 47Q216 50 224 53T237 63T243 83T245 119V640Q221 640 204 639T175 633T153 620T133 596Q124 583 116 569T101 538T85 501T66 455H21L31 693H637L647 455H602Q582 506 569 538T536 596Q525
611 516 620T494 633T466 639T424 640V119Q424 96 425 84T430 64T443 53T466 47L505 40V0H163V40Z" />
<glyph unicode="U" glyph-name="U" horiz-adv-x="739" d="M390 -12Q325 -12 271 0T178 40T117 113T95 223V574Q95 597 93 610T87 630T75 640T55 646L18 654V693H349V654L315 646Q302 643 294 640T282 630T276 610T274 574V203Q274 165 282 139T308 95T357 70T432
62Q510 62 545 102T581 217V560Q581 587 579 603T572 627T558 639T532 646L490 654V693H719V654L689 647Q677 644 669 641T655 629T648 606T645 564V209Q645 163 630 123T584 52T505 5T390 -12Z" />
<glyph unicode="V" glyph-name="V" horiz-adv-x="713" d="M104 549Q94 574 87 591T72 619T56 638T34 648L11 654V693H340V654L310 647Q291 642 284 633T276 608Q276 595 281 576T294 534L418 183H423L538 534Q553 579 553 604Q553 623 544 632T515 647L482 654V693H705V654L678
646Q667 643 659 637T645 619T631 590T614 545L420 0H315L104 549Z" />
<glyph unicode="W" glyph-name="W" horiz-adv-x="1059" d="M103 558Q94 582 87 598T74 625T59 640T40 648L14 654V693H338V654L310 647Q294 643 286 635T277 609Q277 594 282 575T294 534L397 190H402L509 488L483 571Q469 609 457 625T422 647L400 654V693H718V654L682
646Q667 644 658 634T648 606Q648 592 652 574T663 534L775 190H780L879 535Q884 555 888 573T892 606Q892 624 883 633T856 647L823 654V693H1045V654L1020 648Q1007 645 998 638T981 617T966 583T949 535L780 0H669L546 397H540L401 0H284L103 558Z" />
<glyph unicode="X" glyph-name="X" horiz-adv-x="750" d="M25 40L45 44Q57 47 67 52T89 67T112 92T142 132L281 336L127 575Q116 592 108 603T92 623T74 637T53 647L30 654V693H385V654L348 646Q317 639 317 615Q317 604 324 589T347 549L430 418H433L512 553Q536
593 536 616Q536 630 527 637T501 647L469 654V693H703V654L677 647Q666 644 658 639T640 625T619 599T590 558L470 369L631 121Q645 99 655 86T673 64T688 52T706 45L725 40V0H376V40L412 46Q429 48 437 56T445 77Q445 88 436 104T414 143L321 290H318L226 147Q212
124 205 107T197 78Q197 52 227 46L259 40V0H25V40Z" />
<glyph unicode="Y" glyph-name="Y" horiz-adv-x="685" d="M178 40L217 47Q230 50 238 53T250 63T256 83T258 119V284L107 561Q93 585 84 600T65 625T48 639T29 647L8 654V693H350V654L322 647Q300 642 291 633T282 607Q282 596 288 583T304 550L397 358H402L497
543Q516 585 516 608Q516 624 506 633T478 647L449 654V693H678V654L658 647Q634 639 615 619T572 550L437 290V119Q437 96 438 84T444 64T457 53T479 47L519 40V0H178V40Z" />
<glyph unicode="Z" glyph-name="Z" horiz-adv-x="611" d="M21 56L380 640V644H339Q287 644 255 643T203 637T172 623T149 599Q139 585 131 573T115 547T97 514T75 470H35L47 693H567V638L210 55V51H244Q299 51 333 52T389 59T424 75T450 102Q461 116 470 130T488
160T506 197T527 243H568L552 0H21V56Z" />
<glyph unicode="[" glyph-name="bracketleft" horiz-adv-x="384" d="M99 734H352V695L280 687Q262 685 251 682T233 671T224 650T222 613V-9Q222 -32 224 -45T232 -66T250 -77T280 -83L352 -91V-130H99V734Z" />
<glyph unicode="\" glyph-name="backslash" horiz-adv-x="411" d="M23 734H92L405 -130H335L23 734Z" />
<glyph unicode="]" glyph-name="bracketright" horiz-adv-x="384" d="M285 -130H32V-91L102 -83Q121 -81 133 -78T151 -67T160 -46T162 -9V613Q162 636 160 649T152 670T133 681T102 687L32 695V734H285V-130Z" />
<glyph unicode="^" glyph-name="asciicircum" horiz-adv-x="442" d="M44 464L195 697H246L398 464L375 441L220 568L67 441L44 464Z" />
<glyph unicode="_" glyph-name="underscore" horiz-adv-x="362" d="M-3 -108H365V-176H-3V-108Z" />
<glyph unicode="`" glyph-name="grave" horiz-adv-x="511" d="M176 639Q151 645 141 661T130 694Q130 717 145 735T183 753Q198 753 210 747T237 730L377 618L364 590L176 639Z" />
<glyph unicode="a" glyph-name="a" horiz-adv-x="561" d="M180 -12Q108 -12 67 23T25 122Q25 155 35 180T70 226T135 263T236 294L317 312V387Q317 417 314 436T302 466T278 481T240 485Q216 485 209 478T200 448Q196 400 177 380T117 359Q82 359 66 375T49 422Q49
473 109 503T274 533Q371 533 423 501T475 396V129Q475 102 479 89T500 68Q509 63 522 61T548 58V22Q533 11 504 0T430 -12Q386 -12 360 4T325 49H320Q301 25 266 7T180 -12ZM251 65Q276 65 292 73T317 95V252L267 247Q221 244 200 222T179 145Q179 97 199 81T251
65Z" />
<glyph unicode="b" glyph-name="b" horiz-adv-x="635" d="M299 -12Q224 -12 169 1T69 43V627Q69 645 68 655T64 672T54 683T38 693L-1 712V747L221 766L235 756Q233 743 231 725Q229 710 228 689T227 641V562Q227 542 226 525T224 494Q222 479 221 466H226Q257
491 301 511T402 532Q438 532 474 520T539 478T586 403T604 287Q604 209 581 153T517 60T421 6T299 -12ZM311 40Q343 40 367 49T407 81T432 146T441 253Q441 355 409 398T326 442Q284 442 263 435T227 419V73Q242 58 262 49T311 40Z" />
<glyph unicode="c" glyph-name="c" horiz-adv-x="524" d="M285 -12Q223 -12 176 7T96 60T46 144T29 255Q29 333 57 386T131 472T231 519T339 533Q416 533 458 509T501 440Q501 410 482 385T430 360Q391 360 376 382T358 436Q354 465 346 473T312 481Q289 481 267
473T228 445T199 390T188 300Q188 192 229 135T357 77Q405 77 438 89T500 116V71Q489 58 470 44T423 17T361 -4T285 -12Z" />
<glyph unicode="d" glyph-name="d" horiz-adv-x="649" d="M235 -12Q197 -12 161 2T97 46T51 125T33 242Q33 320 57 375T122 465T216 516T330 532Q353 532 375 530T414 522Q412 532 411 544Q410 554 410 567T409 594V627Q409 644 408 654T403 670T393 681T377 690L335
712V747L560 766L574 756Q572 743 570 725Q567 695 567 641V131Q567 113 568 102T572 84T582 73T600 65L630 52V17L422 -12L412 -4L416 52H412Q379 25 334 7T235 -12ZM319 78Q352 78 374 86T408 101V439Q395 454 375 467T326 480Q297 480 273 470T232 436T206 372T196
273Q196 217 204 180T227 120T266 88T319 78Z" />
<glyph unicode="e" glyph-name="e" horiz-adv-x="556" d="M295 -12Q161 -12 95 61T29 262Q29 326 51 376T111 462T196 515T295 533Q348 533 390 519T463 474T509 393T527 272H186Q189 217 201 180T236 120T289 87T359 77Q409 77 445 89T512 115V70Q499 56 478
42T430 15T368 -4T295 -12ZM288 483Q267 483 250 475T219 447T197 397T186 322L368 331Q368 376 365 405T352 451T328 476T288 483Z" />
<glyph unicode="f" glyph-name="f" horiz-adv-x="374" d="M20 39L49 46Q61 49 68 52T80 62T85 77T86 103V448H13V485L86 519V558Q86 608 104 647T155 714T235 756T341 771Q401 771 434 751T468 688Q468 663 452 646T407 629Q372 629 353 643T330 696Q328 716 325
720T310 725Q298 725 286 721T265 705T250 675T244 627V519H365L347 448H244V105Q244 87 245 77T249 60T259 52T278 47L319 39V0H20V39Z" />
<glyph unicode="g" glyph-name="g" horiz-adv-x="563" d="M229 -229Q117 -229 56 -200T-6 -114Q-6 -76 26 -48T116 0V4Q83 11 59 34T34 96Q34 119 42 137T63 171T90 197T117 217V221Q82 238 57 273T31 354Q31 397 49 430T98 485T169 520T254 532Q292 532 320 528T380
513Q410 542 444 562T519 582Q546 582 563 569T580 527Q580 503 569 484T530 465Q506 465 495 474T476 499Q470 509 451 504T411 485V481Q441 466 460 437T480 367Q480 324 462 291T413 236T341 202T254 190Q226 190 204 193T160 207Q150 200 142 187T134 159Q134
143 146 132T188 120H362Q399 120 430 113T483 90T518 48T531 -16Q531 -56 514 -94T460 -162T366 -210T229 -229ZM254 239Q294 239 313 264T332 357Q332 429 313 456T254 484Q216 484 198 458T179 364Q179 292 198 266T254 239ZM251 -177Q296 -177 329 -169T383
-146T415 -114T426 -75Q426 -42 408 -25T339 -8H173Q165 -12 155 -20T136 -39T121 -65T115 -97Q115 -135 146 -156T251 -177Z" />
<glyph unicode="h" glyph-name="h" horiz-adv-x="652" d="M20 39L49 46Q61 49 68 52T80 62T85 77T86 103V627Q86 645 85 655T81 672T71 683T53 693L15 712V747L238 766L252 756Q250 742 248 724Q246 709 245 688T244 641V562Q244 542 243 525T241 493Q239 477
238 464H242Q284 492 333 512T439 532Q575 532 575 399V103Q575 86 576 77T581 61T592 52T612 46L639 39V0H357V39L384 45Q395 48 401 51T411 59T415 75T416 103V354Q416 401 399 419T343 438Q314 438 288 431T244 419V103Q244 85 245 75T249 59T258 51T276 45L303
39V0H20V39Z" />
<glyph unicode="i" glyph-name="i" horiz-adv-x="326" d="M161 594Q120 594 93 619T65 681Q65 719 92 743T161 768Q199 768 226 744T254 681Q254 663 247 647T227 619T197 601T161 594ZM20 39L49 46Q61 49 68 52T80 62T85 77T86 103V391Q86 407 85 416T80 431T70
443T52 455L17 477V509L238 532L252 523Q252 512 251 500T248 471T245 432T244 380V103Q244 86 245 76T250 61T261 52T280 46L309 39V0H20V39Z" />
<glyph unicode="j" glyph-name="j" horiz-adv-x="314" d="M160 594Q119 594 92 619T65 681Q65 719 92 743T160 768Q199 768 226 744T253 681Q253 644 226 619T160 594ZM24 -226Q-43 -226 -77 -198T-112 -132Q-112 -102 -94 -86T-43 -70Q-8 -70 7 -87T28 -151Q30
-169 34 -174T47 -179Q67 -179 76 -164T86 -126V391Q86 407 85 416T80 431T70 443T52 455L17 477V509L238 532L252 523Q252 512 251 500T248 470T245 429T244 372V-8Q244 -62 228 -102T182 -170T112 -212T24 -226Z" />
<glyph unicode="k" glyph-name="k" horiz-adv-x="621" d="M20 39L49 46Q61 49 68 52T80 62T85 77T86 103V627Q86 645 85 655T81 672T71 683T53 693L15 712V747L238 766L252 756Q250 742 248 724Q246 709 245 688T244 641V103Q244 86 245 76T249 60T259 51T275
45L301 39V0H20V39ZM421 0Q371 63 332 125T259 246V270L360 372Q388 402 399 418T410 446Q410 469 377 477L361 481V519H589V480L566 474Q546 469 525 458T470 412L382 325Q424 254 464 189T546 75Q561 54 583 47L608 39V0H421Z" />
<glyph unicode="l" glyph-name="l" horiz-adv-x="330" d="M20 39L49 46Q62 49 70 52T82 62T87 77T88 103V627Q88 645 87 655T82 672T72 683T53 693L15 712V747L239 766L254 756Q252 742 250 724Q248 709 247 688T246 641V103Q246 86 247 77T251 61T262 52T283
46L312 39V0H20V39Z" />
<glyph unicode="m" glyph-name="m" horiz-adv-x="963" d="M20 39L49 46Q61 49 68 52T80 62T85 77T86 103V391Q86 407 85 416T80 431T70 443T52 455L17 477V509L228 532L242 522L235 462H240Q281 490 329 511T431 532Q481 532 509 514T554 461H558Q600 489 647
510T752 532Q814 532 847 499T880 398V103Q880 86 881 77T886 61T897 52T916 46L945 39V0H664V39L690 45Q701 48 707 51T717 59T721 75T722 103V354Q722 399 708 418T656 438Q628 438 604 431T563 418Q563 412 563 408T562 392V103Q562 86 563 76T567 60T577 51T592
45L618 39V0H346V39L372 45Q382 48 388 51T398 59T403 75T404 103V354Q404 399 389 418T338 438Q310 438 286 432T244 419V103Q244 85 245 75T249 59T258 51T274 45L300 39V0H20V39Z" />
<glyph unicode="n" glyph-name="n" horiz-adv-x="658" d="M20 39L49 46Q61 49 68 52T80 62T85 77T86 103V391Q86 407 85 416T80 431T70 443T52 455L17 477V509L228 532L242 523L235 462H240Q281 490 332 511T439 532Q575 532 575 399V103Q575 86 576 77T581 61T592
52T612 46L639 39V0H357V39L384 45Q395 48 401 51T411 59T415 75T416 103V354Q416 401 399 419T343 438Q314 438 288 431T244 419V103Q244 85 245 75T249 59T258 51T276 45L303 39V0H20V39Z" />
<glyph unicode="o" glyph-name="o" horiz-adv-x="612" d="M307 -12Q251 -12 201 4T112 55T52 139T29 259Q29 330 52 382T115 467T204 517T307 533Q362 533 412 517T500 467T560 383T583 263Q583 192 560 140T498 54T409 4T307 -12ZM310 39Q334 39 353 48T387 81T408
148T416 259Q416 329 409 372T387 440T351 472T302 481Q277 481 257 472T224 439T203 374T196 269Q196 198 203 154T224 84T259 49T310 39Z" />
<glyph unicode="p" glyph-name="p" horiz-adv-x="652" d="M20 -181L49 -173Q61 -170 68 -167T80 -158T85 -143T86 -116V391Q86 407 85 416T80 431T70 443T52 455L17 477V509L228 532L242 523L236 464H240Q274 491 318 511T417 532Q454 532 490 520T554 478T601
403T619 287Q619 209 597 153T535 60T441 6T321 -12Q304 -12 280 -10T239 -2Q240 -9 241 -19Q242 -27 243 -38T244 -63V-116Q244 -133 245 -143T249 -159T259 -167T278 -173L316 -181V-219H20V-181ZM327 40Q359 40 383 49T423 81T448 146T457 253Q457 355 424 398T330
442Q298 442 277 433T244 419V76Q258 60 279 50T327 40Z" />
<glyph unicode="q" glyph-name="q" horiz-adv-x="640" d="M335 -186L373 -178Q385 -175 392 -173T402 -164T407 -148T408 -121V-26Q408 -9 409 4T412 29Q414 41 416 52H412Q379 25 334 7T235 -12Q197 -12 161 2T97 46T51 125T33 242Q33 320 57 375T122 465T216
516T330 532Q387 532 423 521T490 491H496L540 533L567 526V-121Q567 -138 568 -147T573 -163T583 -172T602 -178L631 -186V-219H335V-186ZM319 73Q352 73 374 83T408 98V444Q395 457 375 468T326 480Q297 480 273 470T232 436T206 372T196 273Q196 162 227 118T319
73Z" />
<glyph unicode="r" glyph-name="r" horiz-adv-x="487" d="M20 39L49 46Q61 49 68 52T80 62T85 77T86 103V391Q86 407 85 416T80 431T70 443T52 455L17 477V509L228 532L242 522L235 456H240Q252 469 269 482T306 507T349 525T394 532Q429 532 450 513T471 458Q471
423 453 403T402 382Q384 382 373 384T353 391T337 403T323 423Q318 431 311 434T296 437Q282 437 269 427T244 407V103Q244 85 245 75T249 59T259 51T277 46L313 39V0H20V39Z" />
<glyph unicode="s" glyph-name="s" horiz-adv-x="459" d="M202 -12Q157 -12 114 -7T40 7L31 160H71Q78 146 84 135T97 114T111 94T129 73Q143 58 165 49T221 39Q262 39 285 55T308 105Q308 123 301 135T279 159T240 180T183 203Q114 229 74 266T34 365Q34 401
48 431T90 484T158 520T250 533Q295 533 331 528T391 515L396 379H359Q343 405 330 422T301 457Q290 468 277 475T233 482Q195 482 173 466T150 416Q150 403 155 393T174 373T208 353T262 332Q307 316 339 299T391 263T422 219T432 166Q432 127 417 95T372 38T300
1T202 -12Z" />
<glyph unicode="t" glyph-name="t" horiz-adv-x="388" d="M215 -12Q148 -12 111 19T73 124V448H8V484Q68 504 104 547T163 655H232V519H372L355 448H232V138Q232 101 247 85T300 69Q318 69 339 73T374 80V40Q357 21 318 5T215 -12Z" />
<glyph unicode="u" glyph-name="u" horiz-adv-x="656" d="M219 -12Q157 -12 121 21T84 121V396Q84 412 83 421T79 436T70 447T52 458L15 478V510L225 532L242 521V161Q242 116 259 98T313 80Q342 80 368 88T415 105V396Q415 412 414 421T410 437T400 447T382 458L347
478V510L557 532L573 521V131Q573 113 574 102T578 84T588 73T607 65L636 52V17L431 -12L417 -2L423 63H419Q377 34 328 11T219 -12Z" />
<glyph unicode="v" glyph-name="v" horiz-adv-x="580" d="M85 396Q76 417 70 430T56 453T42 466T23 474L4 480V519H302V480L275 473Q258 468 250 460T242 433Q242 423 246 410T257 380L341 152H346L425 380Q437 416 437 435Q437 466 406 473L378 480V519H579V480L559
474Q548 471 541 466T527 451T513 426T496 386L344 0H252L85 396Z" />
<glyph unicode="w" glyph-name="w" horiz-adv-x="877" d="M86 396Q78 418 71 431T58 453T43 466T25 474L5 480V519H285V480L263 474Q236 468 236 443Q236 432 241 417T253 380L326 157H333L412 377L406 396Q392 437 381 453T352 474L332 480V519H610V480L581 473Q553
466 553 435Q553 414 565 380L641 157H647L718 380Q730 417 730 436Q730 466 700 473L671 480V519H872V480L852 474Q841 471 834 466T819 451T805 426T789 386L646 0H549L444 302H441L330 0H233L86 396Z" />
<glyph unicode="x" glyph-name="x" horiz-adv-x="617" d="M22 39L46 44Q71 50 90 65T136 119L230 257L118 404Q102 426 91 439T71 459T54 470T36 476L20 480V519H325V480L302 476Q288 473 280 466T272 448Q272 439 279 427T298 400L358 320H361L402 386Q414 408
421 421T428 446Q428 467 398 475L373 480V519H588V480L566 475Q543 469 523 451T475 395L390 279L514 115Q529 95 539 83T557 62T575 50T596 42L610 39V0H306V39L329 43Q357 49 357 70Q357 80 348 92T326 125L263 216H260L215 135Q201 112 193 98T185 72Q185 60
192 54T221 43L240 39V0H22V39Z" />
<glyph unicode="y" glyph-name="y" horiz-adv-x="589" d="M132 -222Q81 -222 55 -199T28 -142Q28 -114 43 -96T88 -77Q120 -77 134 -89T157 -126Q166 -149 174 -149Q192 -149 211 -129T255 -53L271 -15L81 396Q70 420 63 434T49 456T38 467T23 474L4 480V519H300V480L273
473Q256 469 248 461T240 435Q240 412 256 380L349 165H353L436 380Q443 398 445 413T447 439Q447 454 440 461T416 473L387 480V519H592V480L569 473Q559 470 552 465T539 451T526 426T509 386L315 -63Q280 -144 238 -183T132 -222Z" />
<glyph unicode="z" glyph-name="z" horiz-adv-x="517" d="M21 51L320 464V468H276Q247 468 228 467T196 463T173 453T155 437Q137 415 123 392T87 330H49L59 519H494V470L195 55V51H240Q276 51 299 53T339 60T365 72T384 92Q403 115 418 140T450 195H491L474 0H21V51Z" />
<glyph unicode="{" glyph-name="braceleft" horiz-adv-x="395" d="M356 -129Q279 -125 231 -115T156 -89T119 -52T109 -4Q109 16 117 48T135 115T153 180T162 225Q162 236 157 245T139 261T104 272T45 279V329Q80 330 102 335T138 347T157 363T162 384Q162 399
154 428T136 492T118 558T109 611Q109 637 119 658T156 695T231 721T356 736V694Q320 689 298 684T264 670T248 649T244 617Q244 592 247 565T254 512T261 461T265 416Q265 372 233 345T120 306V302Q198 291 231 264T265 193Q265 173 262 148T255 96T248 42T244
-11Q244 -30 248 -42T264 -63T298 -77T356 -88V-129V-129Z" />
<glyph unicode="|" glyph-name="bar" horiz-adv-x="259" d="M96 734H163V-130H96V734Z" />
<glyph unicode="}" glyph-name="braceright" horiz-adv-x="395" d="M46 736Q123 731 171 721T246 695T283 658T293 611Q293 591 285 559T267 493T249 430T240 385Q240 374 245 365T264 348T300 335T357 329V279Q321 277 298 273T262 263T245 247T240 227Q240 212
248 182T266 117T284 49T293 -4Q293 -30 283 -51T246 -88T171 -114T46 -129V-88Q82 -83 104 -77T138 -63T154 -43T158 -11Q158 14 155 42T148 97T141 150T138 195Q138 217 144 234T166 265T210 288T282 302V306Q212 320 175 347T138 418Q138 438 141 462T148 512T155
565T158 617Q158 636 154 648T138 669T104 683T46 694V736V736Z" />
<glyph unicode="~" glyph-name="asciitilde" horiz-adv-x="413" d="M38 243Q60 297 81 329T137 361Q155 361 175 356T215 344T254 332T287 326Q316 326 344 372L379 356Q368 329 358 307T337 270T312 247T279 238Q261 238 241 243T200 255T162 267T128 273Q100
273 72 227L38 243Z" />
<glyph unicode="&#xa0;" glyph-name="uni00A0" horiz-adv-x="273" />
<glyph unicode="&#xa1;" glyph-name="exclamdown" horiz-adv-x="317" d="M249 37Q258 4 254 -20T237 -61T204 -85T158 -93Q134 -93 114 -85T80 -61T63 -21T68 37L137 369H180L249 37ZM159 618Q179 618 196 611T226 592T246 562T253 526Q253 507 246 490T226 460T196
440T159 432Q139 432 122 439T91 460T71 490T63 526Q63 545 70 562T91 591T121 611T159 618Z" />
<glyph unicode="&#xa2;" glyph-name="cent" horiz-adv-x="525" d="M286 -12Q226 -12 179 5T98 56T47 138T29 246Q29 313 50 362T108 446T190 500T287 528V608H343V533H352Q433 533 478 509T524 439Q524 409 507 383T456 357Q419 357 408 375T393 428Q390 453 380
465T343 480V75H347Q401 75 439 88T506 116V71Q486 50 445 26T343 -7V-158H287V-12H286ZM186 290Q186 196 211 148T287 83V476Q266 471 248 459T216 424T194 369T186 290Z" />
<glyph unicode="&#xa3;" glyph-name="sterling" horiz-adv-x="571" d="M43 388H103Q95 417 90 445T84 499Q84 544 101 582T153 647T236 689T348 705Q445 705 493 675T542 596Q542 561 522 543T471 524Q430 524 413 547T387 614Q384 629 381 638T373 651T362 657T344
659Q324 659 309 654T283 635T267 599T261 541Q261 510 264 470T270 388H428V331H273V320Q273 254 238 208T137 125V120H419Q434 120 445 122T465 133T482 156T501 198H540L519 0H26V91Q53 107 73 122T108 155T129 194T137 242Q137 261 132 283T120 331H43V388Z"
/>
<glyph unicode="&#xa5;" glyph-name="yen" horiz-adv-x="665" d="M69 355H230L112 561Q99 583 90 598T72 623T54 638T35 647L14 654V693H356V654L327 648Q304 643 297 633T290 607Q290 588 309 550L392 383H397L470 543Q481 569 486 582T491 608Q491 625 482 633T449
647L428 654V693H646V654L626 647Q613 643 604 637T586 620T568 592T546 550L447 355H608V298H424V209H608V152H424V119Q424 96 425 84T430 64T442 53T464 47L504 40V0H177V40L216 47Q230 50 238 53T251 63T257 83T259 119V152H69V209H259V298H69V355Z" />
<glyph unicode="&#xa6;" glyph-name="brokenbar" horiz-adv-x="259" d="M96 734H163V325H96V734ZM96 256H163V-130H96V256Z" />
<glyph unicode="&#xa7;" glyph-name="section" horiz-adv-x="607" d="M275 -204Q190 -204 149 -175T107 -104Q107 -42 169 -42Q202 -42 218 -60T238 -117Q241 -142 251 -151T292 -160Q321 -160 343 -145T366 -95Q366 -76 360 -61T336 -29T287 12T205 71Q161 102
128 128T73 178T40 229T29 286Q29 347 64 386T152 455Q138 475 133 492T128 533Q128 569 142 600T182 653T245 689T330 702Q414 702 456 676T498 607Q498 583 481 565T434 547Q398 547 384 565T365 624Q363 642 354 650T315 658Q285 658 263 642T240 591Q240 572
246 558T269 526T317 486T399 427Q450 391 484 364T539 312T568 262T577 207Q577 179 568 155T543 109T507 69T462 38Q470 21 474 6T478 -30Q478 -70 463 -102T420 -156T356 -191T275 -204ZM435 72Q473 96 473 140Q473 158 467 173T445 205T398 246T321 302Q273
337 236 365T176 423Q136 402 136 354Q136 336 143 321T167 288T213 249T285 196Q336 159 373 130T435 72Z" />
<glyph unicode="&#xa8;" glyph-name="dieresis" horiz-adv-x="516" d="M144 598Q126 598 111 604T84 621T65 647T58 679Q58 696 65 711T83 737T110 754T144 760Q162 760 177 754T204 737T223 711T230 679Q230 662 223 647T205 621T178 604T144 598ZM373 598Q337
598 312 621T287 679Q287 714 312 737T373 760Q408 760 433 737T458 679Q458 644 433 621T373 598Z" />
<glyph unicode="&#xa9;" glyph-name="copyright" horiz-adv-x="830" d="M414 -16Q336 -16 269 12T152 90T74 204T46 344Q46 418 74 483T151 597T268 674T414 702Q492 702 559 674T676 598T754 484T783 344Q783 270 755 205T676 90T559 13T414 -16ZM414 32Q482
32 539 56T638 123T703 223T727 344Q727 408 704 464T639 563T540 629T414 654Q345 654 288 630T190 563T126 465T103 344Q103 280 125 223T189 124T288 57T414 32ZM417 151Q372 151 336 163T273 200T233 260T218 345Q218 398 234 436T279 499T346 536T427 548Q464
548 495 543T546 533L554 416H522Q495 465 474 489Q463 502 452 506T421 510Q377 510 358 471T338 359Q338 265 361 227T427 189Q447 189 459 194T485 214Q495 225 506 247T528 295H560L551 173Q529 165 495 158T417 151Z" />
<glyph unicode="&#xaa;" glyph-name="ordfeminine" horiz-adv-x="497" d="M164 234Q101 234 67 264T33 349Q33 405 72 436T187 488L285 512V565Q285 614 270 636T215 659Q198 659 189 649T177 625Q171 587 158 570T109 552Q79 552 63 565T47 607Q47 649 100 675T241
701Q326 701 372 670T418 572V357Q418 333 421 322T438 305Q447 301 460 299T483 297V264Q469 255 443 246T378 236Q336 236 318 251T294 290H289Q272 270 240 252T164 234ZM226 305Q246 305 261 312T285 330V455L235 450Q199 447 181 429T162 367Q162 332 180
319T226 305Z" />
<glyph unicode="&#xab;" glyph-name="guillemotleft" horiz-adv-x="498" d="M245 238V267L407 460H454L371 254L454 45H407L245 238ZM34 238V267L195 460H243L160 254L243 45H195L34 238Z" />
<glyph unicode="&#xae;" glyph-name="registered" horiz-adv-x="586" d="M291 187Q237 187 190 207T109 262T56 343T36 443Q36 497 55 544T109 626T190 681T291 701Q346 701 393 681T475 626T530 544T550 443Q550 390 530 344T475 262T393 207T291 187ZM291 231Q336
231 374 248T439 293T481 360T496 443Q496 488 481 527T439 595T374 640T291 657Q246 657 209 641T145 595T105 527T90 443Q90 399 104 361T145 294T208 248T291 231ZM170 351L185 354Q192 356 193 360T195 379V517Q195 531 194 534T185 541L171 545V573H294Q353
573 377 556T402 506Q402 481 390 466T357 443V439Q369 415 376 401T395 371Q402 363 406 360T418 354L428 351V323H346Q330 346 317 371T292 421H266V379Q266 363 268 360T279 354L293 351V323H170V351ZM266 454Q268 453 276 453T287 453Q305 453 316 463T328
501Q328 524 319 532T289 540Q285 540 277 540T266 538V454Z" />
<glyph unicode="&#xaf;" glyph-name="macron" horiz-adv-x="516" d="M110 701H406V622H110V701Z" />
<glyph unicode="&#xb0;" glyph-name="degree" horiz-adv-x="386" d="M193 412Q161 412 134 424T88 456T57 503T45 560Q45 588 56 614T87 661T134 693T193 705Q224 705 251 693T298 661T329 615T341 560Q341 530 330 504T299 457T252 424T193 412ZM193 464Q233
464 257 492T281 560Q281 598 257 626T193 654Q153 654 129 626T105 560Q105 521 129 493T193 464Z" />
<glyph unicode="&#xb1;" glyph-name="plusminus" horiz-adv-x="502" d="M46 68H456V0H46V68ZM213 324H46V392H213V556H290V392H456V324H290V160H213V324Z" />
<glyph unicode="&#xb2;" glyph-name="twosuperior" horiz-adv-x="391" d="M23 320Q47 337 66 351T101 380T133 409T164 441Q197 473 216 509T236 589Q236 634 219 647T174 661Q155 661 150 654T141 629Q136 596 124 581T80 566Q56 566 42 580T27 615Q27 650 69
675T187 701Q266 701 312 670T359 575Q359 466 128 353V350H267Q279 350 286 352T300 360T311 376T323 404H357L348 261H23V320Z" />
<glyph unicode="&#xb3;" glyph-name="threesuperior" horiz-adv-x="399" d="M173 253Q96 253 59 274T21 333Q21 356 35 370T70 384Q96 384 111 370T132 323Q137 303 143 298T172 292Q207 292 224 313T241 379Q241 407 235 423T217 448T189 459T153 462H122V510H149Q190
510 210 526T230 589Q230 632 215 647T176 662Q158 662 152 657T143 634Q139 608 128 594T87 580Q65 580 52 592T38 625Q38 660 79 680T189 701Q264 701 306 675T348 598Q348 563 320 534T229 494V492Q258 490 283 483T326 462T355 428T366 380Q366 324 322 289T173
253Z" />
<glyph unicode="&#xb4;" glyph-name="acute" horiz-adv-x="516" d="M137 618L277 730Q291 741 303 747T330 753Q353 753 368 735T383 694Q383 677 373 661T338 639L149 590L137 618Z" />
<glyph unicode="&#xb6;" glyph-name="paragraph" horiz-adv-x="603" d="M264 333Q258 332 246 332T221 331Q172 331 136 345T75 383T40 442T28 516Q28 554 40 586T78 642T142 679T230 693H578V654L542 646Q531 643 523 640T510 630T503 610T501 574V-100H436V640H331V-100H264V333Z"
/>
<glyph unicode="&#xb7;" glyph-name="periodcentered" horiz-adv-x="367" d="M181 246Q161 246 143 253T112 274T91 304T83 342Q83 361 90 378T111 409T143 430T181 438Q202 438 220 431T251 410T271 379T279 342Q279 302 251 274T181 246Z" />
<glyph unicode="&#xb8;" glyph-name="cedilla" horiz-adv-x="516" d="M145 -227Q205 -213 234 -194T263 -154Q263 -139 246 -129T189 -116L180 -106L233 0H288L247 -55Q307 -59 333 -81T359 -134Q359 -178 306 -213T145 -260V-227Z" />
<glyph unicode="&#xb9;" glyph-name="onesuperior" horiz-adv-x="299" d="M25 296L52 301Q62 304 68 306T78 312T83 326T84 350V575L25 581V618Q77 627 119 650T189 705L216 697V350Q216 319 223 311T249 301L274 296V261H25V296Z" />
<glyph unicode="&#xba;" glyph-name="ordmasculine" horiz-adv-x="547" d="M271 237Q224 237 182 251T107 293T55 365T35 467Q35 528 55 572T110 645T186 687T273 701Q320 701 363 688T439 647T492 576T512 473Q512 414 491 370T437 296T360 252T271 237ZM272
286Q295 286 313 294T344 323T364 378T371 464Q371 520 365 556T347 614T316 644T273 653Q225 653 201 615T176 480Q176 423 181 386T197 326T227 295T272 286Z" />
<glyph unicode="&#xbb;" glyph-name="guillemotright" horiz-adv-x="506" d="M253 268V239L91 46H44L127 254L44 461H91L253 268ZM471 268V239L311 46H263L345 254L263 461H311L471 268Z" />
<glyph unicode="&#xbc;" glyph-name="onequarter" horiz-adv-x="856" d="M25 296L52 301Q62 304 68 306T78 312T83 326T84 350V575L25 581V618Q77 627 119 650T189 705L216 697V350Q216 319 223 311T249 301L274 296V261H25V296ZM601 -68L624 -63Q634 -61 640
-59T649 -52T654 -38T656 -14V-6H446V40L702 329H766V50H835L828 -6H766V-14Q766 -29 767 -38T772 -52T781 -59T796 -63L819 -68V-103H601V-68ZM656 50V212H651L516 55V50H656ZM671 714H747L243 -50H168L671 714Z" />
<glyph unicode="&#xbd;" glyph-name="onehalf" horiz-adv-x="864" d="M25 296L52 301Q62 304 68 306T78 312T83 326T84 350V575L25 581V618Q77 627 119 650T189 705L216 697V350Q216 319 223 311T249 301L274 296V261H25V296ZM488 -44Q512 -27 531 -13T566 16T598
45T629 77Q662 109 681 145T701 225Q701 270 684 283T639 297Q620 297 615 290T606 265Q601 232 589 217T545 202Q521 202 507 216T492 251Q492 286 534 311T652 337Q731 337 777 306T824 211Q824 102 593 -11V-14H732Q744 -14 751 -12T765 -4T776 12T788 40H822L813
-103H488V-44ZM647 714H723L219 -50H144L647 714Z" />
<glyph unicode="&#xbe;" glyph-name="threequarters" horiz-adv-x="874" d="M173 253Q96 253 59 274T21 333Q21 356 35 370T70 384Q96 384 111 370T132 323Q137 303 143 298T172 292Q207 292 224 313T241 379Q241 407 235 423T217 448T189 459T153 462H122V510H149Q190
510 210 526T230 589Q230 632 215 647T176 662Q158 662 152 657T143 634Q139 608 128 594T87 580Q65 580 52 592T38 625Q38 660 79 680T189 701Q264 701 306 675T348 598Q348 563 320 534T229 494V492Q258 490 283 483T326 462T355 428T366 380Q366 324 322 289T173
253ZM619 -68L642 -63Q652 -61 658 -59T667 -52T672 -38T674 -14V-6H464V40L720 329H784V50H853L846 -6H784V-14Q784 -29 785 -38T790 -52T799 -59T814 -63L837 -68V-103H619V-68ZM674 50V212H669L534 55V50H674ZM703 714H779L275 -50H200L703 714Z" />
<glyph unicode="&#xbf;" glyph-name="questiondown" horiz-adv-x="502" d="M338 215Q310 208 283 197T233 168T197 124T183 60Q183 37 190 18T210 -14T239 -35T273 -42Q295 -42 302 -34T313 1Q319 43 338 63T395 83Q430 83 446 64T463 19Q463 -33 409 -61T267
-90Q155 -90 95 -43T35 91Q35 137 54 174T107 239T183 285T275 311V377H338V215ZM302 624Q322 624 339 617T369 597T389 567T397 531Q397 512 390 495T370 465T340 445T302 437Q282 437 265 444T234 465T214 495T207 531Q207 550 214 567T234 596T264 616T302 624Z"
/>
<glyph unicode="&#xc0;" glyph-name="Agrave" horiz-adv-x="726" d="M5 40L32 47Q43 50 51 54T67 67T83 92T102 135L308 693H410L624 131Q634 105 642 90T657 66T673 53T692 45L716 40V0H389V40L417 47Q437 52 445 59T454 81Q454 94 449 109T436 146L413 209H196L174
146Q167 125 163 112T158 85Q158 67 168 60T202 47L231 40V0H5V40ZM215 264H394L306 511H301L215 264ZM265 794Q240 800 230 816T219 849Q219 872 234 890T272 908Q287 908 299 902T326 885L466 773L453 745L265 794Z" />
<glyph unicode="&#xc1;" glyph-name="Aacute" horiz-adv-x="726" d="M5 40L32 47Q43 50 51 54T67 67T83 92T102 135L308 693H410L624 131Q634 105 642 90T657 66T673 53T692 45L716 40V0H389V40L417 47Q437 52 445 59T454 81Q454 94 449 109T436 146L413 209H196L174
146Q167 125 163 112T158 85Q158 67 168 60T202 47L231 40V0H5V40ZM215 264H394L306 511H301L215 264ZM262 773L402 885Q416 896 428 902T455 908Q478 908 493 890T508 849Q508 832 498 816T463 794L274 745L262 773Z" />
<glyph unicode="&#xc2;" glyph-name="Acircumflex" horiz-adv-x="726" d="M5 40L32 47Q43 50 51 54T67 67T83 92T102 135L308 693H410L624 131Q634 105 642 90T657 66T673 53T692 45L716 40V0H389V40L417 47Q437 52 445 59T454 81Q454 94 449 109T436 146L413
209H196L174 146Q167 125 163 112T158 85Q158 67 168 60T202 47L231 40V0H5V40ZM215 264H394L306 511H301L215 264ZM526 774L507 743L359 797L211 743L192 774L324 901H393L526 774Z" />
<glyph unicode="&#xc3;" glyph-name="Atilde" horiz-adv-x="726" d="M5 40L32 47Q43 50 51 54T67 67T83 92T102 135L308 693H410L624 131Q634 105 642 90T657 66T673 53T692 45L716 40V0H389V40L417 47Q437 52 445 59T454 81Q454 94 449 109T436 146L413 209H196L174
146Q167 125 163 112T158 85Q158 67 168 60T202 47L231 40V0H5V40ZM215 264H394L306 511H301L215 264ZM174 777Q196 843 221 880T282 918Q302 918 325 911T370 894T411 877T445 869Q465 869 477 886T506 932L544 915Q522 849 500 812T439 774Q419 774 396 781T351
798T308 815T274 823Q254 823 242 805T213 759L174 777Z" />
<glyph unicode="&#xc4;" glyph-name="Adieresis" horiz-adv-x="726" d="M5 40L32 47Q43 50 51 54T67 67T83 92T102 135L308 693H410L624 131Q634 105 642 90T657 66T673 53T692 45L716 40V0H389V40L417 47Q437 52 445 59T454 81Q454 94 449 109T436 146L413 209H196L174
146Q167 125 163 112T158 85Q158 67 168 60T202 47L231 40V0H5V40ZM215 264H394L306 511H301L215 264ZM241 748Q223 748 208 754T181 771T162 797T155 829Q155 846 162 861T180 887T207 904T241 910Q259 910 274 904T301 887T320 861T327 829Q327 812 320 797T302
771T275 754T241 748ZM478 748Q442 748 417 771T392 829Q392 864 417 887T478 910Q513 910 538 887T563 829Q563 794 538 771T478 748Z" />
<glyph unicode="&#xc5;" glyph-name="Aring" horiz-adv-x="726" d="M5 40L32 47Q43 50 51 54T67 67T83 92T102 135L308 693H410L624 131Q634 105 642 90T657 66T673 53T692 45L716 40V0H389V40L417 47Q437 52 445 59T454 81Q454 94 449 109T436 146L413 209H196L174
146Q167 125 163 112T158 85Q158 67 168 60T202 47L231 40V0H5V40ZM215 264H394L306 511H301L215 264ZM359 732Q308 732 276 762T244 839Q244 862 253 882T277 916T314 939T359 948Q408 948 441 918T474 839Q474 793 441 763T359 732ZM359 777Q385 777 400 794T416
839Q416 866 401 884T359 902Q333 902 318 884T302 839Q302 812 317 795T359 777Z" />
<glyph unicode="&#xc6;" glyph-name="AE" horiz-adv-x="988" d="M367 40L402 47Q413 50 421 53T434 63T442 83T445 119V198H220L198 159Q185 136 175 116T164 80Q164 68 171 60T197 47L229 40V0H4V40L23 47Q35 50 45 54T65 69T89 98T120 148L412 642L396 645L349
654V693H925L936 493H893Q875 535 862 558T837 599Q825 614 814 622T788 634T756 638T713 639Q675 639 653 637T617 631V387H624Q652 387 670 388T699 393T717 401T729 416Q740 434 746 447T759 484H802V231H759Q752 255 746 268T729 303Q724 313 718 318T700 327T671
331T624 332H617V144Q617 110 620 92T634 65T665 56T720 54Q751 54 771 55T804 62T828 76T851 103Q865 123 881 155T917 236H960L945 0H367V40ZM251 252H445V565Q445 570 445 574T444 583H442L251 252Z" />
<glyph unicode="&#xc7;" glyph-name="Ccedilla" horiz-adv-x="657" d="M223 -227Q283 -213 312 -194T341 -154Q341 -139 324 -129T267 -116L258 -106L308 -4Q246 6 196 33T111 102T56 204T36 341Q36 438 66 507T148 620T267 684T410 705Q469 705 520 698T604 682L615
475H573Q550 522 532 556T493 616Q482 629 473 636T454 648T430 653T397 654Q350 654 318 639T265 590T235 499T225 361Q225 264 235 202T267 103T320 53T396 39Q420 39 437 42T467 53T490 72T512 98Q522 113 530 126T547 155T563 187T581 228H622L611 29Q574 14
519 1T396 -12Q386 -12 377 -12T358 -10L325 -55Q385 -59 411 -81T437 -134Q437 -178 384 -213T223 -260V-227Z" />
<glyph unicode="&#xc8;" glyph-name="Egrave" horiz-adv-x="663" d="M27 40L62 47Q74 50 81 53T93 63T100 83T102 119V574Q102 597 100 610T94 630T82 640T62 646L27 654V693H599L610 493H566Q548 535 535 558T509 599Q497 614 486 622T460 634T427 638T381 639Q338
639 317 636T281 630V387H300Q328 387 346 388T375 393T393 401T405 416Q416 434 422 447T435 484H479V231H435Q429 255 423 268T405 303Q400 313 394 318T377 327T347 331T300 332H281V144Q281 110 283 92T295 65T328 56T390 54Q422 54 442 55T476 62T500 76T524
103Q538 123 554 155T591 236H635L620 0H27V40ZM247 794Q222 800 212 816T201 849Q201 872 216 890T254 908Q269 908 281 902T308 885L448 773L435 745L247 794Z" />
<glyph unicode="&#xc9;" glyph-name="Eacute" horiz-adv-x="663" d="M27 40L62 47Q74 50 81 53T93 63T100 83T102 119V574Q102 597 100 610T94 630T82 640T62 646L27 654V693H599L610 493H566Q548 535 535 558T509 599Q497 614 486 622T460 634T427 638T381 639Q338
639 317 636T281 630V387H300Q328 387 346 388T375 393T393 401T405 416Q416 434 422 447T435 484H479V231H435Q429 255 423 268T405 303Q400 313 394 318T377 327T347 331T300 332H281V144Q281 110 283 92T295 65T328 56T390 54Q422 54 442 55T476 62T500 76T524
103Q538 123 554 155T591 236H635L620 0H27V40ZM244 773L384 885Q398 896 410 902T437 908Q460 908 475 890T490 849Q490 832 480 816T445 794L256 745L244 773Z" />
<glyph unicode="&#xca;" glyph-name="Ecircumflex" horiz-adv-x="663" d="M27 40L62 47Q74 50 81 53T93 63T100 83T102 119V574Q102 597 100 610T94 630T82 640T62 646L27 654V693H599L610 493H566Q548 535 535 558T509 599Q497 614 486 622T460 634T427 638T381
639Q338 639 317 636T281 630V387H300Q328 387 346 388T375 393T393 401T405 416Q416 434 422 447T435 484H479V231H435Q429 255 423 268T405 303Q400 313 394 318T377 327T347 331T300 332H281V144Q281 110 283 92T295 65T328 56T390 54Q422 54 442 55T476 62T500
76T524 103Q538 123 554 155T591 236H635L620 0H27V40ZM508 774L489 743L341 797L193 743L174 774L306 901H375L508 774Z" />
<glyph unicode="&#xcb;" glyph-name="Edieresis" horiz-adv-x="663" d="M27 40L62 47Q74 50 81 53T93 63T100 83T102 119V574Q102 597 100 610T94 630T82 640T62 646L27 654V693H599L610 493H566Q548 535 535 558T509 599Q497 614 486 622T460 634T427 638T381
639Q338 639 317 636T281 630V387H300Q328 387 346 388T375 393T393 401T405 416Q416 434 422 447T435 484H479V231H435Q429 255 423 268T405 303Q400 313 394 318T377 327T347 331T300 332H281V144Q281 110 283 92T295 65T328 56T390 54Q422 54 442 55T476 62T500
76T524 103Q538 123 554 155T591 236H635L620 0H27V40ZM223 748Q205 748 190 754T163 771T144 797T137 829Q137 846 144 861T162 887T189 904T223 910Q241 910 256 904T283 887T302 861T309 829Q309 812 302 797T284 771T257 754T223 748ZM460 748Q424 748 399
771T374 829Q374 864 399 887T460 910Q495 910 520 887T545 829Q545 794 520 771T460 748Z" />
<glyph unicode="&#xcc;" glyph-name="Igrave" horiz-adv-x="390" d="M27 40L65 47Q77 50 84 53T96 63T103 83T105 119V574Q105 597 103 610T97 630T85 640T65 646L27 654V693H365V654L325 646Q313 643 305 640T293 630T287 610T285 574V119Q285 96 286 83T292
63T305 53T325 47L365 40V0H27V40ZM359 794Q334 800 324 816T313 849Q313 872 328 890T366 908Q381 908 393 902T420 885L560 773L547 745L359 794Z" />
<glyph unicode="&#xcd;" glyph-name="Iacute" horiz-adv-x="390" d="M27 40L65 47Q77 50 84 53T96 63T103 83T105 119V574Q105 597 103 610T97 630T85 640T65 646L27 654V693H365V654L325 646Q313 643 305 640T293 630T287 610T285 574V119Q285 96 286 83T292
63T305 53T325 47L365 40V0H27V40ZM356 773L496 885Q510 896 522 902T549 908Q572 908 587 890T602 849Q602 832 592 816T557 794L368 745L356 773Z" />
<glyph unicode="&#xce;" glyph-name="Icircumflex" horiz-adv-x="390" d="M27 40L65 47Q77 50 84 53T96 63T103 83T105 119V574Q105 597 103 610T97 630T85 640T65 646L27 654V693H365V654L325 646Q313 643 305 640T293 630T287 610T285 574V119Q285 96 286 83T292
63T305 53T325 47L365 40V0H27V40ZM620 774L601 743L453 797L305 743L286 774L418 901H487L620 774Z" />
<glyph unicode="&#xcf;" glyph-name="Idieresis" horiz-adv-x="390" d="M27 40L65 47Q77 50 84 53T96 63T103 83T105 119V574Q105 597 103 610T97 630T85 640T65 646L27 654V693H365V654L325 646Q313 643 305 640T293 630T287 610T285 574V119Q285 96 286 83T292
63T305 53T325 47L365 40V0H27V40ZM335 748Q317 748 302 754T275 771T256 797T249 829Q249 846 256 861T274 887T301 904T335 910Q353 910 368 904T395 887T414 861T421 829Q421 812 414 797T396 771T369 754T335 748ZM572 748Q536 748 511 771T486 829Q486 864
511 887T572 910Q607 910 632 887T657 829Q657 794 632 771T572 748Z" />
<glyph unicode="&#xd0;" glyph-name="Eth" horiz-adv-x="763" d="M36 375H102V574Q102 597 100 610T94 630T82 640T62 646L27 654V693H371Q451 693 516 674T629 615T702 511T728 358Q728 272 703 206T630 94T516 24T366 0H27V40L62 47Q74 50 81 53T93 63T100 83T102
119V321H36V375ZM356 53Q456 53 498 121T541 335Q541 423 530 481T495 575T437 625T354 640Q328 640 309 638T281 631V375H423V321H281V147Q281 117 284 99T295 71T317 57T356 53Z" />
<glyph unicode="&#xd1;" glyph-name="Ntilde" horiz-adv-x="740" d="M171 575H167V134Q167 106 168 90T175 66T190 54T216 47L252 40V0H27V40L58 47Q70 50 78 53T92 64T100 88T102 129V574Q102 597 100 610T94 630T82 640T62 646L27 654V693H301L571 286H575V560Q575
587 574 603T567 627T553 639T527 646L486 654V693H715V654L685 647Q672 644 664 641T650 629T642 606T640 564V-2H558L171 575ZM223 777Q245 843 270 880T331 918Q351 918 374 911T419 894T460 877T494 869Q514 869 526 886T555 932L593 915Q571 849 549 812T488
774Q468 774 445 781T400 798T357 815T323 823Q303 823 291 805T262 759L223 777Z" />
<glyph unicode="&#xd2;" glyph-name="Ograve" horiz-adv-x="763" d="M378 -12Q311 -12 249 9T140 73T65 182T36 338Q36 437 67 506T149 620T261 684T385 705Q452 705 513 685T622 622T698 513T727 353Q727 254 696 185T614 72T502 8T378 -12ZM383 42Q423 42 453
54T502 99T530 188T540 332Q540 418 532 478T504 577T455 633T379 651Q340 651 311 639T262 593T233 504T223 359Q223 274 231 214T258 116T307 60T383 42ZM304 794Q279 800 269 816T258 849Q258 872 273 890T311 908Q326 908 338 902T365 885L505 773L492 745L304
794Z" />
<glyph unicode="&#xd3;" glyph-name="Oacute" horiz-adv-x="763" d="M378 -12Q311 -12 249 9T140 73T65 182T36 338Q36 437 67 506T149 620T261 684T385 705Q452 705 513 685T622 622T698 513T727 353Q727 254 696 185T614 72T502 8T378 -12ZM383 42Q423 42 453
54T502 99T530 188T540 332Q540 418 532 478T504 577T455 633T379 651Q340 651 311 639T262 593T233 504T223 359Q223 274 231 214T258 116T307 60T383 42ZM284 773L424 885Q438 896 450 902T477 908Q500 908 515 890T530 849Q530 832 520 816T485 794L296 745L284
773Z" />
<glyph unicode="&#xd4;" glyph-name="Ocircumflex" horiz-adv-x="763" d="M378 -12Q311 -12 249 9T140 73T65 182T36 338Q36 437 67 506T149 620T261 684T385 705Q452 705 513 685T622 622T698 513T727 353Q727 254 696 185T614 72T502 8T378 -12ZM383 42Q423
42 453 54T502 99T530 188T540 332Q540 418 532 478T504 577T455 633T379 651Q340 651 311 639T262 593T233 504T223 359Q223 274 231 214T258 116T307 60T383 42ZM548 774L529 743L381 797L233 743L214 774L346 901H415L548 774Z" />
<glyph unicode="&#xd5;" glyph-name="Otilde" horiz-adv-x="763" d="M378 -12Q311 -12 249 9T140 73T65 182T36 338Q36 437 67 506T149 620T261 684T385 705Q452 705 513 685T622 622T698 513T727 353Q727 254 696 185T614 72T502 8T378 -12ZM383 42Q423 42 453
54T502 99T530 188T540 332Q540 418 532 478T504 577T455 633T379 651Q340 651 311 639T262 593T233 504T223 359Q223 274 231 214T258 116T307 60T383 42ZM196 777Q218 843 243 880T304 918Q324 918 347 911T392 894T433 877T467 869Q487 869 499 886T528 932L566
915Q544 849 522 812T461 774Q441 774 418 781T373 798T330 815T296 823Q276 823 264 805T235 759L196 777Z" />
<glyph unicode="&#xd6;" glyph-name="Odieresis" horiz-adv-x="763" d="M378 -12Q311 -12 249 9T140 73T65 182T36 338Q36 437 67 506T149 620T261 684T385 705Q452 705 513 685T622 622T698 513T727 353Q727 254 696 185T614 72T502 8T378 -12ZM383 42Q423 42
453 54T502 99T530 188T540 332Q540 418 532 478T504 577T455 633T379 651Q340 651 311 639T262 593T233 504T223 359Q223 274 231 214T258 116T307 60T383 42ZM263 748Q245 748 230 754T203 771T184 797T177 829Q177 846 184 861T202 887T229 904T263 910Q281
910 296 904T323 887T342 861T349 829Q349 812 342 797T324 771T297 754T263 748ZM500 748Q464 748 439 771T414 829Q414 864 439 887T500 910Q535 910 560 887T585 829Q585 794 560 771T500 748Z" />
<glyph unicode="&#xd7;" glyph-name="multiply" horiz-adv-x="470" d="M44 190L187 336L49 478L101 526L235 385L373 526L422 480L283 337L426 191L375 144L233 288L94 144L44 190Z" />
<glyph unicode="&#xd8;" glyph-name="Oslash" horiz-adv-x="763" d="M157 60Q102 104 69 172T36 338Q36 437 67 506T149 620T261 684T385 705Q432 705 476 695T562 663L607 730H673L607 632Q661 590 694 521T727 353Q727 254 696 185T614 72T502 8T378 -12Q330
-12 286 -2T202 30L138 -64H73L157 60ZM222 359Q222 301 224 256T234 176L506 580Q487 618 457 634T379 651Q340 651 311 639T262 593T232 504T222 359ZM383 42Q423 42 453 54T502 99T531 188T541 332Q541 389 538 434T528 514L256 110Q274 73 304 58T383 42Z"
/>
<glyph unicode="&#xd9;" glyph-name="Ugrave" horiz-adv-x="739" d="M390 -12Q325 -12 271 0T178 40T117 113T95 223V574Q95 597 93 610T87 630T75 640T55 646L18 654V693H349V654L315 646Q302 643 294 640T282 630T276 610T274 574V203Q274 165 282 139T308 95T357
70T432 62Q510 62 545 102T581 217V560Q581 587 579 603T572 627T558 639T532 646L490 654V693H719V654L689 647Q677 644 669 641T655 629T648 606T645 564V209Q645 163 630 123T584 52T505 5T390 -12ZM292 794Q267 800 257 816T246 849Q246 872 261 890T299 908Q314
908 326 902T353 885L493 773L480 745L292 794Z" />
<glyph unicode="&#xda;" glyph-name="Uacute" horiz-adv-x="739" d="M390 -12Q325 -12 271 0T178 40T117 113T95 223V574Q95 597 93 610T87 630T75 640T55 646L18 654V693H349V654L315 646Q302 643 294 640T282 630T276 610T274 574V203Q274 165 282 139T308 95T357
70T432 62Q510 62 545 102T581 217V560Q581 587 579 603T572 627T558 639T532 646L490 654V693H719V654L689 647Q677 644 669 641T655 629T648 606T645 564V209Q645 163 630 123T584 52T505 5T390 -12ZM246 773L386 885Q400 896 412 902T439 908Q462 908 477 890T492
849Q492 832 482 816T447 794L258 745L246 773Z" />
<glyph unicode="&#xdb;" glyph-name="Ucircumflex" horiz-adv-x="739" d="M390 -12Q325 -12 271 0T178 40T117 113T95 223V574Q95 597 93 610T87 630T75 640T55 646L18 654V693H349V654L315 646Q302 643 294 640T282 630T276 610T274 574V203Q274 165 282 139T308
95T357 70T432 62Q510 62 545 102T581 217V560Q581 587 579 603T572 627T558 639T532 646L490 654V693H719V654L689 647Q677 644 669 641T655 629T648 606T645 564V209Q645 163 630 123T584 52T505 5T390 -12ZM535 774L516 743L368 797L220 743L201 774L333 901H402L535
774Z" />
<glyph unicode="&#xdc;" glyph-name="Udieresis" horiz-adv-x="739" d="M390 -12Q325 -12 271 0T178 40T117 113T95 223V574Q95 597 93 610T87 630T75 640T55 646L18 654V693H349V654L315 646Q302 643 294 640T282 630T276 610T274 574V203Q274 165 282 139T308
95T357 70T432 62Q510 62 545 102T581 217V560Q581 587 579 603T572 627T558 639T532 646L490 654V693H719V654L689 647Q677 644 669 641T655 629T648 606T645 564V209Q645 163 630 123T584 52T505 5T390 -12ZM297 748Q279 748 264 754T237 771T218 797T211 829Q211
846 218 861T236 887T263 904T297 910Q315 910 330 904T357 887T376 861T383 829Q383 812 376 797T358 771T331 754T297 748ZM534 748Q498 748 473 771T448 829Q448 864 473 887T534 910Q569 910 594 887T619 829Q619 794 594 771T534 748Z" />
<glyph unicode="&#xdd;" glyph-name="Yacute" horiz-adv-x="685" d="M178 40L217 47Q230 50 238 53T250 63T256 83T258 119V284L107 561Q93 585 84 600T65 625T48 639T29 647L8 654V693H350V654L322 647Q300 642 291 633T282 607Q282 596 288 583T304 550L397
358H402L497 543Q516 585 516 608Q516 624 506 633T478 647L449 654V693H678V654L658 647Q634 639 615 619T572 550L437 290V119Q437 96 438 84T444 64T457 53T479 47L519 40V0H178V40ZM292 773L432 885Q446 896 458 902T485 908Q508 908 523 890T538 849Q538 832
528 816T493 794L304 745L292 773Z" />
<glyph unicode="&#xde;" glyph-name="Thorn" horiz-adv-x="675" d="M27 40L63 47Q74 50 81 53T93 63T100 83T102 119V574Q102 597 100 610T94 630T82 640T63 646L27 654V693H354V654L317 646Q305 643 298 640T286 630T280 610T278 574V555H352Q488 555 559 506T630
356Q630 312 615 275T572 211T504 169T413 154Q384 154 365 158T338 166V205Q366 205 387 210T423 232T445 276T452 349Q452 394 445 424T425 472T391 497T343 504Q320 504 303 502T278 497V119Q278 97 280 84T286 64T299 54T319 49L369 40V0H27V40Z" />
<glyph unicode="&#xdf;" glyph-name="germandbls" horiz-adv-x="691" d="M491 37Q522 37 544 53T566 95Q566 111 560 123T540 149T504 176T451 211Q418 232 396 249T360 282T341 313T335 346Q335 377 352 409T391 475T430 545T448 624Q448 672 427 698T355 725Q333
725 313 719T278 697T253 656T244 594V97Q244 80 244 71T247 55T253 47T266 42L281 39V0H20V39L49 46Q61 49 68 52T80 62T85 77T86 103V448H13V485L86 519V543Q86 601 110 644T174 715T265 757T369 771Q487 771 544 734T601 640Q601 595 575 562T518 505T460 462T434
426Q434 418 439 410T457 392T494 368T552 333Q622 293 652 254T683 162Q683 123 667 92T624 38T561 3T482 -9Q401 -9 357 19T312 91Q312 117 328 134T374 151Q409 151 421 136T438 85Q440 71 442 62T450 48T465 40T491 37Z" />
<glyph unicode="&#xe0;" glyph-name="agrave" horiz-adv-x="561" d="M180 -12Q108 -12 67 23T25 122Q25 155 35 180T70 226T135 263T236 294L317 312V387Q317 417 314 436T302 466T278 481T240 485Q216 485 209 478T200 448Q196 400 177 380T117 359Q82 359 66
375T49 422Q49 473 109 503T274 533Q371 533 423 501T475 396V129Q475 102 479 89T500 68Q509 63 522 61T548 58V22Q533 11 504 0T430 -12Q386 -12 360 4T325 49H320Q301 25 266 7T180 -12ZM251 65Q276 65 292 73T317 95V252L267 247Q221 244 200 222T179 145Q179
97 199 81T251 65ZM176 639Q151 645 141 661T130 694Q130 717 145 735T183 753Q198 753 210 747T237 730L377 618L364 590L176 639Z" />
<glyph unicode="&#xe1;" glyph-name="aacute" horiz-adv-x="561" d="M180 -12Q108 -12 67 23T25 122Q25 155 35 180T70 226T135 263T236 294L317 312V387Q317 417 314 436T302 466T278 481T240 485Q216 485 209 478T200 448Q196 400 177 380T117 359Q82 359 66
375T49 422Q49 473 109 503T274 533Q371 533 423 501T475 396V129Q475 102 479 89T500 68Q509 63 522 61T548 58V22Q533 11 504 0T430 -12Q386 -12 360 4T325 49H320Q301 25 266 7T180 -12ZM251 65Q276 65 292 73T317 95V252L267 247Q221 244 200 222T179 145Q179
97 199 81T251 65ZM175 618L315 730Q329 741 341 747T368 753Q391 753 406 735T421 694Q421 677 411 661T376 639L187 590L175 618Z" />
<glyph unicode="&#xe2;" glyph-name="acircumflex" horiz-adv-x="561" d="M180 -12Q108 -12 67 23T25 122Q25 155 35 180T70 226T135 263T236 294L317 312V387Q317 417 314 436T302 466T278 481T240 485Q216 485 209 478T200 448Q196 400 177 380T117 359Q82 359
66 375T49 422Q49 473 109 503T274 533Q371 533 423 501T475 396V129Q475 102 479 89T500 68Q509 63 522 61T548 58V22Q533 11 504 0T430 -12Q386 -12 360 4T325 49H320Q301 25 266 7T180 -12ZM251 65Q276 65 292 73T317 95V252L267 247Q221 244 200 222T179 145Q179
97 199 81T251 65ZM436 614L414 583L271 662L128 583L106 614L236 766H305L436 614Z" />
<glyph unicode="&#xe3;" glyph-name="atilde" horiz-adv-x="561" d="M180 -12Q108 -12 67 23T25 122Q25 155 35 180T70 226T135 263T236 294L317 312V387Q317 417 314 436T302 466T278 481T240 485Q216 485 209 478T200 448Q196 400 177 380T117 359Q82 359 66
375T49 422Q49 473 109 503T274 533Q371 533 423 501T475 396V129Q475 102 479 89T500 68Q509 63 522 61T548 58V22Q533 11 504 0T430 -12Q386 -12 360 4T325 49H320Q301 25 266 7T180 -12ZM251 65Q276 65 292 73T317 95V252L267 247Q221 244 200 222T179 145Q179
97 199 81T251 65ZM94 602Q116 668 141 705T202 743Q222 743 242 737T282 724T319 710T350 704Q370 704 382 721T411 767L449 750Q427 684 405 647T344 609Q324 609 303 615T263 628T226 642T194 648Q174 648 162 630T133 584L94 602Z" />
<glyph unicode="&#xe4;" glyph-name="adieresis" horiz-adv-x="561" d="M180 -12Q108 -12 67 23T25 122Q25 155 35 180T70 226T135 263T236 294L317 312V387Q317 417 314 436T302 466T278 481T240 485Q216 485 209 478T200 448Q196 400 177 380T117 359Q82 359
66 375T49 422Q49 473 109 503T274 533Q371 533 423 501T475 396V129Q475 102 479 89T500 68Q509 63 522 61T548 58V22Q533 11 504 0T430 -12Q386 -12 360 4T325 49H320Q301 25 266 7T180 -12ZM251 65Q276 65 292 73T317 95V252L267 247Q221 244 200 222T179 145Q179
97 199 81T251 65ZM157 598Q139 598 124 604T97 621T78 647T71 679Q71 696 78 711T96 737T123 754T157 760Q175 760 190 754T217 737T236 711T243 679Q243 662 236 647T218 621T191 604T157 598ZM386 598Q350 598 325 621T300 679Q300 714 325 737T386 760Q421
760 446 737T471 679Q471 644 446 621T386 598Z" />
<glyph unicode="&#xe5;" glyph-name="aring" horiz-adv-x="561" d="M180 -12Q108 -12 67 23T25 122Q25 155 35 180T70 226T135 263T236 294L317 312V387Q317 417 314 436T302 466T278 481T240 485Q216 485 209 478T200 448Q196 400 177 380T117 359Q82 359 66
375T49 422Q49 473 109 503T274 533Q371 533 423 501T475 396V129Q475 102 479 89T500 68Q509 63 522 61T548 58V22Q533 11 504 0T430 -12Q386 -12 360 4T325 49H320Q301 25 266 7T180 -12ZM251 65Q276 65 292 73T317 95V252L267 247Q221 244 200 222T179 145Q179
97 199 81T251 65ZM271 585Q220 585 188 615T156 692Q156 715 165 735T189 769T226 792T271 801Q320 801 353 771T386 692Q386 646 353 616T271 585ZM271 630Q297 630 312 647T328 692Q328 719 313 737T271 755Q245 755 230 737T214 692Q214 665 229 648T271 630Z"
/>
<glyph unicode="&#xe6;" glyph-name="ae" horiz-adv-x="825" d="M569 -12Q426 -12 362 76Q329 27 287 8T185 -12Q110 -12 68 22T25 125Q25 192 74 228T207 284L315 308V387Q315 444 300 464T242 485Q217 485 209 478T199 448Q195 400 176 380T116 359Q49 359 49
423Q49 448 65 468T110 502T179 525T266 533Q382 533 421 471Q451 500 489 516T574 533Q625 533 666 517T736 468T781 385T797 265H465Q468 212 481 176T515 118T566 87T630 77Q679 77 716 89T782 115V70Q769 56 749 42T701 15T640 -4T569 -12ZM564 483Q545 483
528 474T497 445T474 393T464 315L643 325Q643 410 627 446T564 483ZM254 65Q284 65 304 82T337 124Q327 150 322 180T315 247L267 242Q246 240 230 236T203 222T187 195T181 148Q181 122 186 106T201 80T224 68T254 65Z" />
<glyph unicode="&#xe7;" glyph-name="ccedilla" horiz-adv-x="524" d="M137 -227Q197 -213 226 -194T255 -154Q255 -139 238 -129T181 -116L172 -106L222 -6Q128 11 79 80T29 255Q29 333 57 386T131 472T231 519T339 533Q416 533 458 509T501 440Q501 410 482
385T430 360Q391 360 376 382T358 436Q354 465 346 473T312 481Q289 481 267 473T228 445T199 390T188 300Q188 192 229 135T357 77Q405 77 438 89T500 116V71Q489 58 470 44T423 17T361 -4T285 -12H271L239 -55Q299 -59 325 -81T351 -134Q351 -178 298 -213T137
-260V-227Z" />
<glyph unicode="&#xe8;" glyph-name="egrave" horiz-adv-x="556" d="M295 -12Q161 -12 95 61T29 262Q29 326 51 376T111 462T196 515T295 533Q348 533 390 519T463 474T509 393T527 272H186Q189 217 201 180T236 120T289 87T359 77Q409 77 445 89T512 115V70Q499
56 478 42T430 15T368 -4T295 -12ZM288 483Q267 483 250 475T219 447T197 397T186 322L368 331Q368 376 365 405T352 451T328 476T288 483ZM193 639Q168 645 158 661T147 694Q147 717 162 735T200 753Q215 753 227 747T254 730L394 618L381 590L193 639Z" />
<glyph unicode="&#xe9;" glyph-name="eacute" horiz-adv-x="556" d="M295 -12Q161 -12 95 61T29 262Q29 326 51 376T111 462T196 515T295 533Q348 533 390 519T463 474T509 393T527 272H186Q189 217 201 180T236 120T289 87T359 77Q409 77 445 89T512 115V70Q499
56 478 42T430 15T368 -4T295 -12ZM288 483Q267 483 250 475T219 447T197 397T186 322L368 331Q368 376 365 405T352 451T328 476T288 483ZM193 618L333 730Q347 741 359 747T386 753Q409 753 424 735T439 694Q439 677 429 661T394 639L205 590L193 618Z" />
<glyph unicode="&#xea;" glyph-name="ecircumflex" horiz-adv-x="556" d="M295 -12Q161 -12 95 61T29 262Q29 326 51 376T111 462T196 515T295 533Q348 533 390 519T463 474T509 393T527 272H186Q189 217 201 180T236 120T289 87T359 77Q409 77 445 89T512 115V70Q499
56 478 42T430 15T368 -4T295 -12ZM288 483Q267 483 250 475T219 447T197 397T186 322L368 331Q368 376 365 405T352 451T328 476T288 483ZM454 614L432 583L289 662L146 583L124 614L254 766H323L454 614Z" />
<glyph unicode="&#xeb;" glyph-name="edieresis" horiz-adv-x="556" d="M295 -12Q161 -12 95 61T29 262Q29 326 51 376T111 462T196 515T295 533Q348 533 390 519T463 474T509 393T527 272H186Q189 217 201 180T236 120T289 87T359 77Q409 77 445 89T512 115V70Q499
56 478 42T430 15T368 -4T295 -12ZM288 483Q267 483 250 475T219 447T197 397T186 322L368 331Q368 376 365 405T352 451T328 476T288 483ZM175 598Q157 598 142 604T115 621T96 647T89 679Q89 696 96 711T114 737T141 754T175 760Q193 760 208 754T235 737T254
711T261 679Q261 662 254 647T236 621T209 604T175 598ZM404 598Q368 598 343 621T318 679Q318 714 343 737T404 760Q439 760 464 737T489 679Q489 644 464 621T404 598Z" />
<glyph unicode="&#xec;" glyph-name="igrave" horiz-adv-x="326" d="M20 33L49 43Q63 47 70 51T81 63T85 85T86 124V374Q86 396 85 408T81 428T70 440T52 453L17 477V509L237 532L252 524Q252 526 248 494T244 387V124Q244 99 245 85T249 62T260 50T280 43L309
33V0H20V33ZM324 639Q299 645 289 661T278 694Q278 717 293 735T331 753Q346 753 358 747T385 730L525 618L512 590L324 639Z" />
<glyph unicode="&#xed;" glyph-name="iacute" horiz-adv-x="326" d="M20 33L49 43Q63 47 70 51T81 63T85 85T86 124V374Q86 396 85 408T81 428T70 440T52 453L17 477V509L237 532L252 524Q252 526 248 494T244 387V124Q244 99 245 85T249 62T260 50T280 43L309
33V0H20V33ZM324 618L464 730Q478 741 490 747T517 753Q540 753 555 735T570 694Q570 677 560 661T525 639L336 590L324 618Z" />
<glyph unicode="&#xee;" glyph-name="icircumflex" horiz-adv-x="326" d="M20 33L49 43Q63 47 70 51T81 63T85 85T86 124V374Q86 396 85 408T81 428T70 440T52 453L17 477V509L237 532L252 524Q252 526 248 494T244 387V124Q244 99 245 85T249 62T260 50T280 43L309
33V0H20V33ZM585 614L563 583L420 662L277 583L255 614L385 766H454L585 614Z" />
<glyph unicode="&#xef;" glyph-name="idieresis" horiz-adv-x="326" d="M20 33L49 43Q63 47 70 51T81 63T85 85T86 124V374Q86 396 85 408T81 428T70 440T52 453L17 477V509L237 532L252 524Q252 526 248 494T244 387V124Q244 99 245 85T249 62T260 50T280 43L309
33V0H20V33ZM306 598Q288 598 273 604T246 621T227 647T220 679Q220 696 227 711T245 737T272 754T306 760Q324 760 339 754T366 737T385 711T392 679Q392 662 385 647T367 621T340 604T306 598ZM535 598Q499 598 474 621T449 679Q449 714 474 737T535 760Q570
760 595 737T620 679Q620 644 595 621T535 598Z" />
<glyph unicode="&#xf0;" glyph-name="eth" horiz-adv-x="614" d="M157 619L257 664Q203 708 130 741L148 781Q266 751 347 705L459 755L481 711L397 673Q496 603 540 508T584 301Q584 211 560 151T497 55T408 4T306 -12Q250 -12 200 4T112 53T52 136T29 255Q29
327 53 378T116 461T201 509T292 525Q324 525 352 513T402 479Q369 559 299 628L178 574L157 619ZM308 39Q332 39 352 46T388 76T411 140T420 249Q420 322 412 366T389 435T352 466T302 474Q277 474 257 465T224 433T203 370T196 271Q196 198 203 153T224 83T259
48T308 39Z" />
<glyph unicode="&#xf1;" glyph-name="ntilde" horiz-adv-x="658" d="M20 39L49 46Q61 49 68 52T80 62T85 77T86 103V391Q86 407 85 416T80 431T70 443T52 455L17 477V509L228 532L242 523L235 462H240Q281 490 332 511T439 532Q575 532 575 399V103Q575 86 576
77T581 61T592 52T612 46L639 39V0H357V39L384 45Q395 48 401 51T411 59T415 75T416 103V354Q416 401 399 419T343 438Q314 438 288 431T244 419V103Q244 85 245 75T249 59T258 51T276 45L303 39V0H20V39ZM157 602Q179 668 204 705T265 743Q285 743 305 737T345
724T382 710T413 704Q433 704 445 721T474 767L512 750Q490 684 468 647T407 609Q387 609 366 615T326 628T289 642T257 648Q237 648 225 630T196 584L157 602Z" />
<glyph unicode="&#xf2;" glyph-name="ograve" horiz-adv-x="612" d="M307 -12Q251 -12 201 4T112 55T52 139T29 259Q29 330 52 382T115 467T204 517T307 533Q362 533 412 517T500 467T560 383T583 263Q583 192 560 140T498 54T409 4T307 -12ZM310 39Q334 39 353
48T387 81T408 148T416 259Q416 329 409 372T387 440T351 472T302 481Q277 481 257 472T224 439T203 374T196 269Q196 198 203 154T224 84T259 49T310 39ZM210 639Q185 645 175 661T164 694Q164 717 179 735T217 753Q232 753 244 747T271 730L411 618L398 590L210
639Z" />
<glyph unicode="&#xf3;" glyph-name="oacute" horiz-adv-x="612" d="M307 -12Q251 -12 201 4T112 55T52 139T29 259Q29 330 52 382T115 467T204 517T307 533Q362 533 412 517T500 467T560 383T583 263Q583 192 560 140T498 54T409 4T307 -12ZM310 39Q334 39 353
48T387 81T408 148T416 259Q416 329 409 372T387 440T351 472T302 481Q277 481 257 472T224 439T203 374T196 269Q196 198 203 154T224 84T259 49T310 39ZM210 618L350 730Q364 741 376 747T403 753Q426 753 441 735T456 694Q456 677 446 661T411 639L222 590L210
618Z" />
<glyph unicode="&#xf4;" glyph-name="ocircumflex" horiz-adv-x="612" d="M307 -12Q251 -12 201 4T112 55T52 139T29 259Q29 330 52 382T115 467T204 517T307 533Q362 533 412 517T500 467T560 383T583 263Q583 192 560 140T498 54T409 4T307 -12ZM310 39Q334
39 353 48T387 81T408 148T416 259Q416 329 409 372T387 440T351 472T302 481Q277 481 257 472T224 439T203 374T196 269Q196 198 203 154T224 84T259 49T310 39ZM471 614L449 583L306 662L163 583L141 614L271 766H340L471 614Z" />
<glyph unicode="&#xf5;" glyph-name="otilde" horiz-adv-x="612" d="M307 -12Q251 -12 201 4T112 55T52 139T29 259Q29 330 52 382T115 467T204 517T307 533Q362 533 412 517T500 467T560 383T583 263Q583 192 560 140T498 54T409 4T307 -12ZM310 39Q334 39 353
48T387 81T408 148T416 259Q416 329 409 372T387 440T351 472T302 481Q277 481 257 472T224 439T203 374T196 269Q196 198 203 154T224 84T259 49T310 39ZM129 602Q151 668 176 705T237 743Q257 743 277 737T317 724T354 710T385 704Q405 704 417 721T446 767L484
750Q462 684 440 647T379 609Q359 609 338 615T298 628T261 642T229 648Q209 648 197 630T168 584L129 602Z" />
<glyph unicode="&#xf6;" glyph-name="odieresis" horiz-adv-x="612" d="M307 -12Q251 -12 201 4T112 55T52 139T29 259Q29 330 52 382T115 467T204 517T307 533Q362 533 412 517T500 467T560 383T583 263Q583 192 560 140T498 54T409 4T307 -12ZM310 39Q334 39
353 48T387 81T408 148T416 259Q416 329 409 372T387 440T351 472T302 481Q277 481 257 472T224 439T203 374T196 269Q196 198 203 154T224 84T259 49T310 39ZM192 598Q174 598 159 604T132 621T113 647T106 679Q106 696 113 711T131 737T158 754T192 760Q210 760
225 754T252 737T271 711T278 679Q278 662 271 647T253 621T226 604T192 598ZM421 598Q385 598 360 621T335 679Q335 714 360 737T421 760Q456 760 481 737T506 679Q506 644 481 621T421 598Z" />
<glyph unicode="&#xf7;" glyph-name="divide" horiz-adv-x="503" d="M252 446Q220 446 198 468T175 522Q175 554 197 576T252 598Q284 598 307 576T330 522Q330 507 324 493T308 469T283 452T252 446ZM46 371H457V303H46V371ZM252 75Q220 75 198 98T175 152Q175
184 197 206T252 228Q284 228 307 206T330 152Q330 137 324 123T308 99T283 82T252 75Z" />
<glyph unicode="&#xf8;" glyph-name="oslash" horiz-adv-x="612" d="M126 43Q81 76 55 130T29 259Q29 330 52 382T115 467T204 517T307 533Q345 533 380 526T446 502L501 581H561L488 476Q532 443 557 390T583 263Q583 192 560 140T498 54T409 4T307 -12Q231 -12
168 17L112 -64H52L126 43ZM191 249Q191 217 192 191T196 144L400 436Q386 465 363 473T302 481Q277 481 257 470T221 433T199 361T191 249ZM310 39Q335 39 355 49T390 87T413 160T421 277Q421 306 420 329T416 373L213 82Q227 56 250 48T310 39Z" />
<glyph unicode="&#xf9;" glyph-name="ugrave" horiz-adv-x="656" d="M219 -12Q157 -12 121 21T84 121V396Q84 412 83 421T79 436T70 447T52 458L15 478V510L225 532L242 521V161Q242 116 259 98T313 80Q342 80 368 88T415 105V396Q415 412 414 421T410 437T400
447T382 458L347 478V510L557 532L573 521V131Q573 113 574 102T578 84T588 73T607 65L636 52V17L431 -12L417 -2L423 63H419Q377 34 328 11T219 -12ZM235 639Q210 645 200 661T189 694Q189 717 204 735T242 753Q257 753 269 747T296 730L436 618L423 590L235 639Z"
/>
<glyph unicode="&#xfa;" glyph-name="uacute" horiz-adv-x="656" d="M219 -12Q157 -12 121 21T84 121V396Q84 412 83 421T79 436T70 447T52 458L15 478V510L225 532L242 521V161Q242 116 259 98T313 80Q342 80 368 88T415 105V396Q415 412 414 421T410 437T400
447T382 458L347 478V510L557 532L573 521V131Q573 113 574 102T578 84T588 73T607 65L636 52V17L431 -12L417 -2L423 63H419Q377 34 328 11T219 -12ZM235 618L375 730Q389 741 401 747T428 753Q451 753 466 735T481 694Q481 677 471 661T436 639L247 590L235 618Z"
/>
<glyph unicode="&#xfb;" glyph-name="ucircumflex" horiz-adv-x="656" d="M219 -12Q157 -12 121 21T84 121V396Q84 412 83 421T79 436T70 447T52 458L15 478V510L225 532L242 521V161Q242 116 259 98T313 80Q342 80 368 88T415 105V396Q415 412 414 421T410 437T400
447T382 458L347 478V510L557 532L573 521V131Q573 113 574 102T578 84T588 73T607 65L636 52V17L431 -12L417 -2L423 63H419Q377 34 328 11T219 -12ZM496 614L474 583L331 662L188 583L166 614L296 766H365L496 614Z" />
<glyph unicode="&#xfc;" glyph-name="udieresis" horiz-adv-x="656" d="M219 -12Q157 -12 121 21T84 121V396Q84 412 83 421T79 436T70 447T52 458L15 478V510L225 532L242 521V161Q242 116 259 98T313 80Q342 80 368 88T415 105V396Q415 412 414 421T410 437T400
447T382 458L347 478V510L557 532L573 521V131Q573 113 574 102T578 84T588 73T607 65L636 52V17L431 -12L417 -2L423 63H419Q377 34 328 11T219 -12ZM217 598Q199 598 184 604T157 621T138 647T131 679Q131 696 138 711T156 737T183 754T217 760Q235 760 250 754T277
737T296 711T303 679Q303 662 296 647T278 621T251 604T217 598ZM446 598Q410 598 385 621T360 679Q360 714 385 737T446 760Q481 760 506 737T531 679Q531 644 506 621T446 598Z" />
<glyph unicode="&#xfd;" glyph-name="yacute" horiz-adv-x="589" d="M132 -222Q81 -222 55 -199T28 -142Q28 -114 43 -96T88 -77Q120 -77 134 -89T157 -126Q166 -149 174 -149Q192 -149 211 -129T255 -53L271 -15L81 396Q70 420 63 434T49 456T38 467T23 474L4
480V519H300V480L273 473Q256 469 248 461T240 435Q240 412 256 380L349 165H353L436 380Q443 398 445 413T447 439Q447 454 440 461T416 473L387 480V519H592V480L569 473Q559 470 552 465T539 451T526 426T509 386L315 -63Q280 -144 238 -183T132 -222ZM239 618L379
730Q393 741 405 747T432 753Q455 753 470 735T485 694Q485 677 475 661T440 639L251 590L239 618Z" />
<glyph unicode="&#xfe;" glyph-name="thorn" horiz-adv-x="636" d="M75 633Q75 651 74 662T70 679T61 690T45 699L6 718V753L227 772L241 762Q239 749 237 731Q234 701 234 647V560Q234 540 233 523T231 493Q229 478 228 466H232Q264 492 308 512T407 532Q443
532 479 520T545 478T592 403T610 287Q610 209 588 153T526 60T431 6T311 -12Q294 -12 270 -10T229 -2Q230 -9 231 -19Q232 -27 233 -38T234 -63V-134Q234 -151 235 -161T239 -177T249 -185T267 -191L306 -199V-237H9V-199L38 -191Q51 -188 58 -185T69 -176T74
-161T75 -134V633ZM317 40Q349 40 373 49T413 81T438 146T446 253Q446 355 414 398T320 442Q288 442 267 433T234 419V76Q248 60 268 50T317 40Z" />
<glyph unicode="&#xff;" glyph-name="ydieresis" horiz-adv-x="589" d="M132 -222Q81 -222 55 -199T28 -142Q28 -114 43 -96T88 -77Q120 -77 134 -89T157 -126Q166 -149 174 -149Q192 -149 211 -129T255 -53L271 -15L81 396Q70 420 63 434T49 456T38 467T23 474L4
480V519H300V480L273 473Q256 469 248 461T240 435Q240 412 256 380L349 165H353L436 380Q443 398 445 413T447 439Q447 454 440 461T416 473L387 480V519H592V480L569 473Q559 470 552 465T539 451T526 426T509 386L315 -63Q280 -144 238 -183T132 -222ZM221 598Q203
598 188 604T161 621T142 647T135 679Q135 696 142 711T160 737T187 754T221 760Q239 760 254 754T281 737T300 711T307 679Q307 662 300 647T282 621T255 604T221 598ZM450 598Q414 598 389 621T364 679Q364 714 389 737T450 760Q485 760 510 737T535 679Q535
644 510 621T450 598Z" />
<glyph unicode="&#x100;" glyph-name="Amacron" horiz-adv-x="726" d="M5 40L32 47Q43 50 51 54T67 67T83 92T102 135L308 693H410L624 131Q634 105 642 90T657 66T673 53T692 45L716 40V0H389V40L417 47Q437 52 445 59T454 81Q454 94 449 109T436 146L413 209H196L174
146Q167 125 163 112T158 85Q158 67 168 60T202 47L231 40V0H5V40ZM215 264H394L306 511H301L215 264ZM206 856H512V777H206V856Z" />
<glyph unicode="&#x101;" glyph-name="amacron" horiz-adv-x="561" d="M180 -12Q108 -12 67 23T25 122Q25 155 35 180T70 226T135 263T236 294L317 312V387Q317 417 314 436T302 466T278 481T240 485Q216 485 209 478T200 448Q196 400 177 380T117 359Q82 359
66 375T49 422Q49 473 109 503T274 533Q371 533 423 501T475 396V129Q475 102 479 89T500 68Q509 63 522 61T548 58V22Q533 11 504 0T430 -12Q386 -12 360 4T325 49H320Q301 25 266 7T180 -12ZM251 65Q276 65 292 73T317 95V252L267 247Q221 244 200 222T179 145Q179
97 199 81T251 65ZM123 701H419V622H123V701Z" />
<glyph unicode="&#x102;" glyph-name="Abreve" horiz-adv-x="726" d="M5 40L32 47Q43 50 51 54T67 67T83 92T102 135L308 693H410L624 131Q634 105 642 90T657 66T673 53T692 45L716 40V0H389V40L417 47Q437 52 445 59T454 81Q454 94 449 109T436 146L413 209H196L174
146Q167 125 163 112T158 85Q158 67 168 60T202 47L231 40V0H5V40ZM215 264H394L306 511H301L215 264ZM360 754Q294 754 252 795T198 902L241 914Q255 882 282 867T360 851Q408 851 435 866T478 914L520 902Q510 836 468 795T360 754Z" />
<glyph unicode="&#x103;" glyph-name="abreve" horiz-adv-x="561" d="M180 -12Q108 -12 67 23T25 122Q25 155 35 180T70 226T135 263T236 294L317 312V387Q317 417 314 436T302 466T278 481T240 485Q216 485 209 478T200 448Q196 400 177 380T117 359Q82 359 66
375T49 422Q49 473 109 503T274 533Q371 533 423 501T475 396V129Q475 102 479 89T500 68Q509 63 522 61T548 58V22Q533 11 504 0T430 -12Q386 -12 360 4T325 49H320Q301 25 266 7T180 -12ZM251 65Q276 65 292 73T317 95V252L267 247Q221 244 200 222T179 145Q179
97 199 81T251 65ZM272 593Q209 593 170 638T120 757L163 769Q177 734 201 712T272 689Q317 689 341 711T380 769L422 757Q412 684 374 639T272 593Z" />
<glyph unicode="&#x104;" glyph-name="Aogonek" horiz-adv-x="726" d="M413 209H196L174 146Q167 125 163 112T158 85Q158 67 168 60T202 47L231 40V0H5V40L32 47Q43 50 51 54T67 67T83 92T102 135L308 693H410L624 131Q634 105 642 90T657 66T673 53T692 45L716
40V0H615Q579 0 549 -9T498 -33T465 -68T453 -110Q453 -144 482 -153Q495 -157 512 -157T551 -157V-196Q538 -205 516 -215T454 -226Q397 -226 365 -202T332 -136Q332 -89 367 -53T482 14L413 209ZM215 264H393L306 511H301L215 264Z" />
<glyph unicode="&#x105;" glyph-name="aogonek" horiz-adv-x="561" d="M432 -226Q375 -226 343 -202T310 -136Q310 -94 341 -63T416 -11Q341 -6 325 49H320Q301 25 266 7T180 -12Q108 -12 67 23T25 122Q25 155 35 180T70 226T135 263T236 294L317 312V387Q317
417 314 436T302 466T278 481T240 485Q216 485 209 478T200 448Q196 400 177 380T117 359Q82 359 66 375T49 422Q49 473 109 503T274 533Q371 533 423 501T475 396V129Q475 102 479 89T500 68Q509 63 522 61T548 58V22Q497 -6 464 -37T431 -110Q431 -144 460 -153Q473
-157 490 -157T529 -157V-196Q516 -205 494 -215T432 -226ZM251 65Q276 65 292 73T317 95V252L267 247Q221 244 200 222T179 145Q179 97 199 81T251 65Z" />
<glyph unicode="&#x106;" glyph-name="Cacute" horiz-adv-x="657" d="M396 -12Q316 -12 250 9T137 75T63 185T36 341Q36 438 66 507T148 620T267 684T410 705Q469 705 520 698T604 682L615 475H573Q550 522 532 556T493 616Q482 629 473 636T454 648T430 653T397
654Q350 654 318 639T265 590T235 499T225 361Q225 264 235 202T267 103T320 53T396 39Q420 39 437 42T467 53T490 72T512 98Q522 113 530 126T547 155T563 187T581 228H622L611 29Q574 14 519 1T396 -12ZM292 773L432 885Q446 896 458 902T485 908Q508 908 523
890T538 849Q538 832 528 816T493 794L304 745L292 773Z" />
<glyph unicode="&#x107;" glyph-name="cacute" horiz-adv-x="524" d="M285 -12Q223 -12 176 7T96 60T46 144T29 255Q29 333 57 386T131 472T231 519T339 533Q416 533 458 509T501 440Q501 410 482 385T430 360Q391 360 376 382T358 436Q354 465 346 473T312 481Q289
481 267 473T228 445T199 390T188 300Q188 192 229 135T357 77Q405 77 438 89T500 116V71Q489 58 470 44T423 17T361 -4T285 -12ZM212 618L352 730Q366 741 378 747T405 753Q428 753 443 735T458 694Q458 677 448 661T413 639L224 590L212 618Z" />
<glyph unicode="&#x108;" glyph-name="Ccircumflex" horiz-adv-x="657" d="M396 -12Q316 -12 250 9T137 75T63 185T36 341Q36 438 66 507T148 620T267 684T410 705Q469 705 520 698T604 682L615 475H573Q550 522 532 556T493 616Q482 629 473 636T454 648T430
653T397 654Q350 654 318 639T265 590T235 499T225 361Q225 264 235 202T267 103T320 53T396 39Q420 39 437 42T467 53T490 72T512 98Q522 113 530 126T547 155T563 187T581 228H622L611 29Q574 14 519 1T396 -12ZM556 774L537 743L389 797L241 743L222 774L354
901H423L556 774Z" />
<glyph unicode="&#x109;" glyph-name="ccircumflex" horiz-adv-x="524" d="M285 -12Q223 -12 176 7T96 60T46 144T29 255Q29 333 57 386T131 472T231 519T339 533Q416 533 458 509T501 440Q501 410 482 385T430 360Q391 360 376 382T358 436Q354 465 346 473T312
481Q289 481 267 473T228 445T199 390T188 300Q188 192 229 135T357 77Q405 77 438 89T500 116V71Q489 58 470 44T423 17T361 -4T285 -12ZM473 614L451 583L308 662L165 583L143 614L273 766H342L473 614Z" />
<glyph unicode="&#x10a;" glyph-name="Cdotaccent" horiz-adv-x="657" d="M396 -12Q316 -12 250 9T137 75T63 185T36 341Q36 438 66 507T148 620T267 684T410 705Q469 705 520 698T604 682L615 475H573Q550 522 532 556T493 616Q482 629 473 636T454 648T430 653T397
654Q350 654 318 639T265 590T235 499T225 361Q225 264 235 202T267 103T320 53T396 39Q420 39 437 42T467 53T490 72T512 98Q522 113 530 126T547 155T563 187T581 228H622L611 29Q574 14 519 1T396 -12ZM390 744Q350 744 323 769T295 831Q295 869 322 893T390
918Q429 918 456 894T484 831Q484 794 457 769T390 744Z" />
<glyph unicode="&#x10b;" glyph-name="cdotaccent" horiz-adv-x="524" d="M285 -12Q223 -12 176 7T96 60T46 144T29 255Q29 333 57 386T131 472T231 519T339 533Q416 533 458 509T501 440Q501 410 482 385T430 360Q391 360 376 382T358 436Q354 465 346 473T312
481Q289 481 267 473T228 445T199 390T188 300Q188 192 229 135T357 77Q405 77 438 89T500 116V71Q489 58 470 44T423 17T361 -4T285 -12ZM309 594Q269 594 242 619T214 681Q214 719 241 743T309 768Q348 768 375 744T403 681Q403 644 376 619T309 594Z" />
<glyph unicode="&#x10c;" glyph-name="Ccaron" horiz-adv-x="657" d="M396 -12Q316 -12 250 9T137 75T63 185T36 341Q36 438 66 507T148 620T267 684T410 705Q469 705 520 698T604 682L615 475H573Q550 522 532 556T493 616Q482 629 473 636T454 648T430 653T397
654Q350 654 318 639T265 590T235 499T225 361Q225 264 235 202T267 103T320 53T396 39Q420 39 437 42T467 53T490 72T512 98Q522 113 530 126T547 155T563 187T581 228H622L611 29Q574 14 519 1T396 -12ZM222 883L241 914L389 860L537 914L556 883L424 756H355L222
883Z" />
<glyph unicode="&#x10d;" glyph-name="ccaron" horiz-adv-x="524" d="M285 -12Q223 -12 176 7T96 60T46 144T29 255Q29 333 57 386T131 472T231 519T339 533Q416 533 458 509T501 440Q501 410 482 385T430 360Q391 360 376 382T358 436Q354 465 346 473T312 481Q289
481 267 473T228 445T199 390T188 300Q188 192 229 135T357 77Q405 77 438 89T500 116V71Q489 58 470 44T423 17T361 -4T285 -12ZM143 742L165 774L308 694L451 774L473 742L343 591H274L143 742Z" />
<glyph unicode="&#x10e;" glyph-name="Dcaron" horiz-adv-x="763" d="M27 40L62 47Q74 50 81 53T93 63T100 83T102 119V574Q102 597 100 610T94 630T82 640T62 646L27 654V693H371Q451 693 516 674T629 615T702 511T728 358Q728 272 703 206T630 94T516 24T366
0H27V40ZM356 53Q456 53 498 121T541 335Q541 423 530 481T495 575T437 625T354 640Q328 640 309 638T281 631V147Q281 117 284 99T295 71T317 57T356 53ZM189 883L208 914L356 860L504 914L523 883L391 756H322L189 883Z" />
<glyph unicode="&#x10f;" glyph-name="dcaron" horiz-adv-x="649" d="M235 -12Q197 -12 161 2T97 46T51 125T33 242Q33 320 57 375T122 465T216 516T330 532Q353 532 375 530T414 522Q412 532 411 544Q410 554 410 567T409 594V627Q409 644 408 654T403 670T393
681T377 690L335 712V747L560 766L574 756Q572 743 570 725Q567 695 567 641V131Q567 113 568 102T572 84T582 73T600 65L630 52V17L422 -12L412 -4L416 52H412Q379 25 334 7T235 -12ZM319 78Q352 78 374 86T408 101V439Q395 454 375 467T326 480Q297 480 273 470T232
436T206 372T196 273Q196 217 204 180T227 120T266 88T319 78ZM629 575L636 712Q638 735 648 750T686 765Q710 765 726 751T743 716Q743 708 740 699T728 676L654 569L629 575Z" />
<glyph unicode="&#x110;" glyph-name="Dcroat" horiz-adv-x="763" d="M36 375H102V574Q102 597 100 610T94 630T82 640T62 646L27 654V693H371Q451 693 516 674T629 615T702 511T728 358Q728 272 703 206T630 94T516 24T366 0H27V40L62 47Q74 50 81 53T93 63T100
83T102 119V321H36V375ZM356 53Q456 53 498 121T541 335Q541 423 530 481T495 575T437 625T354 640Q328 640 309 638T281 631V375H423V321H281V147Q281 117 284 99T295 71T317 57T356 53Z" />
<glyph unicode="&#x111;" glyph-name="dcroat" horiz-adv-x="649" d="M236 644H408Q407 666 400 673T377 690L335 712V747L560 766L574 756Q572 743 570 726Q567 697 567 644H643V593H567V131Q567 113 568 102T572 84T582 73T600 65L630 52V17L422 -12L412 -4L416
52H412Q379 25 334 7T235 -12Q197 -12 161 2T97 46T51 125T33 242Q33 320 57 375T122 465T216 516T330 532Q353 532 375 530T414 522Q412 533 411 544Q410 554 410 566T409 593H236V644ZM319 78Q352 78 374 86T408 101V439Q395 454 375 467T326 480Q297 480 273
470T232 436T206 372T196 273Q196 217 204 180T227 120T266 88T319 78Z" />
<glyph unicode="&#x112;" glyph-name="Emacron" horiz-adv-x="663" d="M27 40L62 47Q74 50 81 53T93 63T100 83T102 119V574Q102 597 100 610T94 630T82 640T62 646L27 654V693H599L610 493H566Q548 535 535 558T509 599Q497 614 486 622T460 634T427 638T381
639Q338 639 317 636T281 630V387H300Q328 387 346 388T375 393T393 401T405 416Q416 434 422 447T435 484H479V231H435Q429 255 423 268T405 303Q400 313 394 318T377 327T347 331T300 332H281V144Q281 110 283 92T295 65T328 56T390 54Q422 54 442 55T476 62T500
76T524 103Q538 123 554 155T591 236H635L620 0H27V40ZM188 856H494V777H188V856Z" />
<glyph unicode="&#x113;" glyph-name="emacron" horiz-adv-x="556" d="M295 -12Q161 -12 95 61T29 262Q29 326 51 376T111 462T196 515T295 533Q348 533 390 519T463 474T509 393T527 272H186Q189 217 201 180T236 120T289 87T359 77Q409 77 445 89T512 115V70Q499
56 478 42T430 15T368 -4T295 -12ZM288 483Q267 483 250 475T219 447T197 397T186 322L368 331Q368 376 365 405T352 451T328 476T288 483ZM141 701H437V622H141V701Z" />
<glyph unicode="&#x114;" glyph-name="Ebreve" horiz-adv-x="663" d="M27 40L62 47Q74 50 81 53T93 63T100 83T102 119V574Q102 597 100 610T94 630T82 640T62 646L27 654V693H599L610 493H566Q548 535 535 558T509 599Q497 614 486 622T460 634T427 638T381 639Q338
639 317 636T281 630V387H300Q328 387 346 388T375 393T393 401T405 416Q416 434 422 447T435 484H479V231H435Q429 255 423 268T405 303Q400 313 394 318T377 327T347 331T300 332H281V144Q281 110 283 92T295 65T328 56T390 54Q422 54 442 55T476 62T500 76T524
103Q538 123 554 155T591 236H635L620 0H27V40ZM342 754Q276 754 234 795T180 902L223 914Q237 882 264 867T342 851Q390 851 417 866T460 914L502 902Q492 836 450 795T342 754Z" />
<glyph unicode="&#x115;" glyph-name="ebreve" horiz-adv-x="556" d="M295 -12Q161 -12 95 61T29 262Q29 326 51 376T111 462T196 515T295 533Q348 533 390 519T463 474T509 393T527 272H186Q189 217 201 180T236 120T289 87T359 77Q409 77 445 89T512 115V70Q499
56 478 42T430 15T368 -4T295 -12ZM288 483Q267 483 250 475T219 447T197 397T186 322L368 331Q368 376 365 405T352 451T328 476T288 483ZM290 593Q227 593 188 638T138 757L181 769Q195 734 219 712T290 689Q335 689 359 711T398 769L440 757Q430 684 392 639T290
593Z" />
<glyph unicode="&#x116;" glyph-name="Edotaccent" horiz-adv-x="663" d="M27 40L62 47Q74 50 81 53T93 63T100 83T102 119V574Q102 597 100 610T94 630T82 640T62 646L27 654V693H599L610 493H566Q548 535 535 558T509 599Q497 614 486 622T460 634T427 638T381
639Q338 639 317 636T281 630V387H300Q328 387 346 388T375 393T393 401T405 416Q416 434 422 447T435 484H479V231H435Q429 255 423 268T405 303Q400 313 394 318T377 327T347 331T300 332H281V144Q281 110 283 92T295 65T328 56T390 54Q422 54 442 55T476 62T500
76T524 103Q538 123 554 155T591 236H635L620 0H27V40ZM342 744Q302 744 275 769T247 831Q247 869 274 893T342 918Q381 918 408 894T436 831Q436 794 409 769T342 744Z" />
<glyph unicode="&#x117;" glyph-name="edotaccent" horiz-adv-x="556" d="M295 -12Q161 -12 95 61T29 262Q29 326 51 376T111 462T196 515T295 533Q348 533 390 519T463 474T509 393T527 272H186Q189 217 201 180T236 120T289 87T359 77Q409 77 445 89T512 115V70Q499
56 478 42T430 15T368 -4T295 -12ZM288 483Q267 483 250 475T219 447T197 397T186 322L368 331Q368 376 365 405T352 451T328 476T288 483ZM290 594Q250 594 223 619T195 681Q195 719 222 743T290 768Q329 768 356 744T384 681Q384 644 357 619T290 594Z" />
<glyph unicode="&#x118;" glyph-name="Eogonek" horiz-adv-x="663" d="M27 40L62 47Q74 50 81 53T93 63T100 83T102 119V574Q102 597 100 610T94 630T82 640T62 646L27 654V693H599L610 493H566Q548 535 535 558T509 599Q497 614 486 622T460 634T427 638T381
639Q338 639 317 636T281 630V387H300Q328 387 346 388T375 393T393 401T405 416Q416 434 422 447T435 484H479V231H435Q429 255 423 268T405 303Q400 313 394 318T377 327T347 331T300 332H281V144Q281 110 283 92T295 65T328 56T390 54Q422 54 442 55T476 62T500
76T524 103Q538 123 554 155T591 236H635L620 0H524Q493 -27 474 -52T455 -110Q455 -144 484 -153Q497 -157 514 -157T553 -157V-196Q540 -205 518 -215T456 -226Q399 -226 367 -202T334 -136Q334 -114 343 -95T369 -59T408 -28T454 0H27V40Z" />
<glyph unicode="&#x119;" glyph-name="eogonek" horiz-adv-x="556" d="M359 77Q409 77 445 89T512 115V70Q494 51 466 34T415 1Q381 -22 363 -50T344 -110Q344 -144 373 -153Q386 -157 403 -157T442 -157V-196Q429 -205 407 -215T345 -226Q288 -226 256 -202T223
-136Q223 -115 232 -97T256 -62T290 -34T332 -10Q323 -11 314 -11T295 -12Q161 -12 95 61T29 262Q29 326 51 376T111 462T196 515T295 533Q348 533 390 519T463 474T509 393T527 272H186Q189 217 201 180T236 120T289 87T359 77ZM288 483Q267 483 250 475T219 447T197
397T186 322L368 331Q368 376 365 405T352 451T328 476T288 483Z" />
<glyph unicode="&#x11a;" glyph-name="Ecaron" horiz-adv-x="663" d="M27 40L62 47Q74 50 81 53T93 63T100 83T102 119V574Q102 597 100 610T94 630T82 640T62 646L27 654V693H599L610 493H566Q548 535 535 558T509 599Q497 614 486 622T460 634T427 638T381 639Q338
639 317 636T281 630V387H300Q328 387 346 388T375 393T393 401T405 416Q416 434 422 447T435 484H479V231H435Q429 255 423 268T405 303Q400 313 394 318T377 327T347 331T300 332H281V144Q281 110 283 92T295 65T328 56T390 54Q422 54 442 55T476 62T500 76T524
103Q538 123 554 155T591 236H635L620 0H27V40ZM174 883L193 914L341 860L489 914L508 883L376 756H307L174 883Z" />
<glyph unicode="&#x11b;" glyph-name="ecaron" horiz-adv-x="556" d="M295 -12Q161 -12 95 61T29 262Q29 326 51 376T111 462T196 515T295 533Q348 533 390 519T463 474T509 393T527 272H186Q189 217 201 180T236 120T289 87T359 77Q409 77 445 89T512 115V70Q499
56 478 42T430 15T368 -4T295 -12ZM288 483Q267 483 250 475T219 447T197 397T186 322L368 331Q368 376 365 405T352 451T328 476T288 483ZM124 742L146 774L289 694L432 774L454 742L324 591H255L124 742Z" />
<glyph unicode="&#x11c;" glyph-name="Gcircumflex" horiz-adv-x="725" d="M403 -12Q223 -12 130 78T36 343Q36 441 67 509T151 621T275 685T425 705Q489 705 537 699T620 682L633 473H588Q567 521 548 551T511 606Q502 619 494 628T475 642T448 649T407 651Q359
651 324 636T267 586T234 496T223 361Q223 270 232 209T261 111T314 58T398 42Q426 42 446 47T482 61V200Q482 223 480 236T474 256T462 265T442 271L405 280V319H713V280L686 273Q675 270 669 267T659 257T654 236T653 200V29Q631 21 601 14T538 1T470 -8T403
-12ZM566 774L547 743L399 797L251 743L232 774L364 901H433L566 774Z" />
<glyph unicode="&#x11d;" glyph-name="gcircumflex" horiz-adv-x="563" d="M229 -229Q117 -229 56 -200T-6 -114Q-6 -76 26 -48T116 0V4Q83 11 59 34T34 96Q34 119 42 137T63 171T90 197T117 217V221Q82 238 57 273T31 354Q31 397 49 430T98 485T169 520T254 532Q292
532 320 528T380 513Q410 542 444 562T519 582Q546 582 563 569T580 527Q580 503 569 484T530 465Q506 465 495 474T476 499Q470 509 451 504T411 485V481Q441 466 460 437T480 367Q480 324 462 291T413 236T341 202T254 190Q226 190 204 193T160 207Q150 200 142
187T134 159Q134 143 146 132T188 120H362Q399 120 430 113T483 90T518 48T531 -16Q531 -56 514 -94T460 -162T366 -210T229 -229ZM254 239Q294 239 313 264T332 357Q332 429 313 456T254 484Q216 484 198 458T179 364Q179 292 198 266T254 239ZM251 -177Q296 -177
329 -169T383 -146T415 -114T426 -75Q426 -42 408 -25T339 -8H173Q165 -12 155 -20T136 -39T121 -65T115 -97Q115 -135 146 -156T251 -177ZM678 614L656 583L513 662L370 583L348 614L478 766H547L678 614Z" />
<glyph unicode="&#x11e;" glyph-name="Gbreve" horiz-adv-x="725" d="M403 -12Q223 -12 130 78T36 343Q36 441 67 509T151 621T275 685T425 705Q489 705 537 699T620 682L633 473H588Q567 521 548 551T511 606Q502 619 494 628T475 642T448 649T407 651Q359 651
324 636T267 586T234 496T223 361Q223 270 232 209T261 111T314 58T398 42Q426 42 446 47T482 61V200Q482 223 480 236T474 256T462 265T442 271L405 280V319H713V280L686 273Q675 270 669 267T659 257T654 236T653 200V29Q631 21 601 14T538 1T470 -8T403 -12ZM400
754Q334 754 292 795T238 902L281 914Q295 882 322 867T400 851Q448 851 475 866T518 914L560 902Q550 836 508 795T400 754Z" />
<glyph unicode="&#x11f;" glyph-name="gbreve" horiz-adv-x="563" d="M229 -229Q117 -229 56 -200T-6 -114Q-6 -76 26 -48T116 0V4Q83 11 59 34T34 96Q34 119 42 137T63 171T90 197T117 217V221Q82 238 57 273T31 354Q31 397 49 430T98 485T169 520T254 532Q292
532 320 528T380 513Q410 542 444 562T519 582Q546 582 563 569T580 527Q580 503 569 484T530 465Q506 465 495 474T476 499Q470 509 451 504T411 485V481Q441 466 460 437T480 367Q480 324 462 291T413 236T341 202T254 190Q226 190 204 193T160 207Q150 200 142
187T134 159Q134 143 146 132T188 120H362Q399 120 430 113T483 90T518 48T531 -16Q531 -56 514 -94T460 -162T366 -210T229 -229ZM254 239Q294 239 313 264T332 357Q332 429 313 456T254 484Q216 484 198 458T179 364Q179 292 198 266T254 239ZM251 -177Q296 -177
329 -169T383 -146T415 -114T426 -75Q426 -42 408 -25T339 -8H173Q165 -12 155 -20T136 -39T121 -65T115 -97Q115 -135 146 -156T251 -177ZM514 593Q451 593 412 638T362 757L405 769Q419 734 443 712T514 689Q559 689 583 711T622 769L664 757Q654 684 616 639T514
593Z" />
<glyph unicode="&#x120;" glyph-name="Gdotaccent" horiz-adv-x="725" d="M403 -12Q223 -12 130 78T36 343Q36 441 67 509T151 621T275 685T425 705Q489 705 537 699T620 682L633 473H588Q567 521 548 551T511 606Q502 619 494 628T475 642T448 649T407 651Q359
651 324 636T267 586T234 496T223 361Q223 270 232 209T261 111T314 58T398 42Q426 42 446 47T482 61V200Q482 223 480 236T474 256T462 265T442 271L405 280V319H713V280L686 273Q675 270 669 267T659 257T654 236T653 200V29Q631 21 601 14T538 1T470 -8T403
-12ZM400 744Q360 744 333 769T305 831Q305 869 332 893T400 918Q439 918 466 894T494 831Q494 794 467 769T400 744Z" />
<glyph unicode="&#x121;" glyph-name="gdotaccent" horiz-adv-x="563" d="M229 -229Q117 -229 56 -200T-6 -114Q-6 -76 26 -48T116 0V4Q83 11 59 34T34 96Q34 119 42 137T63 171T90 197T117 217V221Q82 238 57 273T31 354Q31 397 49 430T98 485T169 520T254 532Q292
532 320 528T380 513Q410 542 444 562T519 582Q546 582 563 569T580 527Q580 503 569 484T530 465Q506 465 495 474T476 499Q470 509 451 504T411 485V481Q441 466 460 437T480 367Q480 324 462 291T413 236T341 202T254 190Q226 190 204 193T160 207Q150 200 142
187T134 159Q134 143 146 132T188 120H362Q399 120 430 113T483 90T518 48T531 -16Q531 -56 514 -94T460 -162T366 -210T229 -229ZM254 239Q294 239 313 264T332 357Q332 429 313 456T254 484Q216 484 198 458T179 364Q179 292 198 266T254 239ZM251 -177Q296 -177
329 -169T383 -146T415 -114T426 -75Q426 -42 408 -25T339 -8H173Q165 -12 155 -20T136 -39T121 -65T115 -97Q115 -135 146 -156T251 -177ZM257 594Q217 594 190 619T162 681Q162 719 189 743T257 768Q296 768 323 744T351 681Q351 644 324 619T257 594Z" />
<glyph unicode="&#x122;" glyph-name="Gcommaaccent" horiz-adv-x="725" d="M403 -12Q223 -12 130 78T36 343Q36 441 67 509T151 621T275 685T425 705Q489 705 537 699T620 682L633 473H588Q567 521 548 551T511 606Q502 619 494 628T475 642T448 649T407 651Q359
651 324 636T267 586T234 496T223 361Q223 270 232 209T261 111T314 58T398 42Q426 42 446 47T482 61V200Q482 223 480 236T474 256T462 265T442 271L405 280V319H713V280L686 273Q675 270 669 267T659 257T654 236T653 200V29Q631 21 601 14T538 1T470 -8T403
-12ZM310 -256Q339 -250 358 -241T388 -222T403 -199T406 -173Q401 -175 395 -177T378 -180Q350 -180 333 -164T316 -122Q316 -95 338 -76T395 -57Q432 -57 458 -80T485 -146Q485 -170 476 -193T447 -236T395 -268T317 -284L310 -256Z" />
<glyph unicode="&#x123;" glyph-name="gcommaaccent" horiz-adv-x="563" d="M229 -229Q117 -229 56 -200T-6 -114Q-6 -76 26 -48T116 0V4Q83 11 59 34T34 96Q34 119 42 137T63 171T90 197T117 217V221Q82 238 57 273T31 354Q31 397 49 430T98 485T169 520T254
532Q292 532 320 528T380 513Q410 542 444 562T519 582Q546 582 563 569T580 527Q580 503 569 484T530 465Q506 465 495 474T476 499Q470 509 451 504T411 485V481Q441 466 460 437T480 367Q480 324 462 291T413 236T341 202T254 190Q226 190 204 193T160 207Q150
200 142 187T134 159Q134 143 146 132T188 120H362Q399 120 430 113T483 90T518 48T531 -16Q531 -56 514 -94T460 -162T366 -210T229 -229ZM254 239Q294 239 313 264T332 357Q332 429 313 456T254 484Q216 484 198 458T179 364Q179 292 198 266T254 239ZM251 -177Q296
-177 329 -169T383 -146T415 -114T426 -75Q426 -42 408 -25T339 -8H173Q165 -12 155 -20T136 -39T121 -65T115 -97Q115 -135 146 -156T251 -177ZM339 794Q310 788 291 779T261 760T246 737T243 711Q248 713 254 715T271 718Q299 718 316 702T333 660Q333 633 311
614T254 595Q217 595 191 618T164 684Q164 708 173 731T202 774T254 806T332 822L339 794Z" />
<glyph unicode="&#x124;" glyph-name="Hcircumflex" horiz-adv-x="804" d="M27 40L62 47Q74 50 81 53T93 63T100 83T102 119V574Q102 597 100 610T94 630T82 640T62 646L27 654V693H357V654L322 646Q310 643 302 640T290 630T283 610T281 574V383H521V574Q521
597 520 610T514 629T502 639T482 646L447 654V693H777V654L741 646Q729 643 721 640T709 630T702 610T700 574V119Q700 96 702 84T708 64T721 53T741 47L777 40V0H447V40L482 47Q494 50 501 53T513 63T519 83T521 119V326H281V119Q281 96 282 84T288 64T301 53T322
47L357 40V0H27V40ZM569 774L550 743L402 797L254 743L235 774L367 901H436L569 774Z" />
<glyph unicode="&#x125;" glyph-name="hcircumflex" horiz-adv-x="652" d="M20 39L49 46Q61 49 68 52T80 62T85 77T86 103V627Q86 645 85 655T81 672T71 683T53 693L15 712V747L238 766L252 756Q250 742 248 724Q246 709 245 688T244 641V562Q244 542 243 525T241
493Q239 477 238 464H242Q284 492 333 512T439 532Q575 532 575 399V103Q575 86 576 77T581 61T592 52T612 46L639 39V0H357V39L384 45Q395 48 401 51T411 59T415 75T416 103V354Q416 401 399 419T343 438Q314 438 288 431T244 419V103Q244 85 245 75T249 59T258
51T276 45L303 39V0H20V39ZM506 834L487 803L339 857L191 803L172 834L304 961H373L506 834Z" />
<glyph unicode="&#x126;" glyph-name="Hbar" horiz-adv-x="804" d="M20 541H102V574Q102 597 100 610T94 630T82 640T62 646L27 654V693H357V654L322 646Q310 643 302 640T290 630T283 610T281 574V541H521V574Q521 597 520 610T514 629T502 639T482 646L447 654V693H777V654L741
646Q729 643 721 640T709 630T702 610T700 574V541H784V488H700V119Q700 96 702 84T708 64T721 53T741 47L777 40V0H447V40L482 47Q494 50 501 53T513 63T519 83T521 119V326H281V119Q281 96 282 84T288 64T301 53T322 47L357 40V0H27V40L62 47Q74 50 81 53T93
63T100 83T102 119V488H20V541ZM521 383V488H281V383H521Z" />
<glyph unicode="&#x127;" glyph-name="hbar" horiz-adv-x="652" d="M-1 644H86Q84 667 78 675T53 693L15 712V747L238 766L252 756Q250 742 248 724Q246 709 245 689T244 644H406V593H244V562Q244 542 243 525T241 493Q239 477 238 464H242Q284 492 333 512T439
532Q575 532 575 399V103Q575 86 576 77T581 61T592 52T612 46L639 39V0H357V39L384 45Q395 48 401 51T411 59T415 75T416 103V354Q416 401 399 419T343 438Q314 438 288 431T244 419V103Q244 85 245 75T249 59T258 51T276 45L303 39V0H20V39L49 46Q61 49 68 52T80
62T85 77T86 103V593H-1V644Z" />
<glyph unicode="&#x128;" glyph-name="Itilde" horiz-adv-x="390" d="M27 40L65 47Q77 50 84 53T96 63T103 83T105 119V574Q105 597 103 610T97 630T85 640T65 646L27 654V693H365V654L325 646Q313 643 305 640T293 630T287 610T285 574V119Q285 96 286 83T292
63T305 53T325 47L365 40V0H27V40ZM268 777Q290 843 315 880T376 918Q396 918 419 911T464 894T505 877T539 869Q559 869 571 886T600 932L638 915Q616 849 594 812T533 774Q513 774 490 781T445 798T402 815T368 823Q348 823 336 805T307 759L268 777Z" />
<glyph unicode="&#x129;" glyph-name="itilde" horiz-adv-x="326" d="M20 33L49 43Q63 47 70 51T81 63T85 85T86 124V374Q86 396 85 408T81 428T70 440T52 453L17 477V509L237 532L252 524Q252 526 248 494T244 387V124Q244 99 245 85T249 62T260 50T280 43L309
33V0H20V33ZM243 602Q265 668 290 705T351 743Q371 743 391 737T431 724T468 710T499 704Q519 704 531 721T560 767L598 750Q576 684 554 647T493 609Q473 609 452 615T412 628T375 642T343 648Q323 648 311 630T282 584L243 602Z" />
<glyph unicode="&#x12a;" glyph-name="Imacron" horiz-adv-x="390" d="M27 40L65 47Q77 50 84 53T96 63T103 83T105 119V574Q105 597 103 610T97 630T85 640T65 646L27 654V693H365V654L325 646Q313 643 305 640T293 630T287 610T285 574V119Q285 96 286 83T292
63T305 53T325 47L365 40V0H27V40ZM300 856H606V777H300V856Z" />
<glyph unicode="&#x12b;" glyph-name="imacron" horiz-adv-x="326" d="M15 701H281V622H15V701ZM20 33L49 43Q63 47 70 51T81 63T85 85T86 124V374Q86 396 85 408T81 428T70 440T52 453L17 477V509L237 532L252 524Q252 526 248 494T244 387V124Q244 99 245 85T249
62T260 50T280 43L309 33V0H20V33Z" />
<glyph unicode="&#x12c;" glyph-name="Ibreve" horiz-adv-x="390" d="M27 40L65 47Q77 50 84 53T96 63T103 83T105 119V574Q105 597 103 610T97 630T85 640T65 646L27 654V693H365V654L325 646Q313 643 305 640T293 630T287 610T285 574V119Q285 96 286 83T292
63T305 53T325 47L365 40V0H27V40ZM454 754Q388 754 346 795T292 902L335 914Q349 882 376 867T454 851Q502 851 529 866T572 914L614 902Q604 836 562 795T454 754Z" />
<glyph unicode="&#x12d;" glyph-name="ibreve" horiz-adv-x="326" d="M20 33L49 43Q63 47 70 51T81 63T85 85T86 124V374Q86 396 85 408T81 428T70 440T52 453L17 477V509L237 532L252 524Q252 526 248 494T244 387V124Q244 99 245 85T249 62T260 50T280 43L309
33V0H20V33ZM421 593Q358 593 319 638T269 757L312 769Q326 734 350 712T421 689Q466 689 490 711T529 769L571 757Q561 684 523 639T421 593Z" />
<glyph unicode="&#x12e;" glyph-name="Iogonek" horiz-adv-x="390" d="M27 40L65 47Q77 50 84 53T96 63T103 83T105 119V574Q105 597 103 610T97 630T85 640T65 646L27 654V693H365V654L325 646Q313 643 305 640T293 630T287 610T285 574V119Q285 96 286 83T292
63T305 53T325 47L365 40V0H277Q252 -30 237 -54T222 -110Q222 -144 251 -153Q264 -157 281 -157T320 -157V-196Q307 -205 285 -215T223 -226Q166 -226 134 -202T101 -136Q101 -113 110 -93T135 -56T170 -25T211 0H27V40Z" />
<glyph unicode="&#x12f;" glyph-name="iogonek" horiz-adv-x="326" d="M20 39L49 46Q61 49 68 52T80 62T85 77T86 103V391Q86 407 85 416T80 431T70 443T52 455L17 477V509L238 532L252 523Q252 512 251 500T248 471T245 432T244 380V103Q244 86 245 76T250 61T261
52T280 46L309 39V0H237Q212 -30 197 -54T182 -110Q182 -144 211 -153Q224 -157 241 -157T280 -157V-196Q267 -205 245 -215T183 -226Q126 -226 94 -202T61 -136Q61 -113 70 -93T95 -56T131 -25T172 0H20V39ZM161 594Q120 594 93 619T65 681Q65 719 92 743T161
768Q199 768 226 744T254 681Q254 663 247 647T227 619T197 601T161 594Z" />
<glyph unicode="&#x130;" glyph-name="Idotaccent" horiz-adv-x="390" d="M27 40L65 47Q77 50 84 53T96 63T103 83T105 119V574Q105 597 103 610T97 630T85 640T65 646L27 654V693H365V654L325 646Q313 643 305 640T293 630T287 610T285 574V119Q285 96 286 83T292
63T305 53T325 47L365 40V0H27V40ZM454 744Q414 744 387 769T359 831Q359 869 386 893T454 918Q493 918 520 894T548 831Q548 794 521 769T454 744Z" />
<glyph unicode="&#x131;" glyph-name="dotlessi" horiz-adv-x="326" d="M20 33L49 43Q63 47 70 51T81 63T85 85T86 124V374Q86 396 85 408T81 428T70 440T52 453L17 477V509L237 532L252 524Q252 526 248 494T244 387V124Q244 99 245 85T249 62T260 50T280 43L309
33V0H20V33Z" />
<glyph unicode="&#x132;" glyph-name="IJ" horiz-adv-x="768" d="M27 40L65 47Q77 50 84 53T96 63T103 83T105 119V574Q105 597 103 610T97 630T85 640T65 646L27 654V693H365V654L325 646Q313 643 305 640T293 630T287 610T285 574V119Q285 96 286 83T292 63T305
53T325 47L365 40V0H27V40ZM421 -195Q343 -195 305 -165T267 -93Q267 -61 286 -43T340 -24Q380 -24 398 -45T427 -121Q430 -137 434 -142T449 -148Q472 -148 482 -133T492 -72V574Q492 597 490 610T484 630T472 640T452 646L414 654V693H748V654L712 646Q700 643
692 640T680 630T673 610T671 574V52Q671 -2 655 -47T607 -126T528 -177T421 -195Z" />
<glyph unicode="&#x133;" glyph-name="ij" horiz-adv-x="640" d="M161 594Q120 594 93 619T65 681Q65 719 92 743T161 768Q199 768 226 744T254 681Q254 663 247 647T227 619T197 601T161 594ZM20 39L49 46Q61 49 68 52T80 62T85 77T86 103V391Q86 407 85 416T80
431T70 443T52 455L17 477V509L238 532L252 523Q252 512 251 500T248 471T245 432T244 380V103Q244 86 245 76T250 61T261 52T280 46L309 39V0H20V39ZM486 594Q445 594 418 619T391 681Q391 719 418 743T486 768Q525 768 552 744T579 681Q579 644 552 619T486 594ZM350
-226Q283 -226 249 -198T214 -132Q214 -102 232 -86T283 -70Q318 -70 333 -87T354 -151Q356 -169 360 -174T373 -179Q393 -179 402 -164T412 -126V391Q412 407 411 416T406 431T396 443T378 455L343 477V509L564 532L578 523Q578 512 577 500T574 470T571 429T570
372V-8Q570 -62 554 -102T508 -170T438 -212T350 -226Z" />
<glyph unicode="&#x134;" glyph-name="Jcircumflex" horiz-adv-x="378" d="M31 -195Q-47 -195 -85 -165T-123 -93Q-123 -61 -104 -43T-50 -24Q-10 -24 8 -45T37 -121Q40 -137 44 -142T59 -148Q82 -148 92 -133T102 -72V574Q102 597 100 610T94 630T82 640T62 646L24
654V693H358V654L322 646Q310 643 302 640T290 630T283 610T281 574V52Q281 -2 265 -47T217 -126T138 -177T31 -195ZM614 774L595 743L447 797L299 743L280 774L412 901H481L614 774Z" />
<glyph unicode="&#x135;" glyph-name="jcircumflex" horiz-adv-x="314" d="M24 -226Q-43 -226 -77 -198T-112 -132Q-112 -102 -94 -86T-43 -70Q-8 -70 7 -87T28 -151Q30 -169 34 -174T47 -179Q67 -179 76 -164T86 -126V391Q86 407 85 416T80 431T70 443T52 455L17
477V509L238 532L252 523Q252 512 251 500T248 470T245 429T244 372V-8Q244 -62 228 -102T182 -170T112 -212T24 -226ZM580 614L558 583L415 662L272 583L250 614L380 766H449L580 614Z" />
<glyph unicode="&#x136;" glyph-name="Kcommaaccent" horiz-adv-x="749" d="M513 0Q455 75 403 159T308 330V347L464 523Q494 555 505 577T516 612Q516 624 505 633T480 646L449 654V693H707V654L695 650Q680 646 668 641T644 625T618 600T582 563L445 416Q467
374 493 329T548 238T606 151T662 73Q673 61 679 57T696 49L739 40V0H513ZM27 40L62 47Q74 50 81 53T93 63T100 83T102 119V574Q102 597 100 610T94 630T82 640T62 646L27 654V693H357V654L322 646Q309 643 301 640T289 630T283 610T281 574V119Q281 96 282 84T288
64T301 53T322 47L357 40V0H27V40ZM297 -256Q326 -250 345 -241T375 -222T390 -199T393 -173Q388 -175 382 -177T365 -180Q337 -180 320 -164T303 -122Q303 -95 325 -76T382 -57Q419 -57 445 -80T472 -146Q472 -170 463 -193T434 -236T382 -268T304 -284L297 -256Z"
/>
<glyph unicode="&#x137;" glyph-name="kcommaaccent" horiz-adv-x="621" d="M20 39L49 46Q61 49 68 52T80 62T85 77T86 103V627Q86 645 85 655T81 672T71 683T53 693L15 712V747L238 766L252 756Q250 742 248 724Q246 709 245 688T244 641V103Q244 86 245 76T249
60T259 51T275 45L301 39V0H20V39ZM421 0Q371 63 332 125T259 246V270L360 372Q388 402 399 418T410 446Q410 469 377 477L361 481V519H589V480L566 474Q546 469 525 458T470 412L382 325Q424 254 464 189T546 75Q561 54 583 47L608 39V0H421ZM228 -256Q257 -250
276 -241T306 -222T321 -199T324 -173Q319 -175 313 -177T296 -180Q268 -180 251 -164T234 -122Q234 -95 256 -76T313 -57Q350 -57 376 -80T403 -146Q403 -170 394 -193T365 -236T313 -268T235 -284L228 -256Z" />
<glyph unicode="&#x139;" glyph-name="Lacute" horiz-adv-x="640" d="M27 40L62 47Q74 50 81 53T93 63T100 83T102 119V574Q102 597 100 610T94 630T82 640T62 646L27 654V693H364V654L322 645Q309 643 301 640T289 630T283 610T281 574V145Q281 113 283 95T294
67T322 56T374 53Q405 53 425 55T460 65T485 83T507 112Q522 136 539 164T577 247H622L605 0H27V40ZM347 773L487 885Q501 896 513 902T540 908Q563 908 578 890T593 849Q593 832 583 816T548 794L359 745L347 773Z" />
<glyph unicode="&#x13a;" glyph-name="lacute" horiz-adv-x="330" d="M20 39L49 46Q62 49 70 52T82 62T87 77T88 103V627Q88 645 87 655T82 672T72 683T53 693L15 712V747L239 766L254 756Q252 742 250 724Q248 709 247 688T246 641V103Q246 86 247 77T251 61T262
52T283 46L312 39V0H20V39ZM323 833L463 945Q477 956 489 962T516 968Q539 968 554 950T569 909Q569 892 559 876T524 854L335 805L323 833Z" />
<glyph unicode="&#x13b;" glyph-name="Lcommaaccent" horiz-adv-x="640" d="M27 40L62 47Q74 50 81 53T93 63T100 83T102 119V574Q102 597 100 610T94 630T82 640T62 646L27 654V693H364V654L322 645Q309 643 301 640T289 630T283 610T281 574V145Q281 113 283
95T294 67T322 56T374 53Q405 53 425 55T460 65T485 83T507 112Q522 136 539 164T577 247H622L605 0H27V40ZM250 -256Q279 -250 298 -241T328 -222T343 -199T346 -173Q341 -175 335 -177T318 -180Q290 -180 273 -164T256 -122Q256 -95 278 -76T335 -57Q372 -57
398 -80T425 -146Q425 -170 416 -193T387 -236T335 -268T257 -284L250 -256Z" />
<glyph unicode="&#x13c;" glyph-name="lcommaaccent" horiz-adv-x="330" d="M20 39L49 46Q62 49 70 52T82 62T87 77T88 103V627Q88 645 87 655T82 672T72 683T53 693L15 712V747L239 766L254 756Q252 742 250 724Q248 709 247 688T246 641V103Q246 86 247 77T251
61T262 52T283 46L312 39V0H20V39ZM331 -256Q360 -250 379 -241T409 -222T424 -199T427 -173Q422 -175 416 -177T399 -180Q371 -180 354 -164T337 -122Q337 -95 359 -76T416 -57Q453 -57 479 -80T506 -146Q506 -170 497 -193T468 -236T416 -268T338 -284L331 -256Z"
/>
<glyph unicode="&#x13d;" glyph-name="Lcaron" horiz-adv-x="640" d="M428 495L439 660Q441 683 452 698T491 713Q515 713 532 699T549 664Q549 656 546 647T535 624L453 489L428 495ZM27 40L62 47Q74 50 81 53T93 63T100 83T102 119V574Q102 597 100 610T94 630T82
640T62 646L27 654V693H364V654L322 645Q309 643 301 640T289 630T283 610T281 574V145Q281 113 283 95T294 67T322 56T374 53Q405 53 425 55T460 65T485 83T507 112Q522 136 539 164T577 247H622L605 0H27V40Z" />
<glyph unicode="&#x13e;" glyph-name="lcaron" horiz-adv-x="330" d="M20 39L49 46Q62 49 70 52T82 62T87 77T88 103V627Q88 645 87 655T82 672T72 683T53 693L15 712V747L239 766L254 756Q252 742 250 724Q248 709 247 688T246 641V103Q246 86 247 77T251 61T262
52T283 46L312 39V0H20V39ZM308 575L315 712Q317 735 327 750T365 765Q389 765 405 751T422 716Q422 708 419 699T407 676L333 569L308 575Z" />
<glyph unicode="&#x13f;" glyph-name="Ldot" horiz-adv-x="584" d="M506 313Q470 313 445 338T419 399Q419 416 426 431T444 458T472 477T506 484Q544 484 568 459T593 399Q593 363 569 338T506 313ZM27 40L62 47Q74 50 81 53T93 63T100 83T102 119V574Q102 597
100 610T94 630T82 640T62 646L27 654V693H364V654L322 645Q309 643 301 640T289 630T283 610T281 574V145Q281 113 283 95T294 67T322 56T374 53Q405 53 425 55T460 65T485 83T507 112Q522 136 539 164T577 247H622L605 0H27V40Z" />
<glyph unicode="&#x140;" glyph-name="ldot" horiz-adv-x="412" d="M373 294Q339 294 316 317T292 373Q292 389 298 403T316 429T341 446T373 453Q390 453 405 447T431 429T448 404T454 373Q454 340 431 317T373 294ZM20 39L49 46Q62 49 70 52T82 62T87 77T88
103V627Q88 645 87 655T82 672T72 683T53 693L15 712V747L239 766L254 756Q252 742 250 724Q248 709 247 688T246 641V103Q246 86 247 77T251 61T262 52T283 46L312 39V0H20V39Z" />
<glyph unicode="&#x141;" glyph-name="Lslash" horiz-adv-x="627" d="M15 286L102 315V574Q102 597 100 610T94 630T82 640T62 646L27 654V693H364V654L322 645Q309 643 301 640T289 630T283 610T281 574V377L483 446V390L281 321V145Q281 113 283 95T294 67T322
56T374 53Q405 53 425 55T460 65T485 83T507 112Q522 136 539 164T577 247H622L605 0H27V40L62 47Q74 50 81 53T93 63T100 83T102 119V259L15 230V286Z" />
<glyph unicode="&#x142;" glyph-name="lslash" horiz-adv-x="330" d="M13 322L88 360V629Q88 647 87 657T82 675T72 686T53 696L15 714V749L239 769L253 758Q251 744 249 726Q247 711 247 690T246 643V439L320 477V419L246 381V103Q246 86 247 77T251 61T262 52T283
46L312 39V0H20V39L49 46Q62 49 70 52T82 62T87 77T88 103V302L13 264V322Z" />
<glyph unicode="&#x143;" glyph-name="Nacute" horiz-adv-x="740" d="M171 575H167V134Q167 106 168 90T175 66T190 54T216 47L252 40V0H27V40L58 47Q70 50 78 53T92 64T100 88T102 129V574Q102 597 100 610T94 630T82 640T62 646L27 654V693H301L571 286H575V560Q575
587 574 603T567 627T553 639T527 646L486 654V693H715V654L685 647Q672 644 664 641T650 629T642 606T640 564V-2H558L171 575ZM311 773L451 885Q465 896 477 902T504 908Q527 908 542 890T557 849Q557 832 547 816T512 794L323 745L311 773Z" />
<glyph unicode="&#x144;" glyph-name="nacute" horiz-adv-x="658" d="M20 39L49 46Q61 49 68 52T80 62T85 77T86 103V391Q86 407 85 416T80 431T70 443T52 455L17 477V509L228 532L242 523L235 462H240Q281 490 332 511T439 532Q575 532 575 399V103Q575 86 576
77T581 61T592 52T612 46L639 39V0H357V39L384 45Q395 48 401 51T411 59T415 75T416 103V354Q416 401 399 419T343 438Q314 438 288 431T244 419V103Q244 85 245 75T249 59T258 51T276 45L303 39V0H20V39ZM238 618L378 730Q392 741 404 747T431 753Q454 753 469
735T484 694Q484 677 474 661T439 639L250 590L238 618Z" />
<glyph unicode="&#x145;" glyph-name="Ncommaaccent" horiz-adv-x="740" d="M171 575H167V134Q167 106 168 90T175 66T190 54T216 47L252 40V0H27V40L58 47Q70 50 78 53T92 64T100 88T102 129V574Q102 597 100 610T94 630T82 640T62 646L27 654V693H301L571 286H575V560Q575
587 574 603T567 627T553 639T527 646L486 654V693H715V654L685 647Q672 644 664 641T650 629T642 606T640 564V-2H558L171 575ZM277 -256Q306 -250 325 -241T355 -222T370 -199T373 -173Q368 -175 362 -177T345 -180Q317 -180 300 -164T283 -122Q283 -95 305 -76T362
-57Q399 -57 425 -80T452 -146Q452 -170 443 -193T414 -236T362 -268T284 -284L277 -256Z" />
<glyph unicode="&#x146;" glyph-name="ncommaaccent" horiz-adv-x="658" d="M20 39L49 46Q61 49 68 52T80 62T85 77T86 103V391Q86 407 85 416T80 431T70 443T52 455L17 477V509L228 532L242 523L235 462H240Q281 490 332 511T439 532Q575 532 575 399V103Q575
86 576 77T581 61T592 52T612 46L639 39V0H357V39L384 45Q395 48 401 51T411 59T415 75T416 103V354Q416 401 399 419T343 438Q314 438 288 431T244 419V103Q244 85 245 75T249 59T258 51T276 45L303 39V0H20V39ZM245 -256Q274 -250 293 -241T323 -222T338 -199T341
-173Q336 -175 330 -177T313 -180Q285 -180 268 -164T251 -122Q251 -95 273 -76T330 -57Q367 -57 393 -80T420 -146Q420 -170 411 -193T382 -236T330 -268T252 -284L245 -256Z" />
<glyph unicode="&#x147;" glyph-name="Ncaron" horiz-adv-x="740" d="M171 575H167V134Q167 106 168 90T175 66T190 54T216 47L252 40V0H27V40L58 47Q70 50 78 53T92 64T100 88T102 129V574Q102 597 100 610T94 630T82 640T62 646L27 654V693H301L571 286H575V560Q575
587 574 603T567 627T553 639T527 646L486 654V693H715V654L685 647Q672 644 664 641T650 629T642 606T640 564V-2H558L171 575ZM241 883L260 914L408 860L556 914L575 883L443 756H374L241 883Z" />
<glyph unicode="&#x148;" glyph-name="ncaron" horiz-adv-x="658" d="M20 39L49 46Q61 49 68 52T80 62T85 77T86 103V391Q86 407 85 416T80 431T70 443T52 455L17 477V509L228 532L242 523L235 462H240Q281 490 332 511T439 532Q575 532 575 399V103Q575 86 576
77T581 61T592 52T612 46L639 39V0H357V39L384 45Q395 48 401 51T411 59T415 75T416 103V354Q416 401 399 419T343 438Q314 438 288 431T244 419V103Q244 85 245 75T249 59T258 51T276 45L303 39V0H20V39ZM169 742L191 774L334 694L477 774L499 742L369 591H300L169
742Z" />
<glyph unicode="&#x149;" glyph-name="napostrophe" horiz-adv-x="768" d="M-103 419Q-44 445 -13 483T16 559Q5 550 -18 550Q-50 550 -69 571T-89 627Q-89 663 -64 684T0 705Q21 705 40 698T73 676T97 641T106 593Q106 557 93 523T54 462T-8 414T-90 383L-103
419ZM130 39L159 46Q171 49 178 52T190 62T195 77T196 103V391Q196 407 195 416T190 431T180 443T162 455L127 477V509L338 532L352 523L345 462H350Q391 490 442 511T549 532Q685 532 685 399V103Q685 86 686 77T691 61T702 52T722 46L749 39V0H467V39L494 45Q505
48 511 51T521 59T525 75T526 103V354Q526 401 509 419T453 438Q424 438 398 431T354 419V103Q354 85 355 75T359 59T368 51T386 45L413 39V0H130V39Z" />
<glyph unicode="&#x14a;" glyph-name="Eng" horiz-adv-x="740" d="M493 -182Q509 -182 524 -175T550 -152T568 -108T575 -41V-27L171 575H167V134Q167 106 168 90T175 66T190 54T216 47L252 40V0H27V40L58 47Q70 50 78 53T92 64T100 88T102 129V574Q102 597 100
610T94 630T82 640T62 646L27 654V693H301L571 286H575V560Q575 587 574 603T567 627T553 639T527 646L486 654V693H715V654L685 647Q672 644 664 641T650 629T642 606T640 564V-31Q640 -71 630 -107T599 -170T545 -213T466 -229Q387 -229 348 -199T309 -127Q309
-95 328 -77T382 -58Q422 -58 440 -79T469 -156Q472 -171 477 -176T493 -182Z" />
<glyph unicode="&#x14b;" glyph-name="eng" horiz-adv-x="638" d="M416 354Q416 401 399 419T343 438Q314 438 288 431T244 419V103Q244 85 245 75T249 59T258 51T276 45L303 39V0H20V39L49 46Q61 49 68 52T80 62T85 77T86 103V391Q86 407 85 416T80 431T70 443T52
455L17 477V509L228 532L242 523L235 462H240Q281 490 332 511T439 532Q575 532 575 399V8Q575 -49 558 -92T512 -166T442 -211T354 -226Q287 -226 253 -198T218 -132Q218 -102 236 -86T287 -70Q322 -70 337 -87T358 -151Q360 -169 364 -174T377 -179Q397 -179
406 -163T416 -119V354Z" />
<glyph unicode="&#x14c;" glyph-name="Omacron" horiz-adv-x="763" d="M378 -12Q311 -12 249 9T140 73T65 182T36 338Q36 437 67 506T149 620T261 684T385 705Q452 705 513 685T622 622T698 513T727 353Q727 254 696 185T614 72T502 8T378 -12ZM383 42Q423 42
453 54T502 99T530 188T540 332Q540 418 532 478T504 577T455 633T379 651Q340 651 311 639T262 593T233 504T223 359Q223 274 231 214T258 116T307 60T383 42ZM228 856H534V777H228V856Z" />
<glyph unicode="&#x14d;" glyph-name="omacron" horiz-adv-x="612" d="M307 -12Q251 -12 201 4T112 55T52 139T29 259Q29 330 52 382T115 467T204 517T307 533Q362 533 412 517T500 467T560 383T583 263Q583 192 560 140T498 54T409 4T307 -12ZM310 39Q334 39
353 48T387 81T408 148T416 259Q416 329 409 372T387 440T351 472T302 481Q277 481 257 472T224 439T203 374T196 269Q196 198 203 154T224 84T259 49T310 39ZM158 701H454V622H158V701Z" />
<glyph unicode="&#x14e;" glyph-name="Obreve" horiz-adv-x="763" d="M378 -12Q311 -12 249 9T140 73T65 182T36 338Q36 437 67 506T149 620T261 684T385 705Q452 705 513 685T622 622T698 513T727 353Q727 254 696 185T614 72T502 8T378 -12ZM383 42Q423 42 453
54T502 99T530 188T540 332Q540 418 532 478T504 577T455 633T379 651Q340 651 311 639T262 593T233 504T223 359Q223 274 231 214T258 116T307 60T383 42ZM382 754Q316 754 274 795T220 902L263 914Q277 882 304 867T382 851Q430 851 457 866T500 914L542 902Q532
836 490 795T382 754Z" />
<glyph unicode="&#x14f;" glyph-name="obreve" horiz-adv-x="612" d="M307 -12Q251 -12 201 4T112 55T52 139T29 259Q29 330 52 382T115 467T204 517T307 533Q362 533 412 517T500 467T560 383T583 263Q583 192 560 140T498 54T409 4T307 -12ZM310 39Q334 39 353
48T387 81T408 148T416 259Q416 329 409 372T387 440T351 472T302 481Q277 481 257 472T224 439T203 374T196 269Q196 198 203 154T224 84T259 49T310 39ZM307 593Q244 593 205 638T155 757L198 769Q212 734 236 712T307 689Q352 689 376 711T415 769L457 757Q447
684 409 639T307 593Z" />
<glyph unicode="&#x150;" glyph-name="Ohungarumlaut" horiz-adv-x="763" d="M378 -12Q311 -12 249 9T140 73T65 182T36 338Q36 437 67 506T149 620T261 684T385 705Q452 705 513 685T622 622T698 513T727 353Q727 254 696 185T614 72T502 8T378 -12ZM383 42Q423
42 453 54T502 99T530 188T540 332Q540 418 532 478T504 577T455 633T379 651Q340 651 311 639T262 593T233 504T223 359Q223 274 231 214T258 116T307 60T383 42ZM449 781L518 895Q530 915 541 923T567 932Q577 932 587 928T605 915T619 897T625 877Q625 863 617
850T586 825L469 759L449 781ZM263 781L331 895Q343 915 355 923T381 932Q390 932 399 928T417 916T431 899T437 878Q437 863 427 848T394 820L283 759L263 781Z" />
<glyph unicode="&#x151;" glyph-name="ohungarumlaut" horiz-adv-x="612" d="M307 -12Q251 -12 201 4T112 55T52 139T29 259Q29 330 52 382T115 467T204 517T307 533Q362 533 412 517T500 467T560 383T583 263Q583 192 560 140T498 54T409 4T307 -12ZM310 39Q334
39 353 48T387 81T408 148T416 259Q416 329 409 372T387 440T351 472T302 481Q277 481 257 472T224 439T203 374T196 269Q196 198 203 154T224 84T259 49T310 39ZM368 609L446 732Q457 752 469 761T495 770Q505 770 515 766T533 754T547 737T553 717Q553 703 546
690T516 664L388 587L368 609ZM182 609L259 732Q270 753 282 761T309 770Q318 770 327 766T345 755T359 739T365 718Q365 703 356 688T324 659L202 587L182 609Z" />
<glyph unicode="&#x152;" glyph-name="OE" horiz-adv-x="1025" d="M385 644Q341 644 311 630T261 582T232 495T223 361Q223 270 232 210T261 114T313 64T392 49Q411 49 427 51T455 63T473 89T480 137V552Q480 577 477 594T463 623T434 639T385 644ZM385 0Q317
0 255 17T143 75T65 179T36 339Q36 431 65 498T144 608T258 672T392 693H960L972 493H928Q909 535 896 558T871 599Q859 614 848 622T822 634T788 638T742 639Q722 639 709 638T687 636T672 633T659 630V387H662Q689 387 707 388T736 393T754 401T766 416Q777 434
783 447T797 484H840V231H797Q790 255 784 268T766 303Q761 313 755 318T738 327T709 331T661 332H659V144Q659 110 661 92T673 65T700 56T751 54Q783 54 803 55T837 62T862 76T885 103Q900 123 916 155T952 236H996L982 0H385Z" />
<glyph unicode="&#x153;" glyph-name="oe" horiz-adv-x="932" d="M672 -12Q602 -12 557 10T485 74Q452 32 404 10T299 -12Q245 -12 196 4T110 55T51 139T29 259Q29 330 52 382T114 467T201 517T304 533Q366 533 414 509T493 441Q525 483 571 508T678 533Q729 533
770 519T840 474T886 393T903 272H562Q565 217 577 180T612 120T665 87T735 77Q785 77 822 89T888 115V70Q875 56 854 42T806 15T745 -4T672 -12ZM306 39Q330 39 349 47T381 78T402 143T409 253Q409 325 402 369T382 439T347 472T299 481Q273 481 254 472T222 439T203
376T196 275Q196 202 202 156T221 84T256 49T306 39ZM664 483Q643 483 626 475T595 447T573 397T562 322L744 331Q744 376 741 405T728 452T704 476T664 483Z" />
<glyph unicode="&#x154;" glyph-name="Racute" horiz-adv-x="735" d="M27 40L62 47Q74 50 81 53T93 63T100 83T102 119V574Q102 597 100 610T94 630T82 640T62 646L27 654V693H360Q510 693 577 647T644 510Q644 447 610 404T504 340V336Q520 303 539 268T579 199T621
131T662 70Q670 59 679 56T712 45L731 40V0H513Q490 29 468 65T423 141T382 220T348 295Q345 295 335 295T312 295T290 296T278 296V119Q278 96 280 83T287 63T299 53T319 47L356 40V0H27V40ZM330 348Q399 348 430 381T462 497Q462 540 457 568T438 612T404 634T352
640Q326 640 307 638T278 633V352Q282 351 296 350T330 348ZM248 773L388 885Q402 896 414 902T441 908Q464 908 479 890T494 849Q494 832 484 816T449 794L260 745L248 773Z" />
<glyph unicode="&#x155;" glyph-name="racute" horiz-adv-x="487" d="M20 39L49 46Q61 49 68 52T80 62T85 77T86 103V391Q86 407 85 416T80 431T70 443T52 455L17 477V509L228 532L242 522L235 456H240Q252 469 269 482T306 507T349 525T394 532Q429 532 450 513T471
458Q471 423 453 403T402 382Q384 382 373 384T353 391T337 403T323 423Q318 431 311 434T296 437Q282 437 269 427T244 407V103Q244 85 245 75T249 59T259 51T277 46L313 39V0H20V39ZM178 618L318 730Q332 741 344 747T371 753Q394 753 409 735T424 694Q424 677
414 661T379 639L190 590L178 618Z" />
<glyph unicode="&#x156;" glyph-name="Rcommaaccent" horiz-adv-x="735" d="M27 40L62 47Q74 50 81 53T93 63T100 83T102 119V574Q102 597 100 610T94 630T82 640T62 646L27 654V693H360Q510 693 577 647T644 510Q644 447 610 404T504 340V336Q520 303 539 268T579
199T621 131T662 70Q670 59 679 56T712 45L731 40V0H513Q490 29 468 65T423 141T382 220T348 295Q345 295 335 295T312 295T290 296T278 296V119Q278 96 280 83T287 63T299 53T319 47L356 40V0H27V40ZM330 348Q399 348 430 381T462 497Q462 540 457 568T438 612T404
634T352 640Q326 640 307 638T278 633V352Q282 351 296 350T330 348ZM288 -256Q317 -250 336 -241T366 -222T381 -199T384 -173Q379 -175 373 -177T356 -180Q328 -180 311 -164T294 -122Q294 -95 316 -76T373 -57Q410 -57 436 -80T463 -146Q463 -170 454 -193T425
-236T373 -268T295 -284L288 -256Z" />
<glyph unicode="&#x157;" glyph-name="rcommaaccent" horiz-adv-x="487" d="M20 39L49 46Q61 49 68 52T80 62T85 77T86 103V391Q86 407 85 416T80 431T70 443T52 455L17 477V509L228 532L242 522L235 456H240Q252 469 269 482T306 507T349 525T394 532Q429 532
450 513T471 458Q471 423 453 403T402 382Q384 382 373 384T353 391T337 403T323 423Q318 431 311 434T296 437Q282 437 269 427T244 407V103Q244 85 245 75T249 59T259 51T277 46L313 39V0H20V39ZM327 -256Q356 -250 375 -241T405 -222T420 -199T423 -173Q418
-175 412 -177T395 -180Q367 -180 350 -164T333 -122Q333 -95 355 -76T412 -57Q449 -57 475 -80T502 -146Q502 -170 493 -193T464 -236T412 -268T334 -284L327 -256Z" />
<glyph unicode="&#x158;" glyph-name="Rcaron" horiz-adv-x="735" d="M27 40L62 47Q74 50 81 53T93 63T100 83T102 119V574Q102 597 100 610T94 630T82 640T62 646L27 654V693H360Q510 693 577 647T644 510Q644 447 610 404T504 340V336Q520 303 539 268T579 199T621
131T662 70Q670 59 679 56T712 45L731 40V0H513Q490 29 468 65T423 141T382 220T348 295Q345 295 335 295T312 295T290 296T278 296V119Q278 96 280 83T287 63T299 53T319 47L356 40V0H27V40ZM330 348Q399 348 430 381T462 497Q462 540 457 568T438 612T404 634T352
640Q326 640 307 638T278 633V352Q282 351 296 350T330 348ZM178 883L197 914L345 860L493 914L512 883L380 756H311L178 883Z" />
<glyph unicode="&#x159;" glyph-name="rcaron" horiz-adv-x="487" d="M20 39L49 46Q61 49 68 52T80 62T85 77T86 103V391Q86 407 85 416T80 431T70 443T52 455L17 477V509L228 532L242 522L235 456H240Q252 469 269 482T306 507T349 525T394 532Q429 532 450 513T471
458Q471 423 453 403T402 382Q384 382 373 384T353 391T337 403T323 423Q318 431 311 434T296 437Q282 437 269 427T244 407V103Q244 85 245 75T249 59T259 51T277 46L313 39V0H20V39ZM109 742L131 774L274 694L417 774L439 742L309 591H240L109 742Z" />
<glyph unicode="&#x15a;" glyph-name="Sacute" horiz-adv-x="558" d="M256 -12Q184 -12 132 -3T46 18L34 212H77Q98 172 114 145T151 92Q171 68 195 55T262 41Q289 41 312 49T351 71T377 103T386 141Q386 162 379 179T355 213T307 245T231 279Q176 300 140 322T81
371T50 429T40 498Q40 543 58 581T109 646T188 689T292 705Q356 705 398 700T471 685L483 511H440Q430 530 422 545T407 572T391 595T372 618Q357 635 337 643T281 652Q230 652 198 625T166 557Q166 539 171 525T192 498T234 470T306 439Q366 416 407 393T475 344T512
288T524 220Q524 172 507 130T455 56T371 6T256 -12ZM190 773L330 885Q344 896 356 902T383 908Q406 908 421 890T436 849Q436 832 426 816T391 794L202 745L190 773Z" />
<glyph unicode="&#x15b;" glyph-name="sacute" horiz-adv-x="459" d="M202 -12Q157 -12 114 -7T40 7L31 160H71Q78 146 84 135T97 114T111 94T129 73Q143 58 165 49T221 39Q262 39 285 55T308 105Q308 123 301 135T279 159T240 180T183 203Q114 229 74 266T34
365Q34 401 48 431T90 484T158 520T250 533Q295 533 331 528T391 515L396 379H359Q343 405 330 422T301 457Q290 468 277 475T233 482Q195 482 173 466T150 416Q150 403 155 393T174 373T208 353T262 332Q307 316 339 299T391 263T422 219T432 166Q432 127 417
95T372 38T300 1T202 -12ZM141 618L281 730Q295 741 307 747T334 753Q357 753 372 735T387 694Q387 677 377 661T342 639L153 590L141 618Z" />
<glyph unicode="&#x15c;" glyph-name="Scircumflex" horiz-adv-x="558" d="M256 -12Q184 -12 132 -3T46 18L34 212H77Q98 172 114 145T151 92Q171 68 195 55T262 41Q289 41 312 49T351 71T377 103T386 141Q386 162 379 179T355 213T307 245T231 279Q176 300 140
322T81 371T50 429T40 498Q40 543 58 581T109 646T188 689T292 705Q356 705 398 700T471 685L483 511H440Q430 530 422 545T407 572T391 595T372 618Q357 635 337 643T281 652Q230 652 198 625T166 557Q166 539 171 525T192 498T234 470T306 439Q366 416 407 393T475
344T512 288T524 220Q524 172 507 130T455 56T371 6T256 -12ZM454 774L435 743L287 797L139 743L120 774L252 901H321L454 774Z" />
<glyph unicode="&#x15d;" glyph-name="scircumflex" horiz-adv-x="459" d="M202 -12Q157 -12 114 -7T40 7L31 160H71Q78 146 84 135T97 114T111 94T129 73Q143 58 165 49T221 39Q262 39 285 55T308 105Q308 123 301 135T279 159T240 180T183 203Q114 229 74 266T34
365Q34 401 48 431T90 484T158 520T250 533Q295 533 331 528T391 515L396 379H359Q343 405 330 422T301 457Q290 468 277 475T233 482Q195 482 173 466T150 416Q150 403 155 393T174 373T208 353T262 332Q307 316 339 299T391 263T422 219T432 166Q432 127 417
95T372 38T300 1T202 -12ZM659 614L637 583L494 662L351 583L329 614L459 766H528L659 614Z" />
<glyph unicode="&#x15e;" glyph-name="Scedilla" horiz-adv-x="558" d="M145 -227Q205 -213 234 -194T263 -154Q263 -139 246 -129T189 -116L180 -106L227 -11Q166 -9 121 -1T46 18L34 212H77Q98 172 114 145T151 92Q171 68 195 55T262 41Q289 41 312 49T351 71T377
103T386 141Q386 162 379 179T355 213T307 245T231 279Q176 300 140 322T81 371T50 429T40 498Q40 543 58 581T109 646T188 689T292 705Q356 705 398 700T471 685L483 511H440Q430 530 422 545T407 572T391 595T372 618Q357 635 337 643T281 652Q230 652 198 625T166
557Q166 539 171 525T192 498T234 470T306 439Q366 416 407 393T475 344T512 288T524 220Q524 174 508 134T461 62T384 12T279 -11L247 -55Q307 -59 333 -81T359 -134Q359 -178 306 -213T145 -260V-227Z" />
<glyph unicode="&#x15f;" glyph-name="scedilla" horiz-adv-x="459" d="M93 -227Q153 -213 182 -194T211 -154Q211 -139 194 -129T137 -116L128 -106L175 -11Q137 -9 102 -4T40 7L31 160H71Q78 146 84 135T97 114T111 94T129 73Q143 58 165 49T221 39Q262 39 285
55T308 105Q308 123 301 135T279 159T240 180T183 203Q114 229 74 266T34 365Q34 401 48 431T90 484T158 520T250 533Q295 533 331 528T391 515L396 379H359Q343 405 330 422T301 457Q290 468 277 475T233 482Q195 482 173 466T150 416Q150 403 155 393T174 373T208
353T262 332Q307 316 339 299T391 263T422 219T432 166Q432 92 379 44T227 -11L195 -55Q255 -59 281 -81T307 -134Q307 -178 254 -213T93 -260V-227Z" />
<glyph unicode="&#x160;" glyph-name="Scaron" horiz-adv-x="558" d="M256 -12Q184 -12 132 -3T46 18L34 212H77Q98 172 114 145T151 92Q171 68 195 55T262 41Q289 41 312 49T351 71T377 103T386 141Q386 162 379 179T355 213T307 245T231 279Q176 300 140 322T81
371T50 429T40 498Q40 543 58 581T109 646T188 689T292 705Q356 705 398 700T471 685L483 511H440Q430 530 422 545T407 572T391 595T372 618Q357 635 337 643T281 652Q230 652 198 625T166 557Q166 539 171 525T192 498T234 470T306 439Q366 416 407 393T475 344T512
288T524 220Q524 172 507 130T455 56T371 6T256 -12ZM120 883L139 914L287 860L435 914L454 883L322 756H253L120 883Z" />
<glyph unicode="&#x161;" glyph-name="scaron" horiz-adv-x="459" d="M202 -12Q157 -12 114 -7T40 7L31 160H71Q78 146 84 135T97 114T111 94T129 73Q143 58 165 49T221 39Q262 39 285 55T308 105Q308 123 301 135T279 159T240 180T183 203Q114 229 74 266T34
365Q34 401 48 431T90 484T158 520T250 533Q295 533 331 528T391 515L396 379H359Q343 405 330 422T301 457Q290 468 277 475T233 482Q195 482 173 466T150 416Q150 403 155 393T174 373T208 353T262 332Q307 316 339 299T391 263T422 219T432 166Q432 127 417
95T372 38T300 1T202 -12ZM329 742L351 774L494 694L637 774L659 742L529 591H460L329 742Z" />
<glyph unicode="&#x162;" glyph-name="Tcommaaccent" horiz-adv-x="668" d="M163 40L202 47Q216 50 224 53T237 63T243 83T245 119V640Q221 640 204 639T175 633T153 620T133 596Q124 583 116 569T101 538T85 501T66 455H21L31 693H637L647 455H602Q582 506 569
538T536 596Q525 611 516 620T494 633T466 639T424 640V119Q424 96 425 84T430 64T443 53T466 47L505 40V0H163V40ZM245 -256Q274 -250 293 -241T323 -222T338 -199T341 -173Q336 -175 330 -177T313 -180Q285 -180 268 -164T251 -122Q251 -95 273 -76T330 -57Q367
-57 393 -80T420 -146Q420 -170 411 -193T382 -236T330 -268T252 -284L245 -256Z" />
<glyph unicode="&#x163;" glyph-name="tcommaaccent" horiz-adv-x="388" d="M215 -12Q148 -12 111 19T73 124V448H8V484Q68 504 104 547T163 655H232V519H372L355 448H232V138Q232 101 247 85T300 69Q318 69 339 73T374 80V40Q357 21 318 5T215 -12ZM366 -256Q395
-250 414 -241T444 -222T459 -199T462 -173Q457 -175 451 -177T434 -180Q406 -180 389 -164T372 -122Q372 -95 394 -76T451 -57Q488 -57 514 -80T541 -146Q541 -170 532 -193T503 -236T451 -268T373 -284L366 -256Z" />
<glyph unicode="&#x164;" glyph-name="Tcaron" horiz-adv-x="668" d="M163 40L202 47Q216 50 224 53T237 63T243 83T245 119V640Q221 640 204 639T175 633T153 620T133 596Q124 583 116 569T101 538T85 501T66 455H21L31 693H637L647 455H602Q582 506 569 538T536
596Q525 611 516 620T494 633T466 639T424 640V119Q424 96 425 84T430 64T443 53T466 47L505 40V0H163V40ZM167 883L186 914L334 860L482 914L501 883L369 756H300L167 883Z" />
<glyph unicode="&#x165;" glyph-name="tcaron" horiz-adv-x="388" d="M215 -12Q148 -12 111 19T73 124V448H8V484Q68 504 104 547T163 655H232V519H372L355 448H232V138Q232 101 247 85T300 69Q318 69 339 73T374 80V40Q357 21 318 5T215 -12ZM297 575L304 712Q306
735 316 750T354 765Q378 765 394 751T411 716Q411 708 408 699T396 676L322 569L297 575Z" />
<glyph unicode="&#x166;" glyph-name="Tbar" horiz-adv-x="668" d="M102 402H245V640Q221 640 204 639T175 633T153 620T133 596Q124 583 116 569T101 538T85 501T66 455H21L31 693H637L647 455H602Q582 506 569 538T536 596Q525 611 516 620T494 633T466 639T424
640V402H567V349H424V119Q424 96 425 84T430 64T443 53T466 47L505 40V0H163V40L202 47Q216 50 224 53T237 63T243 83T245 119V349H102V402Z" />
<glyph unicode="&#x167;" glyph-name="tbar" horiz-adv-x="388" d="M8 356H73V448H8V484Q68 504 104 547T163 655H232V519H372L355 448H232V356H366V305H232V138Q232 101 247 85T300 69Q318 69 339 73T374 80V40Q357 21 318 5T215 -12Q148 -12 111 19T73 124V305H8V356Z" />
<glyph unicode="&#x168;" glyph-name="Utilde" horiz-adv-x="739" d="M390 -12Q325 -12 271 0T178 40T117 113T95 223V574Q95 597 93 610T87 630T75 640T55 646L18 654V693H349V654L315 646Q302 643 294 640T282 630T276 610T274 574V203Q274 165 282 139T308
95T357 70T432 62Q510 62 545 102T581 217V560Q581 587 579 603T572 627T558 639T532 646L490 654V693H719V654L689 647Q677 644 669 641T655 629T648 606T645 564V209Q645 163 630 123T584 52T505 5T390 -12ZM230 777Q252 843 277 880T338 918Q358 918 381 911T426
894T467 877T501 869Q521 869 533 886T562 932L600 915Q578 849 556 812T495 774Q475 774 452 781T407 798T364 815T330 823Q310 823 298 805T269 759L230 777Z" />
<glyph unicode="&#x169;" glyph-name="utilde" horiz-adv-x="656" d="M219 -12Q157 -12 121 21T84 121V396Q84 412 83 421T79 436T70 447T52 458L15 478V510L225 532L242 521V161Q242 116 259 98T313 80Q342 80 368 88T415 105V396Q415 412 414 421T410 437T400
447T382 458L347 478V510L557 532L573 521V131Q573 113 574 102T578 84T588 73T607 65L636 52V17L431 -12L417 -2L423 63H419Q377 34 328 11T219 -12ZM154 602Q176 668 201 705T262 743Q282 743 302 737T342 724T379 710T410 704Q430 704 442 721T471 767L509 750Q487
684 465 647T404 609Q384 609 363 615T323 628T286 642T254 648Q234 648 222 630T193 584L154 602Z" />
<glyph unicode="&#x16a;" glyph-name="Umacron" horiz-adv-x="739" d="M390 -12Q325 -12 271 0T178 40T117 113T95 223V574Q95 597 93 610T87 630T75 640T55 646L18 654V693H349V654L315 646Q302 643 294 640T282 630T276 610T274 574V203Q274 165 282 139T308
95T357 70T432 62Q510 62 545 102T581 217V560Q581 587 579 603T572 627T558 639T532 646L490 654V693H719V654L689 647Q677 644 669 641T655 629T648 606T645 564V209Q645 163 630 123T584 52T505 5T390 -12ZM262 856H568V777H262V856Z" />
<glyph unicode="&#x16b;" glyph-name="umacron" horiz-adv-x="656" d="M219 -12Q157 -12 121 21T84 121V396Q84 412 83 421T79 436T70 447T52 458L15 478V510L225 532L242 521V161Q242 116 259 98T313 80Q342 80 368 88T415 105V396Q415 412 414 421T410 437T400
447T382 458L347 478V510L557 532L573 521V131Q573 113 574 102T578 84T588 73T607 65L636 52V17L431 -12L417 -2L423 63H419Q377 34 328 11T219 -12ZM183 701H479V622H183V701Z" />
<glyph unicode="&#x16c;" glyph-name="Ubreve" horiz-adv-x="739" d="M390 -12Q325 -12 271 0T178 40T117 113T95 223V574Q95 597 93 610T87 630T75 640T55 646L18 654V693H349V654L315 646Q302 643 294 640T282 630T276 610T274 574V203Q274 165 282 139T308
95T357 70T432 62Q510 62 545 102T581 217V560Q581 587 579 603T572 627T558 639T532 646L490 654V693H719V654L689 647Q677 644 669 641T655 629T648 606T645 564V209Q645 163 630 123T584 52T505 5T390 -12ZM416 754Q350 754 308 795T254 902L297 914Q311 882
338 867T416 851Q464 851 491 866T534 914L576 902Q566 836 524 795T416 754Z" />
<glyph unicode="&#x16d;" glyph-name="ubreve" horiz-adv-x="656" d="M219 -12Q157 -12 121 21T84 121V396Q84 412 83 421T79 436T70 447T52 458L15 478V510L225 532L242 521V161Q242 116 259 98T313 80Q342 80 368 88T415 105V396Q415 412 414 421T410 437T400
447T382 458L347 478V510L557 532L573 521V131Q573 113 574 102T578 84T588 73T607 65L636 52V17L431 -12L417 -2L423 63H419Q377 34 328 11T219 -12ZM332 593Q269 593 230 638T180 757L223 769Q237 734 261 712T332 689Q377 689 401 711T440 769L482 757Q472 684
434 639T332 593Z" />
<glyph unicode="&#x16e;" glyph-name="Uring" horiz-adv-x="739" d="M390 -12Q325 -12 271 0T178 40T117 113T95 223V574Q95 597 93 610T87 630T75 640T55 646L18 654V693H349V654L315 646Q302 643 294 640T282 630T276 610T274 574V203Q274 165 282 139T308 95T357
70T432 62Q510 62 545 102T581 217V560Q581 587 579 603T572 627T558 639T532 646L490 654V693H719V654L689 647Q677 644 669 641T655 629T648 606T645 564V209Q645 163 630 123T584 52T505 5T390 -12ZM420 708Q369 708 337 738T305 815Q305 838 314 858T338 892T375
915T420 924Q469 924 502 894T535 815Q535 769 502 739T420 708ZM420 753Q446 753 461 770T477 815Q477 842 462 860T420 878Q394 878 379 860T363 815Q363 788 378 771T420 753Z" />
<glyph unicode="&#x16f;" glyph-name="uring" horiz-adv-x="656" d="M219 -12Q157 -12 121 21T84 121V396Q84 412 83 421T79 436T70 447T52 458L15 478V510L225 532L242 521V161Q242 116 259 98T313 80Q342 80 368 88T415 105V396Q415 412 414 421T410 437T400
447T382 458L347 478V510L557 532L573 521V131Q573 113 574 102T578 84T588 73T607 65L636 52V17L431 -12L417 -2L423 63H419Q377 34 328 11T219 -12ZM331 585Q280 585 248 615T216 692Q216 715 225 735T249 769T286 792T331 801Q380 801 413 771T446 692Q446 646
413 616T331 585ZM331 630Q357 630 372 647T388 692Q388 719 373 737T331 755Q305 755 290 737T274 692Q274 665 289 648T331 630Z" />
<glyph unicode="&#x170;" glyph-name="Uhungarumlaut" horiz-adv-x="739" d="M390 -12Q325 -12 271 0T178 40T117 113T95 223V574Q95 597 93 610T87 630T75 640T55 646L18 654V693H349V654L315 646Q302 643 294 640T282 630T276 610T274 574V203Q274 165 282 139T308
95T357 70T432 62Q510 62 545 102T581 217V560Q581 587 579 603T572 627T558 639T532 646L490 654V693H719V654L689 647Q677 644 669 641T655 629T648 606T645 564V209Q645 163 630 123T584 52T505 5T390 -12ZM483 781L552 895Q564 915 575 923T601 932Q611 932
621 928T639 915T653 897T659 877Q659 863 651 850T620 825L503 759L483 781ZM297 781L365 895Q377 915 389 923T415 932Q424 932 433 928T451 916T465 899T471 878Q471 863 461 848T428 820L317 759L297 781Z" />
<glyph unicode="&#x171;" glyph-name="uhungarumlaut" horiz-adv-x="656" d="M219 -12Q157 -12 121 21T84 121V396Q84 412 83 421T79 436T70 447T52 458L15 478V510L225 532L242 521V161Q242 116 259 98T313 80Q342 80 368 88T415 105V396Q415 412 414 421T410
437T400 447T382 458L347 478V510L557 532L573 521V131Q573 113 574 102T578 84T588 73T607 65L636 52V17L431 -12L417 -2L423 63H419Q377 34 328 11T219 -12ZM393 609L471 732Q482 752 494 761T520 770Q530 770 540 766T558 754T572 737T578 717Q578 703 571 690T541
664L413 587L393 609ZM207 609L284 732Q295 753 307 761T334 770Q343 770 352 766T370 755T384 739T390 718Q390 703 381 688T349 659L227 587L207 609Z" />
<glyph unicode="&#x172;" glyph-name="Uogonek" horiz-adv-x="739" d="M426 -226Q369 -226 337 -202T304 -136Q304 -94 335 -63T410 -11Q405 -12 400 -12T390 -12Q325 -12 271 0T178 40T117 113T95 223V574Q95 597 93 610T87 630T75 640T55 646L18 654V693H349V654L315
646Q302 643 294 640T282 630T276 610T274 574V203Q274 165 282 139T308 95T357 70T432 62Q510 62 545 102T581 217V560Q581 587 579 603T572 627T558 639T532 646L490 654V693H719V654L689 647Q677 644 669 641T655 629T648 606T645 564V209Q645 153 623 106T555
30Q532 15 509 3T467 -25T437 -61T425 -110Q425 -144 454 -153Q467 -157 484 -157T523 -157V-196Q510 -205 488 -215T426 -226Z" />
<glyph unicode="&#x173;" glyph-name="uogonek" horiz-adv-x="656" d="M421 -226Q364 -226 332 -202T299 -136Q299 -114 308 -95T334 -59T372 -30T416 -6L423 63H419Q377 34 328 11T219 -12Q157 -12 121 21T84 121V396Q84 412 83 421T79 436T70 447T52 458L15
478V510L225 532L242 521V161Q242 116 259 98T313 80Q342 80 368 88T415 105V396Q415 412 414 421T410 437T400 447T382 458L347 478V510L557 532L573 521V131Q573 113 574 102T578 84T588 73T607 65L636 52V17L587 10Q540 4 508 -9T457 -39T429 -74T420 -110Q420
-144 449 -153Q462 -157 479 -157T518 -157V-196Q505 -205 483 -215T421 -226Z" />
<glyph unicode="&#x174;" glyph-name="Wcircumflex" horiz-adv-x="1059" d="M103 558Q94 582 87 598T74 625T59 640T40 648L14 654V693H338V654L310 647Q294 643 286 635T277 609Q277 594 282 575T294 534L397 190H402L509 488L483 571Q469 609 457 625T422 647L400
654V693H718V654L682 646Q667 644 658 634T648 606Q648 592 652 574T663 534L775 190H780L879 535Q884 555 888 573T892 606Q892 624 883 633T856 647L823 654V693H1045V654L1020 648Q1007 645 998 638T981 617T966 583T949 535L780 0H669L546 397H540L401 0H284L103
558ZM725 774L706 743L558 797L410 743L391 774L523 901H592L725 774Z" />
<glyph unicode="&#x175;" glyph-name="wcircumflex" horiz-adv-x="877" d="M86 396Q78 418 71 431T58 453T43 466T25 474L5 480V519H285V480L263 474Q236 468 236 443Q236 432 241 417T253 380L326 157H333L412 377L406 396Q392 437 381 453T352 474L332 480V519H610V480L581
473Q553 466 553 435Q553 414 565 380L641 157H647L718 380Q730 417 730 436Q730 466 700 473L671 480V519H872V480L852 474Q841 471 834 466T819 451T805 426T789 386L646 0H549L444 302H441L330 0H233L86 396ZM635 614L613 583L470 662L327 583L305 614L435 766H504L635
614Z" />
<glyph unicode="&#x176;" glyph-name="Ycircumflex" horiz-adv-x="685" d="M178 40L217 47Q230 50 238 53T250 63T256 83T258 119V284L107 561Q93 585 84 600T65 625T48 639T29 647L8 654V693H350V654L322 647Q300 642 291 633T282 607Q282 596 288 583T304 550L397
358H402L497 543Q516 585 516 608Q516 624 506 633T478 647L449 654V693H678V654L658 647Q634 639 615 619T572 550L437 290V119Q437 96 438 84T444 64T457 53T479 47L519 40V0H178V40ZM556 774L537 743L389 797L241 743L222 774L354 901H423L556 774Z" />
<glyph unicode="&#x177;" glyph-name="ycircumflex" horiz-adv-x="589" d="M132 -222Q81 -222 55 -199T28 -142Q28 -114 43 -96T88 -77Q120 -77 134 -89T157 -126Q166 -149 174 -149Q192 -149 211 -129T255 -53L271 -15L81 396Q70 420 63 434T49 456T38 467T23
474L4 480V519H300V480L273 473Q256 469 248 461T240 435Q240 412 256 380L349 165H353L436 380Q443 398 445 413T447 439Q447 454 440 461T416 473L387 480V519H592V480L569 473Q559 470 552 465T539 451T526 426T509 386L315 -63Q280 -144 238 -183T132 -222ZM500
614L478 583L335 662L192 583L170 614L300 766H369L500 614Z" />
<glyph unicode="&#x178;" glyph-name="Ydieresis" horiz-adv-x="685" d="M178 40L217 47Q230 50 238 53T250 63T256 83T258 119V284L107 561Q93 585 84 600T65 625T48 639T29 647L8 654V693H350V654L322 647Q300 642 291 633T282 607Q282 596 288 583T304 550L397
358H402L497 543Q516 585 516 608Q516 624 506 633T478 647L449 654V693H678V654L658 647Q634 639 615 619T572 550L437 290V119Q437 96 438 84T444 64T457 53T479 47L519 40V0H178V40ZM271 748Q253 748 238 754T211 771T192 797T185 829Q185 846 192 861T210 887T237
904T271 910Q289 910 304 904T331 887T350 861T357 829Q357 812 350 797T332 771T305 754T271 748ZM508 748Q472 748 447 771T422 829Q422 864 447 887T508 910Q543 910 568 887T593 829Q593 794 568 771T508 748Z" />
<glyph unicode="&#x179;" glyph-name="Zacute" horiz-adv-x="611" d="M21 56L380 640V644H339Q287 644 255 643T203 637T172 623T149 599Q139 585 131 573T115 547T97 514T75 470H35L47 693H567V638L210 55V51H244Q299 51 333 52T389 59T424 75T450 102Q461 116
470 130T488 160T506 197T527 243H568L552 0H21V56ZM206 773L346 885Q360 896 372 902T399 908Q422 908 437 890T452 849Q452 832 442 816T407 794L218 745L206 773Z" />
<glyph unicode="&#x17a;" glyph-name="zacute" horiz-adv-x="517" d="M21 51L320 464V468H276Q247 468 228 467T196 463T173 453T155 437Q137 415 123 392T87 330H49L59 519H494V470L195 55V51H240Q276 51 299 53T339 60T365 72T384 92Q403 115 418 140T450 195H491L474
0H21V51ZM176 618L316 730Q330 741 342 747T369 753Q392 753 407 735T422 694Q422 677 412 661T377 639L188 590L176 618Z" />
<glyph unicode="&#x17b;" glyph-name="Zdotaccent" horiz-adv-x="611" d="M21 56L380 640V644H339Q287 644 255 643T203 637T172 623T149 599Q139 585 131 573T115 547T97 514T75 470H35L47 693H567V638L210 55V51H244Q299 51 333 52T389 59T424 75T450 102Q461
116 470 130T488 160T506 197T527 243H568L552 0H21V56ZM304 744Q264 744 237 769T209 831Q209 869 236 893T304 918Q343 918 370 894T398 831Q398 794 371 769T304 744Z" />
<glyph unicode="&#x17c;" glyph-name="zdotaccent" horiz-adv-x="517" d="M21 51L320 464V468H276Q247 468 228 467T196 463T173 453T155 437Q137 415 123 392T87 330H49L59 519H494V470L195 55V51H240Q276 51 299 53T339 60T365 72T384 92Q403 115 418 140T450
195H491L474 0H21V51ZM273 594Q233 594 206 619T178 681Q178 719 205 743T273 768Q312 768 339 744T367 681Q367 644 340 619T273 594Z" />
<glyph unicode="&#x17d;" glyph-name="Zcaron" horiz-adv-x="611" d="M21 56L380 640V644H339Q287 644 255 643T203 637T172 623T149 599Q139 585 131 573T115 547T97 514T75 470H35L47 693H567V638L210 55V51H244Q299 51 333 52T389 59T424 75T450 102Q461 116
470 130T488 160T506 197T527 243H568L552 0H21V56ZM136 883L155 914L303 860L451 914L470 883L338 756H269L136 883Z" />
<glyph unicode="&#x17e;" glyph-name="zcaron" horiz-adv-x="517" d="M21 51L320 464V468H276Q247 468 228 467T196 463T173 453T155 437Q137 415 123 392T87 330H49L59 519H494V470L195 55V51H240Q276 51 299 53T339 60T365 72T384 92Q403 115 418 140T450 195H491L474
0H21V51ZM107 742L129 774L272 694L415 774L437 742L307 591H238L107 742Z" />
<glyph unicode="&#x192;" glyph-name="florin" horiz-adv-x="522" d="M56 407H150L160 472Q177 593 241 648T413 704Q477 704 513 678T549 613Q549 583 531 569T486 554Q454 554 438 571T416 631Q414 647 409 653T389 659Q368 659 353 640T329 564L305 407H423V349H296L250
51Q240 -17 221 -64T174 -141T107 -184T22 -198Q-13 -198 -37 -191T-76 -173T-97 -147T-104 -117Q-104 -91 -90 -75T-43 -59Q-16 -59 -2 -73T19 -128Q20 -142 23 -147T37 -153Q52 -153 61 -140T77 -81L141 349H56V407Z" />
<glyph unicode="&#x1fa;" glyph-name="Aringacute" horiz-adv-x="726" d="M5 40L32 47Q43 50 51 54T67 67T83 92T102 135L308 693H410L624 131Q634 105 642 90T657 66T673 53T692 45L716 40V0H389V40L417 47Q437 52 445 59T454 81Q454 94 449 109T436 146L413
209H196L174 146Q167 125 163 112T158 85Q158 67 168 60T202 47L231 40V0H5V40ZM215 264H394L306 511H301L215 264ZM359 732Q308 732 276 762T244 839Q244 862 253 882T277 916T314 939T359 948Q408 948 441 918T474 839Q474 793 441 763T359 732ZM359 777Q385
777 400 794T416 839Q416 866 401 884T359 902Q333 902 318 884T302 839Q302 812 317 795T359 777ZM262 993L402 1105Q416 1116 428 1122T455 1128Q478 1128 493 1110T508 1069Q508 1052 498 1036T463 1014L274 965L262 993Z" />
<glyph unicode="&#x1fb;" glyph-name="aringacute" horiz-adv-x="561" d="M180 -12Q108 -12 67 23T25 122Q25 155 35 180T70 226T135 263T236 294L317 312V387Q317 417 314 436T302 466T278 481T240 485Q216 485 209 478T200 448Q196 400 177 380T117 359Q82 359
66 375T49 422Q49 473 109 503T274 533Q371 533 423 501T475 396V129Q475 102 479 89T500 68Q509 63 522 61T548 58V22Q533 11 504 0T430 -12Q386 -12 360 4T325 49H320Q301 25 266 7T180 -12ZM251 65Q276 65 292 73T317 95V252L267 247Q221 244 200 222T179 145Q179
97 199 81T251 65ZM271 585Q220 585 188 615T156 692Q156 715 165 735T189 769T226 792T271 801Q320 801 353 771T386 692Q386 646 353 616T271 585ZM271 630Q297 630 312 647T328 692Q328 719 313 737T271 755Q245 755 230 737T214 692Q214 665 229 648T271 630ZM174
853L314 965Q328 976 340 982T367 988Q390 988 405 970T420 929Q420 912 410 896T375 874L186 825L174 853Z" />
<glyph unicode="&#x1fc;" glyph-name="AEacute" horiz-adv-x="988" d="M367 40L402 47Q413 50 421 53T434 63T442 83T445 119V198H220L198 159Q185 136 175 116T164 80Q164 68 171 60T197 47L229 40V0H4V40L23 47Q35 50 45 54T65 69T89 98T120 148L412 642L396
645L349 654V693H925L936 493H893Q875 535 862 558T837 599Q825 614 814 622T788 634T756 638T713 639Q675 639 653 637T617 631V387H624Q652 387 670 388T699 393T717 401T729 416Q740 434 746 447T759 484H802V231H759Q752 255 746 268T729 303Q724 313 718 318T700
327T671 331T624 332H617V144Q617 110 620 92T634 65T665 56T720 54Q751 54 771 55T804 62T828 76T851 103Q865 123 881 155T917 236H960L945 0H367V40ZM251 252H445V565Q445 570 445 574T444 583H442L251 252ZM559 773L699 885Q713 896 725 902T752 908Q775 908
790 890T805 849Q805 832 795 816T760 794L571 745L559 773Z" />
<glyph unicode="&#x1fd;" glyph-name="aeacute" horiz-adv-x="825" d="M569 -12Q426 -12 362 76Q329 27 287 8T185 -12Q110 -12 68 22T25 125Q25 192 74 228T207 284L315 308V387Q315 444 300 464T242 485Q217 485 209 478T199 448Q195 400 176 380T116 359Q49
359 49 423Q49 448 65 468T110 502T179 525T266 533Q382 533 421 471Q451 500 489 516T574 533Q625 533 666 517T736 468T781 385T797 265H465Q468 212 481 176T515 118T566 87T630 77Q679 77 716 89T782 115V70Q769 56 749 42T701 15T640 -4T569 -12ZM564 483Q545
483 528 474T497 445T474 393T464 315L643 325Q643 410 627 446T564 483ZM254 65Q284 65 304 82T337 124Q327 150 322 180T315 247L267 242Q246 240 230 236T203 222T187 195T181 148Q181 122 186 106T201 80T224 68T254 65ZM335 618L475 730Q489 741 501 747T528
753Q551 753 566 735T581 694Q581 677 571 661T536 639L347 590L335 618Z" />
<glyph unicode="&#x1fe;" glyph-name="Oslashacute" horiz-adv-x="763" d="M157 60Q102 104 69 172T36 338Q36 437 67 506T149 620T261 684T385 705Q432 705 476 695T562 663L607 730H673L607 632Q661 590 694 521T727 353Q727 254 696 185T614 72T502 8T378 -12Q330
-12 286 -2T202 30L138 -64H73L157 60ZM222 359Q222 301 224 256T234 176L506 580Q487 618 457 634T379 651Q340 651 311 639T262 593T232 504T222 359ZM383 42Q423 42 453 54T502 99T531 188T541 332Q541 389 538 434T528 514L256 110Q274 73 304 58T383 42ZM284
773L424 885Q438 896 450 902T477 908Q500 908 515 890T530 849Q530 832 520 816T485 794L296 745L284 773Z" />
<glyph unicode="&#x1ff;" glyph-name="oslashacute" horiz-adv-x="612" d="M126 43Q81 76 55 130T29 259Q29 330 52 382T115 467T204 517T307 533Q345 533 380 526T446 502L501 581H561L488 476Q532 443 557 390T583 263Q583 192 560 140T498 54T409 4T307 -12Q231
-12 168 17L112 -64H52L126 43ZM191 249Q191 217 192 191T196 144L400 436Q386 465 363 473T302 481Q277 481 257 470T221 433T199 361T191 249ZM310 39Q335 39 355 49T390 87T413 160T421 277Q421 306 420 329T416 373L213 82Q227 56 250 48T310 39ZM210 618L350
730Q364 741 376 747T403 753Q426 753 441 735T456 694Q456 677 446 661T411 639L222 590L210 618Z" />
<glyph unicode="&#x218;" glyph-name="Scommaaccent" horiz-adv-x="558" d="M256 -12Q184 -12 132 -3T46 18L34 212H77Q98 172 114 145T151 92Q171 68 195 55T262 41Q289 41 312 49T351 71T377 103T386 141Q386 162 379 179T355 213T307 245T231 279Q176 300 140
322T81 371T50 429T40 498Q40 543 58 581T109 646T188 689T292 705Q356 705 398 700T471 685L483 511H440Q430 530 422 545T407 572T391 595T372 618Q357 635 337 643T281 652Q230 652 198 625T166 557Q166 539 171 525T192 498T234 470T306 439Q366 416 407 393T475
344T512 288T524 220Q524 172 507 130T455 56T371 6T256 -12ZM179 -256Q208 -250 227 -241T257 -222T272 -199T275 -173Q270 -175 264 -177T247 -180Q219 -180 202 -164T185 -122Q185 -95 207 -76T264 -57Q301 -57 327 -80T354 -146Q354 -170 345 -193T316 -236T264
-268T186 -284L179 -256Z" />
<glyph unicode="&#x219;" glyph-name="scommaaccent" horiz-adv-x="459" d="M202 -12Q157 -12 114 -7T40 7L31 160H71Q78 146 84 135T97 114T111 94T129 73Q143 58 165 49T221 39Q262 39 285 55T308 105Q308 123 301 135T279 159T240 180T183 203Q114 229 74 266T34
365Q34 401 48 431T90 484T158 520T250 533Q295 533 331 528T391 515L396 379H359Q343 405 330 422T301 457Q290 468 277 475T233 482Q195 482 173 466T150 416Q150 403 155 393T174 373T208 353T262 332Q307 316 339 299T391 263T422 219T432 166Q432 127 417
95T372 38T300 1T202 -12ZM382 -256Q411 -250 430 -241T460 -222T475 -199T478 -173Q473 -175 467 -177T450 -180Q422 -180 405 -164T388 -122Q388 -95 410 -76T467 -57Q504 -57 530 -80T557 -146Q557 -170 548 -193T519 -236T467 -268T389 -284L382 -256Z" />
<glyph unicode="&#x237;" glyph-name="uni0237" horiz-adv-x="314" d="M24 -226Q-43 -226 -77 -198T-112 -132Q-112 -102 -94 -86T-43 -70Q-8 -70 7 -87T28 -151Q30 -169 34 -174T47 -179Q67 -179 76 -164T86 -126V391Q86 407 85 416T80 431T70 443T52 455L17
477V509L238 532L252 523Q252 512 251 500T248 470T245 429T244 372V-8Q244 -62 228 -102T182 -170T112 -212T24 -226Z" />
<glyph unicode="&#x2c6;" glyph-name="circumflex" horiz-adv-x="516" d="M423 614L401 583L258 662L115 583L93 614L223 766H292L423 614Z" />
<glyph unicode="&#x2c7;" glyph-name="caron" horiz-adv-x="516" d="M93 742L115 774L258 694L401 774L423 742L293 591H224L93 742Z" />
<glyph unicode="&#x2d8;" glyph-name="breve" horiz-adv-x="516" d="M259 593Q196 593 157 638T107 757L150 769Q164 734 188 712T259 689Q304 689 328 711T367 769L409 757Q399 684 361 639T259 593Z" />
<glyph unicode="&#x2d9;" glyph-name="dotaccent" horiz-adv-x="412" d="M206 594Q166 594 139 619T111 681Q111 719 138 743T206 768Q245 768 272 744T300 681Q300 644 273 619T206 594Z" />
<glyph unicode="&#x2da;" glyph-name="ring" horiz-adv-x="516" d="M258 585Q207 585 175 615T143 692Q143 715 152 735T176 769T213 792T258 801Q307 801 340 771T373 692Q373 646 340 616T258 585ZM258 630Q284 630 299 647T315 692Q315 719 300 737T258 755Q232
755 217 737T201 692Q201 665 216 648T258 630Z" />
<glyph unicode="&#x2db;" glyph-name="ogonek" horiz-adv-x="429" d="M204 -226Q147 -226 115 -202T82 -136Q82 -112 93 -92T122 -55T165 -25T214 0H272Q241 -27 222 -52T203 -110Q203 -144 232 -153Q245 -157 262 -157T301 -157V-196Q288 -205 266 -215T204 -226Z" />
<glyph unicode="&#x2dc;" glyph-name="tilde" horiz-adv-x="516" d="M78 602Q100 668 125 705T186 743Q206 743 226 737T266 724T303 710T334 704Q354 704 366 721T395 767L433 750Q411 684 389 647T328 609Q308 609 287 615T247 628T210 642T178 648Q158 648
146 630T117 584L78 602Z" />
<glyph unicode="&#x2dd;" glyph-name="hungarumlaut" horiz-adv-x="516" d="M295 609L373 732Q384 752 396 761T422 770Q432 770 442 766T460 754T474 737T480 717Q480 703 473 690T443 664L315 587L295 609ZM109 609L186 732Q197 753 209 761T236 770Q245 770
254 766T272 755T286 739T292 718Q292 703 283 688T251 659L129 587L109 609Z" />
</font>
</defs>
</svg>
