<?xml version="1.0" standalone="no"?> <!DOCTYPE svg PUBLIC "-//W3C//DTD SVG 1.0//EN" "http://www.w3.org/TR/2001/REC-SVG-20010904/DTD/svg10.dtd" > <svg xmlns="http://www.w3.org/2000/svg" width="100%" height="100%">
<defs >
<font horiz-adv-x="513" ><font-face
    font-family=""
    units-per-em="1000"
    panose-1="2 4 3 2 6 5 4 6 2 3"
    ascent="801"
    descent="-199"
    alphabetic="0" />
<missing-glyph horiz-adv-x="498" />
<glyph unicode=" " glyph-name="space" horiz-adv-x="207" />
<glyph unicode="!" glyph-name="exclam" horiz-adv-x="246" d="M127 -4Q105 -4 90 11T75 47Q75 69 90 83T127 97Q147 97 163 83T179 47Q179 26 163 11T127 -4ZM77 644Q75 673 91 687T127 702Q147 702 163 688T177 644L139 184H115L77 644Z" />
<glyph unicode="&quot;" glyph-name="quotedbl" horiz-adv-x="303" d="M35 640Q31 656 34 668T44 688T60 699T79 703Q97 703 113 689T123 640L89 491H73L35 640ZM180 640Q174 673 190 688T224 703Q233 703 242 700T259 688T269 668T268 640L230 491H213L180 640Z" />
<glyph unicode="#" glyph-name="numbersign" horiz-adv-x="518" d="M125 202H33L44 264H139L174 432H82L93 494H188L230 693H267L225 494H356L398 693H434L392 494H485L474 432H378L343 264H436L424 202H329L286 0H249L291 202H161L119 0H83L125 202ZM306 264L342
432H211L175 264H306Z" />
<glyph unicode="$" glyph-name="dollar" horiz-adv-x="489" d="M229 -104V-13Q173 -12 134 -4T71 20T36 56T25 102Q25 122 35 134T68 146Q94 146 104 132T116 89Q118 71 121 58T136 36T169 23T229 18V318Q227 318 225 320Q177 342 143 363T86 409T53 461T42 527Q42
560 55 589T93 642T150 679T225 698V759H254V700Q300 700 333 691T389 667T423 634T434 598Q434 556 390 556Q365 556 355 570T342 616Q339 642 322 655T254 669V393Q305 368 342 346T403 301T438 250T450 188Q450 140 433 104T389 43T328 5T258 -12V-104H229ZM381
154Q381 179 375 199T354 236T316 270T258 303V19Q324 27 352 65T381 154ZM104 550Q104 524 111 505T132 470T170 438T225 407V668Q166 662 135 628T104 550Z" />
<glyph unicode="%" glyph-name="percent" horiz-adv-x="685" d="M181 350Q155 350 129 360T81 390T45 443T31 519Q31 565 44 599T80 657T129 691T183 703Q209 703 236 693T284 662T319 608T333 530Q333 484 319 450T282 394T233 361T181 350ZM181 372Q221 372
240 407T260 519Q260 680 181 680Q104 680 104 531Q104 372 181 372ZM563 714H603L108 -50H67L563 714ZM502 -14Q476 -14 450 -4T402 26T366 79T352 155Q352 201 365 235T401 293T450 327T504 339Q530 339 557 329T605 298T640 244T654 166Q654 120 640 86T603
30T554 -3T502 -14ZM502 8Q542 8 561 43T581 155Q581 316 502 316Q425 316 425 167Q425 8 502 8Z" />
<glyph unicode="&amp;" glyph-name="ampersand" horiz-adv-x="636" d="M250 -13Q178 -13 134 6T65 53T33 113T24 174Q24 213 37 244T74 302T126 350T189 388Q163 425 146 460T128 537Q128 573 140 603T173 656T223 692T286 705Q319 705 346 695T392 667T421 625T432
573Q432 544 421 520T389 476T338 436T269 398Q285 373 306 342T350 278T399 210T450 144Q480 195 487 233T494 295Q494 317 482 326T447 340L427 344V361H620V345L592 338Q569 333 563 324T550 300Q544 284 537 262T519 216T497 166T469 120Q484 101 503 79T532
46Q537 40 544 35T572 24L600 17V0H473Q463 11 449 29T425 60Q395 30 350 9T250 -13ZM263 20Q313 20 349 40T406 82Q349 153 297 228T203 367Q154 334 131 290T108 195Q108 148 122 115T158 60T208 30T263 20ZM254 419Q309 451 334 488T359 573Q359 621 339 649T281
677Q243 677 220 649T196 566Q196 531 210 497T254 419Z" />
<glyph unicode="&apos;" glyph-name="quotesingle" horiz-adv-x="158" d="M35 640Q31 656 34 668T44 688T60 699T79 703Q88 703 97 700T114 688T124 668T123 640L87 491H71L35 640Z" />
<glyph unicode="(" glyph-name="parenleft" horiz-adv-x="311" d="M279 -139Q238 -104 199 -62T127 34T76 154T56 303Q56 378 75 443T127 564T198 664T279 744L295 729Q260 690 229 645T175 548T139 440T125 322Q125 242 138 176T175 56T229 -43T295 -125L279 -139Z" />
<glyph unicode=")" glyph-name="parenright" horiz-adv-x="311" d="M32 743Q72 708 112 666T184 570T235 450T255 301Q255 226 236 161T184 40T112 -60T32 -140L16 -125Q51 -86 82 -41T136 56T172 164T186 282Q186 362 173 428T136 548T82 647T16 729L32 743Z" />
<glyph unicode="*" glyph-name="asterisk" horiz-adv-x="316" d="M124 470Q117 452 103 450T78 455Q64 465 65 480T78 504L150 563L65 569Q42 571 35 583T32 608Q37 622 51 627T82 620L153 572L129 662Q124 678 133 689T158 701Q174 701 183 690T187 662L163 572L234
620Q251 632 265 627T284 608Q288 595 281 583T251 569L166 563L238 504Q249 495 250 480T238 455Q228 448 214 450T192 470L158 556L124 470Z" />
<glyph unicode="+" glyph-name="plus" horiz-adv-x="437" d="M194 317H33V359H194V545H243V359H404V317H243V131H194V317Z" />
<glyph unicode="," glyph-name="comma" horiz-adv-x="185" d="M26 -94Q66 -77 83 -53T102 6Q100 4 96 2T81 -1Q61 -1 48 13T34 48Q34 70 49 84T88 98Q115 98 132 79T150 29Q150 -19 122 -55T32 -108L26 -94Z" />
<glyph unicode="-" glyph-name="hyphen" horiz-adv-x="264" d="M35 322H234L230 262H30L35 322Z" />
<glyph unicode="." glyph-name="period" horiz-adv-x="173" d="M87 -4Q65 -4 50 10T35 47Q35 68 50 83T87 98Q108 98 123 83T138 47Q138 25 123 11T87 -4Z" />
<glyph unicode="/" glyph-name="slash" horiz-adv-x="369" d="M44 -130H3L306 734H347L44 -130Z" />
<glyph unicode="0" glyph-name="zero" horiz-adv-x="588" d="M292 -12Q247 -12 201 6T117 66T57 173T33 334Q33 432 55 502T115 618T200 684T298 705Q344 705 390 687T472 627T532 518T555 355Q555 256 532 187T471 73T386 9T292 -12ZM295 20Q381 20 427 99T474
335Q474 495 429 584T295 674Q206 674 161 592T115 355Q115 194 161 107T295 20Z" />
<glyph unicode="1" glyph-name="one" horiz-adv-x="320" d="M35 17L89 25Q113 28 120 39T127 78V601H39V619Q69 624 91 630T131 646T163 669T193 700L205 698V78Q205 50 211 39T239 25L294 17V0H35V17Z" />
<glyph unicode="2" glyph-name="two" horiz-adv-x="478" d="M16 40Q80 95 126 139T215 227Q246 260 273 292T319 358T349 432T360 520Q360 563 348 592T317 640T272 667T220 675Q175 675 161 663T144 623Q141 595 130 580T93 564Q67 564 57 577T46 610Q46 633
60 651T100 681T159 699T233 705Q273 705 311 695T378 662T425 605T443 521Q443 460 418 407T348 301T238 192T95 70V67H339Q359 67 372 69T395 80T416 106T440 152H458L441 0H16V40Z" />
<glyph unicode="3" glyph-name="three" horiz-adv-x="477" d="M196 -12Q117 -12 70 11T22 81Q22 101 34 112T67 124Q91 124 101 111T117 74Q121 59 126 49T139 32T160 22T195 19Q240 19 271 33T322 71T351 126T360 193Q360 227 353 254T329 301T284 332T212 343H156V376H202Q274
376 306 413T339 527Q339 599 306 638T210 677Q177 677 159 666T137 618Q134 592 122 580T89 568Q63 568 54 581T45 609Q45 633 61 651T104 681T161 699T222 705Q273 705 310 692T372 655T407 602T419 539Q419 510 410 482T382 431T331 391T257 364V361Q351 353
396 307T442 190Q442 153 427 117T382 52T305 6T196 -12Z" />
<glyph unicode="4" glyph-name="four" horiz-adv-x="525" d="M233 17L273 24Q294 28 301 39T308 79V207H19V239L351 693H383V253H499L493 207H383V79Q383 50 390 40T416 25L460 17V0H233V17ZM308 253V581H305L70 254V253H308Z" />
<glyph unicode="5" glyph-name="five" horiz-adv-x="469" d="M177 -12Q108 -12 65 11T22 80Q22 101 34 113T71 126Q92 126 104 116T122 79Q126 61 130 50T142 31T159 22T187 19Q269 19 317 68T365 203Q365 284 319 321T195 359Q153 359 121 354T68 340L62 345L101
693H354Q363 693 369 694T380 700T391 715T405 742H422L405 623H127L103 413Q123 420 149 424T212 428Q253 428 293 418T364 385T415 322T434 225Q434 174 414 131T358 56T277 6T177 -12Z" />
<glyph unicode="6" glyph-name="six" horiz-adv-x="521" d="M279 -12Q224 -12 180 9T104 68T55 159T37 277Q37 394 68 475T147 608T251 682T356 705Q422 705 456 684T491 625Q491 606 480 595T449 584Q426 584 416 594T400 630Q395 655 384 665T347 675Q314 675
277 659T206 606T150 509T121 361Q147 382 189 401T283 420Q380 420 435 364T491 208Q491 155 472 114T423 45T354 3T279 -12ZM280 18Q318 18 343 31T384 68T405 124T411 194Q411 237 403 271T377 330T331 368T263 382Q226 382 186 368T120 335Q120 328 120 325T119
318T119 311T119 299Q119 263 123 215T143 123T191 49T280 18Z" />
<glyph unicode="7" glyph-name="seven" horiz-adv-x="463" d="M119 0Q142 105 174 194T243 359T318 500T393 622H96Q84 622 76 620T62 610T51 591T37 559H20L36 693H453V659Q406 587 367 515T296 364T240 196T198 0H119V0Z" />
<glyph unicode="8" glyph-name="eight" horiz-adv-x="509" d="M259 -13Q223 -13 183 -3T110 28T54 84T31 167Q31 197 43 224T77 275T127 322T188 363V366Q152 387 129 407T91 447T71 489T65 535Q65 571 80 602T121 656T182 692T260 705Q297 705 332 695T394 664T439
615T456 546Q456 518 445 494T414 448T370 406T318 368V366Q353 345 382 325T433 282T466 235T478 178Q478 140 463 106T418 45T349 3T259 -13ZM264 18Q299 18 325 29T370 58T397 102T406 155Q406 188 387 215T339 266T276 310T210 351Q194 339 176 323T142 286T116
237T106 175Q106 137 118 108T151 59T201 29T264 18ZM299 381Q314 395 329 410T357 444T376 487T384 544Q384 607 350 640T257 674Q197 674 165 641T133 556Q133 526 149 501T191 454T245 414T299 381Z" />
<glyph unicode="9" glyph-name="nine" horiz-adv-x="522" d="M175 -12Q109 -12 75 10T40 69Q40 88 51 99T86 110Q108 110 118 100T133 64Q138 40 148 29T184 18Q222 18 259 33T326 85T376 182T400 332Q370 307 329 290T237 273Q193 273 156 286T90 326T46 391T30
479Q30 534 49 576T100 646T169 690T244 705Q298 705 342 684T418 624T467 530T485 406Q485 294 459 215T390 86T291 12T175 -12ZM255 313Q295 313 334 325T401 360Q401 367 401 370T402 376T402 383T402 395Q402 419 401 449T394 510T378 570T351 623T307 661T244
675Q208 675 183 662T141 624T118 567T110 493Q110 410 145 362T255 313Z" />
<glyph unicode=":" glyph-name="colon" horiz-adv-x="179" d="M90 -4Q68 -4 53 10T38 47Q38 68 53 83T90 98Q111 98 126 83T141 47Q141 25 126 11T90 -4ZM90 287Q68 287 53 301T38 338Q38 359 53 374T90 389Q111 389 126 374T141 338Q141 316 126 302T90 287Z" />
<glyph unicode=";" glyph-name="semicolon" horiz-adv-x="185" d="M90 287Q68 287 53 301T38 338Q38 359 53 374T90 389Q111 389 126 374T141 338Q141 316 126 302T90 287ZM26 -94Q66 -77 83 -53T102 6Q100 4 96 2T81 -1Q61 -1 48 13T34 48Q34 70 49 84T88 98Q115
98 132 79T150 29Q150 -19 122 -55T32 -108L26 -94Z" />
<glyph unicode="&lt;" glyph-name="less" horiz-adv-x="452" d="M40 307V348L409 522V475L89 328L409 181V134L40 307Z" />
<glyph unicode="=" glyph-name="equal" horiz-adv-x="473" d="M40 272H433V231H40V272ZM40 425H433V383H40V425Z" />
<glyph unicode="&gt;" glyph-name="greater" horiz-adv-x="452" d="M43 179L363 327L43 474V522L412 348V307L43 134V179Z" />
<glyph unicode="?" glyph-name="question" horiz-adv-x="409" d="M143 367Q171 377 201 392T255 430T294 480T310 547Q310 582 299 606T270 645T226 666T173 673Q159 673 147 668T131 636Q126 608 116 597T83 585Q60 585 50 597T39 628Q39 646 50 660T80 685T123
700T173 705Q213 705 248 693T310 658T351 598T367 514Q367 472 352 440T312 382T253 337T182 303V186H143V367ZM160 -4Q139 -4 124 11T108 47Q108 69 123 83T160 97Q180 97 196 83T213 47Q213 26 197 11T160 -4Z" />
<glyph unicode="@" glyph-name="at" horiz-adv-x="813" d="M382 -123Q304 -123 239 -100T128 -33T56 70T30 205Q30 296 65 376T160 515T301 609T474 643Q551 643 609 619T708 555T768 464T788 361Q788 280 767 220T711 120T636 61T555 41Q527 41 509 50T480 75T467
114T467 164H463Q431 111 393 78T314 44Q270 44 247 72T224 161Q224 233 249 292T311 394T389 461T464 485Q479 485 490 483T510 477T527 468T546 455H551L582 483L594 477Q589 465 585 449Q581 435 577 417T568 375L536 188Q527 134 536 105T582 76Q606 76 632
90T679 135T715 216T729 338Q729 393 713 443T665 532T582 593T465 616Q379 616 311 585T196 500T123 378T97 234Q97 162 116 103T173 2T269 -62T408 -85Q473 -85 525 -74T630 -34V-58Q593 -81 531 -102T382 -123ZM337 92Q367 92 402 126T470 210L512 421Q507 437
495 446T456 456Q428 456 400 433T348 370T310 277T295 164Q295 126 304 109T337 92Z" />
<glyph unicode="A" glyph-name="A" horiz-adv-x="625" d="M-2 17L29 27Q38 30 44 33T57 47T72 75T91 125L299 693H339L538 111Q547 85 554 69T569 44T585 30T604 23L628 17V0H406V17L428 23Q445 27 454 32T465 48T465 74T452 118L406 253H178L132 118Q123 91 121
75T122 49T135 34T159 25L188 17V0H-3L-2 17ZM189 284H396L296 582H291L189 284Z" />
<glyph unicode="B" glyph-name="B" horiz-adv-x="576" d="M305 29Q380 29 419 70T459 182Q459 261 420 302T287 343H182V112Q182 84 185 68T201 43T238 32T305 29ZM271 373Q342 373 384 411T426 517Q426 594 388 629T267 665Q243 665 220 663T182 656V373H271ZM276
693Q326 693 368 685T441 657T489 606T506 531Q506 460 465 421T347 367V364Q445 357 494 314T544 195Q544 147 526 111T475 50T397 13T299 0H27V17L66 25Q77 27 84 30T95 38T102 54T104 81V612Q104 629 103 639T97 654T85 663T66 668L27 676V693H276Z" />
<glyph unicode="C" glyph-name="C" horiz-adv-x="599" d="M330 -12Q268 -12 214 7T120 68T58 178T35 341Q35 443 63 512T137 624T242 686T365 705Q422 705 467 697T544 679L556 492H536Q525 524 515 551T488 603Q478 619 468 632T442 654T406 667T354 672Q302
672 259 656T184 603T136 507T118 360Q118 271 132 207T173 101T240 41T335 21Q368 21 392 26T435 42T468 65T493 95Q508 117 518 147T540 212H559L547 28Q511 12 455 0T330 -12Z" />
<glyph unicode="D" glyph-name="D" horiz-adv-x="659" d="M27 17L66 25Q77 27 84 30T95 38T102 54T104 81V612Q104 629 103 639T97 654T85 663T66 668L27 676V693H300Q367 693 426 677T531 621T602 515T628 351Q628 262 603 196T534 87T428 22T293 0H27V17ZM288
30Q365 30 415 54T494 120T535 217T547 334Q547 415 533 476T489 579T408 642T286 664Q244 664 220 662T182 655V120Q182 92 185 75T199 47T231 34T288 30Z" />
<glyph unicode="E" glyph-name="E" horiz-adv-x="566" d="M27 17L66 25Q77 27 84 30T95 38T102 54T104 81V612Q104 629 103 639T97 654T85 663T66 668L27 676V693H502L515 526H494Q479 561 469 585T451 620Q441 635 433 644T410 657T372 663T307 665Q270 665 236
663T182 656V375H237Q266 375 287 376T324 380T349 391T364 409Q372 425 376 442T385 484H406V237H385Q380 263 376 277T364 310Q359 322 352 329T331 339T294 344T237 345H182V125Q182 89 184 70T200 41T242 30T322 28Q358 28 380 29T416 35T440 47T459 68Q464
75 471 89T485 121T500 159T514 198H537L522 0H27V17Z" />
<glyph unicode="F" glyph-name="F" horiz-adv-x="533" d="M182 81Q182 64 183 54T189 38T200 30T219 25L272 17V0H27V17L66 25Q77 27 84 30T95 38T102 54T104 81V612Q104 629 103 639T97 654T85 663T66 668L27 676V693H494L504 514H483Q466 559 456 584T437 620Q427
636 417 645T392 658T355 664T298 665Q254 665 227 663T182 657V363H217Q257 363 281 364T319 370T341 381T353 399Q358 410 362 428T371 470H392V219H371Q366 245 362 264T353 297Q348 309 341 316T320 326T282 331T217 332H182V81Z" />
<glyph unicode="G" glyph-name="G" horiz-adv-x="654" d="M498 198Q498 215 497 225T492 240T481 249T461 254L418 262V279H643V262L606 253Q586 248 581 241T576 207V23Q544 14 490 1T361 -12Q286 -12 226 9T123 73T58 183T35 339Q35 446 64 516T142 629T252
688T377 705Q435 705 478 697T561 679L573 494H552Q538 544 524 572T502 611Q491 627 481 638T455 657T419 668T364 672Q307 672 261 656T183 604T134 510T116 366Q116 199 173 110T360 21Q408 21 442 30T498 51V198Z" />
<glyph unicode="H" glyph-name="H" horiz-adv-x="692" d="M27 17L66 25Q77 27 84 30T95 38T102 54T104 81V612Q104 629 103 639T97 654T85 663T66 668L27 676V693H262V676L219 668Q207 666 200 663T188 655T183 639T182 612V369H510V612Q510 629 509 639T504 654T493
663T472 668L430 676V693H665V676L625 668Q613 666 606 663T595 655T590 639T588 612V81Q588 64 589 54T595 39T606 30T625 25L665 17V0H430V17L472 24Q485 26 492 29T504 38T509 54T510 81V337H182V81Q182 64 183 54T187 39T198 30T219 25L262 17V0H27V17Z" />
<glyph unicode="I" glyph-name="I" horiz-adv-x="292" d="M107 612Q107 629 106 639T101 654T90 663T70 668L27 676V693H265V676L222 668Q209 666 202 663T191 655T186 639T185 612V81Q185 64 186 54T190 39T201 30T222 25L265 17V0H27V17L70 25Q83 27 90 30T101
38T106 54T107 81V612Z" />
<glyph unicode="J" glyph-name="J" horiz-adv-x="288" d="M5 -156Q-36 -156 -59 -139T-83 -93Q-83 -79 -73 -67T-36 -55Q-8 -55 1 -68T16 -104Q19 -117 23 -122T38 -127Q52 -127 64 -120T86 -94T101 -45T107 33V612Q107 629 106 639T101 654T90 663T70 668L27
676V693H261V676L220 668Q208 666 201 663T191 655T186 639T185 612V56Q185 10 175 -29T142 -96T86 -140T5 -156Z" />
<glyph unicode="K" glyph-name="K" horiz-adv-x="599" d="M472 0Q439 36 404 78T336 166T273 259T217 350V361L426 605Q435 616 438 623T442 638Q442 649 434 655T407 666L372 676V693H579V676L553 670Q541 667 533 663T514 651T493 631T463 599L277 390Q302 348
334 301T401 208T467 123T525 56Q533 47 538 42T549 34T561 28T575 24L601 17V0H472ZM182 81Q182 64 183 54T187 39T198 30T219 25L263 17L262 0H27V17L66 25Q77 27 84 30T95 38T102 54T104 81V612Q104 629 103 639T97 654T85 663T66 668L27 676V693H262V676L219
668Q207 666 200 663T188 655T183 639T182 612V81Z" />
<glyph unicode="L" glyph-name="L" horiz-adv-x="530" d="M27 0V17L66 25Q77 27 84 30T95 38T102 54T104 81V612Q104 629 103 639T97 654T85 663T66 668L27 676V693H262V676L219 668Q207 666 200 663T188 655T183 639T182 612V108Q182 82 184 67T197 43T232 31T299
28Q335 28 357 30T394 37T417 50T437 73Q447 85 463 121T493 206H516L504 0H27Z" />
<glyph unicode="M" glyph-name="M" horiz-adv-x="819" d="M792 676L752 668Q740 666 733 663T722 655T717 639T715 612V81Q715 64 716 54T722 39T733 30T752 25L792 17V0H557V17L599 24Q611 27 618 29T630 38T635 54T637 81V629H633L411 20H378L147 629H143V97Q143
63 149 49T180 28L223 17V0H27V17L66 28Q88 34 96 48T104 97V612Q104 629 103 639T97 654T85 663T66 668L27 676V693H204L414 140H416L617 693H792V676Z" />
<glyph unicode="N" glyph-name="N" horiz-adv-x="664" d="M143 97Q143 63 149 49T180 28L223 17V0H27V17L66 28Q88 34 96 48T104 97V612Q104 629 103 639T97 654T85 663T66 668L27 676V693H190L530 143H533V596Q533 629 527 645T496 666L446 676V693H649V676L610
666Q585 660 579 645T572 597V-5H533L146 618H143V97Z" />
<glyph unicode="O" glyph-name="O" horiz-adv-x="671" d="M330 -12Q266 -12 212 10T119 77T57 186T35 337Q35 435 60 505T127 619T224 684T341 705Q405 705 459 682T552 613T614 501T636 350Q636 252 611 184T544 72T447 8T330 -12ZM335 21Q450 21 502 100T555
335Q555 403 543 464T503 571T435 645T335 672Q220 672 168 590T116 352Q116 280 130 220T172 115T240 46T335 21Z" />
<glyph unicode="P" glyph-name="P" horiz-adv-x="540" d="M182 81Q182 64 183 54T189 38T200 30T219 25L273 17V0H27V17L66 25Q77 27 84 30T95 38T102 54T104 81V612Q104 629 103 639T97 654T85 663T66 668L27 676V693H286Q401 693 459 642T517 500Q517 451 500
411T451 343T374 299T273 283Q247 283 233 285T215 290V309Q326 302 380 344T435 489Q435 582 399 623T277 665Q247 665 221 662T182 656V81Z" />
<glyph unicode="Q" glyph-name="Q" horiz-adv-x="671" d="M585 -165Q536 -165 499 -154T420 -116Q400 -103 384 -91T353 -67T321 -40T282 -9Q226 -1 181 26T103 96T53 200T35 337Q35 435 60 505T127 619T224 684T341 705Q405 705 459 682T552 613T614 501T636
350Q636 267 618 206T569 101T494 31T398 -6V-9Q408 -17 420 -26T445 -44T469 -60T490 -72Q532 -97 570 -107T647 -118Q668 -118 685 -113T714 -103V-121Q697 -135 668 -150T585 -165ZM335 21Q450 21 502 100T555 335Q555 403 543 464T503 571T435 645T335 672Q220
672 168 590T116 352Q116 280 130 220T172 115T240 46T335 21Z" />
<glyph unicode="R" glyph-name="R" horiz-adv-x="597" d="M182 81Q182 64 183 54T187 39T198 30T219 25L263 17L262 0H27V17L66 25Q77 27 84 30T95 38T102 54T104 81V612Q104 629 103 639T97 654T85 663T66 668L27 676V693H296Q402 693 452 651T503 528Q503 459
459 413T339 347V344Q360 309 385 269T435 190T485 117T530 59Q547 39 556 33T580 23L602 17V0H478Q418 78 364 162T265 331H182V81ZM243 359Q337 359 379 397T422 514Q422 558 412 587T384 633T339 658T281 665Q245 665 221 663T182 658V363Q191 362 202 361Q211
360 221 360T243 359Z" />
<glyph unicode="S" glyph-name="S" horiz-adv-x="482" d="M219 -13Q165 -13 118 -1T39 25L28 201H51Q62 167 73 139T101 83Q121 49 151 35T240 21Q275 21 300 31T341 60T365 101T373 149Q373 179 365 201T338 244T288 283T212 325Q180 341 150 358T97 399T59 453T45
528Q45 565 58 597T97 654T158 692T239 706Q299 706 337 697T396 680L408 523H387Q379 544 374 557T365 581T356 600T346 617Q337 631 329 641T309 659T281 669T239 673Q176 673 142 645T107 558Q107 529 114 508T137 468T179 434T242 398Q294 371 331 348T393
302T429 251T441 189Q441 147 428 111T386 47T317 3T219 -13Z" />
<glyph unicode="T" glyph-name="T" horiz-adv-x="562" d="M320 664V81Q320 64 321 54T325 39T336 30T357 25L400 17V0H162V17L205 25Q218 27 225 30T236 38T241 54T242 81V664H213Q172 664 148 661T109 650T87 632T74 606Q67 587 59 563T40 500H16L27 693H535L546
500H522Q511 538 503 562T488 606Q482 621 475 632T454 650T415 660T349 664H320Z" />
<glyph unicode="U" glyph-name="U" horiz-adv-x="676" d="M172 222Q172 127 216 81T361 34Q458 34 500 85T543 229V601Q543 634 537 647T506 666L453 676V693H659V676L620 666Q595 659 589 646T582 601V220Q582 174 569 132T527 58T451 7T338 -12Q224 -12 159
45T94 226V612Q94 629 93 639T87 654T75 663T56 668L17 676V693H246V676L206 668Q194 665 187 663T177 655T173 639T172 612V222Z" />
<glyph unicode="V" glyph-name="V" horiz-adv-x="616" d="M84 580Q75 605 69 621T56 646T42 661T23 669L-3 676V693H218V676L190 669Q170 664 162 656T154 636Q154 625 158 610T171 573L332 112H337L490 573Q496 591 500 606T504 632Q504 648 496 655T467 668L434
676V693H619V676L600 671Q587 668 579 663T564 646T550 616T531 566L331 0H290L84 580Z" />
<glyph unicode="W" glyph-name="W" horiz-adv-x="915" d="M87 576Q78 604 71 621T58 648T44 662T26 669L-3 676V693H222V676L188 669Q171 665 163 658T155 634Q155 615 169 573L313 123H318L449 520L432 571Q422 601 415 619T401 647T386 662T368 669L339 676V693H561V676L531
670Q516 667 508 659T499 632Q499 622 502 608T512 573L657 123H662L785 562Q791 585 794 602T798 632Q798 647 792 654T769 667L735 676V693H918V676L885 667Q873 664 866 658T852 639T839 607T825 560L661 0H623L468 461H465L311 0H276L87 576Z" />
<glyph unicode="X" glyph-name="X" horiz-adv-x="617" d="M14 17L35 22Q48 25 57 28T74 40T93 63T118 103L267 341L116 597Q104 616 97 629T83 650T70 663T53 670L27 676V693H248V676L205 669Q184 666 184 648Q184 640 189 626T206 592L320 397H323L432 592Q455
634 452 649T424 670L396 676V693H569V676L547 671Q535 668 526 663T509 648T492 626T471 592L340 369L499 103Q510 84 518 70T534 47T550 31T569 23L598 17V0H376V17L407 21Q421 23 428 27T436 42Q436 50 431 63T412 99L286 311H283L156 98Q134 63 137 46T164
23L191 17V0H14V17Z" />
<glyph unicode="Y" glyph-name="Y" horiz-adv-x="582" d="M263 278L86 598Q74 619 67 632T53 652T40 662T23 669L-4 676V693H222V676L188 668Q174 665 166 661T155 648T155 627T170 594L319 318H322L450 586Q461 608 464 622T465 646T452 659T427 668L394 676V693H586V676L562
668Q550 664 541 659T523 644T503 614T477 564L341 288V81Q341 64 342 54T346 39T357 30T378 25L421 17V0H183V17L226 25Q239 27 246 30T257 38T262 54T263 81V278Z" />
<glyph unicode="Z" glyph-name="Z" horiz-adv-x="535" d="M25 29L422 661V665H342Q279 665 240 664T178 659T142 645T120 619Q109 599 99 572T77 512H57L69 693H506V665L113 32V28H185Q256 28 301 30T373 38T412 53T432 74Q441 91 452 118T482 197H504L488 0H25V29Z" />
<glyph unicode="[" glyph-name="bracketleft" horiz-adv-x="300" d="M95 734H290V717L192 705Q173 703 168 693T162 646V-43Q162 -79 167 -89T192 -101L290 -113V-130H95V734Z" />
<glyph unicode="\" glyph-name="backslash" horiz-adv-x="369" d="M22 734H63L366 -130H325L22 734Z" />
<glyph unicode="]" glyph-name="bracketright" horiz-adv-x="300" d="M10 -113L107 -101Q126 -99 131 -89T137 -43V646Q137 682 132 692T107 705L10 717V734H205V-130H10V-113Z" />
<glyph unicode="^" glyph-name="asciicircum" horiz-adv-x="370" d="M38 500L171 706H199L333 500L319 488L183 612L51 488L38 500Z" />
<glyph unicode="_" glyph-name="underscore" horiz-adv-x="328" d="M-2 -135H330V-177H-2V-135Z" />
<glyph unicode="`" glyph-name="grave" horiz-adv-x="500" d="M167 635Q147 643 141 654T134 677Q134 692 144 703T169 714Q176 714 184 712T202 702L358 588L351 574L167 635Z" />
<glyph unicode="a" glyph-name="a" horiz-adv-x="467" d="M171 -13Q102 -13 63 20T23 113Q23 146 36 169T68 207T112 232T157 247L310 283V390Q310 413 308 432T295 465T264 486T209 494Q173 494 161 485T145 453Q143 443 142 433T136 415T123 402T100 397Q73
397 63 411T53 441Q53 464 71 479T116 504T171 518T223 522Q310 522 347 489T384 395V77Q384 59 390 49T405 32Q415 25 428 23T459 20V7Q448 -1 426 -6T385 -12Q350 -12 333 5T312 45H307Q289 20 251 4T171 -13ZM200 29Q241 29 269 45T310 83V244L236 236Q173 229
137 204T101 122Q101 80 126 55T200 29Z" />
<glyph unicode="b" glyph-name="b" horiz-adv-x="546" d="M233 -12Q187 -12 145 -3T70 24V655Q70 668 69 676T63 690T52 699T32 709L-1 725V741L142 755L148 749Q147 732 146 714Q145 697 145 676T144 630V544Q144 528 144 514T143 489Q142 476 142 464H146Q176
487 217 504T305 521Q344 521 381 510T447 470T493 394T511 276Q511 207 492 154T436 64T349 8T233 -12ZM254 19Q298 19 331 33T387 77T421 154T432 269Q432 366 389 419T269 473Q221 473 192 461T144 438V57Q167 38 191 29T254 19Z" />
<glyph unicode="c" glyph-name="c" horiz-adv-x="452" d="M260 -12Q203 -12 160 7T88 60T45 140T30 242Q30 323 57 377T123 463T208 508T292 521Q367 521 398 498T430 441Q430 421 418 408T382 394Q358 394 349 405T336 436Q333 454 330 464T319 480T302 488T275
490Q243 490 214 478T163 439T127 372T113 274Q113 158 151 98T279 37Q331 37 368 51T429 79V50Q420 41 405 31T369 11T320 -5T260 -12Z" />
<glyph unicode="d" glyph-name="d" horiz-adv-x="559" d="M236 -12Q200 -12 164 0T100 40T53 117T35 238Q35 309 58 362T119 450T206 503T306 521Q341 521 364 517T402 508V657Q402 671 401 679T396 691T388 699T374 706L332 725V741L473 755L479 749Q478 737
477 719Q476 704 476 682T476 630V87Q476 73 477 65T483 52T494 43T514 33L544 19V6L408 -12L402 -7L404 45H400Q370 22 327 5T236 -12ZM277 36Q323 36 353 48T402 72V447Q384 463 359 476T298 489Q255 489 221 476T163 435T127 362T114 253Q114 141 158 89T277
36Z" />
<glyph unicode="e" glyph-name="e" horiz-adv-x="485" d="M267 -12Q207 -12 163 8T89 64T45 150T30 259Q30 317 48 365T98 448T173 502T264 521Q309 521 344 508T404 465T442 389T454 276H111V273Q111 151 159 95T287 38Q318 38 342 42T385 52T418 66T446 81V53Q437
45 422 34T385 12T334 -5T267 -12ZM261 492Q199 492 158 445T112 300L370 312Q370 406 346 449T261 492Z" />
<glyph unicode="f" glyph-name="f" horiz-adv-x="281" d="M23 16L56 25Q78 31 83 40T89 78V469H21V487L89 506V559Q89 605 105 642T148 704T211 742T289 756Q335 756 354 740T374 701Q374 685 364 674T331 662Q306 662 296 671T280 705Q277 718 273 723T255 728Q240
728 224 722T195 700T172 660T163 599V505H270L264 469H163V79Q163 54 167 43T191 27L243 16V0H23V16Z" />
<glyph unicode="g" glyph-name="g" horiz-adv-x="470" d="M195 -196Q148 -196 110 -187T44 -162T2 -124T-13 -75Q-13 -35 18 -9T99 35V38Q76 47 59 64T42 113Q42 144 63 168T109 209V213Q79 227 54 263T29 346Q29 391 46 424T89 478T149 510T214 521Q267 521 314
496Q334 513 360 527T422 541Q446 541 459 530T472 499Q472 460 435 460Q409 460 399 483Q391 502 372 501T334 488V485Q366 466 382 432T399 354Q399 309 382 277T339 225T279 195T214 185Q191 185 172 188T135 200Q123 192 111 179T99 145Q99 122 114 112T163
102H314Q383 102 418 71T453 -14Q453 -40 442 -71T401 -131T322 -177T195 -196ZM210 -167Q244 -167 277 -161T338 -140T381 -102T398 -43Q398 -5 375 14T299 33H144Q131 30 117 24T92 6T74 -22T66 -61Q66 -116 102 -141T210 -167ZM214 211Q264 211 291 241T319
341Q319 419 292 456T214 494Q164 494 137 461T109 359Q109 281 136 246T214 211Z" />
<glyph unicode="h" glyph-name="h" horiz-adv-x="562" d="M23 16L56 25Q78 31 83 40T89 78V655Q89 668 88 676T82 690T71 699T51 709L18 725V741L161 755L167 749Q166 733 165 715Q164 699 164 677T163 630V544Q163 528 163 514T162 487Q161 473 161 460H164Q182
472 204 483T251 502T299 516T346 521Q422 521 450 488T479 388V78Q479 50 484 41T512 25L546 16V0H336V16L370 25Q392 31 398 40T405 78V371Q405 427 386 448T318 470Q267 470 228 459T163 438V78Q163 49 169 40T198 25L233 16V0H23V16Z" />
<glyph unicode="i" glyph-name="i" horiz-adv-x="245" d="M23 16L56 25Q78 31 83 40T89 78V418Q89 431 88 439T82 453T71 462T51 472L24 485V499L161 519L167 516Q166 504 165 488Q164 474 164 455T163 410V78Q163 49 169 40T196 25L229 16V0H23V16ZM123 604Q102
604 87 620T72 655Q72 675 87 690T123 706Q143 706 158 691T173 655Q173 636 158 620T123 604Z" />
<glyph unicode="j" glyph-name="j" horiz-adv-x="239" d="M1 -201Q-37 -201 -53 -184T-70 -145Q-70 -130 -59 -119T-25 -107Q-5 -107 4 -115T16 -143Q19 -163 23 -168T40 -173Q62 -173 75 -155T89 -99V418Q89 431 88 439T82 453T71 462T51 472L24 485V499L161
519L167 516Q166 504 165 488Q164 474 164 455T163 411V0Q163 -58 150 -96T115 -158T63 -191T1 -201ZM120 604Q100 604 85 620T70 655Q70 675 85 690T120 706Q141 706 155 691T170 655Q170 636 156 620T120 604Z" />
<glyph unicode="k" glyph-name="k" horiz-adv-x="497" d="M391 0Q360 31 334 60T283 120T233 183T181 255V259L295 391Q327 427 336 443T345 467Q345 477 326 484L309 490V505H469V489L443 480Q428 475 418 470T398 458T378 441T354 416L241 291Q285 228 339 163T445
43Q454 34 460 30T478 22L500 16V0H391ZM23 16L56 25Q78 31 83 40T89 78V657Q89 670 88 677T82 690T71 699T51 709L18 725V741L161 755L167 749Q166 733 165 715Q164 699 164 677T163 630V78Q163 49 169 40T198 25L234 16V0H23V16Z" />
<glyph unicode="l" glyph-name="l" horiz-adv-x="245" d="M23 16L56 25Q78 31 83 40T89 78V657Q89 670 88 677T82 690T71 699T51 709L18 725V741L160 755L167 749Q166 733 165 715Q164 699 164 677T163 630V78Q163 49 169 40T196 25L229 16V0H23V16Z" />
<glyph unicode="m" glyph-name="m" horiz-adv-x="844" d="M23 16L56 25Q78 31 83 40T89 78V418Q89 431 88 439T82 453T71 462T51 472L24 485V499L157 519L164 516L162 461H165Q201 484 247 502T336 521Q391 521 416 504T453 458H456Q497 481 542 501T642 521Q709
521 735 488T761 387V78Q761 50 766 41T794 25L828 16V0H618V16L652 25Q673 31 680 39T687 78V370Q687 423 672 446T611 470Q568 470 527 458T460 435Q461 427 461 418T462 389V78Q462 50 467 41T495 25L529 16V0H319V16L353 25Q374 31 381 39T388 78V370Q388 423
373 446T311 470Q292 470 271 467T231 459T194 449T163 438V78Q163 49 169 40T198 25L233 16V0H23V16Z" />
<glyph unicode="n" glyph-name="n" horiz-adv-x="562" d="M479 78Q479 50 484 41T512 25L546 16V0H336V16L370 25Q392 31 398 40T405 78V371Q405 427 386 448T318 470Q267 470 228 459T163 438V78Q163 49 169 40T198 25L233 16V0H23V16L56 25Q78 31 83 40T89 78V418Q89
431 88 439T82 453T71 462T51 472L24 485V499L157 519L164 516L162 461H165Q183 472 205 483T251 502T299 516T346 521Q422 521 450 488T479 388V78Z" />
<glyph unicode="o" glyph-name="o" horiz-adv-x="537" d="M268 -13Q217 -13 173 4T98 55T48 138T30 254Q30 317 49 366T102 450T178 503T268 522Q320 522 363 506T439 457T489 375T507 260Q507 197 487 147T434 61T358 6T268 -13ZM273 16Q348 16 385 76T422 245Q422
372 384 432T266 493Q115 493 115 266Q115 16 273 16Z" />
<glyph unicode="p" glyph-name="p" horiz-adv-x="565" d="M23 -183L56 -174Q78 -168 83 -159T89 -121V418Q89 431 88 439T82 453T71 462T51 472L24 485V499L157 519L164 516L162 466H166Q197 489 237 505T324 521Q363 521 400 510T466 470T512 394T530 276Q530
207 511 154T455 64T368 8T252 -12Q231 -12 208 -9T162 2V-18Q162 -27 162 -39T163 -63V-121Q163 -150 170 -160T201 -174L246 -183V-199H23V-183ZM273 19Q317 19 350 33T406 77T440 154T451 269Q451 366 409 419T293 473Q245 473 214 461T163 438V57Q186 38 210
29T273 19Z" />
<glyph unicode="q" glyph-name="q" horiz-adv-x="548" d="M319 -183L364 -174Q388 -170 395 -160T402 -121V-19V26Q402 37 403 45H400Q370 22 327 5T236 -12Q200 -12 164 0T100 40T53 117T35 238Q35 309 58 362T119 450T206 503T306 521Q351 521 380 512T435 488H438L465
524L476 521V-121Q476 -149 481 -158T509 -174L542 -183V-199H319V-183ZM276 36Q323 36 353 48T402 73V444Q384 461 360 475T298 489Q255 489 221 476T163 435T127 362T114 253Q114 141 158 89T276 36Z" />
<glyph unicode="r" glyph-name="r" horiz-adv-x="377" d="M23 16L56 25Q78 31 83 40T89 78V418Q89 431 88 439T82 453T71 462T51 472L24 485V499L157 519L164 514L162 457H165Q193 483 232 502T305 522Q365 522 365 469Q365 444 352 432T319 419Q295 419 285 429T272
453Q268 464 266 468T256 472Q248 472 236 468T210 457T183 442T163 424V78Q163 54 167 43T191 27L243 16V0H23V16Z" />
<glyph unicode="s" glyph-name="s" horiz-adv-x="394" d="M183 -12Q137 -12 99 -5T31 13L29 158H49Q57 136 64 116T81 79Q96 51 119 34T183 17Q231 17 262 42T293 112Q293 154 265 179T179 229Q148 242 122 256T77 288T48 329T37 385Q37 418 50 443T86 486T139
513T205 522Q245 522 275 516T332 500L335 375H318Q307 399 298 419T278 455Q265 473 247 483T198 493Q146 493 122 469T97 409Q97 369 126 344T216 294Q247 282 273 269T318 238T349 199T360 148Q360 114 348 85T312 35T256 1T183 -12Z" />
<glyph unicode="t" glyph-name="t" horiz-adv-x="304" d="M180 -12Q161 -12 143 -8T110 8T86 38T77 83V469H6V485Q54 499 85 530T137 619H151V505H290L286 469H151V92Q151 61 166 47T217 32Q240 32 260 37T297 47V28Q291 24 281 17T255 4T221 -7T180 -12Z" />
<glyph unicode="u" glyph-name="u" horiz-adv-x="553" d="M214 -12Q154 -12 119 21T84 118V422Q84 449 77 459T47 478L19 489V504L149 519L158 511V135Q158 89 179 64T247 39Q289 39 330 51T400 76V423Q400 450 394 460T362 479L334 489V504L464 519L474 511V98Q474
83 475 73T481 56T493 44T512 34L540 21V8L406 -10L400 -6L402 53H398Q361 27 313 8T214 -12Z" />
<glyph unicode="v" glyph-name="v" horiz-adv-x="484" d="M68 418Q62 436 57 446T47 463T36 473T22 479L-8 489V505H192V489L165 482Q148 477 144 470T140 452Q140 441 143 429T152 402L261 105H265L375 402Q387 442 386 459Q385 469 378 473T357 482L331 489V505H492V489L466
482Q455 479 449 474T437 461T427 440T415 408L261 0H227L68 418Z" />
<glyph unicode="w" glyph-name="w" horiz-adv-x="726" d="M67 418Q55 452 47 463T22 479L-8 489V505H193V489L166 482Q149 477 145 470T141 452Q141 441 144 429T153 402L251 106H254L351 385L339 418Q330 446 320 460T293 481L267 489V505H449V489L422 482Q408
478 406 471T403 453Q403 444 406 432T416 402L518 106H522L619 402Q631 442 630 459Q629 469 622 473T601 482L575 489V505H734V489L708 482Q697 479 691 474T679 461T670 440T658 408L516 0H485L368 337H366L249 0H215L67 418Z" />
<glyph unicode="x" glyph-name="x" d="M9 16L39 25Q53 29 63 34T82 48T100 68T120 97L220 245L110 409Q95 431 86 445T69 467T53 478T34 485L17 489V505H213V489L189 484Q167 479 170 461T187 419L268 291H271L342 416Q356 440 359 458T340 482L310 489V505H479V489L448
481Q436 478 428 473T411 459T395 438T375 407L289 271L411 96Q425 75 435 62T455 40T472 27T492 19L504 16V0H304V16L331 21Q353 25 353 40Q353 51 345 64T328 92L239 225H236L163 105Q149 82 142 67T134 42Q134 33 141 29T166 20L183 16V0H9V16Z" />
<glyph unicode="y" glyph-name="y" horiz-adv-x="478" d="M78 -205Q38 -205 22 -188T5 -149Q5 -126 18 -115T53 -103Q76 -103 85 -113T100 -138Q105 -150 108 -153T118 -157Q138 -157 157 -132T194 -67L222 1L67 418Q60 436 55 447T45 464T34 474T18 481L-8 489V505H187V489L161
482Q145 477 140 471T135 453Q135 442 139 430T148 403L260 101H264L370 402Q383 441 382 460Q381 469 374 473T353 482L327 489V505H486V489L456 481Q447 479 442 475T432 463T422 441T409 408L245 -34Q233 -66 221 -96T190 -151T145 -190T78 -205Z" />
<glyph unicode="z" glyph-name="z" horiz-adv-x="441" d="M22 18L328 475V479H222Q190 479 172 478T142 472T123 458T107 435Q99 422 90 405T68 356H51L56 505H424V490L116 30V26H206Q248 26 273 28T314 36T339 52T357 78Q370 99 378 119T395 162H413L404 0H22V18Z" />
<glyph unicode="{" glyph-name="braceleft" horiz-adv-x="299" d="M289 -130Q192 -131 145 -108T98 -32Q98 -12 106 23T123 97T141 168T149 216Q149 232 144 245T124 268T85 284T24 292V316Q96 319 122 341T149 395Q149 409 141 441T124 509T106 580T98 635Q98
688 145 711T289 733V718Q254 712 232 707T196 694T178 673T172 636Q172 610 178 580T190 519T203 461T209 411Q209 370 176 344T94 306V302Q154 292 181 267T209 200Q209 177 203 148T191 88T178 25T172 -33Q172 -56 177 -69T196 -91T231 -104T289 -115V-130V-130Z"
/>
<glyph unicode="|" glyph-name="bar" horiz-adv-x="222" d="M92 734H130V-130H92V734Z" />
<glyph unicode="}" glyph-name="braceright" horiz-adv-x="299" d="M10 -115Q44 -109 67 -105T103 -92T121 -70T127 -33Q127 -7 121 24T109 87T96 148T90 200Q90 241 117 266T205 302V306Q156 318 123 344T90 411Q90 433 96 461T108 519T121 579T127 636Q127 659
122 672T103 694T67 707T10 718V733Q107 734 154 711T201 635Q201 615 193 581T176 510T158 441T150 395Q150 363 176 341T275 316V292Q238 290 214 284T176 268T156 245T150 216Q150 201 158 168T175 97T193 24T201 -32Q201 -85 154 -108T10 -130V-115Z" />
<glyph unicode="~" glyph-name="asciitilde" horiz-adv-x="358" d="M29 235Q38 255 46 273T65 304T89 326T120 334Q135 334 152 331T188 324T223 317T255 313Q275 313 287 324T311 355L327 348Q318 328 309 311T290 280T267 258T238 250Q222 250 204 253T168 260T133
267T100 271Q80 271 69 260T46 229L29 235Z" />
<glyph unicode="&#xa0;" glyph-name="uni00A0" horiz-adv-x="207" />
<glyph unicode="&#xa1;" glyph-name="exclamdown" horiz-adv-x="246" d="M127 622Q149 622 164 607T179 571Q179 549 164 535T127 521Q107 521 91 535T75 571Q75 592 91 607T127 622ZM177 -26Q179 -55 163 -69T127 -84Q107 -84 91 -70T77 -26L115 434H139L177 -26Z" />
<glyph unicode="&#xa2;" glyph-name="cent" horiz-adv-x="455" d="M238 -11Q187 -7 149 13T84 67T44 145T31 242Q31 310 49 358T97 439T164 490T238 515V596H275V520Q280 521 284 521T293 521Q368 521 399 498T431 441Q431 421 419 408T383 394Q359 394 350 405T337
436Q334 454 331 465T320 482T303 490T276 492H275V35H280Q332 35 369 50T430 79V50Q422 42 408 32T374 13T330 -3T275 -11V-104H238V-11ZM114 274Q114 171 142 112T238 39V488Q184 475 149 423T114 274Z" />
<glyph unicode="&#xa3;" glyph-name="sterling" horiz-adv-x="494" d="M53 371H118Q111 406 106 439T100 500Q100 550 118 588T168 652T241 691T328 705Q353 705 376 701T418 687T446 663T457 627Q457 609 447 597T416 585Q396 585 385 595T366 628Q361 644 357
653T347 667T331 673T308 675Q284 675 261 667T219 641T189 592T177 516Q177 487 180 449T187 371H364V340H190Q192 311 194 285T196 238Q196 208 189 185T168 142T136 108T96 78V73H357Q373 73 383 75T402 84T420 108T445 151H462L432 0H18V56Q77 85 109 124T141
223Q141 248 136 278T125 340H53V371Z" />
<glyph unicode="&#xa5;" glyph-name="yen" horiz-adv-x="541" d="M314 320H492V290H311V220H492V190H311V81Q311 64 312 54T316 39T327 30T348 25L391 17V0H153V17L196 25Q209 27 216 30T227 38T232 54T233 81V190H53V220H233V290H53V320H227L85 579Q69 608 60
625T44 651T31 664T15 670L-8 676V693H212V676L177 668Q163 665 155 661T144 648T145 627T160 593L289 345H293L407 586Q418 609 421 623T422 646T410 659T385 668L356 676V693H535V676L512 669Q503 666 496 661T480 645T462 615T435 564L314 320Z" />
<glyph unicode="&#xa6;" glyph-name="brokenbar" horiz-adv-x="222" d="M92 253H130V-130H92V253ZM92 734H130V329H92V734Z" />
<glyph unicode="&#xa7;" glyph-name="section" horiz-adv-x="511" d="M226 -204Q159 -204 122 -182T84 -124Q84 -105 96 -93T129 -81Q170 -81 175 -123Q179 -156 192 -166T235 -176Q288 -176 312 -147T337 -74Q337 -48 329 -27T302 17T254 64T185 125Q146 158
116 185T66 238T34 288T23 343Q23 386 52 420T125 478Q118 493 114 508T110 546Q110 580 123 608T160 658T218 690T297 702Q355 702 391 682T428 626Q428 611 417 598T383 584Q360 584 349 595T333 632Q329 655 319 664T279 674Q255 674 237 666T206 645T188 613T182
576Q182 548 189 526T214 482T259 434T328 373Q374 334 404 306T453 255T480 209T488 160Q488 115 463 83T393 21Q398 9 403 -9T408 -44Q408 -113 362 -158T226 -204ZM381 43Q423 72 423 130Q423 154 415 173T388 211T343 254T279 310Q232 349 195 384T135 456Q89
428 89 368Q89 344 97 325T123 287T168 244T235 187Q281 149 319 114T381 43Z" />
<glyph unicode="&#xa8;" glyph-name="dieresis" horiz-adv-x="482" d="M155 601Q134 601 121 615T107 649Q107 669 120 683T155 697Q176 697 189 683T203 649Q203 630 190 616T155 601ZM327 601Q306 601 293 615T279 649Q279 669 292 683T327 697Q348 697 361
683T375 649Q375 630 362 616T327 601Z" />
<glyph unicode="&#xa9;" glyph-name="copyright" horiz-adv-x="788" d="M393 -14Q318 -14 253 14T141 91T66 205T39 344Q39 418 66 483T140 596T253 672T393 700Q468 700 533 672T646 596T721 483T749 344Q749 270 722 205T646 91T533 14T393 -14ZM393 17Q462
17 520 43T621 113T686 216T710 344Q710 411 687 470T621 574T521 644T393 670Q323 670 265 645T165 575T100 471T76 344Q76 276 99 217T165 113T265 43T393 17ZM389 136Q352 136 320 147T263 184T224 248T209 341Q209 399 225 440T270 506T334 542T408 554Q444
554 472 550T519 539L524 422H506Q498 443 489 464T470 499Q462 513 448 520T402 528Q343 528 312 487T280 353Q280 253 309 208T394 162Q413 162 426 164T448 171T463 182T474 197Q486 216 493 232T509 272H526L520 162Q500 152 466 144T389 136Z" />
<glyph unicode="&#xaa;" glyph-name="ordfeminine" horiz-adv-x="386" d="M129 277Q76 277 45 303T13 374Q13 400 22 418T47 449T82 468T120 480L234 509V585Q234 605 232 621T222 650T198 669T155 676Q127 676 121 666T112 638Q110 621 104 607T72 593Q51 593
43 603T34 627Q34 642 44 655T73 678T115 694T166 700Q233 700 268 672T303 589V356Q303 341 306 332T320 317Q332 312 361 310V296Q350 289 334 284T297 278Q263 278 250 291T236 324H231Q213 302 187 290T129 277ZM149 313Q179 313 200 324T234 355V475L179 468Q133
463 108 443T83 382Q83 348 101 331T149 313Z" />
<glyph unicode="&#xab;" glyph-name="guillemotleft" horiz-adv-x="416" d="M48 242V263L212 460H243L127 253L243 45H212L48 242ZM200 242V263L365 460H396L279 253L396 45H365L200 242Z" />
<glyph unicode="&#xae;" glyph-name="registered" horiz-adv-x="394" d="M114 439L128 442Q133 444 134 446T136 457V584Q136 593 135 595T128 600L115 603V614H197Q234 614 250 602T267 565Q267 548 257 536T229 518V516Q238 498 248 481T269 449Q274 442 282
441L292 439V428H243Q228 448 217 467T197 506H172V457Q172 449 173 447T180 442L194 439V428H114V439ZM197 336Q159 336 127 350T71 389T34 447T20 518Q20 556 33 589T70 647T126 686T197 700Q234 700 266 686T323 647T361 589T375 518Q375 480 361 447T323 390T267
351T197 336ZM197 358Q230 358 258 370T306 405T338 456T349 518Q349 551 338 580T307 631T258 665T197 678Q163 678 136 666T88 632T57 581T46 518Q46 485 57 456T88 405T135 371T197 358ZM192 520Q214 520 222 531T231 562Q231 599 194 599H172V520H192Z" />
<glyph unicode="&#xaf;" glyph-name="macron" horiz-adv-x="492" d="M135 644H357V600H135V644Z" />
<glyph unicode="&#xb0;" glyph-name="degree" horiz-adv-x="296" d="M148 461Q122 461 100 470T63 496T38 535T29 582Q29 606 38 627T62 665T100 691T148 701Q174 701 196 692T233 666T258 628T267 582Q267 557 258 535T234 497T196 471T148 461ZM148 488Q186
488 209 515T233 582Q233 620 210 647T148 674Q110 674 87 647T63 582Q63 543 86 516T148 488Z" />
<glyph unicode="&#xb1;" glyph-name="plusminus" horiz-adv-x="437" d="M33 42H404V0H33V42ZM194 317H33V359H194V535H243V359H404V317H243V141H194V317Z" />
<glyph unicode="&#xb2;" glyph-name="twosuperior" horiz-adv-x="265" d="M13 378Q43 404 70 428T115 473Q134 495 147 512T167 544T178 575T181 607Q181 679 123 679Q106 679 97 675T86 654Q82 611 52 611Q38 611 30 620T22 642Q22 662 48 681T123 700Q147 700
168 693T206 673T233 640T243 595Q243 568 228 543T187 492T130 443T66 395V392H182Q202 392 210 402T232 442H245L236 347H13V378Z" />
<glyph unicode="&#xb3;" glyph-name="threesuperior" horiz-adv-x="260" d="M104 342Q67 342 38 356T9 396Q9 409 16 417T37 426Q49 426 56 421T68 398Q71 387 73 380T80 369T92 363T113 361Q144 361 161 384T179 442Q179 477 164 496T104 515H86V536H106Q141
536 156 555T172 610Q172 648 157 663T117 679Q99 679 91 674T81 656Q78 637 72 627T48 616Q34 616 28 625T21 644Q21 670 50 685T120 700Q171 700 198 676T226 617Q226 588 207 563T145 528V526Q187 521 212 501T238 442Q238 422 231 404T207 373T165 351T104
342Z" />
<glyph unicode="&#xb4;" glyph-name="acute" horiz-adv-x="500" d="M139 574L132 588L288 702Q298 709 306 711T321 714Q336 714 346 703T356 677Q356 666 350 655T323 635L139 574Z" />
<glyph unicode="&#xb6;" glyph-name="paragraph" horiz-adv-x="511" d="M249 351Q242 350 237 350T221 349Q118 349 69 396T20 526Q20 605 72 649T223 693H484V676L445 669Q433 667 426 664T414 655T409 639T407 612V-100H367V664H289V-100H249V351Z" />
<glyph unicode="&#xb7;" glyph-name="periodcentered" horiz-adv-x="185" d="M92 287Q71 287 56 302T40 338Q40 360 55 374T92 389Q113 389 129 375T145 338Q145 317 129 302T92 287Z" />
<glyph unicode="&#xb8;" glyph-name="cedilla" horiz-adv-x="491" d="M165 -185Q213 -174 233 -159T254 -125Q254 -110 240 -100T199 -88L194 -81L233 0H265L234 -52Q266 -55 289 -69T312 -114Q312 -149 277 -171T165 -200V-185Z" />
<glyph unicode="&#xb9;" glyph-name="onesuperior" horiz-adv-x="192" d="M19 362L46 367Q60 370 64 376T68 400V630H18V645Q56 652 77 664T115 697L126 694V400Q126 382 130 376T148 367L173 362V347H19V362Z" />
<glyph unicode="&#xba;" glyph-name="ordmasculine" horiz-adv-x="423" d="M212 279Q171 279 136 292T76 331T37 397T23 488Q23 538 38 577T80 644T140 685T212 700Q253 700 287 687T347 649T386 584T400 494Q400 444 385 405T344 337T284 294T212 279ZM215 307Q275
307 301 352T327 483Q327 582 299 628T208 674Q150 674 124 632T97 499Q97 400 125 354T215 307Z" />
<glyph unicode="&#xbb;" glyph-name="guillemotright" horiz-adv-x="418" d="M137 252L20 460H51L215 263V242L51 45H20L137 252ZM291 252L174 460H205L370 263V242L205 45H174L291 252Z" />
<glyph unicode="&#xbc;" glyph-name="onequarter" horiz-adv-x="570" d="M19 362L46 367Q60 370 64 376T68 400V630H18V645Q56 652 77 664T115 697L126 694V400Q126 382 130 376T148 367L173 362V347H19V362ZM505 53Q505 35 509 29T527 20L552 15V0H400V15L427
20Q441 23 445 29T449 53V99H301V120L477 346H505V127H552L549 99H505V53ZM449 127V277H448L331 128V127H449ZM513 714H553L58 -50H17L513 714Z" />
<glyph unicode="&#xbd;" glyph-name="onehalf" horiz-adv-x="614" d="M19 362L46 367Q60 370 64 376T68 400V630H18V645Q56 652 77 664T115 697L126 694V400Q126 382 130 376T148 367L173 362V347H19V362ZM362 31Q392 57 419 81T464 126Q483 148 496 165T516 197T527
228T530 260Q530 332 472 332Q455 332 446 328T435 307Q431 264 401 264Q387 264 379 273T371 295Q371 315 397 334T472 353Q496 353 517 346T555 326T582 293T592 248Q592 221 577 196T536 145T479 96T415 48V45H531Q551 45 559 55T581 95H594L585 0H362V31ZM509
714H549L54 -50H13L509 714Z" />
<glyph unicode="&#xbe;" glyph-name="threequarters" horiz-adv-x="601" d="M120 342Q83 342 54 356T25 396Q25 409 32 417T53 426Q65 426 72 421T84 398Q87 387 89 380T96 369T108 363T129 361Q160 361 177 384T195 442Q195 477 180 496T120 515H102V536H122Q157
536 172 555T188 610Q188 648 173 663T133 679Q115 679 107 674T97 656Q94 637 88 627T64 616Q50 616 44 625T37 644Q37 670 66 685T136 700Q187 700 214 676T242 617Q242 588 223 563T161 528V526Q203 521 228 501T254 442Q254 422 247 404T223 373T181 351T120
342ZM536 53Q536 35 540 29T558 20L583 15V0H431V15L458 20Q472 23 476 29T480 53V99H332V120L508 346H536V127H583L580 99H536V53ZM480 127V277H479L362 128V127H480ZM544 714H584L89 -50H48L544 714Z" />
<glyph unicode="&#xbf;" glyph-name="questiondown" horiz-adv-x="409" d="M266 251Q237 240 208 225T154 188T115 137T99 71Q99 36 110 12T139 -27T183 -48T236 -55Q250 -55 262 -50T278 -18Q283 10 293 21T326 33Q349 33 359 21T370 -10Q370 -28 359 -42T329
-67T286 -82T236 -87Q196 -87 161 -75T99 -40T58 20T42 104Q42 146 57 178T97 236T155 281T227 315V432H266V251ZM249 622Q270 622 285 607T301 571Q301 549 286 535T249 521Q229 521 213 535T196 571Q196 592 212 607T249 622Z" />
<glyph unicode="&#xc0;" glyph-name="Agrave" horiz-adv-x="625" d="M222 779Q204 784 197 794T190 818Q190 833 200 844T225 856Q239 856 255 846L422 743L416 729L222 779ZM-2 17L29 27Q38 30 44 33T57 47T72 75T91 125L299 693H339L538 111Q547 85 554 69T569
44T585 30T604 23L628 17V0H406V17L428 23Q445 27 454 32T465 48T465 74T452 118L406 253H178L132 118Q123 91 121 75T122 49T135 34T159 25L188 17V0H-3L-2 17ZM189 284H396L296 582H291L189 284Z" />
<glyph unicode="&#xc1;" glyph-name="Aacute" horiz-adv-x="625" d="M228 729L222 743L389 846Q405 856 419 856Q434 856 444 845T454 818Q454 804 447 794T422 779L228 729ZM-2 17L29 27Q38 30 44 33T57 47T72 75T91 125L299 693H339L538 111Q547 85 554 69T569
44T585 30T604 23L628 17V0H406V17L428 23Q445 27 454 32T465 48T465 74T452 118L406 253H178L132 118Q123 91 121 75T122 49T135 34T159 25L188 17V0H-3L-2 17ZM189 284H396L296 582H291L189 284Z" />
<glyph unicode="&#xc2;" glyph-name="Acircumflex" horiz-adv-x="625" d="M183 738L303 856H332L453 738L447 726L316 787L189 726L183 738ZM-2 17L29 27Q38 30 44 33T57 47T72 75T91 125L299 693H339L538 111Q547 85 554 69T569 44T585 30T604 23L628 17V0H406V17L428
23Q445 27 454 32T465 48T465 74T452 118L406 253H178L132 118Q123 91 121 75T122 49T135 34T159 25L188 17V0H-3L-2 17ZM189 284H396L296 582H291L189 284Z" />
<glyph unicode="&#xc3;" glyph-name="Atilde" horiz-adv-x="625" d="M169 732Q178 752 186 769T205 800T227 821T254 829Q270 829 291 825T333 816T375 806T411 802Q431 802 443 814T467 846L483 839Q474 819 465 802T446 771T424 751T397 743Q380 743 360 747T318
756T276 766T240 770Q220 770 209 758T186 726L169 732ZM-2 17L29 27Q38 30 44 33T57 47T72 75T91 125L299 693H339L538 111Q547 85 554 69T569 44T585 30T604 23L628 17V0H406V17L428 23Q445 27 454 32T465 48T465 74T452 118L406 253H178L132 118Q123 91 121
75T122 49T135 34T159 25L188 17V0H-3L-2 17ZM189 284H396L296 582H291L189 284Z" />
<glyph unicode="&#xc4;" glyph-name="Adieresis" horiz-adv-x="625" d="M226 739Q205 739 192 753T178 787Q178 807 191 821T226 835Q247 835 260 821T274 787Q274 768 261 754T226 739ZM410 739Q389 739 376 753T362 787Q362 807 375 821T410 835Q431 835 444
821T458 787Q458 768 445 754T410 739ZM-2 17L29 27Q38 30 44 33T57 47T72 75T91 125L299 693H339L538 111Q547 85 554 69T569 44T585 30T604 23L628 17V0H406V17L428 23Q445 27 454 32T465 48T465 74T452 118L406 253H178L132 118Q123 91 121 75T122 49T135 34T159
25L188 17V0H-3L-2 17ZM189 284H396L296 582H291L189 284Z" />
<glyph unicode="&#xc5;" glyph-name="Aring" horiz-adv-x="625" d="M318 725Q278 725 256 749T233 807Q233 843 257 866T318 890Q357 890 380 866T404 807Q404 772 380 749T318 725ZM318 748Q343 748 358 765T374 808Q374 835 359 851T318 867Q293 867 278 851T263
808Q263 782 278 765T318 748ZM-2 17L29 27Q38 30 44 33T57 47T72 75T91 125L299 693H339L538 111Q547 85 554 69T569 44T585 30T604 23L628 17V0H406V17L428 23Q445 27 454 32T465 48T465 74T452 118L406 253H178L132 118Q123 91 121 75T122 49T135 34T159 25L188
17V0H-3L-2 17ZM189 284H396L296 582H291L189 284Z" />
<glyph unicode="&#xc6;" glyph-name="AE" horiz-adv-x="878" d="M348 17L387 25Q398 27 405 30T416 38T423 54T425 81V240H215L151 120Q125 72 126 52T159 24L187 17V0H-7V17L16 24Q32 29 43 34T64 50T86 79T115 128L413 659Q408 662 402 664T387 668L343 676V693H814L827
526H806Q791 561 781 584T763 619Q753 634 745 643T722 657T684 663T619 665Q582 665 551 663T503 656V375H549Q578 375 599 376T636 380T661 391T676 409Q684 425 688 442T697 484H718V237H697Q692 263 688 277T676 310Q671 322 664 329T643 339T606 344T549 345H503V125Q503
89 506 70T521 41T560 30T634 28Q670 28 692 29T728 35T752 47T771 68Q776 75 783 89T797 121T812 159T826 198H849L834 0H348V17ZM233 272H425V621H422L233 272Z" />
<glyph unicode="&#xc7;" glyph-name="Ccedilla" horiz-adv-x="599" d="M212 -185Q260 -174 280 -159T301 -125Q301 -110 287 -100T246 -88L241 -81L276 -8Q224 -1 180 22T104 88T53 192T35 341Q35 443 63 512T137 624T242 686T365 705Q422 705 467 697T544 679L556
492H536Q525 524 515 551T488 603Q478 619 468 632T442 654T406 667T354 672Q302 672 259 656T184 603T136 507T118 360Q118 271 132 207T173 101T240 41T335 21Q368 21 392 26T435 42T468 65T493 95Q508 117 518 147T540 212H559L547 28Q511 12 455 0T330 -12Q323
-12 317 -12T305 -11L281 -52Q313 -55 336 -69T359 -114Q359 -149 324 -171T212 -200V-185Z" />
<glyph unicode="&#xc8;" glyph-name="Egrave" horiz-adv-x="566" d="M204 779Q186 784 179 794T172 818Q172 833 182 844T207 856Q221 856 237 846L404 743L398 729L204 779ZM27 17L66 25Q77 27 84 30T95 38T102 54T104 81V612Q104 629 103 639T97 654T85 663T66
668L27 676V693H502L515 526H494Q479 561 469 585T451 620Q441 635 433 644T410 657T372 663T307 665Q270 665 236 663T182 656V375H237Q266 375 287 376T324 380T349 391T364 409Q372 425 376 442T385 484H406V237H385Q380 263 376 277T364 310Q359 322 352 329T331
339T294 344T237 345H182V125Q182 89 184 70T200 41T242 30T322 28Q358 28 380 29T416 35T440 47T459 68Q464 75 471 89T485 121T500 159T514 198H537L522 0H27V17Z" />
<glyph unicode="&#xc9;" glyph-name="Eacute" horiz-adv-x="566" d="M210 729L204 743L371 846Q387 856 401 856Q416 856 426 845T436 818Q436 804 429 794T404 779L210 729ZM27 17L66 25Q77 27 84 30T95 38T102 54T104 81V612Q104 629 103 639T97 654T85 663T66
668L27 676V693H502L515 526H494Q479 561 469 585T451 620Q441 635 433 644T410 657T372 663T307 665Q270 665 236 663T182 656V375H237Q266 375 287 376T324 380T349 391T364 409Q372 425 376 442T385 484H406V237H385Q380 263 376 277T364 310Q359 322 352 329T331
339T294 344T237 345H182V125Q182 89 184 70T200 41T242 30T322 28Q358 28 380 29T416 35T440 47T459 68Q464 75 471 89T485 121T500 159T514 198H537L522 0H27V17Z" />
<glyph unicode="&#xca;" glyph-name="Ecircumflex" horiz-adv-x="566" d="M165 738L285 856H314L435 738L429 726L298 787L171 726L165 738ZM27 17L66 25Q77 27 84 30T95 38T102 54T104 81V612Q104 629 103 639T97 654T85 663T66 668L27 676V693H502L515 526H494Q479
561 469 585T451 620Q441 635 433 644T410 657T372 663T307 665Q270 665 236 663T182 656V375H237Q266 375 287 376T324 380T349 391T364 409Q372 425 376 442T385 484H406V237H385Q380 263 376 277T364 310Q359 322 352 329T331 339T294 344T237 345H182V125Q182
89 184 70T200 41T242 30T322 28Q358 28 380 29T416 35T440 47T459 68Q464 75 471 89T485 121T500 159T514 198H537L522 0H27V17Z" />
<glyph unicode="&#xcb;" glyph-name="Edieresis" horiz-adv-x="566" d="M208 739Q187 739 174 753T160 787Q160 807 173 821T208 835Q229 835 242 821T256 787Q256 768 243 754T208 739ZM392 739Q371 739 358 753T344 787Q344 807 357 821T392 835Q413 835 426
821T440 787Q440 768 427 754T392 739ZM27 17L66 25Q77 27 84 30T95 38T102 54T104 81V612Q104 629 103 639T97 654T85 663T66 668L27 676V693H502L515 526H494Q479 561 469 585T451 620Q441 635 433 644T410 657T372 663T307 665Q270 665 236 663T182 656V375H237Q266
375 287 376T324 380T349 391T364 409Q372 425 376 442T385 484H406V237H385Q380 263 376 277T364 310Q359 322 352 329T331 339T294 344T237 345H182V125Q182 89 184 70T200 41T242 30T322 28Q358 28 380 29T416 35T440 47T459 68Q464 75 471 89T485 121T500 159T514
198H537L522 0H27V17Z" />
<glyph unicode="&#xcc;" glyph-name="Igrave" horiz-adv-x="292" d="M50 779Q32 784 25 794T18 818Q18 833 28 844T53 856Q67 856 83 846L250 743L244 729L50 779ZM107 612Q107 629 106 639T101 654T90 663T70 668L27 676V693H265V676L222 668Q209 666 202 663T191
655T186 639T185 612V81Q185 64 186 54T190 39T201 30T222 25L265 17V0H27V17L70 25Q83 27 90 30T101 38T106 54T107 81V612Z" />
<glyph unicode="&#xcd;" glyph-name="Iacute" horiz-adv-x="292" d="M56 729L50 743L217 846Q233 856 247 856Q262 856 272 845T282 818Q282 804 275 794T250 779L56 729ZM107 612Q107 629 106 639T101 654T90 663T70 668L27 676V693H265V676L222 668Q209 666
202 663T191 655T186 639T185 612V81Q185 64 186 54T190 39T201 30T222 25L265 17V0H27V17L70 25Q83 27 90 30T101 38T106 54T107 81V612Z" />
<glyph unicode="&#xce;" glyph-name="Icircumflex" horiz-adv-x="292" d="M11 738L131 856H160L281 738L275 726L144 787L17 726L11 738ZM107 612Q107 629 106 639T101 654T90 663T70 668L27 676V693H265V676L222 668Q209 666 202 663T191 655T186 639T185 612V81Q185
64 186 54T190 39T201 30T222 25L265 17V0H27V17L70 25Q83 27 90 30T101 38T106 54T107 81V612Z" />
<glyph unicode="&#xcf;" glyph-name="Idieresis" horiz-adv-x="292" d="M54 739Q33 739 20 753T6 787Q6 807 19 821T54 835Q75 835 88 821T102 787Q102 768 89 754T54 739ZM238 739Q217 739 204 753T190 787Q190 807 203 821T238 835Q259 835 272 821T286 787Q286
768 273 754T238 739ZM107 612Q107 629 106 639T101 654T90 663T70 668L27 676V693H265V676L222 668Q209 666 202 663T191 655T186 639T185 612V81Q185 64 186 54T190 39T201 30T222 25L265 17V0H27V17L70 25Q83 27 90 30T101 38T106 54T107 81V612Z" />
<glyph unicode="&#xd0;" glyph-name="Eth" horiz-adv-x="659" d="M27 366H104V612Q104 629 103 639T97 654T85 663T66 668L27 676V693H300Q367 693 426 677T531 621T602 515T628 351Q628 262 603 196T534 87T428 22T293 0H27V17L66 25Q77 27 84 30T95 38T102 54T104
81V337H27V366ZM288 30Q365 30 415 54T494 120T535 217T547 334Q547 415 533 476T489 579T408 642T286 664Q244 664 220 662T182 655V366H380V337H182V120Q182 92 185 75T199 47T231 34T288 30Z" />
<glyph unicode="&#xd1;" glyph-name="Ntilde" horiz-adv-x="664" d="M201 732Q210 752 218 769T237 800T259 821T286 829Q302 829 323 825T365 816T407 806T443 802Q463 802 475 814T499 846L515 839Q506 819 497 802T478 771T456 751T429 743Q412 743 392 747T350
756T308 766T272 770Q252 770 241 758T218 726L201 732ZM143 97Q143 63 149 49T180 28L223 17V0H27V17L66 28Q88 34 96 48T104 97V612Q104 629 103 639T97 654T85 663T66 668L27 676V693H190L530 143H533V596Q533 629 527 645T496 666L446 676V693H649V676L610
666Q585 660 579 645T572 597V-5H533L146 618H143V97Z" />
<glyph unicode="&#xd2;" glyph-name="Ograve" horiz-adv-x="671" d="M239 779Q221 784 214 794T207 818Q207 833 217 844T242 856Q256 856 272 846L439 743L433 729L239 779ZM330 -12Q266 -12 212 10T119 77T57 186T35 337Q35 435 60 505T127 619T224 684T341
705Q405 705 459 682T552 613T614 501T636 350Q636 252 611 184T544 72T447 8T330 -12ZM335 21Q450 21 502 100T555 335Q555 403 543 464T503 571T435 645T335 672Q220 672 168 590T116 352Q116 280 130 220T172 115T240 46T335 21Z" />
<glyph unicode="&#xd3;" glyph-name="Oacute" horiz-adv-x="671" d="M245 729L239 743L406 846Q422 856 436 856Q451 856 461 845T471 818Q471 804 464 794T439 779L245 729ZM330 -12Q266 -12 212 10T119 77T57 186T35 337Q35 435 60 505T127 619T224 684T341
705Q405 705 459 682T552 613T614 501T636 350Q636 252 611 184T544 72T447 8T330 -12ZM335 21Q450 21 502 100T555 335Q555 403 543 464T503 571T435 645T335 672Q220 672 168 590T116 352Q116 280 130 220T172 115T240 46T335 21Z" />
<glyph unicode="&#xd4;" glyph-name="Ocircumflex" horiz-adv-x="671" d="M200 738L320 856H349L470 738L464 726L333 787L206 726L200 738ZM330 -12Q266 -12 212 10T119 77T57 186T35 337Q35 435 60 505T127 619T224 684T341 705Q405 705 459 682T552 613T614
501T636 350Q636 252 611 184T544 72T447 8T330 -12ZM335 21Q450 21 502 100T555 335Q555 403 543 464T503 571T435 645T335 672Q220 672 168 590T116 352Q116 280 130 220T172 115T240 46T335 21Z" />
<glyph unicode="&#xd5;" glyph-name="Otilde" horiz-adv-x="671" d="M186 732Q195 752 203 769T222 800T244 821T271 829Q287 829 308 825T350 816T392 806T428 802Q448 802 460 814T484 846L500 839Q491 819 482 802T463 771T441 751T414 743Q397 743 377 747T335
756T293 766T257 770Q237 770 226 758T203 726L186 732ZM330 -12Q266 -12 212 10T119 77T57 186T35 337Q35 435 60 505T127 619T224 684T341 705Q405 705 459 682T552 613T614 501T636 350Q636 252 611 184T544 72T447 8T330 -12ZM335 21Q450 21 502 100T555 335Q555
403 543 464T503 571T435 645T335 672Q220 672 168 590T116 352Q116 280 130 220T172 115T240 46T335 21Z" />
<glyph unicode="&#xd6;" glyph-name="Odieresis" horiz-adv-x="671" d="M243 739Q222 739 209 753T195 787Q195 807 208 821T243 835Q264 835 277 821T291 787Q291 768 278 754T243 739ZM427 739Q406 739 393 753T379 787Q379 807 392 821T427 835Q448 835 461
821T475 787Q475 768 462 754T427 739ZM330 -12Q266 -12 212 10T119 77T57 186T35 337Q35 435 60 505T127 619T224 684T341 705Q405 705 459 682T552 613T614 501T636 350Q636 252 611 184T544 72T447 8T330 -12ZM335 21Q450 21 502 100T555 335Q555 403 543 464T503
571T435 645T335 672Q220 672 168 590T116 352Q116 280 130 220T172 115T240 46T335 21Z" />
<glyph unicode="&#xd7;" glyph-name="multiply" horiz-adv-x="426" d="M42 182L180 328L40 476L75 511L214 363L354 511L386 476L246 328L384 182L352 147L213 293L77 147L42 182Z" />
<glyph unicode="&#xd8;" glyph-name="Oslash" horiz-adv-x="671" d="M330 -12Q242 -12 175 29L120 -64H80L147 49Q94 92 65 164T35 337Q35 435 60 505T127 619T224 684T341 705Q389 705 430 692T507 654L552 730H592L534 632Q582 587 609 516T636 350Q636 252
611 184T544 72T447 8T330 -12ZM116 352Q116 274 131 211T178 102L479 607Q453 637 418 654T335 672Q220 672 168 590T116 352ZM335 21Q450 21 502 100T555 335Q555 405 542 467T501 577L202 73Q228 48 260 35T335 21Z" />
<glyph unicode="&#xd9;" glyph-name="Ugrave" horiz-adv-x="676" d="M264 779Q246 784 239 794T232 818Q232 833 242 844T267 856Q281 856 297 846L464 743L458 729L264 779ZM172 222Q172 127 216 81T361 34Q458 34 500 85T543 229V601Q543 634 537 647T506 666L453
676V693H659V676L620 666Q595 659 589 646T582 601V220Q582 174 569 132T527 58T451 7T338 -12Q224 -12 159 45T94 226V612Q94 629 93 639T87 654T75 663T56 668L17 676V693H246V676L206 668Q194 665 187 663T177 655T173 639T172 612V222Z" />
<glyph unicode="&#xda;" glyph-name="Uacute" horiz-adv-x="676" d="M270 729L264 743L431 846Q447 856 461 856Q476 856 486 845T496 818Q496 804 489 794T464 779L270 729ZM172 222Q172 127 216 81T361 34Q458 34 500 85T543 229V601Q543 634 537 647T506 666L453
676V693H659V676L620 666Q595 659 589 646T582 601V220Q582 174 569 132T527 58T451 7T338 -12Q224 -12 159 45T94 226V612Q94 629 93 639T87 654T75 663T56 668L17 676V693H246V676L206 668Q194 665 187 663T177 655T173 639T172 612V222Z" />
<glyph unicode="&#xdb;" glyph-name="Ucircumflex" horiz-adv-x="676" d="M225 738L345 856H374L495 738L489 726L358 787L231 726L225 738ZM172 222Q172 127 216 81T361 34Q458 34 500 85T543 229V601Q543 634 537 647T506 666L453 676V693H659V676L620 666Q595
659 589 646T582 601V220Q582 174 569 132T527 58T451 7T338 -12Q224 -12 159 45T94 226V612Q94 629 93 639T87 654T75 663T56 668L17 676V693H246V676L206 668Q194 665 187 663T177 655T173 639T172 612V222Z" />
<glyph unicode="&#xdc;" glyph-name="Udieresis" horiz-adv-x="676" d="M268 739Q247 739 234 753T220 787Q220 807 233 821T268 835Q289 835 302 821T316 787Q316 768 303 754T268 739ZM452 739Q431 739 418 753T404 787Q404 807 417 821T452 835Q473 835 486
821T500 787Q500 768 487 754T452 739ZM172 222Q172 127 216 81T361 34Q458 34 500 85T543 229V601Q543 634 537 647T506 666L453 676V693H659V676L620 666Q595 659 589 646T582 601V220Q582 174 569 132T527 58T451 7T338 -12Q224 -12 159 45T94 226V612Q94 629
93 639T87 654T75 663T56 668L17 676V693H246V676L206 668Q194 665 187 663T177 655T173 639T172 612V222Z" />
<glyph unicode="&#xdd;" glyph-name="Yacute" horiz-adv-x="582" d="M226 729L220 743L387 846Q403 856 417 856Q432 856 442 845T452 818Q452 804 445 794T420 779L226 729ZM263 278L86 598Q74 619 67 632T53 652T40 662T23 669L-4 676V693H222V676L188 668Q174
665 166 661T155 648T155 627T170 594L319 318H322L450 586Q461 608 464 622T465 646T452 659T427 668L394 676V693H586V676L562 668Q550 664 541 659T523 644T503 614T477 564L341 288V81Q341 64 342 54T346 39T357 30T378 25L421 17V0H183V17L226 25Q239 27 246
30T257 38T262 54T263 81V278Z" />
<glyph unicode="&#xde;" glyph-name="Thorn" horiz-adv-x="537" d="M262 693V676L219 668Q206 666 199 663T188 655T183 639T182 612V552H283Q398 552 458 508T518 375Q518 328 500 291T450 228T374 188T277 174Q257 174 240 177T215 183V199Q325 194 380 230T435
364Q435 452 396 487T277 523Q245 523 220 520T182 514V81Q182 64 183 54T187 39T198 30T219 25L262 17V0H27V17L66 25Q77 27 84 30T95 38T102 54T104 81V612Q104 629 103 639T97 654T85 663T66 668L27 676V693H262Z" />
<glyph unicode="&#xdf;" glyph-name="germandbls" horiz-adv-x="564" d="M368 -6Q338 -6 315 0T276 17T252 41T243 67Q243 83 252 95T285 108Q298 108 306 104T319 92T326 76T331 58Q335 42 344 31T386 19Q428 19 452 42T476 102Q476 137 451 167T377 229Q316
268 289 296T261 362Q261 390 280 418T322 478T364 544T383 624Q383 671 357 700T280 729Q220 729 192 692T163 591V81Q163 66 163 56T167 40T176 31T193 24L220 16V0H23V16L56 25Q78 31 83 40T89 78V469H21V487L89 506V531Q89 599 109 642T160 711T227 746T293
756Q332 756 362 747T412 721T442 683T453 636Q453 600 432 567T384 503T337 446T315 398Q315 389 318 380T332 358T364 329T421 288Q484 245 512 208T540 129Q540 66 493 30T368 -6Z" />
<glyph unicode="&#xe0;" glyph-name="agrave" horiz-adv-x="467" d="M171 -13Q102 -13 63 20T23 113Q23 146 36 169T68 207T112 232T157 247L310 283V390Q310 413 308 432T295 465T264 486T209 494Q173 494 161 485T145 453Q143 443 142 433T136 415T123 402T100
397Q73 397 63 411T53 441Q53 464 71 479T116 504T171 518T223 522Q310 522 347 489T384 395V77Q384 59 390 49T405 32Q415 25 428 23T459 20V7Q448 -1 426 -6T385 -12Q350 -12 333 5T312 45H307Q289 20 251 4T171 -13ZM200 29Q241 29 269 45T310 83V244L236 236Q173
229 137 204T101 122Q101 80 126 55T200 29ZM383 635Q363 643 357 654T350 677Q350 692 360 703T385 714Q392 714 400 712T418 702L574 588L567 574L383 635Z" />
<glyph unicode="&#xe1;" glyph-name="aacute" horiz-adv-x="467" d="M171 -13Q102 -13 63 20T23 113Q23 146 36 169T68 207T112 232T157 247L310 283V390Q310 413 308 432T295 465T264 486T209 494Q173 494 161 485T145 453Q143 443 142 433T136 415T123 402T100
397Q73 397 63 411T53 441Q53 464 71 479T116 504T171 518T223 522Q310 522 347 489T384 395V77Q384 59 390 49T405 32Q415 25 428 23T459 20V7Q448 -1 426 -6T385 -12Q350 -12 333 5T312 45H307Q289 20 251 4T171 -13ZM200 29Q241 29 269 45T310 83V244L236 236Q173
229 137 204T101 122Q101 80 126 55T200 29ZM139 574L132 588L288 702Q298 709 306 711T321 714Q336 714 346 703T356 677Q356 666 350 655T323 635L139 574Z" />
<glyph unicode="&#xe2;" glyph-name="acircumflex" horiz-adv-x="467" d="M171 -13Q102 -13 63 20T23 113Q23 146 36 169T68 207T112 232T157 247L310 283V390Q310 413 308 432T295 465T264 486T209 494Q173 494 161 485T145 453Q143 443 142 433T136 415T123
402T100 397Q73 397 63 411T53 441Q53 464 71 479T116 504T171 518T223 522Q310 522 347 489T384 395V77Q384 59 390 49T405 32Q415 25 428 23T459 20V7Q448 -1 426 -6T385 -12Q350 -12 333 5T312 45H307Q289 20 251 4T171 -13ZM200 29Q241 29 269 45T310 83V244L236
236Q173 229 137 204T101 122Q101 80 126 55T200 29ZM351 586L463 715H492L605 586L597 575L476 646L359 575L351 586Z" />
<glyph unicode="&#xe3;" glyph-name="atilde" horiz-adv-x="467" d="M171 -13Q102 -13 63 20T23 113Q23 146 36 169T68 207T112 232T157 247L310 283V390Q310 413 308 432T295 465T264 486T209 494Q173 494 161 485T145 453Q143 443 142 433T136 415T123 402T100
397Q73 397 63 411T53 441Q53 464 71 479T116 504T171 518T223 522Q310 522 347 489T384 395V77Q384 59 390 49T405 32Q415 25 428 23T459 20V7Q448 -1 426 -6T385 -12Q350 -12 333 5T312 45H307Q289 20 251 4T171 -13ZM200 29Q241 29 269 45T310 83V244L236 236Q173
229 137 204T101 122Q101 80 126 55T200 29ZM331 582Q340 602 348 619T367 650T389 671T416 679Q431 679 449 675T487 666T523 656T553 652Q573 652 585 664T609 696L625 689Q616 669 607 652T588 621T566 601T539 593Q523 593 505 597T469 606T433 616T402 620Q382
620 371 608T348 576L331 582Z" />
<glyph unicode="&#xe4;" glyph-name="adieresis" horiz-adv-x="467" d="M171 -13Q102 -13 63 20T23 113Q23 146 36 169T68 207T112 232T157 247L310 283V390Q310 413 308 432T295 465T264 486T209 494Q173 494 161 485T145 453Q143 443 142 433T136 415T123 402T100
397Q73 397 63 411T53 441Q53 464 71 479T116 504T171 518T223 522Q310 522 347 489T384 395V77Q384 59 390 49T405 32Q415 25 428 23T459 20V7Q448 -1 426 -6T385 -12Q350 -12 333 5T312 45H307Q289 20 251 4T171 -13ZM200 29Q241 29 269 45T310 83V244L236 236Q173
229 137 204T101 122Q101 80 126 55T200 29ZM392 601Q371 601 358 615T344 649Q344 669 357 683T392 697Q413 697 426 683T440 649Q440 630 427 616T392 601ZM564 601Q543 601 530 615T516 649Q516 669 529 683T564 697Q585 697 598 683T612 649Q612 630 599 616T564
601Z" />
<glyph unicode="&#xe5;" glyph-name="aring" horiz-adv-x="467" d="M171 -13Q102 -13 63 20T23 113Q23 146 36 169T68 207T112 232T157 247L310 283V390Q310 413 308 432T295 465T264 486T209 494Q173 494 161 485T145 453Q143 443 142 433T136 415T123 402T100
397Q73 397 63 411T53 441Q53 464 71 479T116 504T171 518T223 522Q310 522 347 489T384 395V77Q384 59 390 49T405 32Q415 25 428 23T459 20V7Q448 -1 426 -6T385 -12Q350 -12 333 5T312 45H307Q289 20 251 4T171 -13ZM200 29Q241 29 269 45T310 83V244L236 236Q173
229 137 204T101 122Q101 80 126 55T200 29ZM478 578Q438 578 416 602T393 660Q393 696 417 719T478 743Q517 743 540 719T564 660Q564 625 540 602T478 578ZM478 601Q503 601 518 618T534 661Q534 688 519 704T478 720Q453 720 438 704T423 661Q423 635 438 618T478
601Z" />
<glyph unicode="&#xe6;" glyph-name="ae" horiz-adv-x="745" d="M526 -12Q459 -12 416 12T347 81H343Q327 63 311 47T275 17T229 -5T169 -13Q102 -13 63 21T23 118Q23 149 36 173T71 216T121 246T178 265L308 292V390Q308 413 306 432T293 465T262 486T207 494Q171
494 159 485T142 453Q140 443 139 433T134 415T121 402T97 397Q71 397 61 411T51 440Q51 464 69 479T114 504T169 518T221 522Q290 522 324 503T370 448Q427 522 526 522Q571 522 606 509T665 465T701 386T713 267H385Q386 148 431 93T547 38Q577 38 600 42T642
53T676 67T705 81V53Q696 47 680 36T641 15T589 -4T526 -12ZM196 29Q236 29 268 47T335 105Q321 137 315 175T308 257L239 250Q174 243 138 212T101 123Q101 78 127 54T196 29ZM524 493Q462 493 426 444T385 292L623 303Q623 398 603 445T524 493Z" />
<glyph unicode="&#xe7;" glyph-name="ccedilla" horiz-adv-x="452" d="M143 -185Q191 -174 211 -159T232 -125Q232 -110 218 -100T177 -88L172 -81L207 -7Q163 1 130 23T75 77T42 152T30 242Q30 323 57 377T123 463T208 508T292 521Q367 521 398 498T430 441Q430
421 418 408T382 394Q358 394 349 405T336 436Q333 454 330 464T319 480T302 488T275 490Q243 490 214 478T163 439T127 372T113 274Q113 158 151 98T279 37Q331 37 368 51T429 79V50Q420 41 405 31T369 11T320 -5T260 -12Q254 -12 248 -12T236 -11L212 -52Q244
-55 267 -69T290 -114Q290 -149 255 -171T143 -200V-185Z" />
<glyph unicode="&#xe8;" glyph-name="egrave" horiz-adv-x="485" d="M267 -12Q207 -12 163 8T89 64T45 150T30 259Q30 317 48 365T98 448T173 502T264 521Q309 521 344 508T404 465T442 389T454 276H111V273Q111 151 159 95T287 38Q318 38 342 42T385 52T418 66T446
81V53Q437 45 422 34T385 12T334 -5T267 -12ZM261 492Q199 492 158 445T112 300L370 312Q370 406 346 449T261 492ZM168 635Q148 643 142 654T135 677Q135 692 145 703T170 714Q177 714 185 712T203 702L359 588L352 574L168 635Z" />
<glyph unicode="&#xe9;" glyph-name="eacute" horiz-adv-x="485" d="M267 -12Q207 -12 163 8T89 64T45 150T30 259Q30 317 48 365T98 448T173 502T264 521Q309 521 344 508T404 465T442 389T454 276H111V273Q111 151 159 95T287 38Q318 38 342 42T385 52T418 66T446
81V53Q437 45 422 34T385 12T334 -5T267 -12ZM261 492Q199 492 158 445T112 300L370 312Q370 406 346 449T261 492ZM180 574L173 588L329 702Q339 709 347 711T362 714Q377 714 387 703T397 677Q397 666 391 655T364 635L180 574Z" />
<glyph unicode="&#xea;" glyph-name="ecircumflex" horiz-adv-x="485" d="M267 -12Q207 -12 163 8T89 64T45 150T30 259Q30 317 48 365T98 448T173 502T264 521Q309 521 344 508T404 465T442 389T454 276H111V273Q111 151 159 95T287 38Q318 38 342 42T385 52T418
66T446 81V53Q437 45 422 34T385 12T334 -5T267 -12ZM261 492Q199 492 158 445T112 300L370 312Q370 406 346 449T261 492ZM136 586L248 715H277L390 586L382 575L261 646L144 575L136 586Z" />
<glyph unicode="&#xeb;" glyph-name="edieresis" horiz-adv-x="485" d="M267 -12Q207 -12 163 8T89 64T45 150T30 259Q30 317 48 365T98 448T173 502T264 521Q309 521 344 508T404 465T442 389T454 276H111V273Q111 151 159 95T287 38Q318 38 342 42T385 52T418
66T446 81V53Q437 45 422 34T385 12T334 -5T267 -12ZM261 492Q199 492 158 445T112 300L370 312Q370 406 346 449T261 492ZM177 601Q156 601 143 615T129 649Q129 669 142 683T177 697Q198 697 211 683T225 649Q225 630 212 616T177 601ZM349 601Q328 601 315 615T301
649Q301 669 314 683T349 697Q370 697 383 683T397 649Q397 630 384 616T349 601Z" />
<glyph unicode="&#xec;" glyph-name="igrave" horiz-adv-x="245" d="M23 16L56 25Q78 31 83 40T89 78V418Q89 431 88 439T82 453T71 462T51 472L24 485V499L161 519L167 516Q166 504 165 488Q164 474 164 455T163 410V78Q163 49 169 40T196 25L229 16V0H23V16ZM32
635Q12 643 6 654T-1 677Q-1 692 9 703T34 714Q41 714 49 712T67 702L223 588L216 574L32 635Z" />
<glyph unicode="&#xed;" glyph-name="iacute" horiz-adv-x="245" d="M23 16L56 25Q78 31 83 40T89 78V418Q89 431 88 439T82 453T71 462T51 472L24 485V499L161 519L167 516Q166 504 165 488Q164 474 164 455T163 410V78Q163 49 169 40T196 25L229 16V0H23V16ZM300
574L293 588L449 702Q459 709 467 711T482 714Q497 714 507 703T517 677Q517 666 511 655T484 635L300 574Z" />
<glyph unicode="&#xee;" glyph-name="icircumflex" horiz-adv-x="245" d="M23 16L56 25Q78 31 83 40T89 78V418Q89 431 88 439T82 453T71 462T51 472L24 485V499L161 519L167 516Q166 504 165 488Q164 474 164 455T163 410V78Q163 49 169 40T196 25L229 16V0H23V16ZM256
586L368 715H397L510 586L502 575L381 646L264 575L256 586Z" />
<glyph unicode="&#xef;" glyph-name="idieresis" horiz-adv-x="245" d="M23 16L56 25Q78 31 83 40T89 78V418Q89 431 88 439T82 453T71 462T51 472L24 485V499L161 519L167 516Q166 504 165 488Q164 474 164 455T163 410V78Q163 49 169 40T196 25L229 16V0H23V16ZM297
601Q276 601 263 615T249 649Q249 669 262 683T297 697Q318 697 331 683T345 649Q345 630 332 616T297 601ZM469 601Q448 601 435 615T421 649Q421 669 434 683T469 697Q490 697 503 683T517 649Q517 630 504 616T469 601Z" />
<glyph unicode="&#xf0;" glyph-name="eth" horiz-adv-x="538" d="M136 611L247 660Q186 709 113 743L120 760Q215 726 289 679L413 735L422 710L315 662Q411 593 458 502T506 290Q506 206 486 148T432 54T356 3T269 -13Q217 -13 174 4T98 55T48 139T30 255Q30
318 49 368T102 453T177 506T267 525Q303 525 332 515T387 480Q378 515 348 557T269 641L146 586L136 611ZM273 16Q348 16 385 76T423 246Q423 374 385 435T266 496Q115 496 115 268Q115 16 273 16Z" />
<glyph unicode="&#xf1;" glyph-name="ntilde" horiz-adv-x="562" d="M479 78Q479 50 484 41T512 25L546 16V0H336V16L370 25Q392 31 398 40T405 78V371Q405 427 386 448T318 470Q267 470 228 459T163 438V78Q163 49 169 40T198 25L233 16V0H23V16L56 25Q78 31
83 40T89 78V418Q89 431 88 439T82 453T71 462T51 472L24 485V499L157 519L164 516L162 461H165Q183 472 205 483T251 502T299 516T346 521Q422 521 450 488T479 388V78ZM135 582Q144 602 152 619T171 650T193 671T220 679Q235 679 253 675T291 666T327 656T357
652Q377 652 389 664T413 696L429 689Q420 669 411 652T392 621T370 601T343 593Q327 593 309 597T273 606T237 616T206 620Q186 620 175 608T152 576L135 582Z" />
<glyph unicode="&#xf2;" glyph-name="ograve" horiz-adv-x="537" d="M268 -13Q217 -13 173 4T98 55T48 138T30 254Q30 317 49 366T102 450T178 503T268 522Q320 522 363 506T439 457T489 375T507 260Q507 197 487 147T434 61T358 6T268 -13ZM273 16Q348 16 385
76T422 245Q422 372 384 432T266 493Q115 493 115 266Q115 16 273 16ZM173 635Q153 643 147 654T140 677Q140 692 150 703T175 714Q182 714 190 712T208 702L364 588L357 574L173 635Z" />
<glyph unicode="&#xf3;" glyph-name="oacute" horiz-adv-x="537" d="M268 -13Q217 -13 173 4T98 55T48 138T30 254Q30 317 49 366T102 450T178 503T268 522Q320 522 363 506T439 457T489 375T507 260Q507 197 487 147T434 61T358 6T268 -13ZM273 16Q348 16 385
76T422 245Q422 372 384 432T266 493Q115 493 115 266Q115 16 273 16ZM185 574L178 588L334 702Q344 709 352 711T367 714Q382 714 392 703T402 677Q402 666 396 655T369 635L185 574Z" />
<glyph unicode="&#xf4;" glyph-name="ocircumflex" horiz-adv-x="537" d="M268 -13Q217 -13 173 4T98 55T48 138T30 254Q30 317 49 366T102 450T178 503T268 522Q320 522 363 506T439 457T489 375T507 260Q507 197 487 147T434 61T358 6T268 -13ZM273 16Q348 16
385 76T422 245Q422 372 384 432T266 493Q115 493 115 266Q115 16 273 16ZM141 586L253 715H282L395 586L387 575L266 646L149 575L141 586Z" />
<glyph unicode="&#xf5;" glyph-name="otilde" horiz-adv-x="537" d="M268 -13Q217 -13 173 4T98 55T48 138T30 254Q30 317 49 366T102 450T178 503T268 522Q320 522 363 506T439 457T489 375T507 260Q507 197 487 147T434 61T358 6T268 -13ZM273 16Q348 16 385
76T422 245Q422 372 384 432T266 493Q115 493 115 266Q115 16 273 16ZM121 582Q130 602 138 619T157 650T179 671T206 679Q221 679 239 675T277 666T313 656T343 652Q363 652 375 664T399 696L415 689Q406 669 397 652T378 621T356 601T329 593Q313 593 295 597T259
606T223 616T192 620Q172 620 161 608T138 576L121 582Z" />
<glyph unicode="&#xf6;" glyph-name="odieresis" horiz-adv-x="537" d="M268 -13Q217 -13 173 4T98 55T48 138T30 254Q30 317 49 366T102 450T178 503T268 522Q320 522 363 506T439 457T489 375T507 260Q507 197 487 147T434 61T358 6T268 -13ZM273 16Q348 16
385 76T422 245Q422 372 384 432T266 493Q115 493 115 266Q115 16 273 16ZM182 601Q161 601 148 615T134 649Q134 669 147 683T182 697Q203 697 216 683T230 649Q230 630 217 616T182 601ZM354 601Q333 601 320 615T306 649Q306 669 319 683T354 697Q375 697 388
683T402 649Q402 630 389 616T354 601Z" />
<glyph unicode="&#xf7;" glyph-name="divide" horiz-adv-x="437" d="M217 121Q194 121 178 137T161 176Q161 200 177 215T217 231Q240 231 256 216T273 176Q273 153 257 137T217 121ZM217 444Q194 444 178 459T161 498Q161 522 177 537T217 553Q240 553 256 538T273
498Q273 475 257 460T217 444ZM33 359H404V317H33V359Z" />
<glyph unicode="&#xf8;" glyph-name="oslash" horiz-adv-x="537" d="M123 32Q79 64 55 120T30 254Q30 317 49 366T102 450T178 503T268 522Q335 522 388 495L427 563H463L414 478Q457 446 482 392T507 260Q507 197 487 147T434 61T358 6T268 -13Q203 -13 149 15L104
-64H68L123 32ZM117 277Q117 206 125 158T150 79L367 459Q349 477 324 485T266 493Q118 493 117 277ZM273 16Q348 16 384 72T420 235Q420 306 413 353T388 431L170 51Q189 32 214 24T273 16Z" />
<glyph unicode="&#xf9;" glyph-name="ugrave" horiz-adv-x="553" d="M214 -12Q154 -12 119 21T84 118V422Q84 449 77 459T47 478L19 489V504L149 519L158 511V135Q158 89 179 64T247 39Q289 39 330 51T400 76V423Q400 450 394 460T362 479L334 489V504L464 519L474
511V98Q474 83 475 73T481 56T493 44T512 34L540 21V8L406 -10L400 -6L402 53H398Q361 27 313 8T214 -12ZM182 635Q162 643 156 654T149 677Q149 692 159 703T184 714Q191 714 199 712T217 702L373 588L366 574L182 635Z" />
<glyph unicode="&#xfa;" glyph-name="uacute" horiz-adv-x="553" d="M214 -12Q154 -12 119 21T84 118V422Q84 449 77 459T47 478L19 489V504L149 519L158 511V135Q158 89 179 64T247 39Q289 39 330 51T400 76V423Q400 450 394 460T362 479L334 489V504L464 519L474
511V98Q474 83 475 73T481 56T493 44T512 34L540 21V8L406 -10L400 -6L402 53H398Q361 27 313 8T214 -12ZM194 574L187 588L343 702Q353 709 361 711T376 714Q391 714 401 703T411 677Q411 666 405 655T378 635L194 574Z" />
<glyph unicode="&#xfb;" glyph-name="ucircumflex" horiz-adv-x="553" d="M214 -12Q154 -12 119 21T84 118V422Q84 449 77 459T47 478L19 489V504L149 519L158 511V135Q158 89 179 64T247 39Q289 39 330 51T400 76V423Q400 450 394 460T362 479L334 489V504L464
519L474 511V98Q474 83 475 73T481 56T493 44T512 34L540 21V8L406 -10L400 -6L402 53H398Q361 27 313 8T214 -12ZM150 586L262 715H291L404 586L396 575L275 646L158 575L150 586Z" />
<glyph unicode="&#xfc;" glyph-name="udieresis" horiz-adv-x="553" d="M214 -12Q154 -12 119 21T84 118V422Q84 449 77 459T47 478L19 489V504L149 519L158 511V135Q158 89 179 64T247 39Q289 39 330 51T400 76V423Q400 450 394 460T362 479L334 489V504L464
519L474 511V98Q474 83 475 73T481 56T493 44T512 34L540 21V8L406 -10L400 -6L402 53H398Q361 27 313 8T214 -12ZM191 601Q170 601 157 615T143 649Q143 669 156 683T191 697Q212 697 225 683T239 649Q239 630 226 616T191 601ZM363 601Q342 601 329 615T315 649Q315
669 328 683T363 697Q384 697 397 683T411 649Q411 630 398 616T363 601Z" />
<glyph unicode="&#xfd;" glyph-name="yacute" horiz-adv-x="478" d="M78 -205Q38 -205 22 -188T5 -149Q5 -126 18 -115T53 -103Q76 -103 85 -113T100 -138Q105 -150 108 -153T118 -157Q138 -157 157 -132T194 -67L222 1L67 418Q60 436 55 447T45 464T34 474T18
481L-8 489V505H187V489L161 482Q145 477 140 471T135 453Q135 442 139 430T148 403L260 101H264L370 402Q383 441 382 460Q381 469 374 473T353 482L327 489V505H486V489L456 481Q447 479 442 475T432 463T422 441T409 408L245 -34Q233 -66 221 -96T190 -151T145
-190T78 -205ZM182 574L175 588L331 702Q341 709 349 711T364 714Q379 714 389 703T399 677Q399 666 393 655T366 635L182 574Z" />
<glyph unicode="&#xfe;" glyph-name="thorn" horiz-adv-x="561" d="M18 -183L52 -174Q74 -168 79 -159T85 -123V655Q85 668 84 676T78 690T67 699T48 709L14 725V741L157 755L163 749Q162 732 161 714Q160 697 160 676T159 630V544Q159 528 159 514T158 489Q157
476 157 464H160Q191 487 232 504T320 521Q359 521 396 510T462 470T508 394T526 276Q526 207 507 154T451 64T364 8T248 -12Q227 -12 204 -9T158 2V-18Q158 -27 158 -39T159 -63V-123Q159 -151 166 -160T197 -174L241 -183V-199H18V-183ZM269 19Q313 19 346 33T402
77T436 154T447 269Q447 366 404 419T281 473Q239 473 209 461T159 438V57Q182 38 206 29T269 19Z" />
<glyph unicode="&#xff;" glyph-name="ydieresis" horiz-adv-x="478" d="M78 -205Q38 -205 22 -188T5 -149Q5 -126 18 -115T53 -103Q76 -103 85 -113T100 -138Q105 -150 108 -153T118 -157Q138 -157 157 -132T194 -67L222 1L67 418Q60 436 55 447T45 464T34 474T18
481L-8 489V505H187V489L161 482Q145 477 140 471T135 453Q135 442 139 430T148 403L260 101H264L370 402Q383 441 382 460Q381 469 374 473T353 482L327 489V505H486V489L456 481Q447 479 442 475T432 463T422 441T409 408L245 -34Q233 -66 221 -96T190 -151T145
-190T78 -205ZM179 601Q158 601 145 615T131 649Q131 669 144 683T179 697Q200 697 213 683T227 649Q227 630 214 616T179 601ZM351 601Q330 601 317 615T303 649Q303 669 316 683T351 697Q372 697 385 683T399 649Q399 630 386 616T351 601Z" />
<glyph unicode="&#x100;" glyph-name="Amacron" horiz-adv-x="625" d="M193 799H443V755H193V799ZM-2 17L29 27Q38 30 44 33T57 47T72 75T91 125L299 693H339L538 111Q547 85 554 69T569 44T585 30T604 23L628 17V0H406V17L428 23Q445 27 454 32T465 48T465 74T452
118L406 253H178L132 118Q123 91 121 75T122 49T135 34T159 25L188 17V0H-3L-2 17ZM189 284H396L296 582H291L189 284Z" />
<glyph unicode="&#x101;" glyph-name="amacron" horiz-adv-x="467" d="M171 -13Q102 -13 63 20T23 113Q23 146 36 169T68 207T112 232T157 247L310 283V390Q310 413 308 432T295 465T264 486T209 494Q173 494 161 485T145 453Q143 443 142 433T136 415T123 402T100
397Q73 397 63 411T53 441Q53 464 71 479T116 504T171 518T223 522Q310 522 347 489T384 395V77Q384 59 390 49T405 32Q415 25 428 23T459 20V7Q448 -1 426 -6T385 -12Q350 -12 333 5T312 45H307Q289 20 251 4T171 -13ZM200 29Q241 29 269 45T310 83V244L236 236Q173
229 137 204T101 122Q101 80 126 55T200 29ZM367 644H589V600H367V644Z" />
<glyph unicode="&#x102;" glyph-name="Abreve" horiz-adv-x="625" d="M321 731Q293 731 272 741T235 769T212 806T203 846L214 849Q223 823 249 803T320 783Q364 783 389 803T423 849L434 846Q433 826 426 806T404 769T369 742T321 731ZM-2 17L29 27Q38 30 44
33T57 47T72 75T91 125L299 693H339L538 111Q547 85 554 69T569 44T585 30T604 23L628 17V0H406V17L428 23Q445 27 454 32T465 48T465 74T452 118L406 253H178L132 118Q123 91 121 75T122 49T135 34T159 25L188 17V0H-3L-2 17ZM189 284H396L296 582H291L189 284Z"
/>
<glyph unicode="&#x103;" glyph-name="abreve" horiz-adv-x="467" d="M171 -13Q102 -13 63 20T23 113Q23 146 36 169T68 207T112 232T157 247L310 283V390Q310 413 308 432T295 465T264 486T209 494Q173 494 161 485T145 453Q143 443 142 433T136 415T123 402T100
397Q73 397 63 411T53 441Q53 464 71 479T116 504T171 518T223 522Q310 522 347 489T384 395V77Q384 59 390 49T405 32Q415 25 428 23T459 20V7Q448 -1 426 -6T385 -12Q350 -12 333 5T312 45H307Q289 20 251 4T171 -13ZM200 29Q241 29 269 45T310 83V244L236 236Q173
229 137 204T101 122Q101 80 126 55T200 29ZM481 576Q457 576 437 586T403 614T381 651T373 691L384 694Q393 668 417 648T480 628Q518 628 541 648T573 694L584 691Q584 671 577 651T556 614T524 587T481 576Z" />
<glyph unicode="&#x104;" glyph-name="Aogonek" horiz-adv-x="625" d="M449 -200Q413 -200 386 -181T359 -130Q359 -108 371 -87T401 -48T442 -14T487 14L406 253H178L132 118Q123 91 121 75T122 49T135 34T159 25L188 17V0H-3L-2 17L29 27Q38 30 44 33T57 47T72
75T91 125L299 693H339L538 111Q547 85 554 69T569 44T585 30T604 23L628 17V0H538Q505 0 482 -12T446 -41T426 -79T420 -116Q420 -139 435 -153T473 -167Q499 -167 521 -156V-172Q507 -186 488 -193T449 -200ZM189 284H396L296 582H291L189 284Z" />
<glyph unicode="&#x105;" glyph-name="aogonek" horiz-adv-x="467" d="M387 -200Q351 -200 324 -181T297 -130Q297 -112 306 -95T329 -61T359 -32T392 -9Q350 -9 333 6T312 45H307Q289 20 251 4T171 -13Q102 -13 63 20T23 113Q23 146 36 169T68 207T112 232T157
247L310 283V390Q310 413 308 432T295 465T264 486T209 494Q173 494 161 485T145 453Q143 443 142 433T136 415T123 402T100 397Q73 397 63 411T53 441Q53 464 71 479T116 504T171 518T223 522Q310 522 347 489T384 395V77Q384 59 390 49T405 32Q415 25 428 23T459
20V7Q416 -14 387 -45T358 -116Q358 -139 373 -153T411 -167Q437 -167 459 -156V-172Q445 -186 426 -193T387 -200ZM200 29Q241 29 269 45T310 83V244L236 236Q173 229 137 204T101 122Q101 80 126 55T200 29Z" />
<glyph unicode="&#x106;" glyph-name="Cacute" horiz-adv-x="599" d="M249 729L243 743L410 846Q426 856 440 856Q455 856 465 845T475 818Q475 804 468 794T443 779L249 729ZM330 -12Q268 -12 214 7T120 68T58 178T35 341Q35 443 63 512T137 624T242 686T365
705Q422 705 467 697T544 679L556 492H536Q525 524 515 551T488 603Q478 619 468 632T442 654T406 667T354 672Q302 672 259 656T184 603T136 507T118 360Q118 271 132 207T173 101T240 41T335 21Q368 21 392 26T435 42T468 65T493 95Q508 117 518 147T540 212H559L547
28Q511 12 455 0T330 -12Z" />
<glyph unicode="&#x107;" glyph-name="cacute" horiz-adv-x="452" d="M260 -12Q203 -12 160 7T88 60T45 140T30 242Q30 323 57 377T123 463T208 508T292 521Q367 521 398 498T430 441Q430 421 418 408T382 394Q358 394 349 405T336 436Q333 454 330 464T319 480T302
488T275 490Q243 490 214 478T163 439T127 372T113 274Q113 158 151 98T279 37Q331 37 368 51T429 79V50Q420 41 405 31T369 11T320 -5T260 -12ZM177 574L170 588L326 702Q336 709 344 711T359 714Q374 714 384 703T394 677Q394 666 388 655T361 635L177 574Z"
/>
<glyph unicode="&#x108;" glyph-name="Ccircumflex" horiz-adv-x="599" d="M204 738L324 856H353L474 738L468 726L337 787L210 726L204 738ZM330 -12Q268 -12 214 7T120 68T58 178T35 341Q35 443 63 512T137 624T242 686T365 705Q422 705 467 697T544 679L556
492H536Q525 524 515 551T488 603Q478 619 468 632T442 654T406 667T354 672Q302 672 259 656T184 603T136 507T118 360Q118 271 132 207T173 101T240 41T335 21Q368 21 392 26T435 42T468 65T493 95Q508 117 518 147T540 212H559L547 28Q511 12 455 0T330 -12Z"
/>
<glyph unicode="&#x109;" glyph-name="ccircumflex" horiz-adv-x="452" d="M260 -12Q203 -12 160 7T88 60T45 140T30 242Q30 323 57 377T123 463T208 508T292 521Q367 521 398 498T430 441Q430 421 418 408T382 394Q358 394 349 405T336 436Q333 454 330 464T319
480T302 488T275 490Q243 490 214 478T163 439T127 372T113 274Q113 158 151 98T279 37Q331 37 368 51T429 79V50Q420 41 405 31T369 11T320 -5T260 -12ZM133 586L245 715H274L387 586L379 575L258 646L141 575L133 586Z" />
<glyph unicode="&#x10a;" glyph-name="Cdotaccent" horiz-adv-x="599" d="M340 739Q319 739 304 755T289 790Q289 810 304 825T340 841Q360 841 375 826T390 790Q390 771 375 755T340 739ZM330 -12Q268 -12 214 7T120 68T58 178T35 341Q35 443 63 512T137 624T242
686T365 705Q422 705 467 697T544 679L556 492H536Q525 524 515 551T488 603Q478 619 468 632T442 654T406 667T354 672Q302 672 259 656T184 603T136 507T118 360Q118 271 132 207T173 101T240 41T335 21Q368 21 392 26T435 42T468 65T493 95Q508 117 518 147T540
212H559L547 28Q511 12 455 0T330 -12Z" />
<glyph unicode="&#x10b;" glyph-name="cdotaccent" horiz-adv-x="452" d="M260 -12Q203 -12 160 7T88 60T45 140T30 242Q30 323 57 377T123 463T208 508T292 521Q367 521 398 498T430 441Q430 421 418 408T382 394Q358 394 349 405T336 436Q333 454 330 464T319
480T302 488T275 490Q243 490 214 478T163 439T127 372T113 274Q113 158 151 98T279 37Q331 37 368 51T429 79V50Q420 41 405 31T369 11T320 -5T260 -12ZM518 604Q497 604 482 620T467 655Q467 675 482 690T518 706Q538 706 553 691T568 655Q568 636 553 620T518
604Z" />
<glyph unicode="&#x10c;" glyph-name="Ccaron" horiz-adv-x="599" d="M474 848L354 730H325L204 848L210 860L341 799L468 860L474 848ZM330 -12Q268 -12 214 7T120 68T58 178T35 341Q35 443 63 512T137 624T242 686T365 705Q422 705 467 697T544 679L556 492H536Q525
524 515 551T488 603Q478 619 468 632T442 654T406 667T354 672Q302 672 259 656T184 603T136 507T118 360Q118 271 132 207T173 101T240 41T335 21Q368 21 392 26T435 42T468 65T493 95Q508 117 518 147T540 212H559L547 28Q511 12 455 0T330 -12Z" />
<glyph unicode="&#x10d;" glyph-name="ccaron" horiz-adv-x="452" d="M260 -12Q203 -12 160 7T88 60T45 140T30 242Q30 323 57 377T123 463T208 508T292 521Q367 521 398 498T430 441Q430 421 418 408T382 394Q358 394 349 405T336 436Q333 454 330 464T319 480T302
488T275 490Q243 490 214 478T163 439T127 372T113 274Q113 158 151 98T279 37Q331 37 368 51T429 79V50Q420 41 405 31T369 11T320 -5T260 -12ZM133 705L141 715L262 643L379 715L387 705L275 575H246L133 705Z" />
<glyph unicode="&#x10e;" glyph-name="Dcaron" horiz-adv-x="659" d="M448 848L328 730H299L178 848L184 860L315 799L442 860L448 848ZM27 17L66 25Q77 27 84 30T95 38T102 54T104 81V612Q104 629 103 639T97 654T85 663T66 668L27 676V693H300Q367 693 426 677T531
621T602 515T628 351Q628 262 603 196T534 87T428 22T293 0H27V17ZM288 30Q365 30 415 54T494 120T535 217T547 334Q547 415 533 476T489 579T408 642T286 664Q244 664 220 662T182 655V120Q182 92 185 75T199 47T231 34T288 30Z" />
<glyph unicode="&#x10f;" glyph-name="dcaron" horiz-adv-x="559" d="M236 -12Q200 -12 164 0T100 40T53 117T35 238Q35 309 58 362T119 450T206 503T306 521Q341 521 364 517T402 508V657Q402 671 401 679T396 691T388 699T374 706L332 725V741L473 755L479 749Q478
737 477 719Q476 704 476 682T476 630V87Q476 73 477 65T483 52T494 43T514 33L544 19V6L408 -12L402 -7L404 45H400Q370 22 327 5T236 -12ZM277 36Q323 36 353 48T402 72V447Q384 463 359 476T298 489Q255 489 221 476T163 435T127 362T114 253Q114 141 158 89T277
36ZM526 574L533 711Q534 728 542 741T573 755Q588 755 599 746T610 720Q610 705 599 686L540 571L526 574Z" />
<glyph unicode="&#x110;" glyph-name="Dcroat" horiz-adv-x="659" d="M27 366H104V612Q104 629 103 639T97 654T85 663T66 668L27 676V693H300Q367 693 426 677T531 621T602 515T628 351Q628 262 603 196T534 87T428 22T293 0H27V17L66 25Q77 27 84 30T95 38T102
54T104 81V337H27V366ZM288 30Q365 30 415 54T494 120T535 217T547 334Q547 415 533 476T489 579T408 642T286 664Q244 664 220 662T182 655V366H380V337H182V120Q182 92 185 75T199 47T231 34T288 30Z" />
<glyph unicode="&#x111;" glyph-name="dcroat" horiz-adv-x="559" d="M233 640H402V657Q402 671 401 679T396 691T388 699T374 706L332 725V741L473 755L479 749Q478 737 477 721Q476 707 476 687T476 640H544V611H476V87Q476 73 477 65T483 52T494 43T514 33L544
19V6L408 -12L402 -7L404 45H400Q370 22 327 5T236 -12Q200 -12 164 0T100 40T53 117T35 238Q35 309 58 362T119 450T206 503T306 521Q341 521 364 517T402 508V611H233V640ZM277 36Q323 36 353 48T402 72V447Q384 463 359 476T298 489Q255 489 221 476T163 435T127
362T114 253Q114 141 158 89T277 36Z" />
<glyph unicode="&#x112;" glyph-name="Emacron" horiz-adv-x="566" d="M175 799H425V755H175V799ZM27 17L66 25Q77 27 84 30T95 38T102 54T104 81V612Q104 629 103 639T97 654T85 663T66 668L27 676V693H502L515 526H494Q479 561 469 585T451 620Q441 635 433
644T410 657T372 663T307 665Q270 665 236 663T182 656V375H237Q266 375 287 376T324 380T349 391T364 409Q372 425 376 442T385 484H406V237H385Q380 263 376 277T364 310Q359 322 352 329T331 339T294 344T237 345H182V125Q182 89 184 70T200 41T242 30T322 28Q358
28 380 29T416 35T440 47T459 68Q464 75 471 89T485 121T500 159T514 198H537L522 0H27V17Z" />
<glyph unicode="&#x113;" glyph-name="emacron" horiz-adv-x="485" d="M267 -12Q207 -12 163 8T89 64T45 150T30 259Q30 317 48 365T98 448T173 502T264 521Q309 521 344 508T404 465T442 389T454 276H111V273Q111 151 159 95T287 38Q318 38 342 42T385 52T418
66T446 81V53Q437 45 422 34T385 12T334 -5T267 -12ZM261 492Q199 492 158 445T112 300L370 312Q370 406 346 449T261 492ZM152 644H374V600H152V644Z" />
<glyph unicode="&#x114;" glyph-name="Ebreve" horiz-adv-x="566" d="M303 731Q275 731 254 741T217 769T194 806T185 846L196 849Q205 823 231 803T302 783Q346 783 371 803T405 849L416 846Q415 826 408 806T386 769T351 742T303 731ZM27 17L66 25Q77 27 84
30T95 38T102 54T104 81V612Q104 629 103 639T97 654T85 663T66 668L27 676V693H502L515 526H494Q479 561 469 585T451 620Q441 635 433 644T410 657T372 663T307 665Q270 665 236 663T182 656V375H237Q266 375 287 376T324 380T349 391T364 409Q372 425 376 442T385
484H406V237H385Q380 263 376 277T364 310Q359 322 352 329T331 339T294 344T237 345H182V125Q182 89 184 70T200 41T242 30T322 28Q358 28 380 29T416 35T440 47T459 68Q464 75 471 89T485 121T500 159T514 198H537L522 0H27V17Z" />
<glyph unicode="&#x115;" glyph-name="ebreve" horiz-adv-x="485" d="M267 -12Q207 -12 163 8T89 64T45 150T30 259Q30 317 48 365T98 448T173 502T264 521Q309 521 344 508T404 465T442 389T454 276H111V273Q111 151 159 95T287 38Q318 38 342 42T385 52T418
66T446 81V53Q437 45 422 34T385 12T334 -5T267 -12ZM261 492Q199 492 158 445T112 300L370 312Q370 406 346 449T261 492ZM266 576Q242 576 222 586T188 614T166 651T158 691L169 694Q178 668 202 648T265 628Q303 628 326 648T358 694L369 691Q369 671 362 651T341
614T309 587T266 576Z" />
<glyph unicode="&#x116;" glyph-name="Edotaccent" horiz-adv-x="566" d="M301 739Q280 739 265 755T250 790Q250 810 265 825T301 841Q321 841 336 826T351 790Q351 771 336 755T301 739ZM27 17L66 25Q77 27 84 30T95 38T102 54T104 81V612Q104 629 103 639T97
654T85 663T66 668L27 676V693H502L515 526H494Q479 561 469 585T451 620Q441 635 433 644T410 657T372 663T307 665Q270 665 236 663T182 656V375H237Q266 375 287 376T324 380T349 391T364 409Q372 425 376 442T385 484H406V237H385Q380 263 376 277T364 310Q359
322 352 329T331 339T294 344T237 345H182V125Q182 89 184 70T200 41T242 30T322 28Q358 28 380 29T416 35T440 47T459 68Q464 75 471 89T485 121T500 159T514 198H537L522 0H27V17Z" />
<glyph unicode="&#x117;" glyph-name="edotaccent" horiz-adv-x="485" d="M267 -12Q207 -12 163 8T89 64T45 150T30 259Q30 317 48 365T98 448T173 502T264 521Q309 521 344 508T404 465T442 389T454 276H111V273Q111 151 159 95T287 38Q318 38 342 42T385 52T418
66T446 81V53Q437 45 422 34T385 12T334 -5T267 -12ZM261 492Q199 492 158 445T112 300L370 312Q370 406 346 449T261 492ZM521 604Q500 604 485 620T470 655Q470 675 485 690T521 706Q541 706 556 691T571 655Q571 636 556 620T521 604Z" />
<glyph unicode="&#x118;" glyph-name="Eogonek" horiz-adv-x="566" d="M27 17L66 25Q77 27 84 30T95 38T102 54T104 81V612Q104 629 103 639T97 654T85 663T66 668L27 676V693H502L515 526H494Q479 561 469 585T451 620Q441 635 433 644T410 657T372 663T307 665Q270
665 236 663T182 656V375H237Q266 375 287 376T324 380T349 391T364 409Q372 425 376 442T385 484H406V237H385Q380 263 376 277T364 310Q359 322 352 329T331 339T294 344T237 345H182V125Q182 89 184 70T200 41T242 30T322 28Q358 28 380 29T416 35T440 47T459
68Q464 75 471 89T485 121T500 159T514 198H537L522 0H448Q424 -29 405 -56T386 -116Q386 -139 401 -153T439 -167Q465 -167 487 -156V-172Q473 -186 454 -193T415 -200Q379 -200 352 -181T325 -130Q325 -109 335 -90T361 -53T393 -23T423 0H27V17Z" />
<glyph unicode="&#x119;" glyph-name="eogonek" horiz-adv-x="485" d="M302 -200Q266 -200 239 -181T212 -130Q212 -111 222 -94T247 -61T280 -32T315 -9Q304 -11 291 -11T267 -12Q207 -12 163 8T89 64T45 150T30 259Q30 317 48 365T98 448T173 502T264 521Q309
521 344 508T404 465T442 389T454 276H111V273Q111 151 159 95T287 38Q318 38 342 42T385 52T418 66T446 81V53Q427 36 398 19T341 -17T293 -61T273 -116Q273 -139 288 -153T326 -167Q352 -167 374 -156V-172Q360 -186 341 -193T302 -200ZM261 492Q199 492 158
445T112 300L370 312Q370 406 346 449T261 492Z" />
<glyph unicode="&#x11a;" glyph-name="Ecaron" horiz-adv-x="566" d="M435 848L315 730H286L165 848L171 860L302 799L429 860L435 848ZM27 17L66 25Q77 27 84 30T95 38T102 54T104 81V612Q104 629 103 639T97 654T85 663T66 668L27 676V693H502L515 526H494Q479
561 469 585T451 620Q441 635 433 644T410 657T372 663T307 665Q270 665 236 663T182 656V375H237Q266 375 287 376T324 380T349 391T364 409Q372 425 376 442T385 484H406V237H385Q380 263 376 277T364 310Q359 322 352 329T331 339T294 344T237 345H182V125Q182
89 184 70T200 41T242 30T322 28Q358 28 380 29T416 35T440 47T459 68Q464 75 471 89T485 121T500 159T514 198H537L522 0H27V17Z" />
<glyph unicode="&#x11b;" glyph-name="ecaron" horiz-adv-x="485" d="M267 -12Q207 -12 163 8T89 64T45 150T30 259Q30 317 48 365T98 448T173 502T264 521Q309 521 344 508T404 465T442 389T454 276H111V273Q111 151 159 95T287 38Q318 38 342 42T385 52T418
66T446 81V53Q437 45 422 34T385 12T334 -5T267 -12ZM261 492Q199 492 158 445T112 300L370 312Q370 406 346 449T261 492ZM136 705L144 715L265 643L382 715L390 705L278 575H249L136 705Z" />
<glyph unicode="&#x11c;" glyph-name="Gcircumflex" horiz-adv-x="654" d="M218 738L338 856H367L488 738L482 726L351 787L224 726L218 738ZM498 198Q498 215 497 225T492 240T481 249T461 254L418 262V279H643V262L606 253Q586 248 581 241T576 207V23Q544 14
490 1T361 -12Q286 -12 226 9T123 73T58 183T35 339Q35 446 64 516T142 629T252 688T377 705Q435 705 478 697T561 679L573 494H552Q538 544 524 572T502 611Q491 627 481 638T455 657T419 668T364 672Q307 672 261 656T183 604T134 510T116 366Q116 199 173 110T360
21Q408 21 442 30T498 51V198Z" />
<glyph unicode="&#x11d;" glyph-name="gcircumflex" horiz-adv-x="470" d="M195 -196Q148 -196 110 -187T44 -162T2 -124T-13 -75Q-13 -35 18 -9T99 35V38Q76 47 59 64T42 113Q42 144 63 168T109 209V213Q79 227 54 263T29 346Q29 391 46 424T89 478T149 510T214
521Q267 521 314 496Q334 513 360 527T422 541Q446 541 459 530T472 499Q472 460 435 460Q409 460 399 483Q391 502 372 501T334 488V485Q366 466 382 432T399 354Q399 309 382 277T339 225T279 195T214 185Q191 185 172 188T135 200Q123 192 111 179T99 145Q99
122 114 112T163 102H314Q383 102 418 71T453 -14Q453 -40 442 -71T401 -131T322 -177T195 -196ZM210 -167Q244 -167 277 -161T338 -140T381 -102T398 -43Q398 -5 375 14T299 33H144Q131 30 117 24T92 6T74 -22T66 -61Q66 -116 102 -141T210 -167ZM214 211Q264
211 291 241T319 341Q319 419 292 456T214 494Q164 494 137 461T109 359Q109 281 136 246T214 211ZM361 586L473 715H502L615 586L607 575L486 646L369 575L361 586Z" />
<glyph unicode="&#x11e;" glyph-name="Gbreve" horiz-adv-x="654" d="M356 731Q328 731 307 741T270 769T247 806T238 846L249 849Q258 823 284 803T355 783Q399 783 424 803T458 849L469 846Q468 826 461 806T439 769T404 742T356 731ZM498 198Q498 215 497 225T492
240T481 249T461 254L418 262V279H643V262L606 253Q586 248 581 241T576 207V23Q544 14 490 1T361 -12Q286 -12 226 9T123 73T58 183T35 339Q35 446 64 516T142 629T252 688T377 705Q435 705 478 697T561 679L573 494H552Q538 544 524 572T502 611Q491 627 481
638T455 657T419 668T364 672Q307 672 261 656T183 604T134 510T116 366Q116 199 173 110T360 21Q408 21 442 30T498 51V198Z" />
<glyph unicode="&#x11f;" glyph-name="gbreve" horiz-adv-x="470" d="M195 -196Q148 -196 110 -187T44 -162T2 -124T-13 -75Q-13 -35 18 -9T99 35V38Q76 47 59 64T42 113Q42 144 63 168T109 209V213Q79 227 54 263T29 346Q29 391 46 424T89 478T149 510T214 521Q267
521 314 496Q334 513 360 527T422 541Q446 541 459 530T472 499Q472 460 435 460Q409 460 399 483Q391 502 372 501T334 488V485Q366 466 382 432T399 354Q399 309 382 277T339 225T279 195T214 185Q191 185 172 188T135 200Q123 192 111 179T99 145Q99 122 114
112T163 102H314Q383 102 418 71T453 -14Q453 -40 442 -71T401 -131T322 -177T195 -196ZM210 -167Q244 -167 277 -161T338 -140T381 -102T398 -43Q398 -5 375 14T299 33H144Q131 30 117 24T92 6T74 -22T66 -61Q66 -116 102 -141T210 -167ZM214 211Q264 211 291
241T319 341Q319 419 292 456T214 494Q164 494 137 461T109 359Q109 281 136 246T214 211ZM491 576Q467 576 447 586T413 614T391 651T383 691L394 694Q403 668 427 648T490 628Q528 628 551 648T583 694L594 691Q594 671 587 651T566 614T534 587T491 576Z" />
<glyph unicode="&#x120;" glyph-name="Gdotaccent" horiz-adv-x="654" d="M354 739Q333 739 318 755T303 790Q303 810 318 825T354 841Q374 841 389 826T404 790Q404 771 389 755T354 739ZM498 198Q498 215 497 225T492 240T481 249T461 254L418 262V279H643V262L606
253Q586 248 581 241T576 207V23Q544 14 490 1T361 -12Q286 -12 226 9T123 73T58 183T35 339Q35 446 64 516T142 629T252 688T377 705Q435 705 478 697T561 679L573 494H552Q538 544 524 572T502 611Q491 627 481 638T455 657T419 668T364 672Q307 672 261 656T183
604T134 510T116 366Q116 199 173 110T360 21Q408 21 442 30T498 51V198Z" />
<glyph unicode="&#x121;" glyph-name="gdotaccent" horiz-adv-x="470" d="M195 -196Q148 -196 110 -187T44 -162T2 -124T-13 -75Q-13 -35 18 -9T99 35V38Q76 47 59 64T42 113Q42 144 63 168T109 209V213Q79 227 54 263T29 346Q29 391 46 424T89 478T149 510T214
521Q267 521 314 496Q334 513 360 527T422 541Q446 541 459 530T472 499Q472 460 435 460Q409 460 399 483Q391 502 372 501T334 488V485Q366 466 382 432T399 354Q399 309 382 277T339 225T279 195T214 185Q191 185 172 188T135 200Q123 192 111 179T99 145Q99
122 114 112T163 102H314Q383 102 418 71T453 -14Q453 -40 442 -71T401 -131T322 -177T195 -196ZM210 -167Q244 -167 277 -161T338 -140T381 -102T398 -43Q398 -5 375 14T299 33H144Q131 30 117 24T92 6T74 -22T66 -61Q66 -116 102 -141T210 -167ZM214 211Q264
211 291 241T319 341Q319 419 292 456T214 494Q164 494 137 461T109 359Q109 281 136 246T214 211ZM489 604Q468 604 453 620T438 655Q438 675 453 690T489 706Q509 706 524 691T539 655Q539 636 524 620T489 604Z" />
<glyph unicode="&#x122;" glyph-name="Gcommaaccent" horiz-adv-x="654" d="M498 198Q498 215 497 225T492 240T481 249T461 254L418 262V279H643V262L606 253Q586 248 581 241T576 207V23Q544 14 490 1T361 -12Q286 -12 226 9T123 73T58 183T35 339Q35 446 64
516T142 629T252 688T377 705Q435 705 478 697T561 679L573 494H552Q538 544 524 572T502 611Q491 627 481 638T455 657T419 668T364 672Q307 672 261 656T183 604T134 510T116 366Q116 199 173 110T360 21Q408 21 442 30T498 51V198ZM283 -197Q320 -181 334 -164T348
-124Q345 -126 340 -128T327 -131Q309 -131 299 -120T288 -91Q288 -75 301 -62T334 -49Q358 -49 373 -64T389 -111Q389 -145 365 -172T289 -211L283 -197Z" />
<glyph unicode="&#x123;" glyph-name="gcommaaccent" horiz-adv-x="470" d="M195 -196Q148 -196 110 -187T44 -162T2 -124T-13 -75Q-13 -35 18 -9T99 35V38Q76 47 59 64T42 113Q42 144 63 168T109 209V213Q79 227 54 263T29 346Q29 391 46 424T89 478T149 510T214
521Q267 521 314 496Q334 513 360 527T422 541Q446 541 459 530T472 499Q472 460 435 460Q409 460 399 483Q391 502 372 501T334 488V485Q366 466 382 432T399 354Q399 309 382 277T339 225T279 195T214 185Q191 185 172 188T135 200Q123 192 111 179T99 145Q99
122 114 112T163 102H314Q383 102 418 71T453 -14Q453 -40 442 -71T401 -131T322 -177T195 -196ZM210 -167Q244 -167 277 -161T338 -140T381 -102T398 -43Q398 -5 375 14T299 33H144Q131 30 117 24T92 6T74 -22T66 -61Q66 -116 102 -141T210 -167ZM214 211Q264
211 291 241T319 341Q319 419 292 456T214 494Q164 494 137 461T109 359Q109 281 136 246T214 211ZM537 749Q500 733 486 716T472 676Q475 678 480 680T493 683Q511 683 521 672T532 643Q532 627 519 614T486 601Q462 601 447 616T431 663Q431 697 455 724T531
763L537 749Z" />
<glyph unicode="&#x124;" glyph-name="Hcircumflex" horiz-adv-x="692" d="M211 738L331 856H360L481 738L475 726L344 787L217 726L211 738ZM27 17L66 25Q77 27 84 30T95 38T102 54T104 81V612Q104 629 103 639T97 654T85 663T66 668L27 676V693H262V676L219
668Q207 666 200 663T188 655T183 639T182 612V369H510V612Q510 629 509 639T504 654T493 663T472 668L430 676V693H665V676L625 668Q613 666 606 663T595 655T590 639T588 612V81Q588 64 589 54T595 39T606 30T625 25L665 17V0H430V17L472 24Q485 26 492 29T504
38T509 54T510 81V337H182V81Q182 64 183 54T187 39T198 30T219 25L262 17V0H27V17Z" />
<glyph unicode="&#x125;" glyph-name="hcircumflex" horiz-adv-x="562" d="M153 788L273 906H302L423 788L417 776L286 837L159 776L153 788ZM23 16L56 25Q78 31 83 40T89 78V655Q89 668 88 676T82 690T71 699T51 709L18 725V741L161 755L167 749Q166 733 165
715Q164 699 164 677T163 630V544Q163 528 163 514T162 487Q161 473 161 460H164Q182 472 204 483T251 502T299 516T346 521Q422 521 450 488T479 388V78Q479 50 484 41T512 25L546 16V0H336V16L370 25Q392 31 398 40T405 78V371Q405 427 386 448T318 470Q267 470
228 459T163 438V78Q163 49 169 40T198 25L233 16V0H23V16Z" />
<glyph unicode="&#x126;" glyph-name="Hbar" horiz-adv-x="692" d="M19 527H104V612Q104 629 103 639T97 654T85 663T66 668L27 676V693H262V676L219 668Q207 666 200 663T188 655T183 639T182 612V527H510V612Q510 629 509 639T504 654T493 663T472 668L430 676V693H665V676L625
668Q613 666 606 663T595 655T590 639T588 612V527H673V498H588V81Q588 64 589 54T595 39T606 30T625 25L665 17V0H430V17L472 24Q485 26 492 29T504 38T509 54T510 81V337H182V81Q182 64 183 54T187 39T198 30T219 25L262 17V0H27V17L66 25Q77 27 84 30T95 38T102
54T104 81V498H19V527ZM510 369V498H182V369H510Z" />
<glyph unicode="&#x127;" glyph-name="hbar" horiz-adv-x="562" d="M23 16L56 25Q78 31 83 40T89 78V611H11V640H89V655Q89 668 88 676T82 690T71 699T51 709L18 725V741L161 755L167 749Q166 735 165 718Q164 703 164 683T163 640H322V611H163V544Q163 528 163
514T162 487Q161 473 161 460H164Q182 472 204 483T251 502T299 516T346 521Q422 521 450 488T479 388V78Q479 50 484 41T512 25L546 16V0H336V16L370 25Q392 31 398 40T405 78V371Q405 427 386 448T318 470Q267 470 228 459T163 438V78Q163 49 169 40T198 25L233
16V0H23V16Z" />
<glyph unicode="&#x128;" glyph-name="Itilde" horiz-adv-x="292" d="M-3 732Q6 752 14 769T33 800T55 821T82 829Q98 829 119 825T161 816T203 806T239 802Q259 802 271 814T295 846L311 839Q302 819 293 802T274 771T252 751T225 743Q208 743 188 747T146 756T104
766T68 770Q48 770 37 758T14 726L-3 732ZM107 612Q107 629 106 639T101 654T90 663T70 668L27 676V693H265V676L222 668Q209 666 202 663T191 655T186 639T185 612V81Q185 64 186 54T190 39T201 30T222 25L265 17V0H27V17L70 25Q83 27 90 30T101 38T106 54T107
81V612Z" />
<glyph unicode="&#x129;" glyph-name="itilde" horiz-adv-x="245" d="M23 16L56 25Q78 31 83 40T89 78V418Q89 431 88 439T82 453T71 462T51 472L24 485V499L161 519L167 516Q166 504 165 488Q164 474 164 455T163 410V78Q163 49 169 40T196 25L229 16V0H23V16ZM236
582Q245 602 253 619T272 650T294 671T321 679Q336 679 354 675T392 666T428 656T458 652Q478 652 490 664T514 696L530 689Q521 669 512 652T493 621T471 601T444 593Q428 593 410 597T374 606T338 616T307 620Q287 620 276 608T253 576L236 582Z" />
<glyph unicode="&#x12a;" glyph-name="Imacron" horiz-adv-x="292" d="M21 799H271V755H21V799ZM107 612Q107 629 106 639T101 654T90 663T70 668L27 676V693H265V676L222 668Q209 666 202 663T191 655T186 639T185 612V81Q185 64 186 54T190 39T201 30T222 25L265
17V0H27V17L70 25Q83 27 90 30T101 38T106 54T107 81V612Z" />
<glyph unicode="&#x12b;" glyph-name="imacron" horiz-adv-x="245" d="M23 16L56 25Q78 31 83 40T89 78V418Q89 431 88 439T82 453T71 462T51 472L24 485V499L161 519L167 516Q166 504 165 488Q164 474 164 455T163 410V78Q163 49 169 40T196 25L229 16V0H23V16ZM15
644H214V600H15V644Z" />
<glyph unicode="&#x12c;" glyph-name="Ibreve" horiz-adv-x="292" d="M149 731Q121 731 100 741T63 769T40 806T31 846L42 849Q51 823 77 803T148 783Q192 783 217 803T251 849L262 846Q261 826 254 806T232 769T197 742T149 731ZM107 612Q107 629 106 639T101
654T90 663T70 668L27 676V693H265V676L222 668Q209 666 202 663T191 655T186 639T185 612V81Q185 64 186 54T190 39T201 30T222 25L265 17V0H27V17L70 25Q83 27 90 30T101 38T106 54T107 81V612Z" />
<glyph unicode="&#x12d;" glyph-name="ibreve" horiz-adv-x="245" d="M23 16L56 25Q78 31 83 40T89 78V418Q89 431 88 439T82 453T71 462T51 472L24 485V499L161 519L167 516Q166 504 165 488Q164 474 164 455T163 410V78Q163 49 169 40T196 25L229 16V0H23V16ZM386
576Q362 576 342 586T308 614T286 651T278 691L289 694Q298 668 322 648T385 628Q423 628 446 648T478 694L489 691Q489 671 482 651T461 614T429 587T386 576Z" />
<glyph unicode="&#x12e;" glyph-name="Iogonek" horiz-adv-x="292" d="M149 -200Q113 -200 86 -181T59 -123Q59 -105 68 -87T91 -53T120 -24T149 0H27V17L70 25Q83 27 90 30T101 38T106 54T107 81V612Q107 629 106 639T101 654T90 663T70 668L27 676V693H265V676L222
668Q209 666 202 663T191 655T186 639T185 612V81Q185 64 186 54T190 39T201 30T222 25L265 17V0H173Q150 -27 135 -55T120 -112Q120 -138 135 -152T173 -167Q199 -167 221 -156V-172Q207 -186 188 -193T149 -200Z" />
<glyph unicode="&#x12f;" glyph-name="iogonek" horiz-adv-x="245" d="M23 16L56 25Q78 31 83 40T89 78V418Q89 431 88 439T82 453T71 462T51 472L24 485V499L161 519L167 516Q166 504 165 488Q164 474 164 455T163 410V78Q163 49 169 40T196 25L229 16V0H162Q139
-27 124 -55T109 -112Q109 -138 124 -152T162 -167Q188 -167 210 -156V-172Q196 -186 177 -193T138 -200Q102 -200 75 -181T48 -123Q48 -105 57 -87T80 -53T109 -24T138 0H23V16ZM123 604Q102 604 87 620T72 655Q72 675 87 690T123 706Q143 706 158 691T173 655Q173
636 158 620T123 604Z" />
<glyph unicode="&#x130;" glyph-name="Idotaccent" horiz-adv-x="292" d="M147 739Q126 739 111 755T96 790Q96 810 111 825T147 841Q167 841 182 826T197 790Q197 771 182 755T147 739ZM107 612Q107 629 106 639T101 654T90 663T70 668L27 676V693H265V676L222
668Q209 666 202 663T191 655T186 639T185 612V81Q185 64 186 54T190 39T201 30T222 25L265 17V0H27V17L70 25Q83 27 90 30T101 38T106 54T107 81V612Z" />
<glyph unicode="&#x131;" glyph-name="dotlessi" horiz-adv-x="245" d="M23 16L56 25Q78 31 83 40T89 78V418Q89 431 88 439T82 453T71 462T51 472L24 485V499L161 519L167 516Q166 504 165 488Q164 474 164 455T163 410V78Q163 49 169 40T196 25L229 16V0H23V16Z" />
<glyph unicode="&#x132;" glyph-name="IJ" horiz-adv-x="580" d="M107 612Q107 629 106 639T101 654T90 663T70 668L27 676V693H265V676L222 668Q209 666 202 663T191 655T186 639T185 612V81Q185 64 186 54T190 39T201 30T222 25L265 17V0H27V17L70 25Q83 27
90 30T101 38T106 54T107 81V612ZM297 -156Q256 -156 233 -139T209 -93Q209 -79 219 -67T256 -55Q284 -55 293 -68T308 -104Q311 -117 315 -122T330 -127Q344 -127 356 -120T378 -94T393 -45T399 33V612Q399 629 398 639T393 654T382 663T362 668L319 676V693H553V676L512
668Q500 666 493 663T483 655T478 639T477 612V56Q477 10 467 -29T434 -96T378 -140T297 -156Z" />
<glyph unicode="&#x133;" glyph-name="ij" horiz-adv-x="239" d="M240 -201Q202 -201 186 -184T169 -145Q169 -130 180 -119T214 -107Q234 -107 243 -115T255 -143Q258 -163 262 -168T279 -173Q301 -173 314 -155T328 -99V418Q328 431 327 439T321 453T310 462T290
472L263 485V499L400 519L406 516Q405 504 404 488Q403 474 403 455T402 411V0Q402 -58 389 -96T354 -158T302 -191T240 -201ZM359 604Q339 604 324 620T309 655Q309 675 324 690T359 706Q380 706 394 691T409 655Q409 636 395 620T359 604ZM23 16L56 25Q78 31
83 40T89 78V418Q89 431 88 439T82 453T71 462T51 472L24 485V499L161 519L167 516Q166 504 165 488Q164 474 164 455T163 410V78Q163 49 169 40T196 25L229 16V0H23V16ZM123 604Q102 604 87 620T72 655Q72 675 87 690T123 706Q143 706 158 691T173 655Q173 636
158 620T123 604Z" />
<glyph unicode="&#x134;" glyph-name="Jcircumflex" horiz-adv-x="288" d="M11 738L131 856H160L281 738L275 726L144 787L17 726L11 738ZM5 -156Q-36 -156 -59 -139T-83 -93Q-83 -79 -73 -67T-36 -55Q-8 -55 1 -68T16 -104Q19 -117 23 -122T38 -127Q52 -127 64
-120T86 -94T101 -45T107 33V612Q107 629 106 639T101 654T90 663T70 668L27 676V693H261V676L220 668Q208 666 201 663T191 655T186 639T185 612V56Q185 10 175 -29T142 -96T86 -140T5 -156Z" />
<glyph unicode="&#x135;" glyph-name="jcircumflex" horiz-adv-x="239" d="M1 -201Q-37 -201 -53 -184T-70 -145Q-70 -130 -59 -119T-25 -107Q-5 -107 4 -115T16 -143Q19 -163 23 -168T40 -173Q62 -173 75 -155T89 -99V418Q89 431 88 439T82 453T71 462T51 472L24
485V499L161 519L167 516Q166 504 165 488Q164 474 164 455T163 411V0Q163 -58 150 -96T115 -158T63 -191T1 -201ZM254 586L366 715H395L508 586L500 575L379 646L262 575L254 586Z" />
<glyph unicode="&#x136;" glyph-name="Kcommaaccent" horiz-adv-x="599" d="M472 0Q439 36 404 78T336 166T273 259T217 350V361L426 605Q435 616 438 623T442 638Q442 649 434 655T407 666L372 676V693H579V676L553 670Q541 667 533 663T514 651T493 631T463
599L277 390Q302 348 334 301T401 208T467 123T525 56Q533 47 538 42T549 34T561 28T575 24L601 17V0H472ZM182 81Q182 64 183 54T187 39T198 30T219 25L263 17L262 0H27V17L66 25Q77 27 84 30T95 38T102 54T104 81V612Q104 629 103 639T97 654T85 663T66 668L27
676V693H262V676L219 668Q207 666 200 663T188 655T183 639T182 612V81ZM266 -197Q303 -181 317 -164T331 -124Q328 -126 323 -128T310 -131Q292 -131 282 -120T271 -91Q271 -75 284 -62T317 -49Q341 -49 356 -64T372 -111Q372 -145 348 -172T272 -211L266 -197Z"
/>
<glyph unicode="&#x137;" glyph-name="kcommaaccent" horiz-adv-x="497" d="M391 0Q360 31 334 60T283 120T233 183T181 255V259L295 391Q327 427 336 443T345 467Q345 477 326 484L309 490V505H469V489L443 480Q428 475 418 470T398 458T378 441T354 416L241
291Q285 228 339 163T445 43Q454 34 460 30T478 22L500 16V0H391ZM23 16L56 25Q78 31 83 40T89 78V657Q89 670 88 677T82 690T71 699T51 709L18 725V741L161 755L167 749Q166 733 165 715Q164 699 164 677T163 630V78Q163 49 169 40T198 25L234 16V0H23V16ZM213
-197Q250 -181 264 -164T278 -124Q275 -126 270 -128T257 -131Q239 -131 229 -120T218 -91Q218 -75 231 -62T264 -49Q288 -49 303 -64T319 -111Q319 -145 295 -172T219 -211L213 -197Z" />
<glyph unicode="&#x139;" glyph-name="Lacute" horiz-adv-x="530" d="M52 729L46 743L213 846Q229 856 243 856Q258 856 268 845T278 818Q278 804 271 794T246 779L52 729ZM27 0V17L66 25Q77 27 84 30T95 38T102 54T104 81V612Q104 629 103 639T97 654T85 663T66
668L27 676V693H262V676L219 668Q207 666 200 663T188 655T183 639T182 612V108Q182 82 184 67T197 43T232 31T299 28Q335 28 357 30T394 37T417 50T437 73Q447 85 463 121T493 206H516L504 0H27Z" />
<glyph unicode="&#x13a;" glyph-name="lacute" horiz-adv-x="245" d="M33 779L27 793L194 896Q210 906 224 906Q239 906 249 895T259 868Q259 854 252 844T227 829L33 779ZM23 16L56 25Q78 31 83 40T89 78V657Q89 670 88 677T82 690T71 699T51 709L18 725V741L160
755L167 749Q166 733 165 715Q164 699 164 677T163 630V78Q163 49 169 40T196 25L229 16V0H23V16Z" />
<glyph unicode="&#x13b;" glyph-name="Lcommaaccent" horiz-adv-x="530" d="M27 0V17L66 25Q77 27 84 30T95 38T102 54T104 81V612Q104 629 103 639T97 654T85 663T66 668L27 676V693H262V676L219 668Q207 666 200 663T188 655T183 639T182 612V108Q182 82 184
67T197 43T232 31T299 28Q335 28 357 30T394 37T417 50T437 73Q447 85 463 121T493 206H516L504 0H27ZM240 -197Q277 -181 291 -164T305 -124Q302 -126 297 -128T284 -131Q266 -131 256 -120T245 -91Q245 -75 258 -62T291 -49Q315 -49 330 -64T346 -111Q346 -145
322 -172T246 -211L240 -197Z" />
<glyph unicode="&#x13c;" glyph-name="lcommaaccent" horiz-adv-x="245" d="M23 16L56 25Q78 31 83 40T89 78V657Q89 670 88 677T82 690T71 699T51 709L18 725V741L160 755L167 749Q166 733 165 715Q164 699 164 677T163 630V78Q163 49 169 40T196 25L229 16V0H23V16ZM70
-197Q107 -181 121 -164T135 -124Q132 -126 127 -128T114 -131Q96 -131 86 -120T75 -91Q75 -75 88 -62T121 -49Q145 -49 160 -64T176 -111Q176 -145 152 -172T76 -211L70 -197Z" />
<glyph unicode="&#x13d;" glyph-name="Lcaron" horiz-adv-x="530" d="M321 519L329 666Q330 683 338 696T369 710Q384 710 395 701T406 675Q406 661 396 641L335 516L321 519ZM27 0V17L66 25Q77 27 84 30T95 38T102 54T104 81V612Q104 629 103 639T97 654T85 663T66
668L27 676V693H262V676L219 668Q207 666 200 663T188 655T183 639T182 612V108Q182 82 184 67T197 43T232 31T299 28Q335 28 357 30T394 37T417 50T437 73Q447 85 463 121T493 206H516L504 0H27Z" />
<glyph unicode="&#x13e;" glyph-name="lcaron" horiz-adv-x="245" d="M23 16L56 25Q78 31 83 40T89 78V657Q89 670 88 677T82 690T71 699T51 709L18 725V741L160 755L167 749Q166 733 165 715Q164 699 164 677T163 630V78Q163 49 169 40T196 25L229 16V0H23V16ZM470
574L477 711Q478 728 486 741T517 755Q532 755 543 746T554 720Q554 705 543 686L484 571L470 574Z" />
<glyph unicode="&#x13f;" glyph-name="Ldot" horiz-adv-x="530" d="M27 0V17L66 25Q77 27 84 30T95 38T102 54T104 81V612Q104 629 103 639T97 654T85 663T66 668L27 676V693H262V676L219 668Q207 666 200 663T188 655T183 639T182 612V108Q182 82 184 67T197
43T232 31T299 28Q335 28 357 30T394 37T417 50T437 73Q447 85 463 121T493 206H516L504 0H27ZM444 320Q423 320 408 335T392 371Q392 393 407 407T444 422Q465 422 481 408T497 371Q497 350 481 335T444 320Z" />
<glyph unicode="&#x140;" glyph-name="ldot" horiz-adv-x="276" d="M264 303Q246 303 233 316T219 347Q219 366 232 378T264 391Q282 391 295 379T309 347Q309 329 296 316T264 303ZM23 16L56 25Q78 31 83 40T89 78V657Q89 670 88 677T82 690T71 699T51 709L18
725V741L160 755L167 749Q166 733 165 715Q164 699 164 677T163 630V78Q163 49 169 40T196 25L229 16V0H23V16Z" />
<glyph unicode="&#x141;" glyph-name="Lslash" horiz-adv-x="528" d="M13 283L104 324V612Q104 629 103 639T97 654T85 663T66 668L27 676V693H262V676L219 668Q207 666 200 663T188 655T183 639T182 612V359L375 446V410L182 323V108Q182 82 184 67T197 43T232
32T299 29Q335 29 357 30T394 37T417 50T437 73Q447 85 463 121T493 206H516L504 0H27V17L66 25Q77 27 84 30T95 38T102 54T104 81V288L13 247V283Z" />
<glyph unicode="&#x142;" glyph-name="lslash" horiz-adv-x="245" d="M10 355L89 399V654Q89 667 88 674T82 687T71 696T51 706L18 722V738L160 752L167 746Q166 730 165 712Q164 696 164 674T163 627V441L245 488V453L163 407V78Q163 49 169 40T196 25L229 16V0H23V16L56
25Q78 31 83 40T89 78V365L10 321V355Z" />
<glyph unicode="&#x143;" glyph-name="Nacute" horiz-adv-x="664" d="M260 729L254 743L421 846Q437 856 451 856Q466 856 476 845T486 818Q486 804 479 794T454 779L260 729ZM143 97Q143 63 149 49T180 28L223 17V0H27V17L66 28Q88 34 96 48T104 97V612Q104 629
103 639T97 654T85 663T66 668L27 676V693H190L530 143H533V596Q533 629 527 645T496 666L446 676V693H649V676L610 666Q585 660 579 645T572 597V-5H533L146 618H143V97Z" />
<glyph unicode="&#x144;" glyph-name="nacute" horiz-adv-x="562" d="M479 78Q479 50 484 41T512 25L546 16V0H336V16L370 25Q392 31 398 40T405 78V371Q405 427 386 448T318 470Q267 470 228 459T163 438V78Q163 49 169 40T198 25L233 16V0H23V16L56 25Q78 31
83 40T89 78V418Q89 431 88 439T82 453T71 462T51 472L24 485V499L157 519L164 516L162 461H165Q183 472 205 483T251 502T299 516T346 521Q422 521 450 488T479 388V78ZM199 574L192 588L348 702Q358 709 366 711T381 714Q396 714 406 703T416 677Q416 666 410
655T383 635L199 574Z" />
<glyph unicode="&#x145;" glyph-name="Ncommaaccent" horiz-adv-x="664" d="M143 97Q143 63 149 49T180 28L223 17V0H27V17L66 28Q88 34 96 48T104 97V612Q104 629 103 639T97 654T85 663T66 668L27 676V693H190L530 143H533V596Q533 629 527 645T496 666L446
676V693H649V676L610 666Q585 660 579 645T572 597V-5H533L146 618H143V97ZM284 -197Q321 -181 335 -164T349 -124Q346 -126 341 -128T328 -131Q310 -131 300 -120T289 -91Q289 -75 302 -62T335 -49Q359 -49 374 -64T390 -111Q390 -145 366 -172T290 -211L284 -197Z"
/>
<glyph unicode="&#x146;" glyph-name="ncommaaccent" horiz-adv-x="562" d="M479 78Q479 50 484 41T512 25L546 16V0H336V16L370 25Q392 31 398 40T405 78V371Q405 427 386 448T318 470Q267 470 228 459T163 438V78Q163 49 169 40T198 25L233 16V0H23V16L56 25Q78
31 83 40T89 78V418Q89 431 88 439T82 453T71 462T51 472L24 485V499L157 519L164 516L162 461H165Q183 472 205 483T251 502T299 516T346 521Q422 521 450 488T479 388V78ZM228 -197Q265 -181 279 -164T293 -124Q290 -126 285 -128T272 -131Q254 -131 244 -120T233
-91Q233 -75 246 -62T279 -49Q303 -49 318 -64T334 -111Q334 -145 310 -172T234 -211L228 -197Z" />
<glyph unicode="&#x147;" glyph-name="Ncaron" horiz-adv-x="664" d="M485 848L365 730H336L215 848L221 860L352 799L479 860L485 848ZM143 97Q143 63 149 49T180 28L223 17V0H27V17L66 28Q88 34 96 48T104 97V612Q104 629 103 639T97 654T85 663T66 668L27 676V693H190L530
143H533V596Q533 629 527 645T496 666L446 676V693H649V676L610 666Q585 660 579 645T572 597V-5H533L146 618H143V97Z" />
<glyph unicode="&#x148;" glyph-name="ncaron" horiz-adv-x="562" d="M479 78Q479 50 484 41T512 25L546 16V0H336V16L370 25Q392 31 398 40T405 78V371Q405 427 386 448T318 470Q267 470 228 459T163 438V78Q163 49 169 40T198 25L233 16V0H23V16L56 25Q78 31
83 40T89 78V418Q89 431 88 439T82 453T71 462T51 472L24 485V499L157 519L164 516L162 461H165Q183 472 205 483T251 502T299 516T346 521Q422 521 450 488T479 388V78ZM155 705L163 715L284 643L401 715L409 705L297 575H268L155 705Z" />
<glyph unicode="&#x149;" glyph-name="napostrophe" horiz-adv-x="602" d="M-25 529Q14 548 30 569T47 621Q45 620 40 618T27 615Q8 615 -4 628T-17 661Q-17 681 -3 693T32 706Q56 706 73 688T90 640Q90 594 64 562T-19 514L-25 529ZM519 78Q519 50 524 41T552
25L586 16V0H376V16L410 25Q432 31 438 40T445 78V371Q445 427 426 448T358 470Q307 470 268 459T203 438V78Q203 49 209 40T238 25L273 16V0H63V16L96 25Q118 31 123 40T129 78V418Q129 431 128 439T122 453T111 462T91 472L64 485V499L197 519L204 516L202 461H205Q223
472 245 483T291 502T339 516T386 521Q462 521 490 488T519 388V78Z" />
<glyph unicode="&#x14a;" glyph-name="Eng" horiz-adv-x="664" d="M143 97Q143 63 149 49T180 28L223 17V0H27V17L66 28Q88 34 96 48T104 97V612Q104 629 103 639T97 654T85 663T66 668L27 676V693H190L530 143H533V596Q533 629 527 645T496 666L446 676V693H649V676L610
666Q585 660 579 645T572 597V4Q572 -70 538 -113T429 -156Q381 -156 362 -138T342 -96Q342 -78 353 -67T389 -55Q415 -55 425 -68T442 -106Q447 -126 464 -126Q490 -126 511 -98T533 -5L146 618H143V97Z" />
<glyph unicode="&#x14b;" glyph-name="eng" horiz-adv-x="548" d="M479 0Q479 -58 466 -96T431 -158T379 -191T317 -201Q279 -201 263 -184T246 -145Q246 -130 257 -119T291 -107Q311 -107 320 -115T332 -143Q335 -163 339 -168T356 -173Q378 -173 391 -155T405
-99V371Q405 427 386 448T318 470Q267 470 228 459T163 438V78Q163 49 169 40T198 25L233 16V0H23V16L56 25Q78 31 83 40T89 78V418Q89 431 88 439T82 453T71 462T51 472L24 485V499L157 519L164 516L162 461H165Q183 472 205 483T251 502T299 516T346 521Q422
521 450 488T479 388V0V0Z" />
<glyph unicode="&#x14c;" glyph-name="Omacron" horiz-adv-x="671" d="M210 799H460V755H210V799ZM330 -12Q266 -12 212 10T119 77T57 186T35 337Q35 435 60 505T127 619T224 684T341 705Q405 705 459 682T552 613T614 501T636 350Q636 252 611 184T544 72T447
8T330 -12ZM335 21Q450 21 502 100T555 335Q555 403 543 464T503 571T435 645T335 672Q220 672 168 590T116 352Q116 280 130 220T172 115T240 46T335 21Z" />
<glyph unicode="&#x14d;" glyph-name="omacron" horiz-adv-x="537" d="M268 -13Q217 -13 173 4T98 55T48 138T30 254Q30 317 49 366T102 450T178 503T268 522Q320 522 363 506T439 457T489 375T507 260Q507 197 487 147T434 61T358 6T268 -13ZM273 16Q348 16 385
76T422 245Q422 372 384 432T266 493Q115 493 115 266Q115 16 273 16ZM157 644H379V600H157V644Z" />
<glyph unicode="&#x14e;" glyph-name="Obreve" horiz-adv-x="671" d="M338 731Q310 731 289 741T252 769T229 806T220 846L231 849Q240 823 266 803T337 783Q381 783 406 803T440 849L451 846Q450 826 443 806T421 769T386 742T338 731ZM330 -12Q266 -12 212 10T119
77T57 186T35 337Q35 435 60 505T127 619T224 684T341 705Q405 705 459 682T552 613T614 501T636 350Q636 252 611 184T544 72T447 8T330 -12ZM335 21Q450 21 502 100T555 335Q555 403 543 464T503 571T435 645T335 672Q220 672 168 590T116 352Q116 280 130 220T172
115T240 46T335 21Z" />
<glyph unicode="&#x14f;" glyph-name="obreve" horiz-adv-x="537" d="M268 -13Q217 -13 173 4T98 55T48 138T30 254Q30 317 49 366T102 450T178 503T268 522Q320 522 363 506T439 457T489 375T507 260Q507 197 487 147T434 61T358 6T268 -13ZM273 16Q348 16 385
76T422 245Q422 372 384 432T266 493Q115 493 115 266Q115 16 273 16ZM271 576Q247 576 227 586T193 614T171 651T163 691L174 694Q183 668 207 648T270 628Q308 628 331 648T363 694L374 691Q374 671 367 651T346 614T314 587T271 576Z" />
<glyph unicode="&#x150;" glyph-name="Ohungarumlaut" horiz-adv-x="671" d="M244 727L232 740L313 856Q322 870 332 874T350 878Q365 878 376 869T388 843Q388 833 384 822T364 801L244 727ZM406 727L394 740L475 856Q484 870 494 874T512 878Q527 878 538 869T550
843Q550 833 546 822T526 801L406 727ZM330 -12Q266 -12 212 10T119 77T57 186T35 337Q35 435 60 505T127 619T224 684T341 705Q405 705 459 682T552 613T614 501T636 350Q636 252 611 184T544 72T447 8T330 -12ZM335 21Q450 21 502 100T555 335Q555 403 543 464T503
571T435 645T335 672Q220 672 168 590T116 352Q116 280 130 220T172 115T240 46T335 21Z" />
<glyph unicode="&#x151;" glyph-name="ohungarumlaut" horiz-adv-x="537" d="M268 -13Q217 -13 173 4T98 55T48 138T30 254Q30 317 49 366T102 450T178 503T268 522Q320 522 363 506T439 457T489 375T507 260Q507 197 487 147T434 61T358 6T268 -13ZM273 16Q348
16 385 76T422 245Q422 372 384 432T266 493Q115 493 115 266Q115 16 273 16ZM168 569L156 582L247 706Q256 719 265 723T283 727Q298 727 309 718T320 693Q320 683 316 673T297 652L168 569ZM329 569L317 582L408 706Q417 719 426 723T444 727Q459 727 470 718T481
693Q481 683 477 673T458 652L329 569Z" />
<glyph unicode="&#x152;" glyph-name="OE" horiz-adv-x="939" d="M875 693L888 526H867Q852 561 842 585T824 620Q814 635 806 644T783 657T745 663T680 665Q643 665 609 663T555 656V375H610Q639 375 660 376T697 380T722 391T737 409Q745 425 749 442T758 484H779V237H758Q753
263 749 277T737 310Q732 322 725 329T704 339T667 344T610 345H555V125Q555 89 557 70T573 41T615 30T695 28Q731 28 753 29T789 35T813 47T832 68Q837 75 844 89T858 121T873 159T887 198H910L895 0H361Q291 0 231 17T128 74T60 179T35 341Q35 427 58 492T124
602T229 670T367 693H875ZM379 29Q403 29 421 31T452 43T471 72T477 125V589Q477 615 472 630T456 653T426 663T379 665Q303 665 253 639T172 571T129 473T116 358Q116 200 178 115T379 29Z" />
<glyph unicode="&#x153;" glyph-name="oe" horiz-adv-x="869" d="M266 -13Q214 -13 171 4T96 55T48 138T30 254Q30 317 49 366T100 450T175 503T264 522Q336 522 385 493T459 402Q487 459 535 490T647 522Q693 522 729 509T789 465T825 388T838 272H498Q498 211
511 167T548 94T602 52T669 38Q729 38 766 53T830 81V53Q821 47 805 36T765 15T713 -4T649 -12Q570 -12 523 19T452 108Q425 48 377 18T266 -13ZM269 16Q344 16 378 76T413 245Q413 372 378 432T261 493Q115 493 115 267Q115 140 152 78T269 16ZM647 493Q587 493
546 446T499 302L748 314Q748 404 727 448T647 493Z" />
<glyph unicode="&#x154;" glyph-name="Racute" horiz-adv-x="597" d="M196 729L190 743L357 846Q373 856 387 856Q402 856 412 845T422 818Q422 804 415 794T390 779L196 729ZM182 81Q182 64 183 54T187 39T198 30T219 25L263 17L262 0H27V17L66 25Q77 27 84 30T95
38T102 54T104 81V612Q104 629 103 639T97 654T85 663T66 668L27 676V693H296Q402 693 452 651T503 528Q503 459 459 413T339 347V344Q360 309 385 269T435 190T485 117T530 59Q547 39 556 33T580 23L602 17V0H478Q418 78 364 162T265 331H182V81ZM243 359Q337
359 379 397T422 514Q422 558 412 587T384 633T339 658T281 665Q245 665 221 663T182 658V363Q191 362 202 361Q211 360 221 360T243 359Z" />
<glyph unicode="&#x155;" glyph-name="racute" horiz-adv-x="377" d="M23 16L56 25Q78 31 83 40T89 78V418Q89 431 88 439T82 453T71 462T51 472L24 485V499L157 519L164 514L162 457H165Q193 483 232 502T305 522Q365 522 365 469Q365 444 352 432T319 419Q295
419 285 429T272 453Q268 464 266 468T256 472Q248 472 236 468T210 457T183 442T163 424V78Q163 54 167 43T191 27L243 16V0H23V16ZM393 574L386 588L542 702Q552 709 560 711T575 714Q590 714 600 703T610 677Q610 666 604 655T577 635L393 574Z" />
<glyph unicode="&#x156;" glyph-name="Rcommaaccent" horiz-adv-x="597" d="M182 81Q182 64 183 54T187 39T198 30T219 25L263 17L262 0H27V17L66 25Q77 27 84 30T95 38T102 54T104 81V612Q104 629 103 639T97 654T85 663T66 668L27 676V693H296Q402 693 452 651T503
528Q503 459 459 413T339 347V344Q360 309 385 269T435 190T485 117T530 59Q547 39 556 33T580 23L602 17V0H478Q418 78 364 162T265 331H182V81ZM243 359Q337 359 379 397T422 514Q422 558 412 587T384 633T339 658T281 665Q245 665 221 663T182 658V363Q191 362
202 361Q211 360 221 360T243 359ZM266 -197Q303 -181 317 -164T331 -124Q328 -126 323 -128T310 -131Q292 -131 282 -120T271 -91Q271 -75 284 -62T317 -49Q341 -49 356 -64T372 -111Q372 -145 348 -172T272 -211L266 -197Z" />
<glyph unicode="&#x157;" glyph-name="rcommaaccent" horiz-adv-x="377" d="M23 16L56 25Q78 31 83 40T89 78V418Q89 431 88 439T82 453T71 462T51 472L24 485V499L157 519L164 514L162 457H165Q193 483 232 502T305 522Q365 522 365 469Q365 444 352 432T319
419Q295 419 285 429T272 453Q268 464 266 468T256 472Q248 472 236 468T210 457T183 442T163 424V78Q163 54 167 43T191 27L243 16V0H23V16ZM71 -197Q108 -181 122 -164T136 -124Q133 -126 128 -128T115 -131Q97 -131 87 -120T76 -91Q76 -75 89 -62T122 -49Q146
-49 161 -64T177 -111Q177 -145 153 -172T77 -211L71 -197Z" />
<glyph unicode="&#x158;" glyph-name="Rcaron" horiz-adv-x="597" d="M421 848L301 730H272L151 848L157 860L288 799L415 860L421 848ZM182 81Q182 64 183 54T187 39T198 30T219 25L263 17L262 0H27V17L66 25Q77 27 84 30T95 38T102 54T104 81V612Q104 629 103
639T97 654T85 663T66 668L27 676V693H296Q402 693 452 651T503 528Q503 459 459 413T339 347V344Q360 309 385 269T435 190T485 117T530 59Q547 39 556 33T580 23L602 17V0H478Q418 78 364 162T265 331H182V81ZM243 359Q337 359 379 397T422 514Q422 558 412 587T384
633T339 658T281 665Q245 665 221 663T182 658V363Q191 362 202 361Q211 360 221 360T243 359Z" />
<glyph unicode="&#x159;" glyph-name="rcaron" horiz-adv-x="377" d="M23 16L56 25Q78 31 83 40T89 78V418Q89 431 88 439T82 453T71 462T51 472L24 485V499L157 519L164 514L162 457H165Q193 483 232 502T305 522Q365 522 365 469Q365 444 352 432T319 419Q295
419 285 429T272 453Q268 464 266 468T256 472Q248 472 236 468T210 457T183 442T163 424V78Q163 54 167 43T191 27L243 16V0H23V16ZM349 705L357 715L478 643L595 715L603 705L491 575H462L349 705Z" />
<glyph unicode="&#x15a;" glyph-name="Sacute" horiz-adv-x="482" d="M144 729L138 743L305 846Q321 856 335 856Q350 856 360 845T370 818Q370 804 363 794T338 779L144 729ZM219 -13Q165 -13 118 -1T39 25L28 201H51Q62 167 73 139T101 83Q121 49 151 35T240
21Q275 21 300 31T341 60T365 101T373 149Q373 179 365 201T338 244T288 283T212 325Q180 341 150 358T97 399T59 453T45 528Q45 565 58 597T97 654T158 692T239 706Q299 706 337 697T396 680L408 523H387Q379 544 374 557T365 581T356 600T346 617Q337 631 329
641T309 659T281 669T239 673Q176 673 142 645T107 558Q107 529 114 508T137 468T179 434T242 398Q294 371 331 348T393 302T429 251T441 189Q441 147 428 111T386 47T317 3T219 -13Z" />
<glyph unicode="&#x15b;" glyph-name="sacute" horiz-adv-x="394" d="M183 -12Q137 -12 99 -5T31 13L29 158H49Q57 136 64 116T81 79Q96 51 119 34T183 17Q231 17 262 42T293 112Q293 154 265 179T179 229Q148 242 122 256T77 288T48 329T37 385Q37 418 50 443T86
486T139 513T205 522Q245 522 275 516T332 500L335 375H318Q307 399 298 419T278 455Q265 473 247 483T198 493Q146 493 122 469T97 409Q97 369 126 344T216 294Q247 282 273 269T318 238T349 199T360 148Q360 114 348 85T312 35T256 1T183 -12ZM374 574L367 588L523
702Q533 709 541 711T556 714Q571 714 581 703T591 677Q591 666 585 655T558 635L374 574Z" />
<glyph unicode="&#x15c;" glyph-name="Scircumflex" horiz-adv-x="482" d="M99 738L219 856H248L369 738L363 726L232 787L105 726L99 738ZM219 -13Q165 -13 118 -1T39 25L28 201H51Q62 167 73 139T101 83Q121 49 151 35T240 21Q275 21 300 31T341 60T365 101T373
149Q373 179 365 201T338 244T288 283T212 325Q180 341 150 358T97 399T59 453T45 528Q45 565 58 597T97 654T158 692T239 706Q299 706 337 697T396 680L408 523H387Q379 544 374 557T365 581T356 600T346 617Q337 631 329 641T309 659T281 669T239 673Q176 673
142 645T107 558Q107 529 114 508T137 468T179 434T242 398Q294 371 331 348T393 302T429 251T441 189Q441 147 428 111T386 47T317 3T219 -13Z" />
<glyph unicode="&#x15d;" glyph-name="scircumflex" horiz-adv-x="394" d="M183 -12Q137 -12 99 -5T31 13L29 158H49Q57 136 64 116T81 79Q96 51 119 34T183 17Q231 17 262 42T293 112Q293 154 265 179T179 229Q148 242 122 256T77 288T48 329T37 385Q37 418 50
443T86 486T139 513T205 522Q245 522 275 516T332 500L335 375H318Q307 399 298 419T278 455Q265 473 247 483T198 493Q146 493 122 469T97 409Q97 369 126 344T216 294Q247 282 273 269T318 238T349 199T360 148Q360 114 348 85T312 35T256 1T183 -12ZM330 586L442
715H471L584 586L576 575L455 646L338 575L330 586Z" />
<glyph unicode="&#x15e;" glyph-name="Scedilla" horiz-adv-x="482" d="M133 -185Q181 -174 201 -159T222 -125Q222 -110 208 -100T167 -88L162 -81L195 -12Q147 -10 107 1T39 25L28 201H51Q62 167 73 139T101 83Q121 49 151 35T240 21Q275 21 300 31T341 60T365
101T373 149Q373 179 365 201T338 244T288 283T212 325Q180 341 150 358T97 399T59 453T45 528Q45 565 58 597T97 654T158 692T239 706Q299 706 337 697T396 680L408 523H387Q379 544 374 557T365 581T356 600T346 617Q337 631 329 641T309 659T281 669T239 673Q176
673 142 645T107 558Q107 529 114 508T137 468T179 434T242 398Q294 371 331 348T393 302T429 251T441 189Q441 148 428 112T387 48T320 5T225 -13L202 -52Q234 -55 257 -69T280 -114Q280 -149 245 -171T133 -200V-185Z" />
<glyph unicode="&#x15f;" glyph-name="scedilla" horiz-adv-x="394" d="M95 -185Q143 -174 163 -159T184 -125Q184 -110 170 -100T129 -88L124 -81L157 -11Q119 -9 88 -3T31 13L29 158H49Q57 136 64 116T81 79Q96 51 119 34T183 17Q231 17 262 42T293 112Q293
154 265 179T179 229Q148 242 122 256T77 288T48 329T37 385Q37 418 50 443T86 486T139 513T205 522Q245 522 275 516T332 500L335 375H318Q307 399 298 419T278 455Q265 473 247 483T198 493Q146 493 122 469T97 409Q97 369 126 344T216 294Q247 282 273 269T318
238T349 199T360 148Q360 115 348 86T313 36T259 2T188 -12L164 -52Q196 -55 219 -69T242 -114Q242 -149 207 -171T95 -200V-185Z" />
<glyph unicode="&#x160;" glyph-name="Scaron" horiz-adv-x="482" d="M369 848L249 730H220L99 848L105 860L236 799L363 860L369 848ZM219 -13Q165 -13 118 -1T39 25L28 201H51Q62 167 73 139T101 83Q121 49 151 35T240 21Q275 21 300 31T341 60T365 101T373
149Q373 179 365 201T338 244T288 283T212 325Q180 341 150 358T97 399T59 453T45 528Q45 565 58 597T97 654T158 692T239 706Q299 706 337 697T396 680L408 523H387Q379 544 374 557T365 581T356 600T346 617Q337 631 329 641T309 659T281 669T239 673Q176 673
142 645T107 558Q107 529 114 508T137 468T179 434T242 398Q294 371 331 348T393 302T429 251T441 189Q441 147 428 111T386 47T317 3T219 -13Z" />
<glyph unicode="&#x161;" glyph-name="scaron" horiz-adv-x="394" d="M183 -12Q137 -12 99 -5T31 13L29 158H49Q57 136 64 116T81 79Q96 51 119 34T183 17Q231 17 262 42T293 112Q293 154 265 179T179 229Q148 242 122 256T77 288T48 329T37 385Q37 418 50 443T86
486T139 513T205 522Q245 522 275 516T332 500L335 375H318Q307 399 298 419T278 455Q265 473 247 483T198 493Q146 493 122 469T97 409Q97 369 126 344T216 294Q247 282 273 269T318 238T349 199T360 148Q360 114 348 85T312 35T256 1T183 -12ZM330 705L338 715L459
643L576 715L584 705L472 575H443L330 705Z" />
<glyph unicode="&#x162;" glyph-name="Tcommaaccent" horiz-adv-x="562" d="M320 664V81Q320 64 321 54T325 39T336 30T357 25L400 17V0H162V17L205 25Q218 27 225 30T236 38T241 54T242 81V664H213Q172 664 148 661T109 650T87 632T74 606Q67 587 59 563T40 500H16L27
693H535L546 500H522Q511 538 503 562T488 606Q482 621 475 632T454 650T415 660T349 664H320ZM227 -197Q264 -181 278 -164T292 -124Q289 -126 284 -128T271 -131Q253 -131 243 -120T232 -91Q232 -75 245 -62T278 -49Q302 -49 317 -64T333 -111Q333 -145 309 -172T233
-211L227 -197Z" />
<glyph unicode="&#x163;" glyph-name="tcommaaccent" horiz-adv-x="304" d="M180 -12Q161 -12 143 -8T110 8T86 38T77 83V469H6V485Q54 499 85 530T137 619H151V505H290L286 469H151V92Q151 61 166 47T217 32Q240 32 260 37T297 47V28Q291 24 281 17T255 4T221
-7T180 -12ZM364 -197Q401 -181 415 -164T429 -124Q426 -126 421 -128T408 -131Q390 -131 380 -120T369 -91Q369 -75 382 -62T415 -49Q439 -49 454 -64T470 -111Q470 -145 446 -172T370 -211L364 -197Z" />
<glyph unicode="&#x164;" glyph-name="Tcaron" horiz-adv-x="562" d="M416 848L296 730H267L146 848L152 860L283 799L410 860L416 848ZM320 664V81Q320 64 321 54T325 39T336 30T357 25L400 17V0H162V17L205 25Q218 27 225 30T236 38T241 54T242 81V664H213Q172
664 148 661T109 650T87 632T74 606Q67 587 59 563T40 500H16L27 693H535L546 500H522Q511 538 503 562T488 606Q482 621 475 632T454 650T415 660T349 664H320Z" />
<glyph unicode="&#x165;" glyph-name="tcaron" horiz-adv-x="304" d="M180 -12Q161 -12 143 -8T110 8T86 38T77 83V469H6V485Q54 499 85 530T137 619H151V505H290L286 469H151V92Q151 61 166 47T217 32Q240 32 260 37T297 47V28Q291 24 281 17T255 4T221 -7T180
-12ZM479 574L486 711Q487 728 495 741T526 755Q541 755 552 746T563 720Q563 705 552 686L493 571L479 574Z" />
<glyph unicode="&#x166;" glyph-name="Tbar" horiz-adv-x="562" d="M320 664V398H469V369H320V81Q320 64 321 54T325 39T336 30T357 25L400 17V0H162V17L205 25Q218 27 225 30T236 38T241 54T242 81V369H93V398H242V664H213Q172 664 148 661T109 650T87 632T74
606Q67 587 59 563T40 500H16L27 693H535L546 500H522Q511 538 503 562T488 606Q482 621 475 632T454 650T415 660T349 664H320Z" />
<glyph unicode="&#x167;" glyph-name="tbar" horiz-adv-x="304" d="M180 -12Q161 -12 143 -8T110 8T86 38T77 83V331H6V360H77V469H6V485Q54 499 85 530T137 619H151V505H290L286 469H151V360H290V331H151V92Q151 61 166 47T217 32Q240 32 260 37T297 47V28Q291
24 281 17T255 4T221 -7T180 -12Z" />
<glyph unicode="&#x168;" glyph-name="Utilde" horiz-adv-x="676" d="M211 732Q220 752 228 769T247 800T269 821T296 829Q312 829 333 825T375 816T417 806T453 802Q473 802 485 814T509 846L525 839Q516 819 507 802T488 771T466 751T439 743Q422 743 402 747T360
756T318 766T282 770Q262 770 251 758T228 726L211 732ZM172 222Q172 127 216 81T361 34Q458 34 500 85T543 229V601Q543 634 537 647T506 666L453 676V693H659V676L620 666Q595 659 589 646T582 601V220Q582 174 569 132T527 58T451 7T338 -12Q224 -12 159 45T94
226V612Q94 629 93 639T87 654T75 663T56 668L17 676V693H246V676L206 668Q194 665 187 663T177 655T173 639T172 612V222Z" />
<glyph unicode="&#x169;" glyph-name="utilde" horiz-adv-x="553" d="M214 -12Q154 -12 119 21T84 118V422Q84 449 77 459T47 478L19 489V504L149 519L158 511V135Q158 89 179 64T247 39Q289 39 330 51T400 76V423Q400 450 394 460T362 479L334 489V504L464 519L474
511V98Q474 83 475 73T481 56T493 44T512 34L540 21V8L406 -10L400 -6L402 53H398Q361 27 313 8T214 -12ZM130 582Q139 602 147 619T166 650T188 671T215 679Q230 679 248 675T286 666T322 656T352 652Q372 652 384 664T408 696L424 689Q415 669 406 652T387 621T365
601T338 593Q322 593 304 597T268 606T232 616T201 620Q181 620 170 608T147 576L130 582Z" />
<glyph unicode="&#x16a;" glyph-name="Umacron" horiz-adv-x="676" d="M235 799H485V755H235V799ZM172 222Q172 127 216 81T361 34Q458 34 500 85T543 229V601Q543 634 537 647T506 666L453 676V693H659V676L620 666Q595 659 589 646T582 601V220Q582 174 569
132T527 58T451 7T338 -12Q224 -12 159 45T94 226V612Q94 629 93 639T87 654T75 663T56 668L17 676V693H246V676L206 668Q194 665 187 663T177 655T173 639T172 612V222Z" />
<glyph unicode="&#x16b;" glyph-name="umacron" horiz-adv-x="553" d="M214 -12Q154 -12 119 21T84 118V422Q84 449 77 459T47 478L19 489V504L149 519L158 511V135Q158 89 179 64T247 39Q289 39 330 51T400 76V423Q400 450 394 460T362 479L334 489V504L464 519L474
511V98Q474 83 475 73T481 56T493 44T512 34L540 21V8L406 -10L400 -6L402 53H398Q361 27 313 8T214 -12ZM166 644H388V600H166V644Z" />
<glyph unicode="&#x16c;" glyph-name="Ubreve" horiz-adv-x="676" d="M363 731Q335 731 314 741T277 769T254 806T245 846L256 849Q265 823 291 803T362 783Q406 783 431 803T465 849L476 846Q475 826 468 806T446 769T411 742T363 731ZM172 222Q172 127 216 81T361
34Q458 34 500 85T543 229V601Q543 634 537 647T506 666L453 676V693H659V676L620 666Q595 659 589 646T582 601V220Q582 174 569 132T527 58T451 7T338 -12Q224 -12 159 45T94 226V612Q94 629 93 639T87 654T75 663T56 668L17 676V693H246V676L206 668Q194 665
187 663T177 655T173 639T172 612V222Z" />
<glyph unicode="&#x16d;" glyph-name="ubreve" horiz-adv-x="553" d="M214 -12Q154 -12 119 21T84 118V422Q84 449 77 459T47 478L19 489V504L149 519L158 511V135Q158 89 179 64T247 39Q289 39 330 51T400 76V423Q400 450 394 460T362 479L334 489V504L464 519L474
511V98Q474 83 475 73T481 56T493 44T512 34L540 21V8L406 -10L400 -6L402 53H398Q361 27 313 8T214 -12ZM280 576Q256 576 236 586T202 614T180 651T172 691L183 694Q192 668 216 648T279 628Q317 628 340 648T372 694L383 691Q383 671 376 651T355 614T323 587T280
576Z" />
<glyph unicode="&#x16e;" glyph-name="Uring" horiz-adv-x="676" d="M360 705Q320 705 298 729T275 787Q275 823 299 846T360 870Q399 870 422 846T446 787Q446 752 422 729T360 705ZM360 728Q385 728 400 745T416 788Q416 815 401 831T360 847Q335 847 320 831T305
788Q305 762 320 745T360 728ZM172 222Q172 127 216 81T361 34Q458 34 500 85T543 229V601Q543 634 537 647T506 666L453 676V693H659V676L620 666Q595 659 589 646T582 601V220Q582 174 569 132T527 58T451 7T338 -12Q224 -12 159 45T94 226V612Q94 629 93 639T87
654T75 663T56 668L17 676V693H246V676L206 668Q194 665 187 663T177 655T173 639T172 612V222Z" />
<glyph unicode="&#x16f;" glyph-name="uring" horiz-adv-x="553" d="M214 -12Q154 -12 119 21T84 118V422Q84 449 77 459T47 478L19 489V504L149 519L158 511V135Q158 89 179 64T247 39Q289 39 330 51T400 76V423Q400 450 394 460T362 479L334 489V504L464 519L474
511V98Q474 83 475 73T481 56T493 44T512 34L540 21V8L406 -10L400 -6L402 53H398Q361 27 313 8T214 -12ZM277 578Q237 578 215 602T192 660Q192 696 216 719T277 743Q316 743 339 719T363 660Q363 625 339 602T277 578ZM277 601Q302 601 317 618T333 661Q333 688
318 704T277 720Q252 720 237 704T222 661Q222 635 237 618T277 601Z" />
<glyph unicode="&#x170;" glyph-name="Uhungarumlaut" horiz-adv-x="676" d="M269 727L257 740L338 856Q347 870 357 874T375 878Q390 878 401 869T413 843Q413 833 409 822T389 801L269 727ZM431 727L419 740L500 856Q509 870 519 874T537 878Q552 878 563 869T575
843Q575 833 571 822T551 801L431 727ZM172 222Q172 127 216 81T361 34Q458 34 500 85T543 229V601Q543 634 537 647T506 666L453 676V693H659V676L620 666Q595 659 589 646T582 601V220Q582 174 569 132T527 58T451 7T338 -12Q224 -12 159 45T94 226V612Q94 629
93 639T87 654T75 663T56 668L17 676V693H246V676L206 668Q194 665 187 663T177 655T173 639T172 612V222Z" />
<glyph unicode="&#x171;" glyph-name="uhungarumlaut" horiz-adv-x="553" d="M214 -12Q154 -12 119 21T84 118V422Q84 449 77 459T47 478L19 489V504L149 519L158 511V135Q158 89 179 64T247 39Q289 39 330 51T400 76V423Q400 450 394 460T362 479L334 489V504L464
519L474 511V98Q474 83 475 73T481 56T493 44T512 34L540 21V8L406 -10L400 -6L402 53H398Q361 27 313 8T214 -12ZM177 569L165 582L256 706Q265 719 274 723T292 727Q307 727 318 718T329 693Q329 683 325 673T306 652L177 569ZM338 569L326 582L417 706Q426 719
435 723T453 727Q468 727 479 718T490 693Q490 683 486 673T467 652L338 569Z" />
<glyph unicode="&#x172;" glyph-name="Uogonek" horiz-adv-x="676" d="M382 -200Q346 -200 319 -181T292 -130Q292 -110 302 -92T326 -59T357 -31T388 -9Q365 -12 338 -12Q224 -12 159 45T94 226V612Q94 629 93 639T87 654T75 663T56 668L17 676V693H246V676L206
668Q194 665 187 663T177 655T173 639T172 612V222Q172 127 216 81T361 34Q458 34 500 85T543 229V601Q543 634 537 647T506 666L453 676V693H659V676L620 666Q595 659 589 646T582 601V220Q582 155 556 100T469 15Q448 4 427 -9T390 -37T363 -72T353 -116Q353
-139 368 -153T406 -167Q432 -167 454 -156V-172Q440 -186 421 -193T382 -200Z" />
<glyph unicode="&#x173;" glyph-name="uogonek" horiz-adv-x="553" d="M390 -200Q354 -200 327 -181T300 -130Q300 -110 310 -92T336 -57T369 -29T400 -7L402 53H398Q361 27 313 8T214 -12Q154 -12 119 21T84 118V422Q84 449 77 459T47 478L19 489V504L149 519L158
511V135Q158 89 179 64T247 39Q289 39 330 51T400 76V423Q400 450 394 460T362 479L334 489V504L464 519L474 511V98Q474 83 475 73T481 56T493 44T512 34L540 21V8L495 2Q452 -4 426 -17T386 -48T366 -83T361 -116Q361 -139 376 -153T414 -167Q440 -167 462 -156V-172Q448
-186 429 -193T390 -200Z" />
<glyph unicode="&#x174;" glyph-name="Wcircumflex" horiz-adv-x="915" d="M320 738L440 856H469L590 738L584 726L453 787L326 726L320 738ZM87 576Q78 604 71 621T58 648T44 662T26 669L-3 676V693H222V676L188 669Q171 665 163 658T155 634Q155 615 169 573L313
123H318L449 520L432 571Q422 601 415 619T401 647T386 662T368 669L339 676V693H561V676L531 670Q516 667 508 659T499 632Q499 622 502 608T512 573L657 123H662L785 562Q791 585 794 602T798 632Q798 647 792 654T769 667L735 676V693H918V676L885 667Q873 664
866 658T852 639T839 607T825 560L661 0H623L468 461H465L311 0H276L87 576Z" />
<glyph unicode="&#x175;" glyph-name="wcircumflex" horiz-adv-x="726" d="M67 418Q55 452 47 463T22 479L-8 489V505H193V489L166 482Q149 477 145 470T141 452Q141 441 144 429T153 402L251 106H254L351 385L339 418Q330 446 320 460T293 481L267 489V505H449V489L422
482Q408 478 406 471T403 453Q403 444 406 432T416 402L518 106H522L619 402Q631 442 630 459Q629 469 622 473T601 482L575 489V505H734V489L708 482Q697 479 691 474T679 461T670 440T658 408L516 0H485L368 337H366L249 0H215L67 418ZM236 586L348 715H377L490
586L482 575L361 646L244 575L236 586Z" />
<glyph unicode="&#x176;" glyph-name="Ycircumflex" horiz-adv-x="582" d="M181 738L301 856H330L451 738L445 726L314 787L187 726L181 738ZM263 278L86 598Q74 619 67 632T53 652T40 662T23 669L-4 676V693H222V676L188 668Q174 665 166 661T155 648T155 627T170
594L319 318H322L450 586Q461 608 464 622T465 646T452 659T427 668L394 676V693H586V676L562 668Q550 664 541 659T523 644T503 614T477 564L341 288V81Q341 64 342 54T346 39T357 30T378 25L421 17V0H183V17L226 25Q239 27 246 30T257 38T262 54T263 81V278Z"
/>
<glyph unicode="&#x177;" glyph-name="ycircumflex" horiz-adv-x="478" d="M78 -205Q38 -205 22 -188T5 -149Q5 -126 18 -115T53 -103Q76 -103 85 -113T100 -138Q105 -150 108 -153T118 -157Q138 -157 157 -132T194 -67L222 1L67 418Q60 436 55 447T45 464T34
474T18 481L-8 489V505H187V489L161 482Q145 477 140 471T135 453Q135 442 139 430T148 403L260 101H264L370 402Q383 441 382 460Q381 469 374 473T353 482L327 489V505H486V489L456 481Q447 479 442 475T432 463T422 441T409 408L245 -34Q233 -66 221 -96T190
-151T145 -190T78 -205ZM138 586L250 715H279L392 586L384 575L263 646L146 575L138 586Z" />
<glyph unicode="&#x178;" glyph-name="Ydieresis" horiz-adv-x="582" d="M224 739Q203 739 190 753T176 787Q176 807 189 821T224 835Q245 835 258 821T272 787Q272 768 259 754T224 739ZM408 739Q387 739 374 753T360 787Q360 807 373 821T408 835Q429 835 442
821T456 787Q456 768 443 754T408 739ZM263 278L86 598Q74 619 67 632T53 652T40 662T23 669L-4 676V693H222V676L188 668Q174 665 166 661T155 648T155 627T170 594L319 318H322L450 586Q461 608 464 622T465 646T452 659T427 668L394 676V693H586V676L562 668Q550
664 541 659T523 644T503 614T477 564L341 288V81Q341 64 342 54T346 39T357 30T378 25L421 17V0H183V17L226 25Q239 27 246 30T257 38T262 54T263 81V278Z" />
<glyph unicode="&#x179;" glyph-name="Zacute" horiz-adv-x="535" d="M198 729L192 743L359 846Q375 856 389 856Q404 856 414 845T424 818Q424 804 417 794T392 779L198 729ZM25 29L422 661V665H342Q279 665 240 664T178 659T142 645T120 619Q109 599 99 572T77
512H57L69 693H506V665L113 32V28H185Q256 28 301 30T373 38T412 53T432 74Q441 91 452 118T482 197H504L488 0H25V29Z" />
<glyph unicode="&#x17a;" glyph-name="zacute" horiz-adv-x="441" d="M22 18L328 475V479H222Q190 479 172 478T142 472T123 458T107 435Q99 422 90 405T68 356H51L56 505H424V490L116 30V26H206Q248 26 273 28T314 36T339 52T357 78Q370 99 378 119T395 162H413L404
0H22V18ZM154 574L147 588L303 702Q313 709 321 711T336 714Q351 714 361 703T371 677Q371 666 365 655T338 635L154 574Z" />
<glyph unicode="&#x17b;" glyph-name="Zdotaccent" horiz-adv-x="535" d="M289 739Q268 739 253 755T238 790Q238 810 253 825T289 841Q309 841 324 826T339 790Q339 771 324 755T289 739ZM25 29L422 661V665H342Q279 665 240 664T178 659T142 645T120 619Q109
599 99 572T77 512H57L69 693H506V665L113 32V28H185Q256 28 301 30T373 38T412 53T432 74Q441 91 452 118T482 197H504L488 0H25V29Z" />
<glyph unicode="&#x17c;" glyph-name="zdotaccent" horiz-adv-x="441" d="M22 18L328 475V479H222Q190 479 172 478T142 472T123 458T107 435Q99 422 90 405T68 356H51L56 505H424V490L116 30V26H206Q248 26 273 28T314 36T339 52T357 78Q370 99 378 119T395 162H413L404
0H22V18ZM495 604Q474 604 459 620T444 655Q444 675 459 690T495 706Q515 706 530 691T545 655Q545 636 530 620T495 604Z" />
<glyph unicode="&#x17d;" glyph-name="Zcaron" horiz-adv-x="535" d="M423 848L303 730H274L153 848L159 860L290 799L417 860L423 848ZM25 29L422 661V665H342Q279 665 240 664T178 659T142 645T120 619Q109 599 99 572T77 512H57L69 693H506V665L113 32V28H185Q256
28 301 30T373 38T412 53T432 74Q441 91 452 118T482 197H504L488 0H25V29Z" />
<glyph unicode="&#x17e;" glyph-name="zcaron" horiz-adv-x="441" d="M22 18L328 475V479H222Q190 479 172 478T142 472T123 458T107 435Q99 422 90 405T68 356H51L56 505H424V490L116 30V26H206Q248 26 273 28T314 36T339 52T357 78Q370 99 378 119T395 162H413L404
0H22V18ZM110 705L118 715L239 643L356 715L364 705L252 575H223L110 705Z" />
<glyph unicode="&#x192;" glyph-name="florin" horiz-adv-x="375" d="M28 385H113L131 510Q138 562 156 598T199 657T252 690T310 701Q355 701 382 685T409 639Q409 596 366 596Q344 596 335 607T321 642Q318 662 312 667T294 673Q282 673 271 669T249 653T231
618T218 560L192 385H292V355H188L138 11Q130 -45 113 -84T73 -148T27 -184T-20 -195Q-62 -195 -84 -179T-107 -137Q-107 -123 -98 -113T-68 -103Q-51 -103 -43 -111T-31 -135Q-25 -158 -21 -164T-4 -171Q2 -171 8 -169T21 -158T33 -135T43 -94L108 355H28V385Z"
/>
<glyph unicode="&#x1fa;" glyph-name="Aringacute" horiz-adv-x="625" d="M228 899L222 913L389 1016Q405 1026 419 1026Q434 1026 444 1015T454 988Q454 974 447 964T422 949L228 899ZM318 725Q278 725 256 749T233 807Q233 843 257 866T318 890Q357 890 380
866T404 807Q404 772 380 749T318 725ZM318 748Q343 748 358 765T374 808Q374 835 359 851T318 867Q293 867 278 851T263 808Q263 782 278 765T318 748ZM-2 17L29 27Q38 30 44 33T57 47T72 75T91 125L299 693H339L538 111Q547 85 554 69T569 44T585 30T604 23L628
17V0H406V17L428 23Q445 27 454 32T465 48T465 74T452 118L406 253H178L132 118Q123 91 121 75T122 49T135 34T159 25L188 17V0H-3L-2 17ZM189 284H396L296 582H291L189 284Z" />
<glyph unicode="&#x1fb;" glyph-name="aringacute" horiz-adv-x="467" d="M131 759L125 773L292 876Q308 886 322 886Q337 886 347 875T357 848Q357 834 350 824T325 809L131 759ZM171 -13Q102 -13 63 20T23 113Q23 146 36 169T68 207T112 232T157 247L310 283V390Q310
413 308 432T295 465T264 486T209 494Q173 494 161 485T145 453Q143 443 142 433T136 415T123 402T100 397Q73 397 63 411T53 441Q53 464 71 479T116 504T171 518T223 522Q310 522 347 489T384 395V77Q384 59 390 49T405 32Q415 25 428 23T459 20V7Q448 -1 426
-6T385 -12Q350 -12 333 5T312 45H307Q289 20 251 4T171 -13ZM200 29Q241 29 269 45T310 83V244L236 236Q173 229 137 204T101 122Q101 80 126 55T200 29ZM221 578Q181 578 159 602T136 660Q136 696 160 719T221 743Q260 743 283 719T307 660Q307 625 283 602T221
578ZM221 601Q246 601 261 618T277 661Q277 688 262 704T221 720Q196 720 181 704T166 661Q166 635 181 618T221 601Z" />
<glyph unicode="&#x1fc;" glyph-name="AEacute" horiz-adv-x="878" d="M507 729L501 743L668 846Q684 856 698 856Q713 856 723 845T733 818Q733 804 726 794T701 779L507 729ZM348 17L387 25Q398 27 405 30T416 38T423 54T425 81V240H215L151 120Q125 72 126
52T159 24L187 17V0H-7V17L16 24Q32 29 43 34T64 50T86 79T115 128L413 659Q408 662 402 664T387 668L343 676V693H814L827 526H806Q791 561 781 584T763 619Q753 634 745 643T722 657T684 663T619 665Q582 665 551 663T503 656V375H549Q578 375 599 376T636 380T661
391T676 409Q684 425 688 442T697 484H718V237H697Q692 263 688 277T676 310Q671 322 664 329T643 339T606 344T549 345H503V125Q503 89 506 70T521 41T560 30T634 28Q670 28 692 29T728 35T752 47T771 68Q776 75 783 89T797 121T812 159T826 198H849L834 0H348V17ZM233
272H425V621H422L233 272Z" />
<glyph unicode="&#x1fd;" glyph-name="aeacute" horiz-adv-x="745" d="M526 -12Q459 -12 416 12T347 81H343Q327 63 311 47T275 17T229 -5T169 -13Q102 -13 63 21T23 118Q23 149 36 173T71 216T121 246T178 265L308 292V390Q308 413 306 432T293 465T262 486T207
494Q171 494 159 485T142 453Q140 443 139 433T134 415T121 402T97 397Q71 397 61 411T51 440Q51 464 69 479T114 504T169 518T221 522Q290 522 324 503T370 448Q427 522 526 522Q571 522 606 509T665 465T701 386T713 267H385Q386 148 431 93T547 38Q577 38 600
42T642 53T676 67T705 81V53Q696 47 680 36T641 15T589 -4T526 -12ZM196 29Q236 29 268 47T335 105Q321 137 315 175T308 257L239 250Q174 243 138 212T101 123Q101 78 127 54T196 29ZM524 493Q462 493 426 444T385 292L623 303Q623 398 603 445T524 493ZM305 574L298
588L454 702Q464 709 472 711T487 714Q502 714 512 703T522 677Q522 666 516 655T489 635L305 574Z" />
<glyph unicode="&#x1fe;" glyph-name="Oslashacute" horiz-adv-x="671" d="M245 729L239 743L406 846Q422 856 436 856Q451 856 461 845T471 818Q471 804 464 794T439 779L245 729ZM330 -12Q242 -12 175 29L120 -64H80L147 49Q94 92 65 164T35 337Q35 435 60 505T127
619T224 684T341 705Q389 705 430 692T507 654L552 730H592L534 632Q582 587 609 516T636 350Q636 252 611 184T544 72T447 8T330 -12ZM116 352Q116 274 131 211T178 102L479 607Q453 637 418 654T335 672Q220 672 168 590T116 352ZM335 21Q450 21 502 100T555
335Q555 405 542 467T501 577L202 73Q228 48 260 35T335 21Z" />
<glyph unicode="&#x1ff;" glyph-name="oslashacute" horiz-adv-x="537" d="M123 32Q79 64 55 120T30 254Q30 317 49 366T102 450T178 503T268 522Q335 522 388 495L427 563H463L414 478Q457 446 482 392T507 260Q507 197 487 147T434 61T358 6T268 -13Q203 -13
149 15L104 -64H68L123 32ZM117 277Q117 206 125 158T150 79L367 459Q349 477 324 485T266 493Q118 493 117 277ZM273 16Q348 16 384 72T420 235Q420 306 413 353T388 431L170 51Q189 32 214 24T273 16ZM185 574L178 588L334 702Q344 709 352 711T367 714Q382 714
392 703T402 677Q402 666 396 655T369 635L185 574Z" />
<glyph unicode="&#x218;" glyph-name="Scommaaccent" horiz-adv-x="482" d="M219 -13Q165 -13 118 -1T39 25L28 201H51Q62 167 73 139T101 83Q121 49 151 35T240 21Q275 21 300 31T341 60T365 101T373 149Q373 179 365 201T338 244T288 283T212 325Q180 341 150
358T97 399T59 453T45 528Q45 565 58 597T97 654T158 692T239 706Q299 706 337 697T396 680L408 523H387Q379 544 374 557T365 581T356 600T346 617Q337 631 329 641T309 659T281 669T239 673Q176 673 142 645T107 558Q107 529 114 508T137 468T179 434T242 398Q294
371 331 348T393 302T429 251T441 189Q441 147 428 111T386 47T317 3T219 -13ZM437 -197Q474 -181 488 -164T502 -124Q499 -126 494 -128T481 -131Q463 -131 453 -120T442 -91Q442 -75 455 -62T488 -49Q512 -49 527 -64T543 -111Q543 -145 519 -172T443 -211L437
-197Z" />
<glyph unicode="&#x219;" glyph-name="scommaaccent" horiz-adv-x="394" d="M183 -12Q137 -12 99 -5T31 13L29 158H49Q57 136 64 116T81 79Q96 51 119 34T183 17Q231 17 262 42T293 112Q293 154 265 179T179 229Q148 242 122 256T77 288T48 329T37 385Q37 418
50 443T86 486T139 513T205 522Q245 522 275 516T332 500L335 375H318Q307 399 298 419T278 455Q265 473 247 483T198 493Q146 493 122 469T97 409Q97 369 126 344T216 294Q247 282 273 269T318 238T349 199T360 148Q360 114 348 85T312 35T256 1T183 -12ZM384
-197Q421 -181 435 -164T449 -124Q446 -126 441 -128T428 -131Q410 -131 400 -120T389 -91Q389 -75 402 -62T435 -49Q459 -49 474 -64T490 -111Q490 -145 466 -172T390 -211L384 -197Z" />
<glyph unicode="&#x237;" glyph-name="uni0237" horiz-adv-x="239" d="M1 -201Q-37 -201 -53 -184T-70 -145Q-70 -130 -59 -119T-25 -107Q-5 -107 4 -115T16 -143Q19 -163 23 -168T40 -173Q62 -173 75 -155T89 -99V418Q89 431 88 439T82 453T71 462T51 472L24
485V499L161 519L167 516Q166 504 165 488Q164 474 164 455T163 411V0Q163 -58 150 -96T115 -158T63 -191T1 -201Z" />
<glyph unicode="&#x2c6;" glyph-name="circumflex" horiz-adv-x="474" d="M110 586L222 715H251L364 586L356 575L235 646L118 575L110 586Z" />
<glyph unicode="&#x2c7;" glyph-name="caron" horiz-adv-x="474" d="M110 705L118 715L239 643L356 715L364 705L252 575H223L110 705Z" />
<glyph unicode="&#x2d8;" glyph-name="breve" horiz-adv-x="481" d="M243 576Q219 576 199 586T165 614T143 651T135 691L146 694Q155 668 179 648T242 628Q280 628 303 648T335 694L346 691Q346 671 339 651T318 614T286 587T243 576Z" />
<glyph unicode="&#x2d9;" glyph-name="dotaccent" horiz-adv-x="541" d="M271 604Q250 604 235 620T220 655Q220 675 235 690T271 706Q291 706 306 691T321 655Q321 636 306 620T271 604Z" />
<glyph unicode="&#x2da;" glyph-name="ring" horiz-adv-x="492" d="M246 578Q206 578 184 602T161 660Q161 696 185 719T246 743Q285 743 308 719T332 660Q332 625 308 602T246 578ZM246 601Q271 601 286 618T302 661Q302 688 287 704T246 720Q221 720 206 704T191
661Q191 635 206 618T246 601Z" />
<glyph unicode="&#x2db;" glyph-name="ogonek" horiz-adv-x="518" d="M283 -200Q247 -200 220 -181T193 -130Q193 -109 205 -89T235 -51T271 -21T300 0H316Q292 -29 273 -56T254 -116Q254 -139 269 -153T307 -167Q333 -167 355 -156V-172Q341 -186 322 -193T283 -200Z" />
<glyph unicode="&#x2dc;" glyph-name="tilde" horiz-adv-x="494" d="M100 582Q109 602 117 619T136 650T158 671T185 679Q200 679 218 675T256 666T292 656T322 652Q342 652 354 664T378 696L394 689Q385 669 376 652T357 621T335 601T308 593Q292 593 274 597T238
606T202 616T171 620Q151 620 140 608T117 576L100 582Z" />
<glyph unicode="&#x2dd;" glyph-name="hungarumlaut" horiz-adv-x="497" d="M112 569L100 582L191 706Q200 719 209 723T227 727Q242 727 253 718T264 693Q264 683 260 673T241 652L112 569ZM273 569L261 582L352 706Q361 719 370 723T388 727Q403 727 414 718T425
693Q425 683 421 673T402 652L273 569Z" />
</font>
</defs>
</svg>
